<svg width="16" height="14" viewBox="0 0 16 14" fill="none" xmlns="http://www.w3.org/2000/svg">
<path d="M15.3125 0.830079H11.2906C10.4275 0.830079 9.58379 1.07793 8.85781 1.54551L8 2.0957L7.14219 1.54551C6.41693 1.07802 5.57224 0.829617 4.70937 0.830079H0.6875C0.376367 0.830079 0.125 1.08145 0.125 1.39258V11.377C0.125 11.6881 0.376367 11.9395 0.6875 11.9395H4.70937C5.57246 11.9395 6.41621 12.1873 7.14219 12.6549L7.92266 13.1576C7.94551 13.1717 7.97187 13.1805 7.99824 13.1805C8.02461 13.1805 8.05098 13.1734 8.07383 13.1576L8.8543 12.6549C9.58203 12.1873 10.4275 11.9395 11.2906 11.9395H15.3125C15.6236 11.9395 15.875 11.6881 15.875 11.377V1.39258C15.875 1.08145 15.6236 0.830079 15.3125 0.830079ZM4.70937 10.6738H1.39062V2.0957H4.70937C5.33164 2.0957 5.93633 2.27324 6.4584 2.60899L7.31621 3.15918L7.4375 3.23828V11.3594C6.60078 10.9094 5.66562 10.6738 4.70937 10.6738ZM14.6094 10.6738H11.2906C10.3344 10.6738 9.39922 10.9094 8.5625 11.3594V3.23828L8.68379 3.15918L9.5416 2.60899C10.0637 2.27324 10.6684 2.0957 11.2906 2.0957H14.6094V10.6738ZM5.97676 4.3457H2.71074C2.64219 4.3457 2.58594 4.40547 2.58594 4.47754V5.26855C2.58594 5.34063 2.64219 5.40039 2.71074 5.40039H5.975C6.04355 5.40039 6.0998 5.34063 6.0998 5.26855V4.47754C6.10156 4.40547 6.04531 4.3457 5.97676 4.3457ZM9.89844 4.47754V5.26855C9.89844 5.34063 9.95469 5.40039 10.0232 5.40039H13.2875C13.3561 5.40039 13.4123 5.34063 13.4123 5.26855V4.47754C13.4123 4.40547 13.3561 4.3457 13.2875 4.3457H10.0232C9.95469 4.3457 9.89844 4.40547 9.89844 4.47754ZM5.97676 6.80664H2.71074C2.64219 6.80664 2.58594 6.86641 2.58594 6.93848V7.72949C2.58594 7.80156 2.64219 7.86133 2.71074 7.86133H5.975C6.04355 7.86133 6.0998 7.80156 6.0998 7.72949V6.93848C6.10156 6.86641 6.04531 6.80664 5.97676 6.80664ZM13.2893 6.80664H10.0232C9.95469 6.80664 9.89844 6.86641 9.89844 6.93848V7.72949C9.89844 7.80156 9.95469 7.86133 10.0232 7.86133H13.2875C13.3561 7.86133 13.4123 7.80156 13.4123 7.72949V6.93848C13.4141 6.86641 13.3578 6.80664 13.2893 6.80664Z" fill="#0072B1"/>
</svg>
