<svg width="175" height="156" viewBox="0 0 175 156" fill="none" xmlns="http://www.w3.org/2000/svg">
<path opacity="0.2" d="M87.3132 155.92C135.535 155.92 174.626 133.352 174.626 105.514C174.626 77.675 135.535 55.1073 87.3132 55.1073C39.0914 55.1073 0 77.675 0 105.514C0 133.352 39.0914 155.92 87.3132 155.92Z" fill="#F55B28" fill-opacity="0.15"/>
<g style="mix-blend-mode:multiply" opacity="0.5">
<g style="mix-blend-mode:multiply" opacity="0.5">
<path d="M137.065 130.236L135.699 131.033L123.597 124.045L121.226 125.412L112.229 120.235C112.364 120.018 112.488 119.8 112.602 119.573C113.031 118.653 113.191 117.63 113.065 116.623C112.939 115.616 112.531 114.665 111.888 113.879L115.19 111.974L113.254 110.866L114.662 110.048L108.057 106.228L106.649 107.046L104.714 105.928L99.9721 108.703C92.5596 108.133 85.3957 110.773 83.408 115.08C82.8973 116.139 82.7622 117.34 83.025 118.486L78.4492 121.126L80.3747 122.161L78.3042 123.341L84.9091 127.161L86.9796 125.981L88.9052 127.089L92.011 125.267C92.6934 125.441 93.3845 125.579 94.0815 125.681C98.2594 126.349 102.539 125.925 106.504 124.449L114.652 129.149L112.385 130.453L124.487 137.441L123.172 138.197L126.609 140.185L140.513 132.224L137.065 130.236ZM127.21 135.93L123.213 133.621L129.011 130.277L133.007 132.575L127.21 135.93Z" fill="#005E7A"/>
</g>
<g style="mix-blend-mode:multiply" opacity="0.5">
<path d="M77.7247 119.697C81.5966 118.465 75.8613 114.428 73.884 113.227C69.598 110.597 66.1506 108.268 61.0779 108.609C53.3688 109.291 45.9473 111.866 39.4722 116.105C38.68 116.592 38.011 117.256 37.5172 118.044C37.0234 118.832 36.7182 119.724 36.6252 120.649C36.5102 121.894 36.7264 123.148 37.2518 124.282C37.7772 125.417 38.5932 126.392 39.6171 127.109C42.1017 128.921 45.7251 131.25 46.6361 131.385C49.2953 131.751 52.0025 131.528 54.5661 130.733C57.3406 129.698 49.7522 124.335 56.3364 121.674C62.9206 119.014 76.3789 120.09 77.7247 119.697Z" fill="#005E7A"/>
</g>
</g>
<path d="M137.078 106.052L136.074 105.473L137.306 102.708L138.31 103.288L137.078 106.052Z" fill="#C6CBCC"/>
<path d="M137.08 105.949V106.052L137.09 107.481V108.247L136.645 108.506L136.635 106.208L137.08 105.949Z" fill="#2D2D2A"/>
<path d="M136.644 108.506L135.64 107.916L135.63 105.618L136.634 106.208L136.644 108.506Z" fill="#222220"/>
<path d="M136.634 106.207L135.63 105.617L136.075 105.369L137.079 105.949L136.634 106.207Z" fill="#444442"/>
<path d="M138.299 99.5923L137.295 99.0126L138.403 98.3707L139.407 98.9505L138.299 99.5923Z" fill="#858C8F"/>
<path d="M138.31 103.288L137.305 102.709L137.295 99.0127L138.299 99.5924L138.31 103.288Z" fill="#8D9699"/>
<path d="M139.409 98.9506L139.419 103.433L137.09 107.481L137.079 106.052L138.311 103.288L138.301 99.5924L139.409 98.9506Z" fill="#B6BDBE"/>
<path d="M131.643 111.384L130.638 110.804V110.038L131.643 110.618V111.384Z" fill="#222220"/>
<path d="M131.643 110.618L130.638 110.038V108.61L131.643 109.2V110.618Z" fill="#222220"/>
<path d="M132.077 108.837V111.136L131.642 111.384V110.618V109.2V109.096L132.077 108.837Z" fill="#2D2D2A"/>
<path d="M131.643 109.2L130.638 108.61V108.506L131.643 109.096V109.2Z" fill="#222220"/>
<path d="M131.643 109.096L130.638 108.506L131.073 108.258L132.077 108.837L131.643 109.096Z" fill="#444442"/>
<path d="M129.283 104.8L128.278 104.22L129.376 103.588L130.38 104.168L129.283 104.8Z" fill="#858C8F"/>
<path d="M129.293 109.283L128.289 108.693L128.278 104.22L129.282 104.8L129.293 109.283Z" fill="#8D9699"/>
<path d="M130.381 104.168L130.391 107.864L131.644 109.2V110.618L129.294 109.282L129.283 104.8L130.381 104.168Z" fill="#B6BDBE"/>
<path d="M129.375 105.742L126.673 104.179L126.663 101.404L129.375 102.978V105.742Z" fill="#A3A7A8"/>
<path d="M129.375 102.978L126.663 101.404L129.344 95.8757L132.046 97.4493L129.375 102.978Z" fill="#B2B9BB"/>
<path d="M132.046 97.4494L129.344 95.8758L134.355 92.9874L137.057 94.561L132.046 97.4494Z" fill="#E9ECED"/>
<path d="M137.056 94.5612L139.758 96.9837L139.768 99.7478L129.374 105.742V102.978L132.045 97.4495L137.056 94.5612Z" fill="#D6DCDD"/>
<path d="M109.684 119.438C104.508 122.42 96.1635 122.42 90.9873 119.438C88.3577 117.916 87.043 115.929 87.0533 113.941V117.047C87.0533 119.024 88.3681 121.012 90.9976 122.534C96.1739 125.526 104.549 125.526 109.694 122.534C112.282 121.033 113.566 119.076 113.576 117.119V114.014C113.597 115.949 112.272 117.937 109.684 119.438Z" fill="url(#paint0_linear)"/>
<path d="M109.673 108.578C104.497 105.566 96.0701 105.566 90.8835 108.578C85.6969 111.591 85.7693 116.426 90.987 119.438C96.2047 122.451 104.549 122.42 109.684 119.438C114.819 116.457 114.85 111.57 109.673 108.578Z" fill="#E9ECED"/>
<path d="M105.944 103.412C104.2 104.298 102.272 104.759 100.317 104.759C98.3615 104.759 96.4337 104.298 94.6903 103.412C94.0378 103.121 93.4743 102.662 93.0577 102.082C92.6411 101.502 92.3863 100.821 92.3196 100.11V112.471C92.3196 113.661 93.1064 114.852 94.6903 115.773C96.4324 116.657 98.3583 117.118 100.312 117.118C102.265 117.118 104.191 116.657 105.933 115.773C106.576 115.484 107.131 115.03 107.542 114.458C107.953 113.885 108.205 113.214 108.273 112.512V100.151C108.207 100.852 107.957 101.523 107.548 102.096C107.139 102.669 106.585 103.123 105.944 103.412Z" fill="url(#paint1_linear)"/>
<path d="M105.935 96.8797C104.185 95.9855 102.248 95.5193 100.283 95.5193C98.3177 95.5193 96.3805 95.9855 94.6304 96.8797C91.5247 98.6707 91.5247 101.59 94.6926 103.412C96.4359 104.298 98.3637 104.759 100.319 104.759C102.275 104.759 104.202 104.298 105.946 103.412C109.072 101.59 109.052 98.6707 105.935 96.8797Z" fill="#E9ECED"/>
<path d="M93.6783 83.8563V99.851C93.7323 100.442 93.9431 101.008 94.2889 101.49C94.6347 101.972 95.1029 102.354 95.6453 102.594C97.0903 103.323 98.6859 103.702 100.304 103.702C101.922 103.702 103.518 103.323 104.963 102.594C105.495 102.354 105.954 101.978 106.294 101.504C106.634 101.029 106.842 100.473 106.899 99.8924V83.9184C106.919 84.8916 93.6783 84.8916 93.6783 83.8563Z" fill="url(#paint2_linear)"/>
<path d="M139.323 69.6423C139.203 69.3726 139.05 69.1187 138.867 68.8866L138.774 68.783C138.6 68.5789 138.393 68.4041 138.163 68.2654C137.928 68.111 137.646 68.045 137.366 68.0791C137.291 68.0975 137.218 68.1253 137.149 68.1619L135.875 68.8969C136.042 68.8213 136.225 68.791 136.407 68.8092C136.589 68.8274 136.763 68.8934 136.911 69.0004C137.142 69.142 137.351 69.3163 137.532 69.5181L137.615 69.6216C137.797 69.8538 137.95 70.1076 138.07 70.3773C138.222 70.6456 138.307 70.9466 138.318 71.2548C138.329 71.5631 138.265 71.8693 138.132 72.1476C138.069 72.2298 137.992 72.2999 137.905 72.3547L139.178 71.6093C139.264 71.5611 139.339 71.4938 139.395 71.4126C139.529 71.1342 139.593 70.8271 139.58 70.5184C139.568 70.2097 139.479 69.9088 139.323 69.6423Z" fill="#363633"/>
<path d="M137.594 69.6216C137.4 69.3732 137.161 69.1627 136.89 69.0005C136.404 68.721 135.928 68.7313 135.658 69.104C135.497 69.5291 135.459 69.9916 135.551 70.4372C135.643 70.8828 135.859 71.293 136.176 71.6197C136.368 71.8736 136.607 72.0881 136.88 72.2512C137.367 72.5307 137.843 72.5203 138.112 72.1476C138.276 71.7211 138.315 71.2566 138.223 70.8089C138.131 70.3612 137.913 69.9492 137.594 69.6216Z" fill="#222220"/>
<path d="M137.253 70.0563C137.143 69.9141 137.01 69.7916 136.859 69.694C136.756 69.6132 136.626 69.5747 136.495 69.5862C136.364 69.5978 136.243 69.6585 136.155 69.7561C136.062 69.9987 136.039 70.263 136.09 70.5179C136.142 70.7727 136.265 71.0077 136.445 71.1951C136.558 71.3348 136.695 71.4539 136.849 71.5471C137.128 71.7127 137.397 71.7024 137.542 71.485C137.638 71.2444 137.661 70.9813 137.61 70.7276C137.558 70.474 137.434 70.2408 137.253 70.0563Z" fill="#B2B9BB"/>
<path d="M132.655 56.3599C132.535 56.0902 132.382 55.8364 132.2 55.6042L132.107 55.5007C131.935 55.2936 131.728 55.1184 131.496 54.9831C131.261 54.8287 130.978 54.7627 130.699 54.7967C130.623 54.8134 130.549 54.8413 130.481 54.8795L129.208 55.6146C129.374 55.5389 129.558 55.5087 129.74 55.5268C129.921 55.545 130.095 55.611 130.243 55.7181C130.474 55.8596 130.684 56.034 130.864 56.2357C130.886 56.2746 130.914 56.3095 130.947 56.3392C131.13 56.5714 131.283 56.8253 131.403 57.095C131.548 57.3675 131.624 57.6714 131.624 57.9801C131.624 58.2888 131.548 58.5928 131.403 58.8653C131.343 58.9469 131.27 59.0171 131.185 59.0723L132.459 58.3269C132.545 58.2787 132.619 58.2114 132.676 58.1302C132.818 57.856 132.89 57.5512 132.887 57.2425C132.883 56.9338 132.804 56.6307 132.655 56.3599Z" fill="#363633"/>
<path d="M130.927 56.3392C130.733 56.0908 130.494 55.8802 130.223 55.718C129.737 55.4385 129.26 55.4488 128.991 55.8215C128.824 56.2459 128.784 56.7096 128.876 57.1563C128.968 57.603 129.188 58.0133 129.509 58.3372C129.701 58.5912 129.94 58.8056 130.213 58.9687C130.699 59.2482 131.176 59.2379 131.434 58.8652C131.602 58.44 131.644 57.9754 131.554 57.5272C131.464 57.0791 131.246 56.6665 130.927 56.3392Z" fill="#222220"/>
<path d="M130.586 56.7741C130.476 56.6319 130.343 56.5093 130.192 56.4117C129.913 56.2564 129.633 56.2668 129.489 56.4738C129.392 56.716 129.369 56.9809 129.42 57.2363C129.471 57.4918 129.596 57.7268 129.778 57.9128C129.892 58.0525 130.028 58.1716 130.182 58.2648C130.462 58.4305 130.731 58.4098 130.876 58.2027C130.971 57.9621 130.994 57.699 130.943 57.4453C130.891 57.1917 130.767 56.9585 130.586 56.7741Z" fill="#B2B9BB"/>
<path d="M111.352 49.5168C111.172 49.1166 110.943 48.7409 110.669 48.3987L110.544 48.2434C110.285 47.9392 109.977 47.6802 109.633 47.4773C109.275 47.2453 108.845 47.1497 108.422 47.2081C108.305 47.2302 108.193 47.2723 108.091 47.3324L106.683 48.1502C106.923 48.0432 107.187 48.0012 107.449 48.0285C107.711 48.0557 107.961 48.1513 108.174 48.3055C108.519 48.5107 108.83 48.7692 109.095 49.0716L109.219 49.2269C109.493 49.5635 109.72 49.9362 109.892 50.3346C110.119 50.7312 110.245 51.1773 110.26 51.6339C110.274 52.0905 110.176 52.5437 109.975 52.9538C109.888 53.0768 109.775 53.1793 109.644 53.254L111.062 52.4362C111.194 52.3584 111.307 52.2524 111.393 52.1256C111.596 51.7192 111.698 51.2701 111.69 50.8161C111.683 50.3622 111.567 49.9166 111.352 49.5168Z" fill="#363633"/>
<g style="mix-blend-mode:screen" opacity="0.2">
<path d="M110.668 48.3987L110.544 48.2434C110.285 47.9391 109.977 47.6802 109.632 47.4773L108.214 48.3055C108.56 48.5107 108.871 48.7692 109.136 49.0716L109.26 49.2269C109.534 49.5635 109.76 49.9362 109.933 50.3346L111.351 49.5167C111.172 49.1166 110.942 48.7409 110.668 48.3987Z" fill="#444442"/>
</g>
<path d="M109.26 49.2269C108.979 48.8545 108.627 48.5414 108.225 48.3055C107.51 47.881 106.796 47.9017 106.403 48.4504C105.833 49.2786 106.165 50.9454 107.169 52.1773C107.452 52.5504 107.803 52.8665 108.204 53.1091C108.939 53.5335 109.643 53.5025 110.026 52.9538C110.606 52.1359 110.254 50.4692 109.26 49.2269Z" fill="#222220"/>
<path d="M108.847 49.7963C108.674 49.5716 108.459 49.3819 108.215 49.2373C107.77 48.9785 107.346 48.9888 107.097 49.3304C106.949 49.7149 106.914 50.1338 106.996 50.5375C107.079 50.9412 107.276 51.3127 107.563 51.608C107.742 51.8339 107.959 52.0266 108.205 52.1774C108.65 52.4362 109.074 52.4155 109.313 52.0842C109.463 51.6984 109.499 51.2774 109.417 50.8716C109.334 50.4658 109.136 50.0925 108.847 49.7963Z" fill="#9BA3A6"/>
<path d="M108.422 52.0428C108.176 51.892 107.959 51.6993 107.78 51.4734C107.491 51.1791 107.294 50.8069 107.213 50.4025C107.132 49.998 107.171 49.5787 107.325 49.1958C107.325 49.1958 107.387 49.1337 107.428 49.1027C107.292 49.1384 107.172 49.2186 107.087 49.3304C106.938 49.7148 106.903 50.1338 106.986 50.5375C107.068 50.9412 107.265 51.3127 107.552 51.608C107.731 51.8338 107.949 52.0266 108.194 52.1774C108.34 52.2968 108.523 52.362 108.712 52.362C108.901 52.362 109.083 52.2968 109.23 52.1774C109.093 52.211 108.951 52.2164 108.812 52.1933C108.673 52.1701 108.54 52.1189 108.422 52.0428Z" fill="#B6BDBE"/>
<path d="M111.008 49.9725C110.719 49.3199 110.347 48.7075 109.9 48.1504L109.693 47.902C109.263 47.4113 108.76 46.9889 108.202 46.6493C107.633 46.2785 106.95 46.1242 106.277 46.2145C106.091 46.2452 105.913 46.3083 105.749 46.4009L103.44 47.7467C103.834 47.5698 104.266 47.4996 104.695 47.5432C105.124 47.5869 105.534 47.7427 105.884 47.9951C106.449 48.3283 106.956 48.7514 107.385 49.2478L107.602 49.4963C108.048 50.0533 108.421 50.6658 108.71 51.3183C109.424 52.954 109.528 54.6415 108.834 55.5939C108.697 55.8006 108.513 55.9711 108.296 56.0908L110.615 54.745C110.826 54.6218 111.007 54.4518 111.143 54.2481C111.826 53.2956 111.722 51.6082 111.008 49.9725Z" fill="#363633"/>
<g style="mix-blend-mode:screen" opacity="0.7">
<path d="M109.899 48.1505L109.692 47.9021C109.261 47.4114 108.759 46.989 108.201 46.6494L105.882 47.9952C106.447 48.3284 106.954 48.7515 107.383 49.2479L107.601 49.4964C108.047 50.0534 108.419 50.6659 108.708 51.3184L111.017 49.9726C110.724 49.3195 110.349 48.707 109.899 48.1505Z" fill="#444442"/>
</g>
<path d="M107.592 49.4963C107.118 48.896 106.539 48.3873 105.883 47.9952C104.703 47.3119 103.554 47.3533 102.912 48.2436C101.96 49.5895 102.519 52.3122 104.144 54.3413C104.613 54.963 105.192 55.493 105.852 55.9045C107.043 56.5878 108.192 56.5464 108.823 55.6457C109.786 54.2688 109.217 51.5357 107.592 49.4963Z" fill="#222220"/>
<path d="M119.042 86.1962C118.878 84.8369 118.53 83.5064 118.006 82.2415C115.936 77.0653 111.039 59.6627 110.967 55.2214C110.959 54.7978 110.918 54.3754 110.842 53.9584C110.692 53.1195 110.438 52.3023 110.087 51.5256C109.593 50.3963 108.93 49.349 108.12 48.4198C107.487 47.6863 106.743 47.0574 105.915 46.5564C105.377 46.2406 104.788 46.02 104.175 45.9042C103.532 45.7784 102.864 45.8847 102.291 46.2044L99.7548 47.6745C100.325 47.3582 100.989 47.2554 101.629 47.3846C102.243 47.494 102.833 47.715 103.368 48.0368C104.202 48.5343 104.95 49.1636 105.583 49.9002C106.387 50.8341 107.049 51.8804 107.55 53.006C107.891 53.7867 108.144 54.6026 108.306 55.4388C108.376 55.8601 108.417 56.2855 108.43 56.7122C108.503 61.1534 113.441 78.5974 115.47 83.7219C115.988 84.9923 116.336 86.3255 116.505 87.6869C116.826 90.6581 115.936 92.8632 114.269 93.8985L116.805 92.418C118.472 91.4346 119.363 89.1777 119.042 86.1962Z" fill="#D6DCDD"/>
<path d="M103.399 48.0471C104.675 48.8839 105.769 49.9685 106.617 51.2365C107.466 52.5045 108.05 53.93 108.337 55.4284C108.407 55.8496 108.448 56.275 108.461 56.7018C108.534 61.143 113.472 78.587 115.501 83.7115C116.019 84.9819 116.367 86.3151 116.536 87.6765C117.013 92.0867 114.828 94.9233 111.36 94.3125C110.437 94.1219 109.554 93.7716 108.751 93.2772C106.796 92.0056 105.117 90.3527 103.815 88.4174C102.513 86.4821 101.614 84.3041 101.173 82.0137C100.992 81.0483 100.94 80.0631 101.018 79.0839C101.38 74.9429 100.159 58.2547 98.6886 53.5546C98.461 52.8251 98.3219 52.0709 98.2745 51.3081C98.1296 48.6682 99.5375 47.0429 101.639 47.3949C102.261 47.5018 102.858 47.723 103.399 48.0471Z" fill="#B2B9BB"/>
<g style="mix-blend-mode:screen" opacity="0.6">
<path d="M105.616 49.9106L108.152 48.4302C108.962 49.3593 109.625 50.4066 110.119 51.5359L107.583 53.006C107.082 51.8804 106.419 50.8341 105.616 49.9002V49.9106Z" fill="#E9ECED"/>
</g>
<path d="M117.201 88.8254C117.06 86.8196 116.559 84.8557 115.721 83.028C114.851 81.0739 113.696 79.2596 112.294 77.6447C111.303 76.4884 110.144 75.4869 108.857 74.6735L108.526 74.4768C107.402 73.7782 106.12 73.3757 104.799 73.307C102.959 73.2383 101.127 73.0201 99.3222 72.6548L89.1146 78.5454C90.7917 79.767 92.7691 79.5806 94.5186 79.5806C95.8466 79.488 97.1753 79.7488 98.3698 80.3364L98.7011 80.5331C99.9806 81.353 101.135 82.3538 102.128 83.5042C103.532 85.1213 104.687 86.9393 105.554 88.8979C106.392 90.7259 106.893 92.6897 107.035 94.6953C107.2 97.8011 106.207 99.944 104.53 100.907L114.685 94.9955C116.362 94.0742 117.356 91.9105 117.201 88.8254Z" fill="#363633"/>
<path d="M107.037 94.726C106.766 91.9062 105.884 89.1792 104.454 86.7339C103.024 84.2885 101.08 82.1832 98.7554 80.5638L98.4241 80.3671C97.297 79.668 96.0113 79.2655 94.6868 79.1972C92.8316 79.1397 90.985 78.918 89.1689 78.5347V84.1561C89.1695 87.4645 90.0403 90.7146 91.6938 93.5802C93.3474 96.4457 95.7256 98.826 98.5897 100.482C98.9697 100.699 99.3681 100.883 99.7802 101.031C104.045 102.718 107.317 100.151 107.037 94.726Z" fill="#222220"/>
<path d="M102.126 83.5352L112.292 77.6343C113.695 79.2524 114.85 81.0701 115.719 83.0279L105.552 88.9289C104.685 86.9703 103.53 85.1523 102.126 83.5352Z" fill="#444442"/>
<path d="M105.937 53.1299C105.898 53.0204 105.854 52.9132 105.802 52.809C105.485 52.0949 105.062 51.432 104.55 50.842C104.145 50.3815 103.666 49.9929 103.131 49.6929C102.65 49.3871 102.087 49.2354 101.516 49.2581C101.279 49.2747 101.049 49.3455 100.844 49.4651L94.5285 53.1506C94.736 53.0339 94.9649 52.96 95.2014 52.9332C95.771 52.9145 96.3333 53.0658 96.8164 53.368C97.3517 53.6924 97.8335 54.0974 98.2451 54.5689C98.7557 55.1584 99.1746 55.8215 99.4874 56.5359C99.4874 56.6498 99.5806 56.7533 99.622 56.8672C100.367 58.772 100.119 60.4491 99.1147 61.0082L105.419 57.3227C106.424 56.7222 106.672 55.0348 105.937 53.1299Z" fill="url(#paint3_linear)"/>
<path d="M99.623 56.8155C99.091 55.3763 98.1066 54.1485 96.8175 53.3164C96.3343 53.0142 95.772 52.8628 95.2025 52.8816C93.6599 53.0265 93.132 54.9521 94.0119 57.2917C94.5397 58.7221 95.5215 59.9402 96.8071 60.7598C97.2887 61.0656 97.8521 61.2173 98.4221 61.1946C99.975 61.0808 100.513 59.1034 99.623 56.8155Z" fill="#838B8E"/>
<g style="mix-blend-mode:screen" opacity="0.3">
<path d="M98.2434 54.5174L104.548 50.8423C105.064 51.4296 105.487 52.0931 105.801 52.8093L99.4857 56.4844C99.1729 55.77 98.7541 55.1069 98.2434 54.5174Z" fill="#B4BBBC"/>
</g>
<path d="M136.464 71.2573L138.504 70.0771L136.475 71.2573H136.464Z" fill="#FBFABB"/>
<path d="M138.506 70.0771L132.75 57.3125C132.49 56.7019 132.141 56.1332 131.714 55.625C131.376 55.2219 130.978 54.8728 130.534 54.5898C130.141 54.3362 129.674 54.2231 129.209 54.2688C129.045 54.2906 128.887 54.3433 128.743 54.4241L126.673 55.6147C126.818 55.5275 126.98 55.4711 127.149 55.449C127.611 55.4057 128.074 55.5187 128.464 55.7699C128.914 56.0478 129.316 56.3975 129.654 56.8052C130.081 57.3097 130.43 57.8749 130.689 58.4823L136.445 71.247C136.942 72.3857 136.839 73.4521 136.238 73.804L138.309 72.6239C138.909 72.2926 139.013 71.2263 138.506 70.0771Z" fill="#D6DCDD"/>
<path d="M128.452 55.801C129.458 56.4536 130.247 57.3905 130.72 58.4927L136.476 71.2573C137.107 72.717 136.776 74.0318 135.668 73.949C135.415 73.9196 135.171 73.8348 134.954 73.7005C134.45 73.3955 134.027 72.9728 133.722 72.4686C133.554 72.1991 133.418 71.9107 133.318 71.6093C132.761 69.8705 132.069 68.1779 131.248 66.5469L130.606 65.3564C129.841 63.7896 128.842 62.348 127.645 61.0808C127.116 60.5522 126.688 59.9312 126.382 59.2484C125.533 57.3643 125.864 55.6147 127.138 55.4387C127.604 55.4075 128.068 55.5352 128.452 55.801Z" fill="#B2B9BB"/>
<g style="mix-blend-mode:screen" opacity="0.6">
<path d="M129.644 56.8155L131.714 55.625C132.141 56.1332 132.49 56.7019 132.749 57.3125L130.679 58.4926C130.419 57.8853 130.07 57.32 129.644 56.8155Z" fill="#E9ECED"/>
</g>
<path d="M101.415 58.2339C100.979 58.5153 100.615 58.8934 100.349 59.3386C100.083 59.7839 99.9237 60.2844 99.8827 60.8013C99.8492 61.2701 99.7097 61.7252 99.4748 62.1322C99.2399 62.5393 98.9157 62.8877 98.5265 63.1513L102.595 60.7909C102.977 60.5306 103.296 60.1882 103.529 59.7888C103.762 59.3894 103.903 58.943 103.941 58.4823C103.981 57.9627 104.142 57.4596 104.41 57.0123C104.677 56.5651 105.045 56.1859 105.483 55.9045L101.415 58.2339Z" fill="#363633"/>
<path d="M130.846 57.9753C130.547 57.3057 130.149 56.6846 129.666 56.1325C129.285 55.6865 128.834 55.3054 128.331 55.0041C128.058 54.8481 127.765 54.7297 127.461 54.6521H127.327H127.213L98.1324 49.1756L97.8632 49.1032C97.2479 48.9688 96.6047 49.0607 96.0515 49.362L91.9933 51.7637C92.5457 51.4595 93.1912 51.371 93.805 51.5153L94.0742 51.5774L123.144 56.94H123.268H123.403C123.708 57.0205 124.001 57.1425 124.273 57.3023C124.777 57.6026 125.228 57.9838 125.608 58.4308C126.088 58.9793 126.482 59.597 126.778 60.2632C127.051 60.8808 127.226 61.5376 127.295 62.2094C127.388 62.6412 127.354 63.0905 127.198 63.5036C127.042 63.9167 126.77 64.2761 126.415 64.5388L130.484 62.1784C130.839 61.9157 131.111 61.5563 131.267 61.1432C131.423 60.7301 131.457 60.2808 131.364 59.8491C131.287 59.2019 131.113 58.5701 130.846 57.9753Z" fill="#363633"/>
<path d="M124.273 57.385C125.108 57.9285 125.813 58.6506 126.335 59.4991C126.858 60.3476 127.186 61.3015 127.296 62.2921C127.43 63.7415 126.799 64.7664 125.743 64.8181C125.208 64.8417 124.68 64.6968 124.231 64.404C123.807 64.1556 123.434 63.9278 123.062 63.7207C120.086 61.8662 116.827 60.5128 113.413 59.7143L103.723 57.9026C103.276 57.7933 102.81 57.7848 102.358 57.8779C101.907 57.9709 101.483 58.1632 101.115 58.4406C100.747 58.7181 100.446 59.0739 100.233 59.4822C100.02 59.8905 99.8999 60.3411 99.8824 60.8013C99.6132 62.4577 98.6504 63.4723 97.2632 63.4102C96.559 63.3573 95.8776 63.1372 95.2755 62.7683C93.0752 61.3275 91.5001 59.1091 90.8653 56.5568C90.0578 53.2751 91.3622 50.9871 93.8054 51.4427L94.0746 51.5048L123.144 56.9398H123.269H123.403C123.713 57.0463 124.006 57.1962 124.273 57.385Z" fill="#222220"/>
<path d="M125.607 58.5134L129.666 56.1427C130.148 56.6916 130.545 57.3092 130.846 57.9751L126.777 60.3355C126.482 59.6693 126.087 59.0516 125.607 58.5031V58.5134Z" fill="#444442"/>
<path d="M135.223 95.4308C134.595 95.7524 133.899 95.9201 133.194 95.9201C132.488 95.9201 131.793 95.7524 131.165 95.4308C130.928 95.3277 130.723 95.1628 130.572 94.9533C130.421 94.7439 130.329 94.4975 130.305 94.2402V95.1409C130.33 95.3979 130.422 95.6437 130.573 95.853C130.724 96.0623 130.928 96.2275 131.165 96.3314C131.791 96.653 132.485 96.8207 133.189 96.8207C133.893 96.8207 134.586 96.653 135.213 96.3314C135.446 96.2278 135.648 96.0638 135.797 95.8564C135.946 95.649 136.037 95.4056 136.061 95.1513V94.2609C136.039 94.513 135.949 94.7544 135.802 94.9601C135.654 95.1658 135.454 95.3283 135.223 95.4308Z" fill="url(#paint4_linear)"/>
<path d="M135.213 93.0805C134.583 92.7588 133.886 92.5911 133.179 92.5911C132.471 92.5911 131.774 92.7588 131.144 93.0805C130.026 93.7224 130.026 94.7783 131.144 95.4305C131.772 95.7521 132.468 95.9199 133.173 95.9199C133.879 95.9199 134.575 95.7521 135.203 95.4305C135.448 95.3476 135.661 95.1901 135.812 94.9801C135.964 94.7701 136.046 94.5181 136.047 94.2592C136.048 94.0003 135.968 93.7476 135.819 93.5363C135.669 93.325 135.457 93.1656 135.213 93.0805Z" fill="#E9ECED"/>
<path d="M131.196 82.1687V94.1052C131.217 94.2805 131.282 94.4477 131.385 94.5908C131.488 94.7339 131.627 94.8483 131.787 94.923C132.214 95.1428 132.688 95.2574 133.169 95.2574C133.649 95.2574 134.123 95.1428 134.551 94.923C134.705 94.8465 134.838 94.7326 134.938 94.5916C135.037 94.4505 135.1 94.2869 135.12 94.1155V82.179C135.141 82.4689 131.196 82.4689 131.196 82.1687Z" fill="url(#paint5_linear)"/>
<path d="M135.223 87.0241C134.593 87.3409 133.899 87.5059 133.194 87.5059C132.489 87.5059 131.794 87.3409 131.165 87.0241C130.928 86.9175 130.724 86.7503 130.573 86.5394C130.422 86.3285 130.33 86.0814 130.305 85.8232V86.7239C130.328 86.9815 130.419 87.2283 130.57 87.438C130.722 87.6477 130.927 87.8123 131.165 87.9144C131.791 88.236 132.485 88.4037 133.189 88.4037C133.893 88.4037 134.586 88.236 135.213 87.9144C135.446 87.8135 135.648 87.6516 135.797 87.4458C135.947 87.24 136.038 86.9978 136.061 86.7446V85.8439C136.037 86.0969 135.947 86.3391 135.8 86.5462C135.653 86.7534 135.454 86.9182 135.223 87.0241Z" fill="url(#paint6_linear)"/>
<path d="M135.213 84.6638C134.583 84.3421 133.886 84.1743 133.179 84.1743C132.471 84.1743 131.774 84.3421 131.144 84.6638C130.026 85.316 130.026 86.3616 131.144 87.0241C131.774 87.3409 132.469 87.5059 133.173 87.5059C133.878 87.5059 134.573 87.3409 135.203 87.0241C135.447 86.9385 135.658 86.7795 135.808 86.5688C135.958 86.3581 136.039 86.1062 136.041 85.8476C136.042 85.589 135.963 85.3363 135.815 85.1244C135.666 84.9124 135.456 84.7515 135.213 84.6638Z" fill="#E9ECED"/>
<path d="M135.544 86.0512C134.816 86.4221 134.011 86.6154 133.194 86.6154C132.377 86.6154 131.572 86.4221 130.844 86.0512C130.563 85.9377 130.317 85.7495 130.135 85.5069C129.952 85.2642 129.84 84.9763 129.809 84.6743V85.7096C129.841 86.0124 129.954 86.301 130.137 86.545C130.319 86.7891 130.563 86.9797 130.844 87.0968C131.571 87.466 132.374 87.6584 133.189 87.6584C134.004 87.6584 134.807 87.466 135.534 87.0968C135.803 86.9742 136.034 86.7837 136.207 86.544C136.379 86.3044 136.486 86.0239 136.517 85.7303V84.695C136.49 84.987 136.385 85.2664 136.214 85.5047C136.043 85.7429 135.812 85.9315 135.544 86.0512Z" fill="url(#paint7_linear)"/>
<path d="M135.533 83.3283C134.803 82.954 133.994 82.7588 133.173 82.7588C132.352 82.7588 131.543 82.954 130.813 83.3283C129.529 84.0737 129.529 85.2953 130.813 86.051C131.54 86.4219 132.346 86.6152 133.163 86.6152C133.979 86.6152 134.785 86.4219 135.513 86.051C136.848 85.2953 136.838 84.0737 135.533 83.3283Z" fill="#E9ECED"/>
<path d="M130.42 76.7751V84.5706C130.438 84.8131 130.52 85.0467 130.656 85.2483C130.792 85.4498 130.978 85.6123 131.197 85.7197C131.802 86.0262 132.47 86.186 133.148 86.186C133.826 86.186 134.495 86.0262 135.1 85.7197C135.321 85.6191 135.513 85.4618 135.655 85.2637C135.796 85.0656 135.883 84.8337 135.907 84.5913V76.7958C135.949 77.1996 130.42 77.1892 130.42 76.7751Z" fill="url(#paint8_linear)"/>
<path d="M137.11 71.7648C137.094 71.9189 137.038 72.0661 136.947 72.1916C136.856 72.317 136.733 72.4162 136.592 72.4792L134.387 73.7629C134 73.9593 133.573 74.0616 133.139 74.0616C132.706 74.0616 132.278 73.9593 131.892 73.7629L129.676 72.4688C129.533 72.4046 129.409 72.304 129.316 72.1768C129.223 72.0497 129.166 71.9005 129.148 71.7441V82.9145C129.158 83.0717 129.212 83.2231 129.303 83.3512C129.395 83.4794 129.52 83.5792 129.666 83.6392L131.902 84.8918C132.287 85.0882 132.713 85.1905 133.145 85.1905C133.576 85.1905 134.002 85.0882 134.387 84.8918L136.602 83.6081C136.742 83.5437 136.862 83.4439 136.951 83.3186C137.04 83.1933 137.095 83.0468 137.11 82.8938V71.7648Z" fill="url(#paint9_linear)"/>
<path d="M136.582 71.0297C137.276 71.4335 137.286 72.065 136.582 72.4791L134.377 73.7628C133.991 73.9592 133.563 74.0615 133.13 74.0615C132.696 74.0615 132.269 73.9592 131.882 73.7628L129.677 72.4687C128.984 72.065 128.973 71.4335 129.677 71.0194L131.882 69.746C132.266 69.5472 132.692 69.4435 133.125 69.4435C133.557 69.4435 133.983 69.5472 134.367 69.746L136.582 71.0297Z" fill="#E9ECED"/>
<path d="M129.655 75.202L131.684 74.0219L129.655 75.202Z" fill="#FBFABB"/>
<path d="M131.683 74.0217L125.927 61.2467C125.668 60.6393 125.319 60.0741 124.892 59.5696C124.559 59.1612 124.16 58.8113 123.712 58.5343C123.32 58.2772 122.853 58.1604 122.387 58.2031C122.222 58.2283 122.064 58.2845 121.921 58.3687L119.85 59.5489C119.998 59.4663 120.159 59.4102 120.327 59.3832C120.79 59.3379 121.255 59.455 121.641 59.7145C122.093 59.9916 122.495 60.3414 122.832 60.7498C123.258 61.2543 123.607 61.8195 123.867 62.4269L129.623 75.2019C130.12 76.351 130.027 77.407 129.416 77.7693L131.487 76.5788C132.087 76.2268 132.232 75.1605 131.683 74.0217Z" fill="#D6DCDD"/>
<path d="M121.631 59.7456C122.656 60.3861 123.464 61.3205 123.95 62.4269L129.706 75.2019C130.348 76.6513 130.007 77.9764 128.899 77.8833C128.65 77.8543 128.41 77.7731 128.195 77.6451C127.68 77.3319 127.253 76.8939 126.953 76.3718C126.788 76.1002 126.653 75.8123 126.549 75.5125C125.995 73.7723 125.303 72.0794 124.478 70.4501L123.837 69.2492C123.055 67.7281 122.05 66.3323 120.855 65.1082C120.327 64.5785 119.899 63.9577 119.592 63.2758C118.753 61.3917 119.074 59.6421 120.348 59.4558C120.796 59.4055 121.248 59.5076 121.631 59.7456Z" fill="#B2B9BB"/>
<g style="mix-blend-mode:screen" opacity="0.6">
<path d="M122.821 60.7496L124.892 59.5695C125.318 60.0739 125.667 60.6392 125.927 61.2466L123.856 62.4268C123.596 61.8194 123.248 61.2541 122.821 60.7496Z" fill="#E9ECED"/>
</g>
<path d="M97.3868 58.0683L97.2522 57.7473C96.9344 57.0332 96.5123 56.3703 95.9996 55.7804C95.5949 55.306 95.1159 54.9005 94.5813 54.5795C94.0997 54.2737 93.5363 54.122 92.9663 54.1447C92.7259 54.1615 92.4923 54.2323 92.283 54.3517L87.8521 56.9398C88.0584 56.8219 88.2882 56.7511 88.5251 56.7328C89.0945 56.7153 89.6564 56.8666 90.14 57.1676C90.6762 57.4864 91.1555 57.8923 91.5583 58.3685C92.0758 58.9549 92.4985 59.6186 92.811 60.3355C92.811 60.439 92.9042 60.5529 92.9456 60.6564C93.6806 62.5613 93.4322 64.2487 92.428 64.7974L96.8692 62.1989C97.8734 61.6606 98.1218 59.9731 97.3868 58.0683Z" fill="url(#paint10_linear)"/>
<path d="M92.9458 60.6667C92.4112 59.2317 91.4271 58.0079 90.1403 57.1779C89.6566 56.8768 89.0947 56.7256 88.5253 56.7431C86.9828 56.888 86.4548 58.8136 87.3244 61.1429C87.8622 62.5733 88.8458 63.7928 90.1299 64.6213C90.6099 64.9221 91.1684 65.0735 91.7346 65.0561C93.2978 64.9319 93.8361 62.9546 92.9458 60.6667Z" fill="#838B8E"/>
<g style="mix-blend-mode:screen" opacity="0.3">
<path d="M91.5576 58.3788L95.9989 55.7803C96.5116 56.3703 96.9337 57.0332 97.2515 57.7473L92.8103 60.3457C92.4978 59.6288 92.0751 58.9651 91.5576 58.3788Z" fill="#B4BBBC"/>
</g>
<path d="M105.554 93.9809C105.389 92.6219 105.041 91.2915 104.518 90.0262C102.448 84.85 97.5511 67.4474 97.4786 63.0165C97.4716 62.5894 97.4301 62.1635 97.3544 61.7431C97.2023 60.9045 96.9485 60.0875 96.5986 59.3103C96.1082 58.1792 95.4446 57.1314 94.6317 56.2045C94.005 55.4654 93.2598 54.8357 92.4266 54.3411C91.8915 54.0193 91.302 53.7983 90.6873 53.6889C90.0448 53.5599 89.3773 53.6626 88.8032 53.9787L86.2668 55.4488C86.8371 55.1326 87.5014 55.0298 88.1406 55.1589C88.7553 55.2684 89.3448 55.4894 89.8798 55.8111C90.7118 56.3118 91.4595 56.9407 92.0953 57.6746C92.9023 58.6058 93.5654 59.6527 94.0623 60.7804C94.406 61.5599 94.6595 62.3761 94.818 63.2132C94.8997 63.6332 94.9482 64.059 94.9629 64.4866C95.0354 68.9278 99.9839 86.3718 102.003 91.4963C102.521 92.7667 102.869 94.0999 103.038 95.4613C103.359 98.4325 102.469 100.689 100.802 101.673L103.348 100.192C104.984 99.2193 105.874 96.9624 105.554 93.9809Z" fill="#D6DCDD"/>
<path d="M89.9102 55.8316C91.1858 56.6685 92.2802 57.7531 93.1285 59.0211C93.9768 60.2891 94.5616 61.7146 94.8483 63.213C94.9196 63.6338 94.9577 64.0595 94.9622 64.4863C95.0347 68.9276 99.9832 86.3716 102.002 91.4961C102.52 92.7665 102.868 94.0996 103.037 95.4611C103.513 99.8816 101.329 102.708 97.8609 102.097C96.9377 101.906 96.0548 101.556 95.2521 101.062C93.3044 99.7861 91.6334 98.1314 90.3386 96.1963C89.0438 94.2612 88.1517 92.0853 87.7155 89.7982C87.5345 88.8328 87.4823 87.8476 87.5602 86.8685C87.9225 82.7275 86.7009 66.0496 85.2309 61.3392C85.0032 60.6097 84.8642 59.8554 84.8168 59.0927C84.6718 56.4528 86.0798 54.8274 88.1813 55.1794C88.7924 55.29 89.3783 55.511 89.9102 55.8316Z" fill="#B2B9BB"/>
<g style="mix-blend-mode:screen" opacity="0.6">
<path d="M92.1247 57.6956L94.661 56.2256C95.4739 57.1525 96.1376 58.2003 96.628 59.3313L94.0916 60.8014C93.5947 59.6737 92.9317 58.6269 92.1247 57.6956Z" fill="#E9ECED"/>
</g>
<path d="M129.126 75.5744C129.011 75.3021 128.858 75.0476 128.671 74.8187C128.649 74.7798 128.621 74.7448 128.588 74.7151C128.413 74.5077 128.202 74.3325 127.967 74.1975C127.735 74.043 127.456 73.9769 127.18 74.0112C127.103 74.0261 127.03 74.0542 126.962 74.094L125.689 74.829C125.855 74.7534 126.039 74.7231 126.221 74.7413C126.403 74.7595 126.576 74.8255 126.724 74.9325C126.957 75.0678 127.164 75.2431 127.335 75.4502L127.428 75.5537C127.611 75.7859 127.764 76.0397 127.884 76.3094C128.029 76.5801 128.105 76.8824 128.105 77.1894C128.105 77.4964 128.029 77.7987 127.884 78.0694C127.83 78.156 127.756 78.2273 127.666 78.2764L128.929 77.5414C129.019 77.4897 129.097 77.4191 129.157 77.3343C129.295 77.0604 129.364 76.7571 129.358 76.4505C129.353 76.144 129.273 75.8433 129.126 75.5744Z" fill="#363633"/>
<path d="M127.366 75.5743C127.171 75.3255 126.933 75.1149 126.662 74.9531C126.175 74.6736 125.689 74.6839 125.43 75.0566C125.264 75.4804 125.224 75.943 125.314 76.389C125.404 76.8351 125.62 77.2459 125.937 77.5723C126.134 77.8213 126.372 78.0348 126.641 78.2038C127.138 78.4833 127.614 78.4626 127.873 78.0899C128.039 77.6661 128.079 77.2036 127.989 76.7575C127.899 76.3114 127.683 75.9007 127.366 75.5743Z" fill="#222220"/>
<path d="M127.054 75.9576C126.941 75.8179 126.804 75.6988 126.65 75.6056C126.371 75.4503 126.102 75.4606 125.957 75.6677C125.861 75.9083 125.838 76.1714 125.889 76.425C125.941 76.6787 126.065 76.9119 126.246 77.0963C126.353 77.2411 126.487 77.3641 126.64 77.4587C126.919 77.614 127.199 77.6036 127.344 77.3966C127.439 77.1542 127.462 76.8896 127.41 76.6345C127.359 76.3793 127.235 76.1443 127.054 75.9576Z" fill="#B2B9BB"/>
<path d="M122.418 62.2711C122.303 61.9988 122.149 61.7444 121.962 61.5154L121.88 61.4119C121.704 61.2044 121.494 61.0293 121.258 60.8943C121.026 60.7414 120.748 60.6754 120.472 60.7079C120.391 60.7198 120.313 60.7479 120.244 60.7907L118.981 61.5258C119.147 61.4501 119.331 61.4198 119.513 61.438C119.694 61.4562 119.868 61.5222 120.016 61.6293C120.249 61.7646 120.455 61.9398 120.627 62.1469L120.72 62.2504C120.903 62.4826 121.056 62.7364 121.176 63.0062C121.316 63.2784 121.388 63.5801 121.388 63.8861C121.388 64.1922 121.316 64.4939 121.176 64.7661C121.122 64.8527 121.047 64.924 120.958 64.9731L122.221 64.2381C122.309 64.1836 122.386 64.1134 122.449 64.0311C122.587 63.7571 122.656 63.4538 122.65 63.1473C122.645 62.8407 122.565 62.5401 122.418 62.2711Z" fill="#363633"/>
<path d="M120.7 62.2504C120.505 62.0017 120.267 61.7911 119.996 61.6293C119.499 61.3497 119.022 61.3601 118.764 61.7328C118.598 62.1566 118.558 62.6191 118.647 63.0652C118.737 63.5113 118.954 63.922 119.271 64.2484C119.468 64.4974 119.706 64.711 119.975 64.8799C120.472 65.1595 120.948 65.1388 121.207 64.7661C121.373 64.3423 121.413 63.8797 121.323 63.4337C121.233 62.9876 121.017 62.5768 120.7 62.2504Z" fill="#222220"/>
<path d="M120.359 62.6748C120.246 62.5351 120.109 62.416 119.956 62.3228C119.852 62.242 119.722 62.2035 119.591 62.215C119.461 62.2265 119.339 62.2873 119.252 62.3849C119.159 62.6259 119.137 62.8884 119.188 63.1415C119.24 63.3946 119.362 63.6277 119.541 63.8136C119.657 63.9538 119.793 64.0759 119.945 64.1759C120.049 64.2567 120.179 64.2952 120.309 64.2837C120.44 64.2721 120.562 64.2114 120.649 64.1138C120.744 63.8714 120.767 63.6068 120.716 63.3517C120.664 63.0965 120.541 62.8615 120.359 62.6748Z" fill="#B2B9BB"/>
<path d="M92.2412 60.8116C91.9505 60.1663 91.5782 59.5609 91.1335 59.0103L90.9264 58.7618C90.5006 58.2634 89.9973 57.837 89.4357 57.4988C88.8663 57.1379 88.1899 56.9843 87.5205 57.064C87.3324 57.1031 87.1511 57.1694 86.9821 57.2607L84.6735 58.6066C85.0674 58.4273 85.5015 58.3549 85.9322 58.3967C86.3629 58.4385 86.775 58.593 87.1271 58.8447C87.6824 59.1665 88.1852 59.5715 88.6178 60.0456L88.8249 60.294C89.2711 60.8511 89.6434 61.4635 89.9326 62.1161C90.6469 63.7414 90.7505 65.4289 90.0672 66.3916C89.9187 66.588 89.7364 66.7562 89.5289 66.8886L91.8582 65.5841C92.0707 65.4584 92.2541 65.289 92.3965 65.0872C93.0591 64.1244 92.9659 62.437 92.2412 60.8116Z" fill="#363633"/>
<g style="mix-blend-mode:screen">
<path d="M91.1322 59.0105L90.9251 58.762C90.4993 58.2636 89.996 57.8372 89.4344 57.499L87.1258 58.8449C87.6811 59.1667 88.1839 59.5717 88.6165 60.0457L88.8236 60.2942C89.2698 60.8513 89.6421 61.4637 89.9313 62.1162L92.2399 60.7704C91.9461 60.1396 91.5739 59.5483 91.1322 59.0105Z" fill="#363633"/>
</g>
<path d="M88.8237 60.3355C88.3514 59.7354 87.7766 59.2237 87.1259 58.824C85.9353 58.1408 84.7862 58.1822 84.1443 59.0725C83.2023 60.4183 83.7509 63.1514 85.3866 65.1701C85.8596 65.7762 86.4383 66.2918 87.0948 66.6919C88.275 67.3752 89.4241 67.3234 90.066 66.4331C91.0184 65.108 90.4594 62.3749 88.8237 60.3355Z" fill="#222220"/>
<path d="M88.4218 62.7577C88.2359 62.3565 87.9993 61.9807 87.7179 61.6396L87.5936 61.4843C87.3347 61.1801 87.0268 60.9212 86.6826 60.7182C86.3356 60.4958 85.9221 60.4007 85.5128 60.4491C85.396 60.4712 85.284 60.5132 85.1815 60.5733L83.7736 61.3912C84.0135 61.2847 84.2768 61.2421 84.538 61.2675C84.7992 61.2929 85.0494 61.3854 85.2643 61.5361C85.6077 61.7486 85.9181 62.0102 86.1857 62.3125L86.3099 62.4575C86.5819 62.7993 86.8081 63.1752 86.9828 63.5755C87.2096 63.9721 87.3358 64.4182 87.3502 64.8748C87.3646 65.3314 87.2669 65.7846 87.0657 66.1947C86.9762 66.3157 86.8636 66.4178 86.7344 66.495L88.1527 65.6771C88.2847 65.5994 88.3979 65.4933 88.484 65.3665C88.6832 64.9585 88.7815 64.5085 88.7707 64.0545C88.7599 63.6006 88.6403 63.1558 88.4218 62.7577Z" fill="#363633"/>
<g style="mix-blend-mode:screen">
<path d="M87.7163 61.6396L87.5921 61.4843C87.3331 61.1801 87.0252 60.9212 86.6811 60.7183L85.2628 61.5361C85.6061 61.7486 85.9165 62.0102 86.1842 62.3125L86.3084 62.4575C86.5804 62.7993 86.8066 63.1752 86.9813 63.5756L88.3996 62.7577C88.2201 62.3576 87.9905 61.9819 87.7163 61.6396Z" fill="#363633"/>
</g>
<path d="M86.3296 62.4573C86.0428 62.0904 85.6921 61.7783 85.2944 61.5359C84.5801 61.1218 83.8657 61.1425 83.4723 61.6912C82.9029 62.5194 83.2342 64.1862 84.2384 65.4181C84.5217 65.7912 84.873 66.1073 85.2737 66.3499C86.0087 66.764 86.7127 66.7433 87.0957 66.1946C87.7169 65.3767 87.3235 63.71 86.3296 62.4573Z" fill="#222220"/>
<path d="M85.9163 63.0373C85.7431 62.8126 85.5288 62.6228 85.2848 62.4782C84.8396 62.2194 84.4152 62.2298 84.1667 62.5714C84.0183 62.9558 83.9833 63.3747 84.0659 63.7785C84.1484 64.1822 84.3451 64.5537 84.6326 64.849C84.8116 65.0748 85.0288 65.2676 85.2744 65.4183C85.7196 65.6668 86.144 65.6565 86.3821 65.3148C86.5331 64.9308 86.5695 64.5113 86.4868 64.107C86.4041 63.7027 86.2059 63.3311 85.9163 63.0373Z" fill="#9BA3A6"/>
<path d="M85.5022 65.2835C85.2566 65.1327 85.0393 64.94 84.8603 64.7141C84.5713 64.4198 84.3742 64.0477 84.2933 63.6432C84.2124 63.2387 84.2512 62.8194 84.4048 62.4366C84.4048 62.4366 84.4669 62.3744 84.5083 62.3434C84.3723 62.3791 84.252 62.4593 84.1667 62.5711C84.0183 62.9556 83.9833 63.3745 84.0659 63.7782C84.1484 64.1819 84.3451 64.5534 84.6326 64.8487C84.8116 65.0746 85.0288 65.2673 85.2744 65.4181C85.4228 65.5322 85.6048 65.5942 85.792 65.5942C85.9793 65.5942 86.1613 65.5322 86.3097 65.4181C86.173 65.4517 86.0309 65.4571 85.892 65.434C85.7532 65.4109 85.6205 65.3596 85.5022 65.2835Z" fill="#B6BDBE"/>
<g style="mix-blend-mode:multiply" opacity="0.5">
<path d="M95.4082 85.1815C91.878 83.111 89 84.7882 88.9896 88.836C89.1074 91.0508 89.7463 93.2065 90.8544 95.1278C91.9626 97.049 93.5086 98.6815 95.3668 99.8925C98.897 101.963 101.775 100.286 101.785 96.2277C101.666 94.0147 101.026 91.861 99.9183 89.9417C98.8102 88.0224 97.265 86.3915 95.4082 85.1815ZM95.4082 99.5716C93.6273 98.4224 92.1431 96.8688 91.0763 95.0375C90.0095 93.2061 89.3903 91.1487 89.2691 89.0327C89.2691 85.1608 92.0333 83.5873 95.4082 85.5335C97.186 86.6882 98.6659 88.2465 99.7273 90.0815C100.789 91.9165 101.402 93.9763 101.516 96.0931C101.495 99.9546 98.7417 101.518 95.3668 99.5716H95.4082Z" fill="#A3A7A8"/>
</g>
<path d="M136.725 74.8605H136.642H136.57H136.124H136.021L135.866 74.9329L135.741 75.0158L135.659 75.0779L135.555 75.1711L135.462 75.2642C135.432 75.2868 135.408 75.3149 135.389 75.347L135.327 75.4299C135.296 75.4653 135.269 75.5034 135.244 75.5437L135.151 75.6783C135.136 75.7138 135.119 75.7484 135.1 75.7818V75.8336C135.098 75.8681 135.098 75.9027 135.1 75.9371C135.1 75.9371 135.1 76.0096 135.1 76.0407C135.1 76.0407 135.1 76.1442 135.048 76.1856V76.2995C135.048 76.2995 135.048 76.3616 135.048 76.403V76.4548C135.052 76.4891 135.052 76.5239 135.048 76.5583C135.043 76.6065 135.043 76.655 135.048 76.7032C135.034 76.9579 135.115 77.2086 135.276 77.4072C135.314 77.4654 135.368 77.5119 135.431 77.5418L136.549 78.2043C136.415 78.112 136.309 77.9854 136.242 77.8378C136.175 77.6902 136.148 77.5271 136.166 77.3658C136.161 77.3176 136.161 77.269 136.166 77.2208C136.166 77.2208 136.166 77.1484 136.166 77.1173V77.0656C136.166 77.0656 136.166 76.9931 136.166 76.962V76.8482C136.166 76.8482 136.166 76.755 136.166 76.7032C136.166 76.7032 136.166 76.6308 136.218 76.5997C136.216 76.5652 136.216 76.5307 136.218 76.4962V76.4444C136.237 76.411 136.254 76.3764 136.269 76.3409L136.363 76.2063L136.435 76.0924L136.497 76.0096L136.559 75.9371L136.652 75.844L136.756 75.7508L136.849 75.6887L136.973 75.6059L137.118 75.5334H137.17H137.274H137.346H137.46H137.698H137.77H137.853L136.725 74.8605Z" fill="url(#paint11_linear)"/>
<g style="mix-blend-mode:screen">
<path d="M136.115 74.8082C136.004 74.8415 135.896 74.8867 135.794 74.9428C135.658 75.0268 135.529 75.1239 135.411 75.2327L136.529 75.8952C136.645 75.7841 136.774 75.6868 136.912 75.6054C137.014 75.5492 137.122 75.5041 137.233 75.4708L136.115 74.8082Z" fill="#E9ECED"/>
</g>
<path d="M136.912 75.5743C136.533 75.8219 136.217 76.1551 135.99 76.5472C135.764 76.9392 135.633 77.379 135.607 77.8311C135.607 78.6593 136.197 78.9906 136.922 78.5765C137.301 78.3296 137.616 77.9962 137.841 77.6039C138.066 77.2115 138.194 76.7714 138.216 76.3196C138.216 75.5743 137.626 75.1912 136.912 75.5743Z" fill="#A0A3A3"/>
<path d="M136.914 75.8331C136.591 76.0427 136.323 76.3254 136.131 76.6582C135.938 76.9909 135.827 77.3645 135.806 77.7483C135.806 78.4523 136.303 78.7836 136.924 78.3902C137.245 78.1772 137.513 77.8923 137.705 77.5581C137.897 77.2239 138.009 76.8495 138.032 76.4646C138.021 75.7606 137.524 75.4811 136.914 75.8331Z" fill="#212121"/>
<path opacity="0.1" d="M136.871 76.268C136.664 76.4027 136.491 76.5845 136.367 76.7985C136.243 77.0126 136.171 77.2529 136.157 77.4999C136.157 77.9451 136.478 78.1314 136.871 77.9037C137.079 77.769 137.252 77.5872 137.376 77.3731C137.5 77.1591 137.572 76.9188 137.586 76.6717C137.586 76.2266 137.265 76.0402 136.871 76.268Z" fill="#D0D6D6"/>
<path opacity="0.1" d="M136.902 76.6097C136.792 76.6836 136.7 76.7817 136.634 76.8966C136.567 77.0114 136.528 77.1399 136.519 77.2723C136.519 77.5207 136.695 77.6243 136.902 77.5C137.016 77.4268 137.111 77.3277 137.179 77.2107C137.248 77.0938 137.288 76.9623 137.295 76.8271C137.295 76.6097 137.119 76.5165 136.902 76.6097Z" fill="#D0D6D6"/>
<g style="mix-blend-mode:screen" opacity="0.2">
<path d="M136.84 76.7959C136.799 76.8237 136.764 76.8605 136.739 76.9035C136.714 76.9466 136.699 76.9947 136.695 77.0443C136.695 77.1271 136.768 77.1686 136.84 77.1168C136.882 77.0918 136.917 77.0571 136.942 77.0156C136.967 76.9741 136.982 76.9271 136.985 76.8787C136.985 76.7855 136.923 76.7441 136.84 76.7959Z" fill="#D0D6D6"/>
</g>
<path opacity="0.5" d="M136.798 76.1231C136.798 76.1231 136.798 76.2059 136.798 76.2369C136.798 76.268 136.725 76.2369 136.725 76.2369C136.725 76.2143 136.731 76.1919 136.742 76.172C136.753 76.1521 136.768 76.1353 136.787 76.1231C136.787 76.1231 136.798 76.0817 136.798 76.1231ZM137.471 75.8643C137.471 75.8643 137.409 75.8643 137.378 75.9264C137.347 75.9885 137.378 76.0195 137.378 76.0299C137.378 76.0403 137.45 76.0299 137.471 75.9678C137.491 75.9057 137.502 75.8746 137.471 75.8643ZM137.864 76.3715C137.864 76.3715 137.864 76.3715 137.792 76.3715C137.774 76.3849 137.759 76.402 137.748 76.4217C137.737 76.4413 137.731 76.4631 137.73 76.4854C137.73 76.4854 137.73 76.5372 137.802 76.4854C137.82 76.472 137.835 76.4549 137.846 76.4353C137.856 76.4156 137.863 76.3939 137.864 76.3715ZM137.667 77.3033C137.667 77.3033 137.667 77.2204 137.667 77.2101C137.667 77.1997 137.605 77.2101 137.585 77.2722C137.564 77.3343 137.585 77.355 137.585 77.3654C137.585 77.3757 137.647 77.3447 137.667 77.3033ZM137.015 78.1315C137.024 78.1136 137.028 78.0942 137.028 78.0745C137.028 78.0548 137.024 78.0354 137.015 78.0176C137.015 78.0176 137.015 78.0176 136.953 78.0176C136.934 78.0298 136.918 78.0466 136.907 78.0665C136.897 78.0865 136.891 78.1088 136.891 78.1315C136.891 78.1315 136.974 78.1522 137.015 78.1315ZM136.27 78.3592C136.27 78.3592 136.342 78.3592 136.363 78.2971C136.384 78.235 136.363 78.2143 136.363 78.2039C136.363 78.1936 136.301 78.2039 136.27 78.266C136.239 78.3282 136.249 78.3489 136.27 78.3592ZM135.887 77.8623C135.887 77.8623 135.887 77.9141 135.959 77.8623C135.976 77.8484 135.989 77.8309 135.998 77.8112C136.007 77.7915 136.011 77.7701 136.011 77.7484C136.011 77.7484 136.011 77.7484 135.939 77.7484C135.921 77.7611 135.906 77.7784 135.897 77.7984C135.888 77.8184 135.885 77.8404 135.887 77.8623ZM136.073 76.9202C136.073 76.9202 136.073 77.0134 136.073 77.0237C136.073 77.0341 136.146 77.0237 136.166 76.9513C136.187 76.8788 136.166 76.8685 136.166 76.8581C136.166 76.8477 136.094 76.8788 136.073 76.9202Z" fill="#BF2121"/>
<path style="mix-blend-mode:screen" opacity="0.3" d="M135.815 77.8624C135.81 77.8246 135.81 77.7863 135.815 77.7485C135.816 77.5878 135.837 77.4279 135.878 77.2723L137.482 75.6884C137.616 75.6996 137.74 75.7584 137.834 75.854L135.815 77.8624ZM136.333 78.5353L137.969 76.8996C138.01 76.7583 138.031 76.6119 138.031 76.4648C138.033 76.3446 138.012 76.225 137.969 76.1128L135.898 78.1833C135.939 78.2794 136.004 78.3628 136.088 78.4247C136.172 78.4866 136.271 78.5248 136.374 78.5353H136.333Z" fill="url(#paint12_linear)"/>
<path style="mix-blend-mode:screen" d="M111.298 112.401C115.102 107.343 115.868 101.498 113.008 99.3465C110.147 97.1949 104.744 99.5512 100.94 104.609C97.1349 109.668 96.3694 115.512 99.2298 117.664C102.09 119.815 107.493 117.459 111.298 112.401Z" fill="url(#paint13_radial)"/>
<g style="mix-blend-mode:screen">
<path d="M105.48 108.868C105.48 109.22 105.76 109.334 106.112 109.137C106.293 109.028 106.444 108.877 106.554 108.697C106.664 108.517 106.729 108.313 106.743 108.102C106.743 107.75 106.464 107.636 106.112 107.833C105.929 107.94 105.776 108.091 105.666 108.271C105.556 108.452 105.492 108.657 105.48 108.868Z" fill="#F3F5F5"/>
</g>
<path d="M43.198 120.359C42.8353 121.179 42.8092 122.109 43.1256 122.947C44.8648 126.312 47.4012 130.453 50.0825 131.136C52.4636 131.747 54.8964 131.136 55.5279 129.842C55.7042 129.296 55.751 128.716 55.6648 128.148C55.5786 127.58 55.3616 127.04 55.031 126.571C54.327 125.794 52.3497 125.277 51.0867 123.786C49.8237 122.295 47.6496 121.353 45.9932 120.152C45.5401 119.982 45.0555 119.913 44.5729 119.949C44.0903 119.984 43.6212 120.125 43.198 120.359Z" fill="#281504"/>
<path d="M43.4372 122.16C42.7643 120.297 43.4372 120.204 43.4889 119.293C43.4032 118.295 43.593 117.292 44.0376 116.394C44.2225 116.231 44.4322 116.098 44.6588 116.001C45.3408 115.735 46.0855 115.674 46.8017 115.825C47.8327 115.894 48.8231 116.253 49.659 116.86C50.2698 117.315 49.9075 117.895 50.3837 119.055C50.9428 120.473 55.3115 124.904 55.6428 127.875C55.6832 128.3 55.5782 128.726 55.3449 129.083C55.1117 129.44 54.7642 129.708 54.3591 129.842C53.2666 130.206 52.1075 130.327 50.9635 130.194C47.6403 129.811 43.6856 122.885 43.4372 122.16Z" fill="url(#paint14_linear)"/>
<path d="M73.3772 62.0227C73.8327 60.5216 74.1226 58.3269 74.2054 58.0163C74.547 56.6705 74.9922 55.6663 76.4415 55.6042C76.729 55.5622 77.0221 55.5794 77.3027 55.6547C77.5833 55.73 77.8455 55.8619 78.0733 56.0422C78.3011 56.2225 78.4897 56.4475 78.6274 56.7033C78.7652 56.9591 78.8492 57.2403 78.8744 57.5297C79.3263 58.9539 79.5704 60.4357 79.5991 61.9296C79.5991 62.5507 79.1125 64.5902 78.5638 64.0001C78.2946 63.6999 78.6673 61.9296 78.6673 61.9296L78.2946 60.563C78.2946 60.563 78.1083 63.2754 78.0669 64.2589C77.8424 65.0576 77.493 65.8158 77.0316 66.5054C76.8349 66.8367 76.5451 67.3336 76.4001 66.7228C76.2966 66.288 77.1352 64.6523 77.073 64.2278C77.0109 63.8034 76.9592 63.2754 76.8763 62.7992C76.8763 62.4886 76.8763 62.2712 76.6486 62.1366C76.5865 62.8302 76.5658 63.6999 76.5761 64.2796C76.3385 65.1235 75.9605 65.9215 75.4581 66.64C75.2717 66.9816 74.9818 67.1472 74.8266 66.5364C74.723 66.1016 75.7376 64.6419 75.7169 64.2382C75.6962 63.8344 75.634 62.4058 75.6133 61.7743H75.5409C75.423 62.425 75.3401 63.0816 75.2924 63.7413C75.2924 64.3003 74.5056 64.7765 74.2572 65.2631C74.0605 65.5737 73.7809 65.5322 73.6774 64.9525C73.5946 64.5281 74.5367 63.617 74.547 63.234C74.5574 62.8509 74.547 62.002 74.547 61.3912C74.4194 61.6192 74.3219 61.8628 74.2572 62.1159C74.193 62.3545 74.081 62.5776 73.928 62.7716C73.7749 62.9656 73.584 63.1265 73.3668 63.2443C73.1184 63.3996 72.7457 63.6377 72.7043 63.1615C72.6629 62.6853 73.2944 62.3023 73.3772 62.0227Z" fill="url(#paint15_linear)"/>
<path opacity="0.5" d="M76.5969 62.1159C76.7832 62.2505 76.7832 62.4679 76.8246 62.7785C76.9074 63.2547 76.9385 63.7309 77.0213 64.2071C77.1041 64.6833 76.2449 66.2776 76.3484 66.7021C76.3698 66.7783 76.4011 66.8514 76.4416 66.9195C77.015 66.1963 77.4533 65.3757 77.7356 64.497C77.8766 63.5436 77.9596 62.5824 77.9841 61.619C78.0186 60.8455 77.8107 60.0805 77.3894 59.4309C76.9681 58.7813 76.3544 58.2795 75.6341 57.9956C75.4703 57.9371 75.2957 57.9156 75.1226 57.9325C74.9496 57.9494 74.7824 58.0043 74.633 58.0933C74.4837 58.1823 74.3558 58.3032 74.2586 58.4474C74.1615 58.5916 74.0973 58.7555 74.0708 58.9273C73.9078 59.9741 73.6866 61.0109 73.4083 62.0331C73.3255 62.3126 72.694 62.8716 72.7147 63.2029C72.7354 63.5342 73.1288 63.441 73.3772 63.2857C73.5968 63.1622 73.7884 62.9944 73.9399 62.7931C74.0913 62.5917 74.1994 62.3611 74.2572 62.1159C74.3005 61.8507 74.3807 61.5928 74.4953 61.3498C74.4953 61.9606 74.4953 62.7992 74.4953 63.1926C74.4953 63.586 73.5429 64.4866 73.6257 64.9111C73.7292 65.4908 74.0087 65.5322 74.2054 65.2216C74.5057 64.7351 75.2407 64.2589 75.2407 63.6998C75.2884 63.0402 75.3713 62.3836 75.4891 61.7329H75.5616C75.5616 62.3644 75.6548 63.8034 75.6651 64.1967C75.6755 64.5901 74.6299 66.0602 74.7748 66.495C74.9301 67.1058 75.22 66.9402 75.4063 66.5985C75.9088 65.88 76.2867 65.0821 76.5244 64.2382C76.514 63.7102 76.5348 62.8406 76.5969 62.1159Z" fill="#9FA4A5"/>
<path d="M77.5791 54.424C77.808 55.0685 77.9201 55.7486 77.9104 56.4324C77.8069 57.3331 75.8399 57.6644 75.3016 56.9294C74.9878 56.2357 74.8187 55.4854 74.8046 54.7243C74.9806 53.9582 76.4714 53.5648 77.2271 54.0307C77.3799 54.1251 77.5022 54.2617 77.5791 54.424Z" fill="#363633"/>
<path d="M69.6494 33.6568C70.0549 33.3083 70.562 33.0999 71.0954 33.0626C71.6289 33.0253 72.1601 33.1611 72.6102 33.4497C73.0995 33.7806 73.5169 34.2071 73.8371 34.7034C74.1574 35.1998 74.3739 35.7559 74.4736 36.3381C75.043 38.6363 77.0203 50.0034 77.6933 53.2231C78.1798 55.5524 74.6703 55.3971 74.3805 54.5171C73.2417 51.0904 68.728 40.4791 68.1689 37.9531C68.0372 37.1703 68.1037 36.367 68.3623 35.6165C68.6209 34.866 69.0634 34.1923 69.6494 33.6568Z" fill="url(#paint16_linear)"/>
<path d="M72.1853 34.1642C72.3287 34.6349 72.3194 35.139 72.1586 35.6041C71.9978 36.0692 71.6939 36.4715 71.2904 36.7531C70.8868 37.0348 70.4044 37.1814 69.9124 37.172C69.4204 37.1625 68.944 36.9975 68.5516 36.7006C68.4005 36.2287 68.4046 35.7208 68.5631 35.2513C68.7217 34.7819 69.0265 34.3756 69.4328 34.092C69.8391 33.8084 70.3256 33.6624 70.821 33.6754C71.3163 33.6884 71.7944 33.8597 72.1853 34.1642Z" fill="#9FA4A5"/>
<path d="M65.4571 20.3434C66.2232 23.2525 71.8653 32.8286 72.1345 34.7231C72.0784 35.0427 71.9595 35.348 71.7846 35.6214C71.6097 35.8947 71.3823 36.1307 71.1156 36.3155C70.8489 36.5004 70.5481 36.6305 70.2308 36.6984C69.9135 36.7662 69.5858 36.7704 69.2668 36.7108C69.0357 36.6411 68.8326 36.4997 68.6871 36.307C66.4613 33.5222 63.604 28.9878 61.8337 26.058C61.0883 24.8571 61.6577 25.6439 61.958 24.2981C62.1546 23.3043 64.5875 19.7533 65.4571 20.3434Z" fill="#363633"/>
<path d="M64.0579 28.0353C67.7434 26.7515 68.8304 19.422 64.9586 17.3722C60.476 15.0014 54.8545 22.4242 58.5918 26.089C59.4758 26.955 60.5347 27.6221 61.6976 28.0456C62.4645 28.2995 63.2933 28.2959 64.0579 28.0353Z" fill="url(#paint17_linear)"/>
<path d="M63.5328 111.808C63.3672 112.16 63.2533 113.661 63.9159 114.096C65.3031 115.028 65.9864 115.276 67.5599 116.353C68.5952 117.088 70.2412 118.641 71.4835 119.096C72.9584 119.643 74.5176 119.927 76.0904 119.935C77.8711 119.831 79.3204 119.396 79.4861 117.492C79.4911 117.098 79.4093 116.709 79.2464 116.351C79.0836 115.993 78.8437 115.676 78.544 115.421C77.6329 114.758 73.9992 114.5 72.1254 113.558C70.2516 112.615 68.1086 111.642 66.1934 110.566C65.3342 110.11 63.5846 111.601 63.5328 111.808Z" fill="#281504"/>
<path d="M63.9966 112.988C62.9614 112.067 63.8621 110.742 63.9966 109.655C64.1002 109.023 64.0588 107.998 64.5867 107.584C65.3114 106.942 66.8539 107.481 67.6925 107.584C68.4848 107.557 69.2752 107.68 70.0218 107.947C70.6119 108.319 70.643 109.272 71.0571 109.8C72.1958 111.228 73.9351 111.87 75.4672 112.802C76.9994 113.734 79.2252 115.162 79.4115 117.274C79.4239 117.623 79.3321 117.968 79.1477 118.265C78.9634 118.562 78.6948 118.797 78.3763 118.941C76.0987 119.862 73.0654 118.941 70.9535 117.668C69.2143 116.632 67.8478 114.997 66.0568 114.148C65.3168 113.865 64.6227 113.474 63.9966 112.988Z" fill="url(#paint18_linear)"/>
<path d="M69.7024 104.095C69.7024 104.944 70.0026 107.77 70.0026 108.423C70.0026 109.561 68.3566 109.717 67.487 109.717C65.7581 109.717 65.1887 108.93 65.168 108.454C65.168 108.309 65.168 105.11 65.168 104.975C65.375 103.443 66.4207 104.095 68.0046 104.095H69.7024Z" fill="#363633"/>
<path d="M71.9381 85.9265C71.3967 79.8265 70.3896 73.7767 68.9255 67.8303C68.4943 66.3487 67.9863 64.8904 67.4036 63.4616C67.0671 62.1721 66.5253 60.9452 65.799 59.8278C65.0433 58.8857 64.3497 59.2481 63.4386 59.745C62.0368 60.693 60.8715 61.9504 60.0327 63.4201C58.688 65.5764 57.9083 68.0366 57.7655 70.5737C57.6504 74.0953 58.0338 77.6155 58.9042 81.0298C59.6997 83.9357 60.6783 86.7883 61.834 89.5706C61.7201 98.774 63.4593 99.83 64.2875 105.638L64.6085 107.211C65.6437 107.75 66.855 107.936 67.6314 106.797C67.9515 106.371 68.3912 106.051 68.8944 105.876C69.205 105.762 69.5363 105.741 69.8572 105.648C70.1781 105.555 70.261 105.369 70.1678 104.944C69.9813 104.14 69.915 103.314 69.9711 102.491C70.3127 98.5359 71.0788 96.279 71.4618 91.579C71.8343 89.719 71.9941 87.8226 71.9381 85.9265Z" fill="url(#paint19_linear)"/>
<path d="M64.7332 59.8488C62.9111 59.5382 59.6397 65.1596 59.0289 66.9196C58.2712 69.5015 58.0666 72.2143 58.4285 74.8807C58.4476 75.1195 58.5167 75.3517 58.6314 75.562C58.7461 75.7724 58.9037 75.9563 59.0941 76.1018C59.2845 76.2473 59.5034 76.3511 59.7365 76.4064C59.9696 76.4618 60.2118 76.4675 60.4472 76.4232C67.6112 76.0712 67.3834 60.294 64.7332 59.8488Z" fill="#9FA4A5"/>
<path d="M56.8233 65.7185L59.4011 72.5926C61.6062 76.7336 64.3185 71.6816 65.1881 67.7683C65.4686 66.4729 65.3825 65.125 64.9397 63.8758L62.5483 57.0017C60.6537 57.685 56.9475 65.0249 56.8233 65.7185Z" fill="#363633"/>
<path d="M55.3429 66.4225L53.5519 76.6093C50.0631 76.8371 47.4646 72.9549 46.1395 69.0416L46.8745 60.1074C48.8829 60.3455 55.053 65.7806 55.3429 66.4225Z" fill="#363633"/>
<path d="M59.8868 70.0668C61.6053 68.7209 61.7813 66.1639 62.1747 64.2072C62.4085 62.5933 63.0618 61.069 64.0692 59.7867C64.8943 58.8865 65.5314 57.8306 65.943 56.681C66.1658 55.3534 66.1972 54.0007 66.0362 52.6642C65.5496 59.2587 53.1473 59.9109 51.17 59.9627C48.8731 59.9598 46.6352 59.2355 44.7721 57.8922C44.6124 58.8408 44.7016 59.8146 45.0309 60.7184C45.0928 60.886 45.2021 61.032 45.3455 61.1386C45.4888 61.2452 45.6601 61.3079 45.8384 61.3189C48.6781 61.557 51.3345 62.819 53.313 64.8698C54.352 66.1484 55.2476 67.537 55.9839 69.0108C56.7189 70.3981 57.8784 71.278 59.452 70.3981C59.6062 70.3003 59.7517 70.1895 59.8868 70.0668Z" fill="url(#paint20_linear)"/>
<path style="mix-blend-mode:screen" opacity="0.9" d="M59.8868 70.0668C61.6053 68.7209 61.7813 66.1639 62.1747 64.2072C62.4085 62.5933 63.0618 61.069 64.0692 59.7867C64.8943 58.8865 65.5314 57.8306 65.943 56.681C66.1658 55.3534 66.1972 54.0007 66.0362 52.6642C65.5496 59.2587 53.1473 59.9109 51.17 59.9627C48.8731 59.9598 46.6352 59.2355 44.7721 57.8922C44.6124 58.8408 44.7016 59.8146 45.0309 60.7184C45.0928 60.886 45.2021 61.032 45.3455 61.1386C45.4888 61.2452 45.6601 61.3079 45.8384 61.3189C48.6781 61.557 51.3345 62.819 53.313 64.8698C54.352 66.1484 55.2476 67.537 55.9839 69.0108C56.7189 70.3981 57.8784 71.278 59.452 70.3981C59.6062 70.3003 59.7517 70.1895 59.8868 70.0668Z" fill="url(#paint21_radial)"/>
<path d="M65.8701 52.519C66.4602 54.7965 64.2137 58.3992 58.3956 59.9003C52.5775 61.4014 45.3618 60.2212 44.7717 57.9747C44.1816 55.7282 48.4675 53.9683 54.2649 52.343C60.9113 50.4381 65.2904 50.2414 65.8701 52.519Z" fill="#9FA4A5"/>
<path d="M64.8465 44.0923V52.6642C64.8465 52.6642 65.2399 57.5092 57.4548 58.9999C46.947 61.0083 45.9739 57.3332 45.9739 57.3332L45.2699 49.1961L64.8465 44.0923Z" fill="#363633"/>
<path d="M47.1444 55.1381C51.5236 57.2915 55.0227 54.2168 57.8593 51.4319C60.3129 49.0301 62.8699 47.6222 65.9757 48.1605C65.8618 41.7213 65.6962 34.5159 65.5719 32.8595C65.5103 32.106 65.41 31.3562 65.2717 30.613C65.2717 30.3335 65.2717 30.0954 65.2717 29.909C65.1994 27.5882 64.8519 25.2842 64.2365 23.0453C63.9208 22.1264 63.2874 21.3504 62.4505 20.857C61.6135 20.3635 60.6279 20.185 59.671 20.3537C53.4595 21.6477 47.0513 24.4118 42.4237 28.822C42.3305 29.3189 43.6556 43.5019 44.5563 52.9952C45.2934 53.8489 46.1682 54.5733 47.1444 55.1381Z" fill="url(#paint22_linear)"/>
<path style="mix-blend-mode:screen" opacity="0.9" d="M47.1444 55.1381C51.5236 57.2915 55.0227 54.2168 57.8593 51.4319C60.3129 49.0301 62.8699 47.6222 65.9757 48.1605C65.8618 41.7213 65.6962 34.5159 65.5719 32.8595C65.5103 32.106 65.41 31.3562 65.2717 30.613C65.2717 30.3335 65.2717 30.0954 65.2717 29.909C65.1994 27.5882 64.8519 25.2842 64.2365 23.0453C63.9208 22.1264 63.2874 21.3504 62.4505 20.857C61.6135 20.3635 60.6279 20.185 59.671 20.3537C53.4595 21.6477 47.0513 24.4118 42.4237 28.822C42.3305 29.3189 43.6556 43.5019 44.5563 52.9952C45.2934 53.8489 46.1682 54.5733 47.1444 55.1381Z" fill="url(#paint23_radial)"/>
<path d="M49.1505 113.361C49.1505 114.21 49.4507 117.036 49.4507 117.688C49.4507 118.827 47.8046 118.982 46.935 118.982C45.2062 118.982 44.6368 118.195 44.6161 117.719C44.6161 117.574 44.6161 114.375 44.6161 114.241C44.8231 112.709 45.8687 113.361 47.4527 113.361H49.1505Z" fill="#363633"/>
<path d="M57.1118 79.301C56.5631 75.3774 55.5486 71.2467 53.0743 68.0582C51.8573 66.3195 50.2787 64.8645 48.4467 63.7929C48.0554 63.6098 47.6271 63.5196 47.1951 63.5293C46.7632 63.5389 46.3393 63.6482 45.9565 63.8486C45.5738 64.049 45.2425 64.3351 44.9885 64.6846C44.7344 65.0341 44.5646 65.4375 44.4921 65.8634C44.1711 67.7165 43.3015 69.9113 43.0841 71.7851C42.4149 76.5907 42.3766 81.4631 42.9702 86.2786C42.9702 86.6927 43.8192 91.7551 44.3368 94.1983C44.6243 95.8789 44.4709 97.6053 43.8916 99.2089C41.9453 105.514 44.4092 108.153 43.8916 114.613C43.8434 114.846 43.8494 115.086 43.9091 115.315C43.9688 115.545 44.0806 115.757 44.2359 115.937C44.3911 116.116 44.5856 116.257 44.8042 116.349C45.0227 116.441 45.2596 116.481 45.4963 116.467C46.5315 116.467 46.7696 115.887 48.043 115.649C48.8298 115.504 49.4406 116.094 49.8443 115.721C50.2481 115.348 49.9996 114.572 50.0617 114.117C51.097 106.352 51.9976 105.514 53.0122 103.029C53.1707 102.66 53.2988 102.28 53.3952 101.89C53.7369 100.431 54.5651 98.8776 54.5651 96.7139C54.5651 96.538 55.4657 91.5377 56.1697 87.0861C56.2884 86.9077 56.3695 86.7069 56.4078 86.496C56.4906 85.5643 56.9358 82.1997 57.2774 79.6633C57.1943 79.5574 57.1375 79.4332 57.1118 79.301Z" fill="url(#paint24_linear)"/>
<path d="M52.0617 22.973C51.6699 23.1311 51.2953 23.3288 50.9436 23.563C48.5936 25.1677 50.1568 27.2485 53.0141 28.232C54.6912 28.8014 58.3871 29.0602 59.2256 26.9276C60.882 22.3 54.8672 21.741 52.0617 22.973Z" fill="#9FA4A5"/>
<path d="M37.2041 70.2117C37.0742 70.8957 37.0742 71.5981 37.2041 72.2822C37.4733 73.1518 39.4506 73.1104 39.8647 72.2822C40.0485 71.544 40.0802 70.7762 39.9579 70.0253C39.637 69.3007 38.0945 69.1868 37.4423 69.7872C37.3282 69.9063 37.2463 70.0523 37.2041 70.2117Z" fill="#363633"/>
<path d="M40.1562 34.3609C40.4461 37.3527 38.4584 48.285 38.8621 50.1692C39.1962 50.7328 39.7403 51.1409 40.3749 51.304C41.0096 51.467 41.683 51.3716 42.2474 51.0388C42.4419 50.8971 42.581 50.6921 42.6408 50.459C43.819 46.5095 44.7901 42.501 45.5498 38.4501C45.8397 37.0732 45.5498 38.0153 44.8252 36.8455C44.2351 35.9966 40.7566 33.512 40.1562 34.3609Z" fill="#363633"/>
<path d="M41.181 48.3367C40.7202 48.0656 40.1841 47.9504 39.6526 48.0082C39.1211 48.066 38.6223 48.2938 38.2306 48.6576C37.8189 49.082 37.4969 49.5848 37.2835 50.1361C37.07 50.6874 36.9696 51.276 36.9883 51.8669C36.8433 54.2273 36.9882 65.7496 36.9261 69.0521C36.9261 71.4228 40.2907 70.636 40.4149 69.7146C40.9015 66.1327 43.3861 54.8691 43.4482 52.2914C43.433 51.4948 43.2173 50.7149 42.8211 50.0237C42.4248 49.3325 41.8608 48.7523 41.181 48.3367Z" fill="url(#paint25_linear)"/>
<path d="M40.7248 73.2347C40.6807 72.6919 40.4587 72.1788 40.0933 71.775C39.8877 71.6038 39.6445 71.4837 39.3837 71.4243C39.1228 71.3649 38.8516 71.368 38.5921 71.4334C38.3126 71.4334 37.8675 71.4334 37.5569 71.4334H37.3395C36.4802 71.744 36.1179 73.183 35.973 73.9698C35.9108 74.2803 35.8591 74.6013 35.8177 74.9222C35.5864 75.942 35.4581 76.9825 35.4346 78.028C35.5321 78.8005 35.7341 79.5563 36.0351 80.2745C36.3457 80.6368 36.3664 80.202 36.3871 79.9121C36.3871 79.4566 36.2525 78.5456 36.2835 78.0901C36.3209 77.8249 36.3868 77.5646 36.4802 77.3136C36.4802 77.9348 36.5734 79.1771 36.5941 79.5705C36.7398 80.4489 37.0338 81.2961 37.4637 82.0758C37.8985 82.4795 37.8675 81.9412 37.8468 81.5789C37.8468 81.0198 37.412 80.1606 37.3913 79.6015C37.3706 79.0425 37.3913 78.2971 37.5051 77.6242H37.5776C37.6397 78.2454 37.8157 79.6947 37.8571 80.0674C38.0533 81.0425 38.4213 81.975 38.9441 82.8212C39.4307 83.2249 39.3686 82.6555 39.3168 82.2725C39.234 81.672 38.7578 80.7921 38.706 80.202C38.6543 79.6119 38.6129 78.7526 38.6232 78.0694C38.8199 78.1832 38.8303 78.411 38.9027 78.7112C39.0062 79.1771 39.0787 79.6533 39.1926 80.1192C39.4351 80.9318 39.8055 81.7006 40.29 82.3967C40.7765 82.8005 40.7144 82.2311 40.673 81.848C40.5552 81.2507 40.4066 80.6598 40.2279 80.0777C40.0013 79.386 39.8351 78.6759 39.7309 77.9555C39.7309 77.6449 39.7309 76.5682 39.9897 76.3715C40.5074 75.9678 41.025 77.1894 41.0768 77.5207C41.2735 78.1729 40.9008 79.0839 41.3977 79.6533C41.8946 80.2227 42.112 78.5249 42.112 78.2661C42.0395 76.4337 41.025 74.9325 40.7248 73.2347Z" fill="url(#paint26_linear)"/>
<path d="M45.9738 38.4809C49.649 37.1972 50.736 29.8676 46.8642 27.8178C42.3815 25.4471 36.7601 32.8699 40.4973 36.5347C41.3822 37.3997 42.4408 38.0666 43.6031 38.4913C44.3724 38.7522 45.2068 38.7485 45.9738 38.4809Z" fill="url(#paint27_linear)"/>
<path d="M47.1012 15.3016C47.8362 15.9641 51.0351 23.5836 51.5424 24.9708C52.2464 26.886 54.41 27.6728 56.3149 27.4865C56.9982 27.414 57.961 27.238 58.3233 26.6169C58.9962 25.4678 58.727 23.5111 58.7581 22.2585C58.8637 20.9625 58.8081 19.6585 58.5925 18.3763C58.3751 17.4135 56.522 17.2789 55.7766 16.5853C55.296 15.9958 54.7624 15.4518 54.1823 14.9599C53.6058 14.6827 52.9973 14.4775 52.3706 14.3491C50.5382 13.7487 48.1364 13.0033 47.1012 15.3016Z" fill="#363633"/>
<path d="M61.2237 7.79621C61.1512 4.84574 57.3725 -1.36577 51.2542 0.269929C48.3762 1.03602 45.6845 3.10652 44.9599 8.02397C44.6737 10.4201 45.0015 12.8497 45.9123 15.0844C45.9971 15.268 46.1339 15.4228 46.3057 15.5295C47.3927 16.306 51.6165 19.2254 53.5524 18.9045C54.7326 18.6974 57.5899 20.1985 57.9212 19.008C58.7869 16.6808 59.3066 14.2392 59.4637 11.7612C59.5362 10.3533 61.2651 9.31803 61.2237 7.79621Z" fill="url(#paint28_linear)"/>
<path d="M61.3354 8.7487C61.2629 5.78788 59.4408 1.90569 54.4406 3.81055C52.9597 4.50519 51.68 5.56529 50.7219 6.89103C49.7638 8.21677 49.1589 9.76454 48.9641 11.3886C48.4465 15.1673 48.8192 18.0556 50.6619 20.799C51.6143 22.207 55.7864 23.7599 57.9087 23.3872C59.0992 23.1801 59.4305 21.5858 59.7514 20.3953C60.6225 18.0697 61.1424 15.6273 61.2939 13.1485C61.3957 11.6841 61.4096 10.2148 61.3354 8.7487Z" fill="url(#paint29_linear)"/>
<path d="M61.5752 88.9289L61.8133 89.5707V90.1608C63.1798 91.3099 66.2441 91.8586 67.5486 91.7862C68.9552 91.822 70.3469 91.4902 71.5861 90.8234C71.8254 89.4561 71.9432 88.0704 71.938 86.6824C71.8345 89.2809 63.656 89.0324 61.5752 88.9289Z" fill="#363633"/>
<path d="M53.9451 100.017C54.2757 99.0473 54.4708 98.037 54.5249 97.0143C52.8064 98.4844 46.4913 96.2897 44.4933 95.5339C44.5 96.0294 44.4654 96.5246 44.3898 97.0143C45.6791 98.4067 47.3047 99.4441 49.1105 100.027C50.7152 100.42 52.6718 100.876 53.9451 100.017Z" fill="#363633"/>
<path style="mix-blend-mode:screen" d="M47.1538 43.8849C47.1538 50.6865 52.6717 53.0262 59.4733 49.0612C66.2749 45.0962 71.7928 36.4311 71.7928 29.6295C71.7928 22.8279 66.2749 20.4986 59.4733 24.4533C52.6717 28.4079 47.1538 37.0833 47.1538 43.8849Z" fill="url(#paint30_radial)"/>
<g style="mix-blend-mode:screen">
<path d="M58.5717 37.27C58.5717 37.7669 58.9754 37.9429 59.4724 37.653C59.7225 37.503 59.9342 37.2967 60.0906 37.0505C60.2469 36.8043 60.3436 36.5249 60.373 36.2347C60.373 35.7378 59.9693 35.5722 59.4724 35.8517C59.2222 36.0017 59.0105 36.208 58.8542 36.4542C58.6978 36.7005 58.6011 36.9798 58.5717 37.27Z" fill="#F3F5F5"/>
</g>
<defs>
<linearGradient id="paint0_linear" x1="2509.71" y1="1363.07" x2="3189.5" y2="1363.07" gradientUnits="userSpaceOnUse">
<stop stop-color="#B2B9BB"/>
<stop offset="1" stop-color="#D6DCDD"/>
</linearGradient>
<linearGradient id="paint1_linear" x1="1631.01" y1="1884.42" x2="1876.85" y2="1884.42" gradientUnits="userSpaceOnUse">
<stop stop-color="#B2B9BB"/>
<stop offset="1" stop-color="#D6DCDD"/>
</linearGradient>
<linearGradient id="paint2_linear" x1="1386.08" y1="1881.86" x2="1555.17" y2="1881.86" gradientUnits="userSpaceOnUse">
<stop stop-color="#222220"/>
<stop offset="1" stop-color="#363633"/>
</linearGradient>
<linearGradient id="paint3_linear" x1="98.8248" y1="50.5832" x2="103.401" y2="58.5132" gradientUnits="userSpaceOnUse">
<stop stop-color="#B6BDBE"/>
<stop offset="1" stop-color="#9DA5A8"/>
</linearGradient>
<linearGradient id="paint4_linear" x1="896.659" y1="332.365" x2="928.663" y2="332.365" gradientUnits="userSpaceOnUse">
<stop stop-color="#B2B9BB"/>
<stop offset="1" stop-color="#D6DCDD"/>
</linearGradient>
<linearGradient id="paint5_linear" x1="657.048" y1="1203.74" x2="671.958" y2="1203.74" gradientUnits="userSpaceOnUse">
<stop stop-color="#222220"/>
<stop offset="1" stop-color="#363633"/>
</linearGradient>
<linearGradient id="paint6_linear" x1="896.659" y1="302.968" x2="928.663" y2="302.968" gradientUnits="userSpaceOnUse">
<stop stop-color="#B2B9BB"/>
<stop offset="1" stop-color="#D6DCDD"/>
</linearGradient>
<linearGradient id="paint7_linear" x1="1020.02" y1="333.038" x2="1063.22" y2="333.038" gradientUnits="userSpaceOnUse">
<stop stop-color="#B2B9BB"/>
<stop offset="1" stop-color="#D6DCDD"/>
</linearGradient>
<linearGradient id="paint8_linear" x1="861.573" y1="817.501" x2="890.874" y2="817.501" gradientUnits="userSpaceOnUse">
<stop stop-color="#B2B9BB"/>
<stop offset="1" stop-color="#D6DCDD"/>
</linearGradient>
<linearGradient id="paint9_linear" x1="1201.99" y1="1091.11" x2="1220.85" y2="1091.11" gradientUnits="userSpaceOnUse">
<stop stop-color="#B2B9BB"/>
<stop offset="1" stop-color="#D6DCDD"/>
</linearGradient>
<linearGradient id="paint10_linear" x1="1037.68" y1="619.921" x2="1086.31" y2="698.693" gradientUnits="userSpaceOnUse">
<stop stop-color="#B6BDBE"/>
<stop offset="1" stop-color="#9DA5A8"/>
</linearGradient>
<linearGradient id="paint11_linear" x1="134.851" y1="78.3907" x2="136.725" y2="75.0675" gradientUnits="userSpaceOnUse">
<stop stop-color="#D6DCDD"/>
<stop offset="0.05" stop-color="#CDD3D5"/>
<stop offset="0.17" stop-color="#B9C0C2"/>
<stop offset="0.26" stop-color="#B2B9BB"/>
<stop offset="0.29" stop-color="#B6BDBE"/>
<stop offset="0.6" stop-color="#DBDFE0"/>
<stop offset="0.77" stop-color="#E9ECED"/>
</linearGradient>
<linearGradient id="paint12_linear" x1="137.596" y1="75.6262" x2="136.054" y2="78.9598" gradientUnits="userSpaceOnUse">
<stop stop-color="#99F0FF"/>
<stop offset="0.09" stop-color="#91E3F1"/>
<stop offset="0.72" stop-color="#58868D"/>
<stop offset="1" stop-color="#416166"/>
</linearGradient>
<radialGradient id="paint13_radial" cx="0" cy="0" r="1" gradientUnits="userSpaceOnUse" gradientTransform="translate(2599.67 390.581) rotate(-30.0474) scale(219.865 93.3827)">
<stop stop-color="#96FFFA"/>
<stop offset="0.18" stop-color="#14B5AD"/>
<stop offset="0.28" stop-color="#0F8882"/>
<stop offset="0.4" stop-color="#0A5F5A"/>
<stop offset="0.51" stop-color="#073C3A"/>
<stop offset="0.63" stop-color="#042220"/>
<stop offset="0.75" stop-color="#020F0E"/>
<stop offset="0.87" stop-color="#000404"/>
<stop offset="1"/>
</radialGradient>
<linearGradient id="paint14_linear" x1="655.567" y1="1839.64" x2="806.703" y2="1839.64" gradientUnits="userSpaceOnUse">
<stop stop-color="#B2B9BB"/>
<stop offset="1" stop-color="#D6DCDD"/>
</linearGradient>
<linearGradient id="paint15_linear" x1="623.82" y1="734.748" x2="650.481" y2="732.081" gradientUnits="userSpaceOnUse">
<stop stop-color="#B2B9BB"/>
<stop offset="1" stop-color="#D6DCDD"/>
</linearGradient>
<linearGradient id="paint16_linear" x1="797.194" y1="985.887" x2="843.003" y2="981.279" gradientUnits="userSpaceOnUse">
<stop stop-color="#B2B9BB"/>
<stop offset="1" stop-color="#D6DCDD"/>
</linearGradient>
<linearGradient id="paint17_linear" x1="59.4821" y1="26.4617" x2="66.998" y2="17.4032" gradientUnits="userSpaceOnUse">
<stop stop-color="#B2B9BB"/>
<stop offset="0.45" stop-color="#D6DCDD"/>
<stop offset="1" stop-color="#E9ECED"/>
</linearGradient>
<linearGradient id="paint18_linear" x1="1155.08" y1="1424.06" x2="1400.69" y2="1424.06" gradientUnits="userSpaceOnUse">
<stop stop-color="#B2B9BB"/>
<stop offset="1" stop-color="#D6DCDD"/>
</linearGradient>
<linearGradient id="paint19_linear" x1="989.209" y1="3993.7" x2="1095.2" y2="3989.33" gradientUnits="userSpaceOnUse">
<stop stop-color="#B2B9BB"/>
<stop offset="1" stop-color="#D6DCDD"/>
</linearGradient>
<linearGradient id="paint20_linear" x1="1126.46" y1="1130.63" x2="1570.53" y2="1130.63" gradientUnits="userSpaceOnUse">
<stop stop-color="#B2B9BB"/>
<stop offset="1" stop-color="#D6DCDD"/>
</linearGradient>
<radialGradient id="paint21_radial" cx="0" cy="0" r="1" gradientUnits="userSpaceOnUse" gradientTransform="translate(1486.91 988.467) scale(377.814 318.686)">
<stop stop-color="#E9ECED"/>
<stop offset="1"/>
</radialGradient>
<linearGradient id="paint22_linear" x1="1177.61" y1="1328.2" x2="1714.71" y2="1328.2" gradientUnits="userSpaceOnUse">
<stop stop-color="#B2B9BB"/>
<stop offset="1" stop-color="#D6DCDD"/>
</linearGradient>
<radialGradient id="paint23_radial" cx="0" cy="0" r="1" gradientUnits="userSpaceOnUse" gradientTransform="translate(1612.94 756.234) scale(801.161 1209.73)">
<stop stop-color="#E9ECED"/>
<stop offset="1"/>
</radialGradient>
<linearGradient id="paint24_linear" x1="725.816" y1="4654.03" x2="862.648" y2="4655.47" gradientUnits="userSpaceOnUse">
<stop stop-color="#B2B9BB"/>
<stop offset="1" stop-color="#D6DCDD"/>
</linearGradient>
<linearGradient id="paint25_linear" x1="315.363" y1="1335.79" x2="350.322" y2="1337.29" gradientUnits="userSpaceOnUse">
<stop stop-color="#B2B9BB"/>
<stop offset="1" stop-color="#D6DCDD"/>
</linearGradient>
<linearGradient id="paint26_linear" x1="312.345" y1="934.275" x2="355.615" y2="934.275" gradientUnits="userSpaceOnUse">
<stop stop-color="#B2B9BB"/>
<stop offset="1" stop-color="#D6DCDD"/>
</linearGradient>
<linearGradient id="paint27_linear" x1="498.134" y1="425.532" x2="579.937" y2="375.463" gradientUnits="userSpaceOnUse">
<stop stop-color="#B2B9BB"/>
<stop offset="0.45" stop-color="#D6DCDD"/>
<stop offset="1" stop-color="#E9ECED"/>
</linearGradient>
<linearGradient id="paint28_linear" x1="872.763" y1="183.426" x2="1131.66" y2="183.426" gradientUnits="userSpaceOnUse">
<stop stop-color="#B2B9BB"/>
<stop offset="1" stop-color="#D6DCDD"/>
</linearGradient>
<linearGradient id="paint29_linear" x1="879.768" y1="139.44" x2="702.452" y2="290.341" gradientUnits="userSpaceOnUse">
<stop stop-color="#E9ECED"/>
<stop offset="1" stop-color="#D6DCDD"/>
</linearGradient>
<radialGradient id="paint30_radial" cx="0" cy="0" r="1" gradientUnits="userSpaceOnUse" gradientTransform="translate(1641.79 262.793) rotate(-30.1137) scale(338.952 293.036)">
<stop stop-color="#96FFFA"/>
<stop offset="0.18" stop-color="#14B5AD"/>
<stop offset="0.28" stop-color="#0F8882"/>
<stop offset="0.4" stop-color="#0A5F5A"/>
<stop offset="0.51" stop-color="#073C3A"/>
<stop offset="0.63" stop-color="#042220"/>
<stop offset="0.75" stop-color="#020F0E"/>
<stop offset="0.87" stop-color="#000404"/>
<stop offset="1"/>
</radialGradient>
</defs>
</svg>
