<svg width="156" height="134" viewBox="0 0 156 134" fill="none" xmlns="http://www.w3.org/2000/svg">
<path opacity="0.2" d="M77.5845 133.648C120.433 133.648 155.169 113.595 155.169 88.8577C155.169 64.1209 120.433 44.0677 77.5845 44.0677C34.7357 44.0677 0 64.1209 0 88.8577C0 113.595 34.7357 133.648 77.5845 133.648Z" fill="#F55B28" fill-opacity="0.15"/>
<g style="mix-blend-mode:multiply" opacity="0.5">
<g style="mix-blend-mode:multiply" opacity="0.5">
<path d="M132.042 81.4801C130.603 81.2515 129.13 81.3842 127.755 81.8665L98.5394 64.9955C98.858 64.7483 99.1187 64.4343 99.3029 64.0756C100.076 62.4106 98.383 60.6995 95.4853 60.2488C92.5876 59.798 89.6439 60.7915 88.8712 62.4565C88.6866 62.8741 88.6479 63.3416 88.7614 63.7838C88.8749 64.2261 89.1339 64.6172 89.4967 64.8943L61.9641 80.7718C61.5074 80.608 61.0361 80.4878 60.5566 80.413C57.6681 79.9623 54.7061 80.9558 53.9334 82.6116C53.1606 84.2674 54.8533 85.9876 57.7601 86.4384C58.8142 86.5993 59.8883 86.5744 60.9338 86.3648L70.8319 92.0866C70.1375 92.3579 69.5588 92.8619 69.1945 93.5124C68.5138 94.9843 70.0316 96.5021 72.5797 96.8977C74.2894 97.2088 76.0538 96.8815 77.538 95.9778L90.6926 103.576C90.6199 103.674 90.5523 103.775 90.4902 103.88C89.7175 105.545 91.4101 107.256 94.317 107.697C97.2239 108.139 100.158 107.155 100.931 105.499C101.098 105.131 101.147 104.72 101.071 104.323C100.995 103.926 100.798 103.563 100.508 103.282L112.66 96.2445C113.281 96.5727 113.952 96.7935 114.647 96.8977C117.195 97.284 119.817 96.4193 120.497 94.9475C120.939 94.0276 120.497 93.0341 119.384 92.3625L128.206 87.2663C128.552 87.3727 128.906 87.4527 129.264 87.5055C132.143 87.947 135.115 86.9627 135.887 85.2977C136.66 83.6327 134.931 81.9217 132.042 81.4801ZM91.3733 65.943C91.8017 66.0879 92.2419 66.1956 92.6888 66.2649C93.2188 66.3411 93.7542 66.3719 94.2894 66.3569L95.0621 77.8373C92.8084 77.9109 90.7846 78.7572 90.1683 80.1279C90.0655 80.36 90.0092 80.61 90.0027 80.8638L64.4386 82.8324C64.3161 82.4591 64.1046 82.1213 63.8223 81.8481L91.3733 65.943ZM95.3749 101.562C94.2839 101.581 93.2091 101.828 92.2196 102.288L78.6235 94.4139C78.7707 93.1261 77.3356 91.9118 75.0911 91.5622C74.5853 91.4919 74.0742 91.4673 73.564 91.4886L63.1968 85.5001C63.7169 85.2018 64.1413 84.7614 64.4202 84.2306C64.5266 83.9932 64.583 83.7364 64.5858 83.4763L90.1315 81.4985C90.4994 82.6484 91.9713 83.6235 94.0319 83.9454C94.5008 84.0154 94.9744 84.0492 95.4485 84.0466L95.3749 101.562ZM94.9334 66.3293C95.4906 66.2754 96.0418 66.1707 96.58 66.0166L125.952 82.9704C125.738 83.174 125.56 83.4137 125.428 83.6787V83.4579L100.756 81.057C100.858 79.6311 99.2569 78.2973 96.764 77.9201C96.4077 77.8636 96.0482 77.8298 95.6877 77.8189L94.9334 66.3293ZM117.011 91.5622C114.481 91.1943 111.896 92.059 111.216 93.5124C111.113 93.7296 111.06 93.9668 111.06 94.2069C111.06 94.4471 111.113 94.6843 111.216 94.9015L98.7325 102.104C98.1965 101.889 97.638 101.735 97.0675 101.644C96.705 101.588 96.3395 101.554 95.9728 101.543V84.065C98.0978 83.9087 99.9468 83.0439 100.572 81.7837C100.577 81.7655 100.577 81.7466 100.572 81.7285L125.308 84.0834C125.239 84.4967 125.289 84.9211 125.452 85.3072C125.615 85.6932 125.884 86.025 126.228 86.2636L117.011 91.5622Z" fill="#005E7A"/>
</g>
<g style="mix-blend-mode:multiply" opacity="0.5">
<path d="M41.4502 103.07C54.065 103.07 64.2913 97.164 64.2913 89.8786C64.2913 82.5932 54.065 76.6873 41.4502 76.6873C28.8353 76.6873 18.609 82.5932 18.609 89.8786C18.609 97.164 28.8353 103.07 41.4502 103.07Z" fill="#005E7A"/>
</g>
<g style="mix-blend-mode:multiply" opacity="0.5">
<path d="M48.8916 120.723C54.2566 120.723 58.6057 118.211 58.6057 115.112C58.6057 112.013 54.2566 109.5 48.8916 109.5C43.5266 109.5 39.1774 112.013 39.1774 115.112C39.1774 118.211 43.5266 120.723 48.8916 120.723Z" fill="#005E7A"/>
</g>
<g style="mix-blend-mode:multiply" opacity="0.5">
<path d="M72.7826 101.129C76.5726 103.319 76.5726 106.869 72.7826 109.059C70.6545 110.138 68.3019 110.701 65.9156 110.701C63.5293 110.701 61.1766 110.138 59.0485 109.059C55.2493 106.869 55.2493 103.319 59.0485 101.129C61.1766 100.05 63.5293 99.4869 65.9156 99.4869C68.3019 99.4869 70.6545 100.05 72.7826 101.129Z" fill="#005E7A"/>
</g>
</g>
<path d="M100.25 59.5129C100.725 60.3353 100.946 61.2801 100.884 62.2279C100.822 63.1756 100.48 64.0837 99.902 64.8373C99.3239 65.5908 98.5353 66.156 97.636 66.4614C96.7366 66.7668 95.7669 66.7986 94.8495 66.5528C93.9321 66.3071 93.1082 65.7948 92.4819 65.0807C91.8557 64.3667 91.4552 63.483 91.3312 62.5413C91.2073 61.5997 91.3653 60.6424 91.7854 59.7906C92.2055 58.9388 92.8688 58.2307 93.6913 57.7558C94.7947 57.1217 96.1043 56.9505 97.3336 57.2798C98.5629 57.6091 99.6116 58.4121 100.25 59.5129Z" fill="url(#paint0_radial)"/>
<path d="M93.4561 63.4226V63.3582C93.3859 63.204 93.2929 63.0614 93.1802 62.935C93.095 62.8319 92.9922 62.7447 92.8766 62.6775C92.775 62.6133 92.6563 62.5812 92.5362 62.5855C92.4882 62.5938 92.4417 62.6093 92.3982 62.6315L62.3359 80.0452C62.3845 80.036 62.4344 80.036 62.4831 80.0452C62.6032 80.0409 62.7218 80.073 62.8234 80.1372C62.939 80.2044 63.0418 80.2916 63.127 80.3947C63.24 80.5191 63.3303 80.6623 63.3938 80.8179V80.8823C63.5501 81.287 63.5042 81.6458 63.2834 81.8022L93.3457 64.3149C93.5573 64.1861 93.6125 63.8457 93.4561 63.4226Z" fill="url(#paint1_linear)"/>
<path d="M62.8214 80.091C63.0966 80.2676 63.3065 80.5292 63.4193 80.8361C63.6125 81.3237 63.4929 81.756 63.1617 81.756C63.0413 81.7627 62.922 81.7305 62.8214 81.6641C62.5486 81.4889 62.339 81.231 62.2234 80.9281C62.0394 80.4406 62.1498 80.0082 62.481 80.0082C62.6002 80.0012 62.7187 80.0301 62.8214 80.091Z" fill="#222220"/>
<path d="M129.273 80.0729C128.998 80.2495 128.788 80.5111 128.675 80.8181C128.491 81.2964 128.602 81.738 128.933 81.738C129.053 81.7422 129.172 81.7102 129.273 81.646C129.546 81.4708 129.756 81.2129 129.871 80.9101C130.064 80.4225 129.945 79.9902 129.614 79.9902C129.495 79.9853 129.377 80.014 129.273 80.0729Z" fill="#222220"/>
<path d="M99.7813 62.613C99.7327 62.6038 99.6828 62.6038 99.6342 62.613C99.5142 62.6099 99.3959 62.6418 99.2938 62.705C99.18 62.7747 99.0776 62.8616 98.9902 62.9625C98.9361 63.0229 98.8869 63.0875 98.8431 63.1557C98.7978 63.2295 98.7579 63.3063 98.7235 63.3857V63.4501C98.5671 63.8548 98.6223 64.2136 98.8338 64.37L128.859 81.7837C128.648 81.6641 128.593 81.3054 128.749 80.8638V80.7902C128.749 80.7166 128.823 80.643 128.869 80.5695C128.91 80.4997 128.96 80.4349 129.016 80.3763C129.101 80.2727 129.203 80.1855 129.319 80.1187C129.422 80.0565 129.54 80.0246 129.66 80.0267C129.708 80.0134 129.759 80.0134 129.807 80.0267L99.7813 62.613Z" fill="url(#paint2_linear)"/>
<path d="M136.136 80.2384C136.611 81.0609 136.831 82.0057 136.769 82.9535C136.707 83.9012 136.366 84.8093 135.788 85.5629C135.21 86.3164 134.421 86.8816 133.522 87.187C132.622 87.4924 131.653 87.5242 130.735 87.2784C129.818 87.0327 128.994 86.5204 128.368 85.8063C127.741 85.0923 127.341 84.2086 127.217 83.2669C127.093 82.3253 127.251 81.368 127.671 80.5162C128.091 79.6644 128.754 78.9563 129.577 78.4814C130.123 78.165 130.726 77.9594 131.351 77.8764C131.976 77.7935 132.612 77.8348 133.221 77.9981C133.831 78.1613 134.402 78.4432 134.902 78.8277C135.402 79.2122 135.821 79.6916 136.136 80.2384Z" fill="url(#paint3_radial)"/>
<path d="M61.8078 86.5122C64.4598 86.5122 66.6097 84.3623 66.6097 81.7103C66.6097 79.0583 64.4598 76.9084 61.8078 76.9084C59.1558 76.9084 57.006 79.0583 57.006 81.7103C57.006 84.3623 59.1558 86.5122 61.8078 86.5122Z" fill="url(#paint4_radial)"/>
<path d="M129.512 84.2399V84.1755C129.442 84.0236 129.352 83.8814 129.245 83.7524C129.156 83.6562 129.054 83.5726 128.942 83.504C128.838 83.4362 128.716 83.4039 128.592 83.412C128.547 83.4014 128.5 83.4014 128.454 83.412L98.4196 100.826C98.4682 100.817 98.5181 100.817 98.5667 100.826C98.6869 100.821 98.8055 100.854 98.9071 100.918C99.0227 100.985 99.1255 101.072 99.2107 101.175C99.3237 101.3 99.414 101.443 99.4775 101.598V101.663C99.6338 102.068 99.5878 102.426 99.3763 102.583L129.402 85.1322C129.613 85.0034 129.669 84.6447 129.512 84.2399Z" fill="url(#paint5_linear)"/>
<path d="M98.8618 100.909C99.137 101.085 99.347 101.347 99.4597 101.654C99.6529 102.141 99.5425 102.574 99.2114 102.574C99.0876 102.586 98.9634 102.553 98.8618 102.482C98.5849 102.311 98.374 102.052 98.2639 101.746C98.0799 101.258 98.1903 100.826 98.5214 100.826C98.6406 100.819 98.7591 100.848 98.8618 100.909Z" fill="#222220"/>
<path d="M94.5103 100.145C94.2375 100.32 94.028 100.578 93.9124 100.881C93.7284 101.369 93.8388 101.801 94.17 101.801C94.2901 101.805 94.4087 101.773 94.5103 101.709C94.7855 101.532 94.9955 101.271 95.1083 100.964C95.3015 100.476 95.1819 100.044 94.8599 100.044C94.7354 100.039 94.6127 100.074 94.5103 100.145Z" fill="#222220"/>
<path d="M64.9723 82.6854C64.9241 82.6721 64.8732 82.6721 64.8251 82.6854C64.7052 82.6833 64.5872 82.7152 64.4847 82.7774C64.3687 82.8441 64.2659 82.9314 64.1811 83.035C64.1249 83.0936 64.0755 83.1584 64.034 83.2281C63.9887 83.3019 63.9488 83.3787 63.9144 83.4581V83.5225C63.758 83.9273 63.8132 84.286 64.0248 84.4424L94.0503 101.856C93.8387 101.727 93.7836 101.369 93.9399 100.936V100.872C93.9743 100.795 94.0142 100.722 94.0595 100.651C94.1055 100.577 94.1607 100.513 94.2067 100.449C94.2961 100.352 94.3983 100.269 94.5103 100.2C94.6137 100.133 94.7364 100.1 94.8598 100.108C94.9054 100.099 94.9523 100.099 94.9978 100.108L64.9723 82.6854Z" fill="url(#paint6_linear)"/>
<path style="mix-blend-mode:screen" opacity="0.7" d="M133.737 78.7296C132.66 78.4721 131.722 78.8676 131.63 79.6036C131.538 80.3395 132.329 81.1674 133.405 81.4434C134.482 81.7193 135.42 81.3054 135.512 80.5235C135.604 79.7415 134.804 78.9872 133.737 78.7296Z" fill="url(#paint7_linear)"/>
<path style="mix-blend-mode:screen" opacity="0.7" d="M97.8133 57.9861C96.7371 57.7285 95.7896 58.1241 95.7068 58.906C95.624 59.6879 96.4059 60.4606 97.4822 60.7458C98.5585 61.031 99.4968 60.617 99.5888 59.8259C99.6808 59.0348 98.862 58.2437 97.8133 57.9861Z" fill="url(#paint8_linear)"/>
<path style="mix-blend-mode:screen" opacity="0.7" d="M63.3258 77.9018C62.2495 77.635 61.3112 78.0305 61.2192 78.8217C61.1272 79.6128 61.9275 80.3763 62.9946 80.6615C64.0617 80.9466 65.0092 80.5327 65.1012 79.7416C65.1932 78.9504 64.402 78.1593 63.3258 77.9018Z" fill="url(#paint9_linear)"/>
<path d="M95.937 59.1361H96.0106C96.1754 59.1593 96.3426 59.1593 96.5073 59.1361C96.6382 59.11 96.765 59.0667 96.8845 59.0074C96.9894 58.9459 97.0753 58.8568 97.1329 58.7498C97.1423 58.7012 97.1423 58.6512 97.1329 58.6026V37.3069C97.1425 37.3555 97.1425 37.4055 97.1329 37.4541C97.0745 37.5636 96.9848 37.6532 96.8753 37.7116C96.7596 37.7724 96.6356 37.8157 96.5073 37.8404C96.3395 37.8637 96.1692 37.8637 96.0014 37.8404H95.937C95.5047 37.776 95.2195 37.5461 95.2195 37.3069V58.5934C95.2287 58.8418 95.5047 59.0717 95.937 59.1361Z" fill="url(#paint10_linear)"/>
<path d="M96.8834 37.7115C96.5982 37.8509 96.2771 37.8991 95.9635 37.8495C95.4484 37.7667 95.1448 37.4631 95.2828 37.1596C95.3422 37.0531 95.4319 36.9667 95.5404 36.9112C95.8226 36.7625 96.1458 36.7108 96.4603 36.764C96.9846 36.8468 97.2882 37.1596 97.1502 37.4539C97.0894 37.5648 96.9963 37.6546 96.8834 37.7115Z" fill="#222220"/>
<path d="M61.5419 78.9969H61.6063C61.7742 79.0202 61.9444 79.0202 62.1122 78.9969C62.2422 78.9735 62.3669 78.9267 62.4802 78.8589C62.5909 78.8064 62.6813 78.7192 62.7378 78.6105C62.7475 78.562 62.7475 78.5119 62.7378 78.4634V57.1676C62.7516 57.2157 62.7516 57.2667 62.7378 57.3148C62.6848 57.4229 62.5974 57.5102 62.4894 57.5632C62.3735 57.6325 62.2455 57.6793 62.1122 57.7012C61.9475 57.7245 61.7803 57.7245 61.6155 57.7012H61.5511C61.1188 57.6368 60.8336 57.4068 60.8336 57.1584V78.4542C60.8244 78.7025 61.1464 78.9325 61.5419 78.9969Z" fill="#363633"/>
<path d="M62.4907 57.5629C62.2077 57.709 61.8853 57.7606 61.5708 57.7101C61.0556 57.6273 60.7429 57.3237 60.8901 57.0201C60.943 56.9121 61.0304 56.8247 61.1384 56.7718C61.4215 56.6256 61.7438 56.5741 62.0583 56.6246C62.5735 56.7074 62.8771 57.0201 62.7391 57.3145C62.6861 57.4225 62.5987 57.5099 62.4907 57.5629Z" fill="#222220"/>
<path d="M62.112 57.7009V78.9874C61.9442 79.0107 61.774 79.0107 61.6061 78.9874V57.7193C61.7709 57.7426 61.9381 57.7426 62.1029 57.7193L62.112 57.7009Z" fill="#363633"/>
<path d="M131.749 79.8153H131.814C131.981 79.8433 132.152 79.8433 132.32 79.8153C132.448 79.7906 132.572 79.7472 132.688 79.6865C132.796 79.631 132.886 79.5446 132.945 79.4381C132.953 79.3894 132.953 79.3397 132.945 79.291V57.986C132.957 58.0344 132.957 58.0849 132.945 58.1332C132.89 58.2394 132.803 58.326 132.697 58.3816C132.578 58.4423 132.451 58.4857 132.32 58.5104C132.155 58.5384 131.987 58.5384 131.823 58.5104H131.749C131.326 58.4368 131.041 58.216 131.041 57.9677V79.2726C131.059 79.4841 131.317 79.7417 131.749 79.8153Z" fill="url(#paint11_linear)"/>
<path d="M132.697 58.3816C132.412 58.5224 132.091 58.5737 131.777 58.5288C131.262 58.446 130.958 58.1332 131.105 57.8388C131.16 57.73 131.247 57.6402 131.354 57.5813C131.639 57.4419 131.96 57.3937 132.273 57.4433C132.789 57.5261 133.092 57.8296 132.954 58.1332C132.896 58.2407 132.806 58.3275 132.697 58.3816Z" fill="#222220"/>
<path d="M100.761 38.0923C101.439 35.5284 99.9097 32.9004 97.3458 32.2225C94.7819 31.5446 92.1539 33.0735 91.476 35.6374C90.7981 38.2013 92.3271 40.8293 94.891 41.5072C97.4549 42.1851 100.083 40.6562 100.761 38.0923Z" fill="url(#paint12_radial)"/>
<path d="M93.4561 38.3645V38.3001C93.3859 38.1459 93.2929 38.0033 93.1802 37.8769C93.095 37.7738 92.9922 37.6866 92.8766 37.6193C92.775 37.5552 92.6563 37.5231 92.5362 37.5274C92.4908 37.5168 92.4436 37.5168 92.3982 37.5274L62.3359 54.9871C62.3796 54.9581 62.4306 54.9421 62.4831 54.9411C62.6037 54.9323 62.7237 54.9647 62.8234 55.0331C62.9411 55.0974 63.0444 55.185 63.127 55.2906C63.2398 55.4116 63.3302 55.5518 63.3938 55.7046V55.769C63.5501 56.183 63.5042 56.5417 63.2834 56.6889L93.3457 39.2476C93.5573 39.128 93.6125 38.7692 93.4561 38.3645Z" fill="url(#paint13_linear)"/>
<path d="M62.8214 55.0331C63.0941 55.2083 63.3037 55.4662 63.4193 55.769C63.6125 56.2566 63.4929 56.6889 63.1617 56.6889C63.0419 56.691 62.9238 56.6591 62.8214 56.5969C62.5486 56.4218 62.339 56.1639 62.2234 55.861C62.0394 55.3735 62.1498 54.9411 62.481 54.9411C62.6016 54.9323 62.7216 54.9648 62.8214 55.0331Z" fill="#222220"/>
<path d="M129.273 55.0149C129.001 55.1901 128.791 55.448 128.675 55.7509C128.491 56.2384 128.602 56.6708 128.933 56.6708C129.053 56.675 129.172 56.643 129.273 56.5788C129.549 56.4022 129.759 56.1406 129.871 55.8337C130.064 55.3461 129.945 54.9138 129.614 54.9138C129.492 54.9098 129.373 54.9453 129.273 55.0149Z" fill="#222220"/>
<path d="M99.7813 37.555C99.7376 37.526 99.6866 37.51 99.6342 37.509C99.5142 37.5059 99.3959 37.5378 99.2938 37.601C99.1778 37.6677 99.075 37.755 98.9902 37.8586C98.934 37.9171 98.8846 37.982 98.8431 38.0517C98.7978 38.1255 98.7579 38.2023 98.7235 38.2817V38.3461C98.5671 38.7509 98.6223 39.1096 98.8338 39.266L128.859 56.6797C128.648 56.551 128.593 56.1922 128.749 55.7598V55.6954C128.783 55.619 128.823 55.5452 128.869 55.4747C128.912 55.4035 128.962 55.3359 129.016 55.2723C129.103 55.1739 129.206 55.0901 129.319 55.0239C129.42 54.9575 129.539 54.9252 129.66 54.9319C129.708 54.9225 129.758 54.9225 129.807 54.9319L99.7813 37.555Z" fill="url(#paint14_linear)"/>
<path d="M128.915 57.1857H128.86L100.417 52.0434C100.34 52.03 100.272 51.9866 100.227 51.9227C100.182 51.8589 100.164 51.7799 100.178 51.7031C100.183 51.6635 100.197 51.6255 100.218 51.5915C100.238 51.5575 100.266 51.5283 100.299 51.5057C100.332 51.4832 100.37 51.4678 100.409 51.4606C100.448 51.4534 100.488 51.4545 100.527 51.4639L128.961 56.597C129.032 56.6137 129.094 56.655 129.136 56.7134C129.179 56.7718 129.199 56.8435 129.194 56.9156C129.188 56.9877 129.157 57.0554 129.106 57.1066C129.055 57.1578 128.987 57.1891 128.915 57.1949V57.1857Z" fill="#363633"/>
<path d="M65.1097 56.1462C65.0376 56.1468 64.9678 56.1209 64.9135 56.0734C64.8593 56.0259 64.8243 55.9602 64.8153 55.8886C64.8046 55.8108 64.8245 55.7318 64.8708 55.6683C64.9171 55.6049 64.9863 55.5618 65.0637 55.5483L93.4978 51.4455C93.5771 51.435 93.6572 51.4562 93.7209 51.5044C93.7846 51.5526 93.8268 51.624 93.8382 51.7031C93.8487 51.7823 93.8276 51.8625 93.7793 51.9262C93.7311 51.9899 93.6597 52.032 93.5806 52.0434L65.1557 56.137L65.1097 56.1462Z" fill="#363633"/>
<path d="M96.5148 49.0445C96.4374 49.0446 96.3628 49.0152 96.3064 48.9622C96.25 48.9092 96.2159 48.8366 96.2112 48.7593L95.8985 39.1924C95.8972 39.1537 95.9036 39.1152 95.9173 39.079C95.931 39.0428 95.9517 39.0097 95.9781 38.9815C96.0046 38.9533 96.0364 38.9306 96.0716 38.9147C96.1069 38.8988 96.145 38.89 96.1836 38.8888C96.2611 38.8887 96.3356 38.9181 96.392 38.9711C96.4485 39.0241 96.4825 39.0967 96.4872 39.174L96.8 48.7409C96.8012 48.7796 96.7948 48.8181 96.7811 48.8543C96.7674 48.8905 96.7468 48.9236 96.7203 48.9518C96.6938 48.98 96.662 49.0027 96.6268 49.0186C96.5915 49.0345 96.5535 49.0433 96.5148 49.0445Z" fill="#363633"/>
<path d="M100.156 54.5577C101.588 52.7558 101.288 50.1344 99.4863 48.7027C97.6844 47.2709 95.063 47.571 93.6312 49.3729C92.1995 51.1748 92.4995 53.7962 94.3014 55.2279C96.1033 56.6597 98.7247 56.3596 100.156 54.5577Z" fill="url(#paint15_radial)"/>
<path style="mix-blend-mode:screen" opacity="0.7" d="M98.2465 48.6767C97.3266 48.4467 96.4987 48.7871 96.4067 49.4402C96.3147 50.0933 97.023 50.7833 97.9429 51.0132C98.8628 51.2432 99.6908 50.8936 99.7827 50.2497C99.8747 49.6058 99.1756 48.8975 98.2465 48.6767Z" fill="url(#paint16_linear)"/>
<path d="M97.7306 76.6508C97.6525 76.6508 97.5776 76.6198 97.5224 76.5646C97.4672 76.5094 97.4362 76.4345 97.4362 76.3564L96.7739 54.4168C96.7738 54.3369 96.8042 54.26 96.8589 54.2019C96.9136 54.1437 96.9885 54.1087 97.0682 54.104C97.1463 54.104 97.2212 54.135 97.2764 54.1902C97.3316 54.2454 97.3626 54.3203 97.3626 54.3984L98.0249 76.338C98.0251 76.4179 97.9947 76.4948 97.9399 76.5529C97.8852 76.6111 97.8103 76.6461 97.7306 76.6508Z" fill="#363633"/>
<path d="M136.136 55.1712C136.611 55.9936 136.831 56.9385 136.769 57.8862C136.707 58.834 136.366 59.742 135.788 60.4956C135.21 61.2492 134.421 61.8144 133.522 62.1198C132.622 62.4251 131.653 62.4569 130.735 62.2112C129.818 61.9654 128.994 61.4531 128.368 60.7391C127.741 60.025 127.341 59.1413 127.217 58.1996C127.093 57.258 127.251 56.3008 127.671 55.4489C128.091 54.5971 128.754 53.889 129.577 53.4142C130.123 53.0977 130.726 52.8921 131.351 52.8092C131.976 52.7262 132.612 52.7676 133.221 52.9308C133.831 53.094 134.402 53.376 134.902 53.7604C135.402 54.1449 135.821 54.6243 136.136 55.1712Z" fill="url(#paint17_radial)"/>
<path d="M65.966 54.2419C66.441 55.0643 66.6615 56.0091 66.5995 56.9569C66.5375 57.9046 66.1959 58.8127 65.6178 59.5663C65.0397 60.3198 64.2511 60.885 63.3518 61.1904C62.4524 61.4958 61.4827 61.5276 60.5653 61.2819C59.6479 61.0361 58.824 60.5238 58.1977 59.8097C57.5715 59.0957 57.171 58.212 57.047 57.2703C56.9231 56.3287 57.0811 55.3714 57.5012 54.5196C57.9213 53.6678 58.5845 52.9597 59.4071 52.4849C60.5104 51.8507 61.8201 51.6795 63.0494 52.0088C64.2787 52.3381 65.3274 53.1411 65.966 54.2419Z" fill="url(#paint18_radial)"/>
<path d="M129.513 59.1816V59.1172C129.443 58.9653 129.353 58.8231 129.246 58.694C129.155 58.5975 129.053 58.5111 128.943 58.4365C128.837 58.3731 128.716 58.3411 128.593 58.3445H128.455L98.3927 75.8042C98.4413 75.795 98.4912 75.795 98.5399 75.8042C98.66 75.8 98.7786 75.832 98.8802 75.8962C98.9958 75.9634 99.0986 76.0506 99.1838 76.1538C99.2968 76.2781 99.3871 76.4213 99.4506 76.5769V76.6413C99.607 77.0461 99.561 77.4048 99.3494 77.5612L129.403 60.0739C129.614 59.9451 129.669 59.5863 129.513 59.1816Z" fill="url(#paint19_linear)"/>
<path d="M98.8618 75.8502C99.137 76.0267 99.347 76.2884 99.4597 76.5953C99.6529 77.0828 99.5425 77.5152 99.2114 77.5152C99.0879 77.5232 98.9653 77.491 98.8618 77.4232C98.589 77.2481 98.3795 76.9902 98.2639 76.6873C98.0799 76.1997 98.1903 75.7674 98.5214 75.7674C98.6406 75.7604 98.7591 75.7892 98.8618 75.8502Z" fill="#222220"/>
<path d="M94.5098 75.0775C94.2345 75.254 94.0246 75.5156 93.9118 75.8226C93.7279 76.3101 93.8382 76.7425 94.1694 76.7425C94.291 76.7479 94.4109 76.7122 94.5098 76.6413C94.7867 76.4708 94.9976 76.2113 95.1077 75.9054C95.3009 75.4178 95.1813 74.9855 94.8593 74.9855C94.7364 74.9821 94.6151 75.014 94.5098 75.0775Z" fill="#222220"/>
<path d="M64.9721 57.6178C64.9235 57.6084 64.8735 57.6084 64.8249 57.6178C64.7045 57.6111 64.5852 57.6433 64.4846 57.7098C64.3709 57.776 64.2684 57.8598 64.181 57.9582C64.1268 58.0217 64.0776 58.0894 64.0338 58.1605C63.9875 58.213 63.9445 58.2683 63.905 58.3261V58.3905C63.7487 58.7953 63.8038 59.154 64.0154 59.3104L94.0226 76.7241C93.811 76.5954 93.7558 76.2366 93.9122 75.8042V75.7398C93.9446 75.6624 93.9846 75.5885 94.0318 75.5191C94.0778 75.4455 94.133 75.3811 94.179 75.3167C94.2684 75.2178 94.3704 75.1312 94.4825 75.0591C94.5879 74.9957 94.7092 74.9638 94.8321 74.9671H94.9701L64.9721 57.6178Z" fill="url(#paint20_linear)"/>
<path style="mix-blend-mode:screen" opacity="0.7" d="M133.737 53.6716C132.66 53.414 131.722 53.8004 131.63 54.5915C131.538 55.3826 132.329 56.1461 133.405 56.4313C134.482 56.7165 135.42 56.2933 135.512 55.5114C135.604 54.7295 134.804 53.9292 133.737 53.6716Z" fill="url(#paint21_linear)"/>
<path style="mix-blend-mode:screen" opacity="0.7" d="M97.8133 32.9279C96.7371 32.6703 95.7896 33.0658 95.7068 33.8478C95.624 34.6297 96.4059 35.4024 97.4822 35.6876C98.5585 35.9727 99.4968 35.5496 99.5888 34.7677C99.6808 33.9857 98.862 33.1854 97.8133 32.9279Z" fill="url(#paint22_linear)"/>
<path style="mix-blend-mode:screen" opacity="0.7" d="M63.3258 52.8071C62.2495 52.5496 61.3112 52.9451 61.2192 53.727C61.1272 54.5089 61.9275 55.2817 62.9946 55.5668C64.0617 55.852 65.0092 55.438 65.1012 54.6929C65.1932 53.9478 64.402 53.0923 63.3258 52.8071Z" fill="url(#paint23_linear)"/>
<path d="M131.168 82.9982H131.122L123.616 83.6513C123.541 83.6784 123.459 83.6752 123.387 83.6426C123.315 83.6099 123.258 83.5503 123.229 83.4766C123.215 83.4398 123.207 83.4004 123.208 83.3608C123.209 83.3213 123.218 83.2823 123.234 83.2462C123.251 83.2101 123.274 83.1777 123.303 83.1509C123.332 83.1241 123.367 83.1035 123.404 83.0902L130.91 82.4371C130.947 82.4224 130.987 82.4153 131.026 82.4162C131.066 82.4171 131.105 82.426 131.141 82.4423C131.177 82.4586 131.209 82.482 131.236 82.5112C131.263 82.5403 131.284 82.5745 131.297 82.6118C131.327 82.6808 131.331 82.7584 131.307 82.8298C131.283 82.9012 131.234 82.9612 131.168 82.9982Z" fill="#363633"/>
<path d="M122.265 79.806C122.195 79.7738 122.14 79.7153 122.112 79.643C122.085 79.5707 122.087 79.4904 122.118 79.4196L129.68 61.0216C129.71 60.9495 129.768 60.892 129.84 60.8611C129.912 60.8302 129.993 60.8284 130.066 60.856C130.136 60.8883 130.192 60.9463 130.221 61.0181C130.25 61.0899 130.251 61.1702 130.222 61.2423L122.661 79.6404C122.628 79.7131 122.569 79.7702 122.495 79.7994C122.421 79.8287 122.339 79.8277 122.265 79.7968V79.806Z" fill="#363633"/>
<path d="M123.92 80.8825C124.333 81.5964 124.524 82.4166 124.471 83.2395C124.417 84.0623 124.12 84.8507 123.618 85.5049C123.116 86.1591 122.432 86.6496 121.651 86.9144C120.87 87.1792 120.028 87.2064 119.231 86.9924C118.435 86.7785 117.72 86.3332 117.177 85.7127C116.634 85.0923 116.287 84.3246 116.18 83.507C116.074 82.6893 116.212 81.8584 116.578 81.1194C116.944 80.3803 117.52 79.7665 118.235 79.3554C119.192 78.8053 120.328 78.6572 121.393 78.9434C122.459 79.2297 123.368 79.9271 123.92 80.8825Z" fill="url(#paint24_radial)"/>
<path style="mix-blend-mode:screen" opacity="0.7" d="M121.657 79.6678C120.737 79.4471 119.909 79.7874 119.817 80.4314C119.725 81.0753 120.424 81.7836 121.353 82.0136C122.282 82.2436 123.101 81.894 123.193 81.2501C123.285 80.6061 122.595 79.8978 121.657 79.6678Z" fill="url(#paint25_linear)"/>
<path d="M101.364 77.7823C101.292 77.7828 101.222 77.7569 101.167 77.7094C101.113 77.662 101.078 77.5962 101.069 77.5247C101.059 77.4468 101.078 77.3679 101.125 77.3044C101.171 77.2409 101.24 77.1979 101.318 77.1843L116.698 82.1518C116.737 82.1453 116.777 82.1465 116.815 82.1555C116.853 82.1646 116.889 82.1811 116.921 82.2043C116.953 82.2274 116.979 82.2567 117 82.2903C117.02 82.324 117.033 82.3613 117.039 82.4002C117.049 82.4794 117.028 82.5595 116.98 82.6233C116.932 82.687 116.86 82.7291 116.781 82.7405L101.364 77.7823Z" fill="#363633"/>
<path d="M101.133 100.495C101.08 100.438 101.051 100.364 101.051 100.288C101.051 100.211 101.08 100.137 101.133 100.081L117.489 85.4266C117.545 85.3715 117.621 85.3407 117.7 85.3407C117.779 85.3407 117.855 85.3715 117.912 85.4266C117.966 85.4817 117.997 85.5561 117.997 85.6336C117.997 85.711 117.966 85.7854 117.912 85.8405L101.565 100.495C101.508 100.55 101.433 100.58 101.354 100.58C101.274 100.58 101.199 100.55 101.142 100.495H101.133Z" fill="#363633"/>
<path d="M63.0685 82.8047H63.1145L71.6603 83.4486C71.6971 83.4633 71.7365 83.4704 71.776 83.4695C71.8156 83.4686 71.8546 83.4597 71.8907 83.4434C71.9267 83.4271 71.9592 83.4037 71.986 83.3745C72.0128 83.3454 72.0334 83.3112 72.0467 83.2739C72.0612 83.2377 72.0682 83.199 72.0672 83.1601C72.0662 83.1211 72.0573 83.0828 72.0409 83.0475C72.0245 83.0121 72.0011 82.9805 71.972 82.9546C71.9429 82.9287 71.9089 82.909 71.8719 82.8967L63.326 82.2436C63.2516 82.2165 63.1695 82.2197 63.0973 82.2523C63.0251 82.285 62.9685 82.3446 62.9397 82.4184C62.9133 82.4877 62.9118 82.5641 62.9352 82.6345C62.9587 82.7049 63.0057 82.765 63.0685 82.8047Z" fill="#363633"/>
<path d="M73.0026 79.5945C73.0383 79.5795 73.0706 79.5575 73.0978 79.5299C73.1249 79.5024 73.1464 79.4697 73.1609 79.4338C73.1755 79.3979 73.1828 79.3595 73.1824 79.3208C73.1821 79.2821 73.1741 79.2438 73.159 79.2082L64.0795 60.0558C64.0645 60.0202 64.0425 59.9878 64.0149 59.9606C63.9874 59.9335 63.9547 59.912 63.9188 59.8975C63.8829 59.883 63.8445 59.8757 63.8058 59.876C63.7671 59.8763 63.7288 59.8843 63.6932 59.8994C63.6242 59.9334 63.5701 59.9915 63.5412 60.0628C63.5124 60.134 63.5108 60.2134 63.5368 60.2858L72.607 79.4841C72.6212 79.5206 72.6425 79.5539 72.6697 79.5821C72.6969 79.6102 72.7295 79.6326 72.7654 79.6481C72.8014 79.6635 72.8401 79.6716 72.8792 79.6719C72.9184 79.6721 72.9572 79.6646 72.9934 79.6497L73.0026 79.5945Z" fill="#363633"/>
<path d="M71.3467 80.6709C70.935 81.3848 70.7443 82.2047 70.7986 83.027C70.8529 83.8492 71.1498 84.637 71.6517 85.2905C72.1536 85.9441 72.838 86.4342 73.6184 86.6988C74.3988 86.9635 75.2402 86.9908 76.0361 86.7774C76.832 86.5639 77.5468 86.1193 78.0901 85.4996C78.6333 84.88 78.9807 84.1132 79.0882 83.2962C79.1958 82.4792 79.0587 81.6487 78.6942 80.9096C78.3298 80.1705 77.7544 79.556 77.0408 79.1439C76.0828 78.5934 74.9456 78.445 73.8783 78.7312C72.811 79.0174 71.9007 79.7149 71.3467 80.6709Z" fill="url(#paint26_radial)"/>
<path style="mix-blend-mode:screen" opacity="0.7" d="M76.5079 79.7141C75.588 79.4933 74.7601 79.8337 74.6681 80.4776C74.5761 81.1216 75.2844 81.8299 76.2135 82.0507C77.1426 82.2714 77.9613 81.9311 78.0533 81.2871C78.1453 80.6432 77.437 79.9349 76.5079 79.7141Z" fill="url(#paint27_linear)"/>
<path d="M93.9122 77.5708C93.9902 77.5769 94.0676 77.5517 94.1271 77.5008C94.1866 77.4499 94.2234 77.3775 94.2295 77.2994C94.2356 77.2214 94.2105 77.1441 94.1596 77.0845C94.1087 77.025 94.0363 76.9882 93.9582 76.9821L78.6234 81.9403C78.5442 81.9298 78.464 81.951 78.4003 81.9992C78.3366 82.0474 78.2945 82.1188 78.2831 82.1979C78.2726 82.2771 78.2937 82.3573 78.3419 82.421C78.3902 82.4847 78.4615 82.5268 78.5406 82.5383L93.9582 77.5708H93.9122Z" fill="#363633"/>
<path d="M94.1422 100.292C94.1952 100.235 94.2246 100.159 94.2246 100.081C94.2246 100.002 94.1952 99.9268 94.1422 99.8691L77.7588 85.215C77.7021 85.16 77.6262 85.1292 77.5472 85.1292C77.4682 85.1292 77.3923 85.16 77.3356 85.215C77.2811 85.2701 77.2505 85.3445 77.2505 85.422C77.2505 85.4995 77.2811 85.5739 77.3356 85.629L93.6822 100.283C93.7097 100.311 93.7426 100.334 93.7789 100.349C93.8153 100.365 93.8544 100.373 93.8938 100.373C93.9333 100.373 93.9724 100.365 94.0087 100.349C94.0451 100.334 94.0779 100.311 94.1054 100.283L94.1422 100.292Z" fill="#363633"/>
<path d="M97.7018 107.228C100.354 107.228 102.504 105.078 102.504 102.426C102.504 99.7744 100.354 97.6245 97.7018 97.6245C95.0497 97.6245 92.8999 99.7744 92.8999 102.426C92.8999 105.078 95.0497 107.228 97.7018 107.228Z" fill="url(#paint28_radial)"/>
<path style="mix-blend-mode:screen" opacity="0.7" d="M99.2489 98.6362C98.1818 98.3787 97.2343 98.7742 97.1423 99.5561C97.0503 100.338 97.8506 101.111 98.9177 101.396C99.9848 101.681 100.932 101.258 101.024 100.476C101.116 99.6941 100.325 98.8938 99.2489 98.6362Z" fill="url(#paint29_linear)"/>
<path d="M97.3445 99.7214H97.4181C97.5825 99.7494 97.7504 99.7494 97.9148 99.7214C98.046 99.6967 98.1731 99.6533 98.292 99.5926C98.3981 99.537 98.4848 99.4504 98.5403 99.3442C98.552 99.2959 98.552 99.2454 98.5403 99.1971V77.8462C98.5478 77.8949 98.5478 77.9446 98.5403 77.9933C98.4822 78.0975 98.3962 78.1835 98.292 78.2417C98.1725 78.301 98.0456 78.3443 97.9148 78.3705C97.7504 78.3983 97.5825 78.3983 97.4181 78.3705H97.3445C96.9121 78.2969 96.6361 78.0761 96.6361 77.8278V99.1143C96.6361 99.381 96.9213 99.6018 97.3445 99.7214Z" fill="url(#paint30_linear)"/>
<path d="M98.2998 78.242C98.0151 78.3828 97.6944 78.4341 97.3799 78.3892C96.8648 78.3064 96.5612 77.9936 96.6992 77.6993C96.7576 77.5898 96.8473 77.5001 96.9568 77.4417C97.2406 77.2981 97.5632 77.2497 97.8767 77.3037C98.3918 77.3865 98.6954 77.6901 98.5574 77.9936C98.4967 78.0991 98.4074 78.1852 98.2998 78.242Z" fill="#222220"/>
<path d="M101.86 74.9676C102.335 75.79 102.555 76.7348 102.493 77.6826C102.431 78.6303 102.09 79.5384 101.512 80.292C100.934 81.0455 100.145 81.6108 99.2457 81.9161C98.3464 82.2215 97.3766 82.2533 96.4592 82.0076C95.5418 81.7618 94.7179 81.2495 94.0916 80.5354C93.4654 79.8214 93.0649 78.9377 92.941 77.996C92.817 77.0544 92.975 76.0971 93.3951 75.2453C93.8152 74.3935 94.4785 73.6854 95.301 73.2106C96.4044 72.5764 97.714 72.4052 98.9433 72.7345C100.173 73.0638 101.221 73.8668 101.86 74.9676Z" fill="url(#paint31_radial)"/>
<path style="mix-blend-mode:screen" opacity="0.7" d="M99.2489 73.578C98.1818 73.3204 97.2343 73.716 97.1423 74.4979C97.0503 75.2798 97.8506 76.0617 98.9177 76.3377C99.9848 76.6137 100.932 76.1997 101.024 75.4178C101.116 74.6359 100.325 73.8356 99.2489 73.578Z" fill="url(#paint32_linear)"/>
<path d="M58.7622 68.2705C51.3202 72.5941 39.2235 72.5941 31.7355 68.2705C27.9639 66.0995 26.0873 63.2387 26.0873 60.387L26.0045 90.3573C26.0045 93.209 27.8443 96.0607 31.6435 98.2409C39.1315 102.564 51.2374 102.564 58.6702 98.2409C62.3498 96.0883 64.1896 93.2734 64.2356 90.4585L64.3184 60.4974C64.3092 63.3123 62.4602 66.1179 58.7622 68.2705Z" fill="url(#paint33_linear)"/>
<path d="M58.6813 52.6136C51.1933 48.2901 39.0873 48.2901 31.6453 52.6136C24.2033 56.9372 24.2861 63.9468 31.7373 68.2519C39.1885 72.5571 51.322 72.5755 58.764 68.2519C66.2061 63.9284 66.1601 56.9372 58.6813 52.6136Z" fill="url(#paint34_linear)"/>
<path d="M56.169 54.0672C50.0792 50.5531 40.2271 50.5531 34.1649 54.0672C28.1028 57.5812 28.1396 63.2662 34.2385 66.8078C40.3375 70.3494 50.1804 70.3218 56.2426 66.8078C62.3047 63.2938 62.2679 57.5904 56.169 54.0672Z" fill="#212121"/>
<path opacity="0.6" d="M60.74 60.1661V13.4995H29.6382V60.7364C29.7762 62.9442 31.2848 65.1336 34.2377 66.817C40.3366 70.331 50.1796 70.331 56.2417 66.817C59.397 64.9772 60.8872 62.5486 60.74 60.1661Z" fill="url(#paint35_linear)"/>
<path style="mix-blend-mode:screen" d="M44.982 70.2942C54.3911 70.2942 62.0186 65.8915 62.0186 60.4605C62.0186 55.0294 54.3911 50.6267 44.982 50.6267C35.573 50.6267 27.9455 55.0294 27.9455 60.4605C27.9455 65.8915 35.573 70.2942 44.982 70.2942Z" fill="url(#paint36_radial)"/>
<path style="mix-blend-mode:screen" d="M51.6149 62.8155C53.1603 63.7354 53.1603 65.1613 51.6149 66.0536C50.745 66.4934 49.7839 66.7225 48.8092 66.7225C47.8345 66.7225 46.8734 66.4934 46.0035 66.0536C44.4581 65.1337 44.4581 63.7078 46.0035 62.8155C46.8734 62.3757 47.8345 62.1466 48.8092 62.1466C49.7839 62.1466 50.745 62.3757 51.6149 62.8155Z" fill="url(#paint37_radial)"/>
<path style="mix-blend-mode:screen" d="M57.842 62.8155C59.3874 63.7354 59.3874 65.1613 57.842 66.0536C56.9721 66.4934 56.011 66.7225 55.0363 66.7225C54.0616 66.7225 53.1005 66.4934 52.2306 66.0536C50.676 65.1337 50.676 63.7078 52.2306 62.8155C53.1005 62.3757 54.0616 62.1466 55.0363 62.1466C56.011 62.1466 56.9721 62.3757 57.842 62.8155Z" fill="url(#paint38_radial)"/>
<path style="mix-blend-mode:screen" d="M57.4657 55.3181C59.0203 56.238 59.0203 57.6638 57.4657 58.5653C56.5958 59.0051 55.6347 59.2343 54.66 59.2343C53.6853 59.2343 52.7242 59.0051 51.8543 58.5653C50.3089 57.6454 50.3089 56.2196 51.8543 55.3181C52.7242 54.8783 53.6853 54.6492 54.66 54.6492C55.6347 54.6492 56.5958 54.8783 57.4657 55.3181Z" fill="url(#paint39_radial)"/>
<path style="mix-blend-mode:screen" d="M42.6544 68.5647C44.8441 68.5647 46.6192 67.5392 46.6192 66.2742C46.6192 65.0092 44.8441 63.9836 42.6544 63.9836C40.4648 63.9836 38.6897 65.0092 38.6897 66.2742C38.6897 67.5392 40.4648 68.5647 42.6544 68.5647Z" fill="url(#paint40_radial)"/>
<path style="mix-blend-mode:screen" d="M37.2268 61.8402C38.7723 62.7601 38.7723 64.1859 37.2268 65.0782C36.3583 65.5223 35.3967 65.7539 34.4212 65.7539C33.4456 65.7539 32.484 65.5223 31.6154 65.0782C30.0608 64.1583 30.0608 62.7417 31.6154 61.8402C32.4853 61.4004 33.4464 61.1713 34.4212 61.1713C35.3959 61.1713 36.357 61.4004 37.2268 61.8402Z" fill="url(#paint41_radial)"/>
<path style="mix-blend-mode:screen" d="M41.4868 58.1149C43.0414 59.0348 43.0414 60.4606 41.4868 61.3529C40.6201 61.7976 39.6599 62.0296 38.6857 62.0296C37.7115 62.0296 36.7513 61.7976 35.8846 61.3529C34.33 60.433 34.33 59.0164 35.8846 58.1149C36.7529 57.6752 37.7124 57.446 38.6857 57.446C39.6589 57.446 40.6185 57.6752 41.4868 58.1149Z" fill="url(#paint42_radial)"/>
<path style="mix-blend-mode:screen" d="M44.2373 59.237C46.4269 59.237 48.202 58.2115 48.202 56.9464C48.202 55.6814 46.4269 54.6559 44.2373 54.6559C42.0476 54.6559 40.2725 55.6814 40.2725 56.9464C40.2725 58.2115 42.0476 59.237 44.2373 59.237Z" fill="url(#paint43_radial)"/>
<path d="M43.4007 47.7933V60.5064C43.41 60.6481 43.4577 60.7847 43.5387 60.9014C43.6198 61.0181 43.7311 61.1105 43.8607 61.1687C44.2116 61.3458 44.5991 61.438 44.9922 61.438C45.3852 61.438 45.7728 61.3458 46.1237 61.1687C46.253 61.1141 46.3649 61.0253 46.4476 60.9119C46.5302 60.7984 46.5804 60.6646 46.5928 60.5248V48.4281L43.4007 47.7933Z" fill="#85FFF3"/>
<path d="M55.1555 39.5327C55.1161 39.5242 55.0753 39.5242 55.0359 39.5327V37.6928C55.0325 37.7072 55.0258 37.7206 55.0162 37.7318C55.0066 37.743 54.9944 37.7517 54.9807 37.7572C54.9948 37.752 55.0069 37.7426 55.0155 37.7303C55.0241 37.7179 55.0287 37.7033 55.0287 37.6882C55.0287 37.6732 55.0241 37.6586 55.0155 37.6462C55.0069 37.6339 54.9948 37.6245 54.9807 37.6193C54.945 37.6014 54.9056 37.5922 54.8657 37.5922C54.8258 37.5922 54.7864 37.6014 54.7507 37.6193C54.737 37.6248 54.7249 37.6335 54.7153 37.6447C54.7057 37.6559 54.6989 37.6693 54.6955 37.6837V56.9096C54.6955 56.9096 54.6955 56.9096 54.7507 56.974C54.787 56.9829 54.8249 56.9829 54.8611 56.974V64.416C54.8645 64.4304 54.8712 64.4437 54.8808 64.4549C54.8904 64.4661 54.9026 64.4749 54.9163 64.4804C54.9536 64.4983 54.9945 64.5076 55.0359 64.5076C55.0773 64.5076 55.1182 64.4983 55.1555 64.4804C55.1555 64.4804 55.2015 64.4804 55.2015 64.416V39.6062C55.2015 39.6062 55.2015 39.6522 55.1555 39.6706C55.1696 39.6654 55.1817 39.656 55.1903 39.6437C55.1989 39.6313 55.2035 39.6167 55.2035 39.6016C55.2035 39.5866 55.1989 39.572 55.1903 39.5596C55.1817 39.5473 55.1696 39.5379 55.1555 39.5327Z" fill="#85FFF3"/>
<path d="M42.5999 41.3264C42.5642 41.3086 42.5248 41.2993 42.4849 41.2993C42.445 41.2993 42.4056 41.3086 42.3699 41.3264C42.3562 41.3319 42.3441 41.3407 42.3345 41.3519C42.3249 41.3631 42.3181 41.3764 42.3147 41.3908V66.1729C42.3156 66.1893 42.3213 66.205 42.3312 66.2181C42.341 66.2312 42.3545 66.2411 42.3699 66.2465C42.4056 66.2644 42.445 66.2736 42.4849 66.2736C42.5248 66.2736 42.5642 66.2644 42.5999 66.2465C42.6153 66.2411 42.6288 66.2312 42.6387 66.2181C42.6485 66.205 42.6542 66.1893 42.6551 66.1729V41.3908C42.6542 41.4071 42.6485 41.4229 42.6387 41.436C42.6288 41.4491 42.6153 41.459 42.5999 41.4644C42.614 41.4592 42.6261 41.4498 42.6347 41.4374C42.6433 41.4251 42.6479 41.4104 42.6479 41.3954C42.6479 41.3804 42.6433 41.3657 42.6347 41.3534C42.6261 41.341 42.614 41.3316 42.5999 41.3264Z" fill="#85FFF3"/>
<path d="M38.9562 34.786C38.9188 34.7681 38.878 34.7588 38.8366 34.7588C38.7952 34.7588 38.7543 34.7681 38.717 34.786C38.7038 34.7936 38.6928 34.8042 38.6847 34.8171C38.6767 34.8299 38.672 34.8445 38.671 34.8596V59.6418C38.6734 59.6553 38.6788 59.668 38.6867 59.6792C38.6947 59.6903 38.705 59.6995 38.717 59.7062C38.7543 59.7241 38.7952 59.7334 38.8366 59.7334C38.878 59.7334 38.9188 59.7241 38.9562 59.7062C38.9562 59.7062 39.0021 59.7062 39.0021 59.6418V34.8596C39.0021 34.8596 39.0022 34.8596 38.9562 34.924C38.9102 34.9884 39.0665 34.832 38.9562 34.786Z" fill="#85FFF3"/>
<path d="M44.5229 32.0448C44.4856 32.0269 44.4447 32.0176 44.4033 32.0176C44.3619 32.0176 44.321 32.0269 44.2837 32.0448C44.2837 32.0448 44.2377 32.0448 44.2377 32.1092V56.8914C44.2387 56.9065 44.2435 56.9211 44.2515 56.9339C44.2595 56.9468 44.2706 56.9574 44.2837 56.965C44.321 56.9829 44.3619 56.9922 44.4033 56.9922C44.4447 56.9922 44.4856 56.9829 44.5229 56.965C44.5373 56.9591 44.5496 56.9489 44.5579 56.9357C44.5661 56.9224 44.57 56.9069 44.5689 56.8914V32.1092C44.57 32.1248 44.5661 32.1403 44.5579 32.1535C44.5496 32.1667 44.5373 32.177 44.5229 32.1828C44.537 32.1776 44.5491 32.1682 44.5577 32.1558C44.5663 32.1435 44.5708 32.1288 44.5708 32.1138C44.5708 32.0988 44.5663 32.0841 44.5577 32.0718C44.5491 32.0595 44.537 32.0501 44.5229 32.0448Z" fill="#85FFF3"/>
<path d="M34.3854 38.5115C34.3497 38.4936 34.3103 38.4844 34.2704 38.4844C34.2305 38.4844 34.1911 38.4936 34.1554 38.5115C34.14 38.5169 34.1265 38.5268 34.1166 38.5399C34.1068 38.553 34.1011 38.5687 34.1002 38.5851V63.3672C34.1036 63.3816 34.1103 63.3949 34.12 63.4061C34.1296 63.4173 34.1417 63.4261 34.1554 63.4316C34.1911 63.4494 34.2305 63.4587 34.2704 63.4587C34.3103 63.4587 34.3497 63.4494 34.3854 63.4316C34.3854 63.4316 34.4406 63.4316 34.4406 63.3672V38.5851C34.4406 38.5851 34.4406 38.6311 34.3854 38.6495C34.3302 38.6679 34.4682 38.5575 34.3854 38.5115Z" fill="#85FFF3"/>
<path opacity="0.8" d="M49.8669 49.3021C44.9363 49.3021 37.5679 47.0943 33.6399 43.0008C32.104 41.3687 31.1668 39.2641 30.9814 37.0306C30.9816 36.4513 31.0653 35.8751 31.2297 35.3196C31.1821 34.8947 31.1821 34.4658 31.2297 34.0409C31.6796 32.2821 32.7684 30.7539 34.2838 29.7542C34.6681 29.1191 35.2072 28.5918 35.8508 28.2218C36.4943 27.8518 37.2212 27.651 37.9634 27.6384C38.1104 27.629 38.2579 27.629 38.405 27.6384C38.4828 27.6088 38.5545 27.5651 38.6166 27.5096C38.6512 27.4702 38.6915 27.4361 38.7361 27.4084C39.077 27.1838 39.4372 26.9898 39.8124 26.8289L40.208 26.6449C40.9915 26.2252 41.859 25.9863 42.7469 25.9458H42.8297C43.2074 25.9837 43.5752 26.0897 43.9152 26.2586C44.1165 26.3567 44.3299 26.4278 44.5499 26.4701C44.8167 26.4701 45.1018 26.4701 45.3778 26.5253C46.1121 26.4908 46.8439 26.6328 47.512 26.9393C47.7964 27.0975 48.0671 27.2791 48.3215 27.482C48.6773 27.7799 49.0861 28.0077 49.5266 28.1536C49.9251 28.2519 50.2983 28.4337 50.6213 28.6871C50.8124 28.8655 50.985 29.0627 51.1364 29.2758C51.2725 29.4705 51.4299 29.6495 51.6056 29.8094H51.67C51.7199 29.856 51.7756 29.8962 51.8355 29.929C52.3888 30.2624 52.883 30.6851 53.2982 31.18L53.6385 31.594C53.794 31.8123 53.9695 32.0155 54.1629 32.2011C54.2344 32.2658 54.3114 32.3243 54.3929 32.3759C54.5798 32.4844 54.7351 32.6398 54.8436 32.8267C54.9793 33.1208 55.0811 33.4294 55.1472 33.7466C55.2125 34.0663 55.3208 34.3758 55.4691 34.6665L55.5335 34.7677C55.6623 34.9884 55.8003 35.2092 55.9475 35.4392C56.3806 36.0363 56.7246 36.6932 56.9686 37.3894C57.5624 39.0363 57.8341 40.7821 57.7689 42.5316C57.6246 43.6568 57.2886 44.7489 56.7754 45.7605C56.5878 46.1532 56.3428 46.5159 56.0487 46.8368C55.9061 46.9554 55.7483 47.0544 55.5795 47.1311C55.4108 47.2068 55.2555 47.3093 55.1196 47.4347C54.4481 48.6398 52.5806 49.3021 49.8669 49.3021Z" fill="url(#paint44_linear)"/>
<path d="M56.0486 35.3288C56.4844 35.9456 56.8312 36.6207 57.0789 37.3341C57.6527 39.0102 57.8994 40.7809 57.8057 42.55C57.6579 43.6843 57.3189 44.7854 56.803 45.8064C56.6158 46.2067 56.3641 46.5734 56.0579 46.8919C55.9157 47.0205 55.7543 47.126 55.5795 47.2047C55.4208 47.2755 55.2747 47.3718 55.1472 47.4899C54.4296 48.7041 52.5898 49.3757 49.8301 49.3757C44.8811 49.3757 37.4942 47.1587 33.5479 43.0467C32.0113 41.4276 31.0567 39.3436 30.8341 37.1226C30.8307 36.5333 30.9175 35.9469 31.0917 35.384C31.0343 34.9597 31.0343 34.5296 31.0917 34.1053C31.5454 32.326 32.6479 30.7806 34.1826 29.7726C34.574 29.1308 35.1221 28.5991 35.7754 28.2274C36.4287 27.8557 37.1658 27.6562 37.9174 27.6476C38.0675 27.6382 38.218 27.6382 38.3681 27.6476C38.4244 27.6134 38.4768 27.5733 38.5245 27.528L38.6533 27.4268C38.9942 27.2021 39.3544 27.0082 39.7296 26.8473L40.1344 26.6633C40.9364 26.2188 41.8308 25.9669 42.7469 25.9274H42.9769C43.3648 25.964 43.7424 26.0732 44.0899 26.2493C44.2842 26.3389 44.4879 26.4068 44.6971 26.4517L45.5342 26.5069C46.2784 26.4708 47.0203 26.616 47.696 26.9301C47.9812 27.0916 48.2548 27.273 48.5147 27.4728C48.8625 27.7699 49.2659 27.995 49.7013 28.1351C50.1068 28.2394 50.486 28.4274 50.8144 28.6871C51.0132 28.8639 51.1894 29.0648 51.3388 29.285C51.4756 29.4764 51.6329 29.6522 51.8079 29.8094L51.9459 29.9013C52.4899 30.2064 52.9782 30.6014 53.3901 31.0696L53.7305 31.4836C53.8884 31.6971 54.0638 31.8971 54.2549 32.0815C54.3246 32.1483 54.4018 32.207 54.4848 32.2563C54.6732 32.3739 54.8309 32.5347 54.9448 32.7254C55.0835 33.0184 55.1855 33.3274 55.2483 33.6453C55.3121 33.9655 55.4204 34.2752 55.5703 34.5652L55.6255 34.6664L55.626 34.6672C55.7638 34.8877 55.9016 35.1082 56.0486 35.3288Z" fill="#85FFF3"/>
<path style="mix-blend-mode:screen" opacity="0.6" d="M57.0614 13.4995H48.8926V69.1995C51.4749 68.8805 53.9726 68.0719 56.2519 66.817C56.5462 66.6422 56.813 66.4674 57.0706 66.2835L57.0614 13.4995Z" fill="url(#paint45_linear)"/>
<path d="M58.7626 18.8994C51.3206 23.2229 39.2239 23.2229 31.7359 18.8994C27.9643 16.7284 26.0878 13.8767 26.0878 11.025L26.0049 14.5298C26.0049 17.3723 27.8448 20.2332 31.6439 22.4042C39.1319 26.7277 51.2378 26.7277 58.6706 22.4042C62.3503 20.2608 64.19 17.4459 64.236 14.631L64.3189 11.1262C64.3097 13.9411 62.4606 16.756 58.7626 18.8994Z" fill="url(#paint46_linear)"/>
<path d="M58.6817 3.24265C51.1937 -1.08088 39.0878 -1.08088 31.6458 3.24265C24.2038 7.56619 24.2866 14.5758 31.7378 18.881C39.189 23.1861 51.3225 23.2045 58.7645 18.881C66.2065 14.5574 66.1605 7.56619 58.6817 3.24265Z" fill="url(#paint47_linear)"/>
<path d="M56.1694 4.70516C50.0797 1.18194 40.2276 1.18194 34.1654 4.70516C28.1033 8.22838 28.14 13.9042 34.239 17.4458C40.3379 20.9874 50.1809 20.969 56.243 17.4458C62.3052 13.9226 62.2684 8.21918 56.1694 4.70516Z" fill="#363633"/>
<path d="M60.6477 70.0089C60.0615 70.4756 59.447 70.9057 58.8079 71.2968C57.5538 72.0092 56.2318 72.5947 54.8615 73.0446V93.4388C56.1838 93.0019 57.4595 92.4349 58.6699 91.7462C59.3626 91.343 60.0238 90.8879 60.6477 90.3847V70.0089Z" fill="#212121"/>
<path d="M58.5781 85.1047C58.5534 85.3499 58.4714 85.5859 58.3388 85.7936C58.2062 86.0013 58.0266 86.175 57.8146 86.3005C57.3914 86.5489 57.051 86.4017 57.051 85.9786C57.0757 85.7334 57.1577 85.4974 57.2903 85.2897C57.4229 85.0819 57.6025 84.9083 57.8146 84.7827C58.2377 84.5343 58.5781 84.6815 58.5781 85.1047ZM57.8146 88.4899C57.6018 88.617 57.4219 88.7922 57.2893 89.0015C57.1567 89.2108 57.075 89.4484 57.051 89.695C57.051 90.1181 57.3914 90.2561 57.8146 90.0169C58.0273 89.8899 58.2072 89.7147 58.3398 89.5053C58.4725 89.296 58.554 89.0585 58.5781 88.8119C58.5781 88.3979 58.2377 88.2507 57.8146 88.4899ZM57.8146 75.1697C58.0278 75.0433 58.2081 74.8682 58.3408 74.6587C58.4735 74.4493 58.5548 74.2115 58.5781 73.9647C58.5781 73.5507 58.2377 73.4035 57.8146 73.6427C57.6018 73.7698 57.4219 73.945 57.2893 74.1543C57.1567 74.3636 57.075 74.6012 57.051 74.8478C57.051 75.2709 57.3914 75.4089 57.8146 75.1697ZM57.8146 77.3591C57.6025 77.4847 57.4229 77.6583 57.2903 77.8661C57.1577 78.0738 57.0757 78.3098 57.051 78.555C57.051 78.9781 57.3914 79.1253 57.8146 78.8769C58.0276 78.7525 58.2079 78.5791 58.3407 78.3712C58.4735 78.1632 58.5548 77.9267 58.5781 77.6811C58.5781 77.2579 58.2377 77.1107 57.8146 77.3591ZM57.8146 81.0387C57.6018 81.1658 57.4219 81.341 57.2893 81.5503C57.1567 81.7596 57.075 81.9972 57.051 82.2438C57.051 82.6669 57.3914 82.8049 57.8146 82.5657C58.0273 82.4387 58.2072 82.2635 58.3398 82.0541C58.4725 81.8448 58.554 81.6073 58.5781 81.3607C58.5781 80.9743 58.2377 80.8271 57.8146 81.0663V81.0387Z" fill="url(#paint48_linear)"/>
<path style="mix-blend-mode:screen" d="M62.9853 74.3142C62.9853 75.313 62.6891 76.2894 62.1342 77.12C61.5792 77.9505 60.7905 78.5978 59.8677 78.98C58.9449 79.3623 57.9294 79.4623 56.9498 79.2674C55.9701 79.0725 55.0703 78.5915 54.364 77.8853C53.6577 77.179 53.1767 76.2791 52.9818 75.2994C52.7869 74.3198 52.887 73.3043 53.2692 72.3815C53.6514 71.4587 54.2988 70.67 55.1293 70.115C55.9598 69.5601 56.9362 69.2639 57.935 69.2639C58.5986 69.2627 59.2558 69.3925 59.8691 69.6459C60.4824 69.8993 61.0396 70.2712 61.5088 70.7404C61.978 71.2096 62.35 71.7668 62.6033 72.3801C62.8567 72.9934 62.9865 73.6506 62.9853 74.3142Z" fill="url(#paint49_radial)"/>
<path style="mix-blend-mode:screen" opacity="0.8" d="M62.9853 78.0213C62.9871 79.0205 62.6924 79.9978 62.1386 80.8296C61.5848 81.6613 60.7967 82.31 59.874 82.6937C58.9514 83.0773 57.9357 83.1786 56.9554 82.9848C55.9752 82.791 55.0744 82.3107 54.3672 81.6048C53.66 80.8989 53.1781 79.999 52.9825 79.0191C52.7869 78.0392 52.8864 77.0233 53.2683 76.1C53.6503 75.1766 54.2976 74.3873 55.1283 73.832C55.959 73.2767 56.9358 72.9802 57.935 72.9802C59.2729 72.9802 60.556 73.511 61.5029 74.4562C62.4497 75.4013 62.9828 76.6835 62.9853 78.0213Z" fill="url(#paint50_radial)"/>
<path style="mix-blend-mode:screen" opacity="0.6" d="M62.9852 81.7377C62.9924 82.7369 62.7031 83.7158 62.1538 84.5505C61.6046 85.3853 60.82 86.0383 59.8995 86.427C58.979 86.8156 57.9638 86.9225 56.9825 86.7341C56.0012 86.5456 55.0979 86.0703 54.3868 85.3682C53.6758 84.6662 53.1889 83.769 52.988 82.7902C52.787 81.8114 52.8809 80.7949 53.2578 79.8695C53.6347 78.9441 54.2777 78.1513 55.1053 77.5914C55.9329 77.0315 56.9081 76.7297 57.9073 76.7243C58.5701 76.7194 59.2273 76.8453 59.8414 77.0948C60.4554 77.3442 61.0143 77.7123 61.4859 78.1779C61.9576 78.6436 62.3327 79.1977 62.59 79.8085C62.8473 80.4194 62.9815 81.0749 62.9852 81.7377Z" fill="url(#paint51_radial)"/>
<path style="mix-blend-mode:screen" opacity="0.3" d="M62.9853 85.4449C62.9871 86.443 62.6931 87.4192 62.1405 88.2503C61.5879 89.0814 60.8014 89.7302 59.8804 90.1146C58.9593 90.4991 57.945 90.602 56.9655 90.4104C55.986 90.2188 55.0853 89.7413 54.377 89.0381C53.6687 88.3349 53.1846 87.4377 52.9859 86.4596C52.7872 85.4815 52.8827 84.4665 53.2605 83.5427C53.6382 82.6189 54.2812 81.8277 55.1083 81.269C55.9353 80.7104 56.9094 80.4093 57.9074 80.4039C58.5722 80.4003 59.2311 80.5279 59.8464 80.7795C60.4617 81.0311 61.0213 81.4017 61.4931 81.87C61.9648 82.3384 62.3395 82.8953 62.5956 83.5087C62.8517 84.1222 62.9841 84.7802 62.9853 85.4449Z" fill="url(#paint52_radial)"/>
<path style="mix-blend-mode:screen" opacity="0.2" d="M62.9852 89.1615C62.9797 90.158 62.6796 91.1306 62.1226 91.9569C61.5656 92.7832 60.7766 93.4262 59.8549 93.805C58.9332 94.1838 57.9201 94.2815 56.943 94.0857C55.9659 93.89 55.0686 93.4096 54.3639 92.7049C53.6593 92.0003 53.1789 91.103 52.9832 90.1259C52.7874 89.1488 52.8851 88.1357 53.2639 87.214C53.6427 86.2923 54.2857 85.5033 55.112 84.9463C55.9383 84.3893 56.9109 84.0892 57.9074 84.0837C58.5752 84.08 59.2372 84.2089 59.8549 84.4628C60.4726 84.7167 61.0338 85.0906 61.5061 85.5628C61.9783 86.0351 62.3522 86.5963 62.6061 87.214C62.86 87.8317 62.9889 88.4937 62.9852 89.1615Z" fill="url(#paint53_radial)"/>
<path d="M73.1034 107.587C71.2634 108.521 69.229 109.008 67.1654 109.008C65.1019 109.008 63.0675 108.521 61.2275 107.587C59.5716 106.667 58.7437 105.37 58.7529 104.119V105.665C58.7529 106.916 59.5716 108.167 61.2275 109.123C63.0675 110.057 65.1019 110.544 67.1654 110.544C69.229 110.544 71.2634 110.057 73.1034 109.123C74.7224 108.204 75.5411 106.943 75.5411 105.711V104.165C75.5319 105.407 74.7132 106.64 73.1034 107.587Z" fill="url(#paint54_linear)"/>
<path d="M73.1047 100.706C71.266 99.7678 69.231 99.2786 67.1667 99.2786C65.1024 99.2786 63.0675 99.7678 61.2287 100.706C57.9631 102.601 57.9723 105.683 61.2287 107.587C63.0688 108.521 65.1032 109.008 67.1667 109.008C69.2303 109.008 71.2647 108.521 73.1047 107.587C76.3611 105.683 76.3427 102.601 73.1047 100.706Z" fill="url(#paint55_linear)"/>
<path d="M70.7312 102.058C69.6151 101.487 68.3791 101.189 67.1252 101.189C65.8712 101.189 64.6352 101.487 63.5191 102.058C61.5414 103.208 61.5505 105.076 63.5191 106.235C64.6349 106.802 65.8689 107.097 67.1206 107.097C68.3722 107.097 69.6062 106.802 70.722 106.235C72.7366 105.076 72.7274 103.208 70.7312 102.058Z" fill="#212121"/>
<path opacity="0.7" d="M73.9592 103.981V66.265H60.2986V104.211C60.3817 104.789 60.6089 105.338 60.9593 105.806C61.3098 106.273 61.7722 106.646 62.304 106.888C63.7999 107.65 65.4548 108.047 67.1335 108.047C68.8122 108.047 70.4671 107.65 71.963 106.888C73.3704 106.106 74.0235 105.039 73.9592 103.981Z" fill="url(#paint56_linear)"/>
<path style="mix-blend-mode:screen" d="M72.3314 101.065C75.2567 102.748 75.2567 105.49 72.3314 107.173C70.6915 108.008 68.8775 108.443 67.0374 108.443C65.1973 108.443 63.3833 108.008 61.7434 107.173C58.8273 105.49 58.8273 102.748 61.7434 101.065C63.3846 100.235 65.1981 99.8022 67.0374 99.8022C68.8767 99.8022 70.6902 100.235 72.3314 101.065Z" fill="url(#paint57_radial)"/>
<path style="mix-blend-mode:screen" d="M72.3314 101.065C75.2567 102.748 75.2567 105.49 72.3314 107.173C70.6915 108.008 68.8775 108.443 67.0374 108.443C65.1973 108.443 63.3833 108.008 61.7434 107.173C58.8273 105.49 58.8273 102.748 61.7434 101.065C63.3846 100.235 65.1981 99.8022 67.0374 99.8022C68.8767 99.8022 70.6902 100.235 72.3314 101.065Z" fill="url(#paint58_radial)"/>
<path d="M65.616 104.929C63.9602 104.625 63.6107 103.871 63.6107 103.291C63.6141 102.971 63.6929 102.656 63.8406 102.371C64.6089 101.055 65.5357 99.8378 66.6003 98.747C66.26 98.747 65.9104 98.6551 65.5884 98.5907C65.2301 98.568 64.8808 98.4693 64.5636 98.3012C64.2464 98.1331 63.9685 97.8993 63.7486 97.6156C63.6182 97.3755 63.5538 97.1051 63.5618 96.832C63.5699 96.5589 63.6502 96.2929 63.7946 96.0609C64.5674 94.7475 65.4938 93.5308 66.5543 92.4365C66.214 92.4365 65.8644 92.3445 65.5425 92.2893C63.8866 91.9766 63.5371 91.2222 63.5371 90.6427C63.5415 90.3224 63.6202 90.0075 63.767 89.7228C64.5402 88.4125 65.4666 87.1988 66.5268 86.1076L65.5149 85.9512C65.1575 85.9246 64.8095 85.8242 64.4928 85.6564C64.1762 85.4885 63.8977 85.2569 63.6751 84.9761C63.5446 84.7361 63.4801 84.4657 63.4882 84.1926C63.4963 83.9195 63.5766 83.6534 63.721 83.4215C64.4915 82.1065 65.4181 80.8896 66.4807 79.7971C66.1404 79.7511 65.7908 79.7051 65.4689 79.6407C63.8131 79.3279 63.4635 78.5736 63.4635 78.0033C63.4669 77.6828 63.5457 77.3677 63.6934 77.0834C64.4596 75.7656 65.3866 74.5481 66.4531 73.459C66.1036 73.413 65.7632 73.367 65.4413 73.3026C65.0835 73.2776 64.7349 73.1779 64.418 73.01C64.1012 72.842 63.823 72.6095 63.6015 72.3275C63.471 72.0874 63.4066 71.8171 63.4146 71.544C63.4227 71.2709 63.5031 71.0048 63.6475 70.7728C64.4628 69.4072 65.4387 68.1441 66.5543 67.0105L66.9867 66.7897H67.0511C68.2286 66.9369 69.4428 67.0932 70.0132 67.7096C70.5835 68.3259 70.0684 69.8437 68.3205 71.8951C67.971 72.3091 67.603 72.723 67.2443 73.1278C68.3574 73.275 69.4796 73.4406 70.004 74.0477C70.1731 74.2404 70.262 74.4906 70.2523 74.7468C70.2523 75.5379 69.5808 76.7522 68.3114 78.2424C67.9618 78.6564 67.5938 79.0704 67.2351 79.4751C68.3481 79.6223 69.4704 79.7879 69.9948 80.395C70.5191 81.0021 70.05 82.5384 68.3022 84.5898L67.2259 85.8224C68.3389 85.9696 69.4612 86.1352 69.9856 86.7423C70.1564 86.9341 70.2455 87.1849 70.234 87.4415C70.234 88.2326 69.5624 89.4376 68.2929 90.9371L67.2167 92.1698C68.2091 92.1867 69.1723 92.5077 69.9764 93.0897C70.6111 93.7796 70.0316 95.2238 68.2838 97.2752C67.9342 97.6892 67.5662 98.1031 67.2075 98.5079C68.1991 98.5288 69.1612 98.8495 69.9672 99.4278C70.1366 99.6167 70.2257 99.8642 70.2155 100.118C70.2155 100.918 69.544 102.123 68.2746 103.613C68.2478 103.623 68.2185 103.623 68.1918 103.613H67.9434C67.9234 103.613 67.9038 103.607 67.8863 103.598C67.8687 103.588 67.8536 103.575 67.8422 103.558C67.8286 103.543 67.8211 103.523 67.8211 103.503C67.8211 103.483 67.8286 103.463 67.8422 103.448C69.3968 101.608 70.004 100.237 69.4796 99.6853C68.9553 99.1334 67.9066 99.023 66.8211 98.885C65.7626 99.954 64.836 101.146 64.0614 102.436C63.9407 102.625 63.872 102.843 63.8623 103.068C63.8526 103.292 63.9023 103.515 64.0062 103.715C64.4135 104.194 64.9903 104.497 65.616 104.561C65.635 104.565 65.653 104.572 65.6689 104.583C65.6847 104.594 65.6981 104.609 65.708 104.625C65.7169 104.641 65.7216 104.658 65.7216 104.676C65.7216 104.694 65.7169 104.711 65.708 104.726L65.4689 104.947C65.4418 104.955 65.4131 104.955 65.3861 104.947L65.616 104.929ZM67.0879 92.5285C66.0293 93.5975 65.1028 94.7896 64.3282 96.0793C64.2075 96.2706 64.139 96.49 64.1293 96.7159C64.1196 96.9418 64.1691 97.1663 64.273 97.3672C64.6807 97.8445 65.2579 98.1447 65.8828 98.2043C66.2324 98.2687 66.6003 98.3239 66.9683 98.3699C67.3454 97.9467 67.7318 97.5144 68.0906 97.0912C69.6452 95.2514 70.2523 93.8808 69.728 93.3288C69.2036 92.7769 68.1734 92.6665 67.0879 92.5285ZM67.0879 86.218C66.0314 87.2888 65.1051 88.4807 64.3282 89.7688C64.2075 89.96 64.139 90.1795 64.1293 90.4054C64.1196 90.6313 64.1691 90.8558 64.273 91.0567C64.6782 91.5371 65.2568 91.838 65.8828 91.8938C66.2324 91.9582 66.6003 92.0134 66.9683 92.0594C67.3454 91.6362 67.7318 91.2131 68.0906 90.7899C69.6452 88.9501 70.2523 87.5702 69.728 87.0183C69.2036 86.4664 68.1734 86.356 67.0879 86.218ZM67.0879 79.9075C66.0314 80.9783 65.1051 82.1702 64.3282 83.4583C64.2075 83.6495 64.139 83.869 64.1293 84.0949C64.1196 84.3208 64.1691 84.5453 64.273 84.7461C64.6782 85.2266 65.2568 85.5275 65.8828 85.5833C66.2324 85.6568 66.6003 85.7028 66.9683 85.7488C67.3454 85.3257 67.7318 84.9025 68.0906 84.4794C69.6452 82.6396 70.2523 81.2689 69.728 80.7078C69.2036 80.1466 68.1734 80.0455 67.0879 79.9075ZM67.0879 73.5969C66.0335 74.6696 65.1074 75.8612 64.3282 77.1478C64.2075 77.339 64.139 77.5584 64.1293 77.7843C64.1196 78.0103 64.1691 78.2348 64.273 78.4356C64.6803 78.9148 65.2571 79.2181 65.8828 79.2819C66.2324 79.3463 66.6003 79.3923 66.9683 79.4383C67.3454 79.0244 67.7318 78.592 68.0906 78.1689C69.6452 76.3291 70.2523 74.9584 69.728 74.3973C69.2036 73.8361 68.1734 73.7349 67.0879 73.5969ZM67.0879 67.2956C66.0318 68.3634 65.1055 69.5522 64.3282 70.8372C64.2075 71.0285 64.139 71.2479 64.1293 71.4738C64.1196 71.6997 64.1691 71.9242 64.273 72.1251C64.6803 72.6043 65.2571 72.9075 65.8828 72.9714C66.2324 73.0358 66.6003 73.0818 66.9683 73.137C67.3454 72.7138 67.7318 72.2815 68.0906 71.8583C69.6452 70.0185 70.2523 68.6479 69.728 68.0959C69.2036 67.544 68.1734 67.4336 67.0879 67.2956Z" fill="url(#paint59_linear)"/>
<path style="mix-blend-mode:screen" opacity="0.6" d="M72.3497 66.2928H68.7621V108.001C69.8916 107.862 70.9843 107.51 71.9818 106.962L72.3497 106.723V66.2928Z" fill="url(#paint60_linear)"/>
<path d="M73.1046 68.666C71.2646 69.6001 69.2302 70.0869 67.1666 70.0869C65.1031 70.0869 63.0687 69.6001 61.2287 68.666C59.5728 67.7461 58.7449 66.4583 58.7541 65.198V66.7434C58.7541 67.9945 59.5728 69.2456 61.2287 70.2023C63.0674 71.1407 65.1023 71.6299 67.1666 71.6299C69.231 71.6299 71.2659 71.1407 73.1046 70.2023C74.7236 69.2824 75.5423 68.0221 75.5423 66.7894V65.244C75.5331 66.4859 74.7144 67.7185 73.1046 68.666Z" fill="url(#paint61_linear)"/>
<path d="M73.105 61.785C71.265 60.851 69.2306 60.3641 67.167 60.3641C65.1035 60.3641 63.0691 60.851 61.2291 61.785C57.9634 63.6892 57.9726 66.7617 61.2291 68.6659C63.0691 69.6 65.1035 70.0868 67.167 70.0868C69.2306 70.0868 71.265 69.6 73.105 68.6659C76.3614 66.7617 76.343 63.68 73.105 61.785Z" fill="url(#paint62_linear)"/>
<path d="M71.9546 62.4292C70.4584 61.6631 68.8015 61.2635 67.1205 61.2635C65.4396 61.2635 63.7827 61.6631 62.2865 62.4292C59.6279 63.9746 59.6463 66.4768 62.2865 68.0222C63.7824 68.7839 65.4373 69.181 67.1159 69.181C68.7946 69.181 70.4495 68.7839 71.9454 68.0222C74.6499 66.4768 74.6315 63.9746 71.9546 62.4292Z" fill="#363633"/>
<path d="M56.5448 117.136C54.7048 118.07 52.6704 118.557 50.6069 118.557C48.5433 118.557 46.5089 118.07 44.6689 117.136C43.0131 116.216 42.1852 114.928 42.1852 113.668V115.213C42.1852 116.464 43.0131 117.716 44.6689 118.672C46.5058 119.611 48.5393 120.101 50.6023 120.101C52.6653 120.101 54.6988 119.611 56.5356 118.672C58.1638 117.752 58.9734 116.492 58.9826 115.259V113.714C58.9918 114.956 58.1731 116.188 56.5448 117.136Z" fill="url(#paint63_linear)"/>
<path d="M56.546 110.255C54.706 109.321 52.6715 108.834 50.608 108.834C48.5445 108.834 46.51 109.321 44.67 110.255C41.3952 112.159 41.4136 115.232 44.67 117.136C46.51 118.07 48.5445 118.557 50.608 118.557C52.6715 118.557 54.706 118.07 56.546 117.136C59.8208 115.232 59.8024 112.159 56.546 110.255Z" fill="url(#paint64_linear)"/>
<path d="M54.1901 111.607C53.0727 111.04 51.8372 110.744 50.5841 110.744C49.3309 110.744 48.0955 111.04 46.9781 111.607C44.9911 112.757 45.0095 114.633 46.9781 115.783C48.0939 116.351 49.3278 116.646 50.5795 116.646C51.8312 116.646 53.0651 116.351 54.1809 115.783C56.1955 114.624 56.1863 112.757 54.1901 111.607Z" fill="#212121"/>
<path opacity="0.7" d="M57.4665 113.52V75.8044H43.7599V113.75C43.8462 114.328 44.0747 114.875 44.4247 115.342C44.7748 115.809 45.2354 116.182 45.7653 116.427C47.2629 117.189 48.9192 117.586 50.5994 117.586C52.2796 117.586 53.936 117.189 55.4335 116.427C56.8317 115.655 57.4665 114.587 57.4665 113.52Z" fill="url(#paint65_linear)"/>
<path style="mix-blend-mode:screen" d="M55.7903 110.613C58.7156 112.306 58.7156 115.038 55.7903 116.731C54.149 117.561 52.3355 117.994 50.4962 117.994C48.657 117.994 46.8435 117.561 45.2022 116.731C42.2769 115.038 42.2769 112.306 45.2022 110.613C46.8435 109.783 48.657 109.351 50.4962 109.351C52.3355 109.351 54.149 109.783 55.7903 110.613Z" fill="url(#paint66_radial)"/>
<path style="mix-blend-mode:screen" d="M55.7903 110.613C58.7156 112.306 58.7156 115.038 55.7903 116.731C54.149 117.561 52.3355 117.994 50.4962 117.994C48.657 117.994 46.8435 117.561 45.2022 116.731C42.2769 115.038 42.2769 112.306 45.2022 110.613C46.8435 109.783 48.657 109.351 50.4962 109.351C52.3355 109.351 54.149 109.783 55.7903 110.613Z" fill="url(#paint67_radial)"/>
<path d="M49.0767 114.44C47.4117 114.137 47.0713 113.382 47.0713 112.803C47.0758 112.483 47.1545 112.168 47.3013 111.883C48.0718 110.568 48.9984 109.351 50.061 108.259C49.7299 108.259 49.3803 108.167 49.0583 108.111C48.7013 108.083 48.3539 107.982 48.0374 107.814C47.721 107.647 47.4423 107.416 47.2185 107.136C47.0922 106.893 47.031 106.621 47.0406 106.347C47.0503 106.073 47.1306 105.806 47.2737 105.572C48.0462 104.262 48.9727 103.048 50.0334 101.957L49.0307 101.801C47.3657 101.488 47.0253 100.734 47.0253 100.163C47.0273 99.8428 47.1062 99.5274 47.2553 99.2435C48.0251 97.9281 48.9517 96.7111 50.015 95.6191L49.0123 95.4627C48.6548 95.4367 48.3066 95.3365 47.9899 95.1686C47.6732 95.0008 47.3948 94.7689 47.1725 94.4876C47.0462 94.246 46.9848 93.9756 46.9945 93.703C47.0041 93.4305 47.0845 93.1651 47.2277 92.933C47.9998 91.6191 48.9263 90.4024 49.9874 89.3086C49.6562 89.3086 49.3067 89.2166 48.9847 89.1522C47.3197 88.8394 46.9793 88.0943 46.9793 87.5148C46.9828 87.1944 47.0615 86.8792 47.2093 86.5949C47.9798 85.28 48.9064 84.063 49.969 82.9705C49.6287 82.9705 49.2883 82.8785 48.9663 82.8141C48.6084 82.7897 48.2596 82.6903 47.9427 82.5223C47.6257 82.3543 47.3476 82.1215 47.1265 81.839C47.0453 81.5997 47.023 81.3443 47.0614 81.0945C47.0999 80.8447 47.1979 80.6078 47.3473 80.404C48.1601 79.0419 49.1329 77.7818 50.245 76.6508L50.6865 76.4208H50.7601C51.9468 76.568 53.1611 76.7243 53.7222 77.3407C54.2833 77.957 53.7866 79.484 51.9928 81.5078C51.6432 81.9218 51.2753 82.3357 50.9165 82.7405C51.9085 82.7597 52.8711 83.0806 53.6762 83.6604C53.7627 83.7522 53.8294 83.8609 53.8721 83.9795C53.9148 84.0982 53.9327 84.2244 53.9246 84.3503C53.9246 85.1506 53.2622 86.3557 51.9928 87.8459C51.6432 88.2599 51.2753 88.6739 50.9165 89.0786C51.9078 89.1019 52.8692 89.4224 53.6762 89.9985C54.3202 90.6884 53.7406 92.1419 51.9928 94.1933C51.6432 94.6072 51.2753 95.0212 50.9165 95.4259C52.0296 95.5731 53.1427 95.7387 53.6762 96.3458C53.8454 96.5386 53.9342 96.7887 53.9246 97.045C53.9246 97.8361 53.2622 99.0504 51.9928 100.541L50.9165 101.773C52.0296 101.92 53.1427 102.086 53.6762 102.693C54.2098 103.3 53.7406 104.837 51.9928 106.888L50.9165 108.001C51.9093 108.016 52.8733 108.337 53.6762 108.921C53.847 109.113 53.9362 109.363 53.9246 109.62C53.9246 110.411 53.2622 111.616 51.9928 113.116C51.9658 113.124 51.9369 113.124 51.91 113.116H51.6616C51.6412 113.118 51.6205 113.114 51.6024 113.104C51.5843 113.094 51.5697 113.079 51.5604 113.06C51.5469 113.045 51.5393 113.026 51.5393 113.005C51.5393 112.985 51.5469 112.965 51.5604 112.95C53.1243 111.11 53.7222 109.74 53.2071 109.188C52.6919 108.636 51.6248 108.525 50.5486 108.387C49.4869 109.454 48.5601 110.646 47.7889 111.938C47.6682 112.129 47.5996 112.349 47.5899 112.575C47.5802 112.801 47.6298 113.025 47.7337 113.226C48.1401 113.705 48.718 114.005 49.3435 114.063C49.363 114.066 49.3811 114.075 49.3958 114.088C49.4106 114.101 49.4211 114.118 49.4263 114.137C49.4367 114.15 49.4424 114.166 49.4424 114.183C49.4424 114.199 49.4367 114.216 49.4263 114.229L49.1871 114.44C49.157 114.449 49.1251 114.449 49.0951 114.44C49.0951 114.44 49.0767 114.486 49.0767 114.44ZM50.5486 102.04C49.4892 103.108 48.5627 104.301 47.7889 105.591C47.6682 105.782 47.5996 106.002 47.5899 106.227C47.5802 106.453 47.6298 106.678 47.7337 106.879C47.9336 107.117 48.1788 107.314 48.4551 107.458C48.7313 107.602 49.0333 107.689 49.3435 107.716C49.6931 107.78 50.061 107.835 50.429 107.881C50.8061 107.458 51.1833 107.035 51.542 106.612C53.1059 104.772 53.7038 103.392 53.1887 102.84C52.6735 102.288 51.6248 102.215 50.5486 102.077V102.04ZM50.5486 95.7295C49.4892 96.7979 48.5627 97.9901 47.7889 99.2803C47.6682 99.4716 47.5996 99.691 47.5899 99.9169C47.5802 100.143 47.6298 100.367 47.7337 100.568C48.1392 101.05 48.717 101.353 49.3435 101.414C49.6931 101.479 50.061 101.525 50.429 101.571C50.8061 101.157 51.1833 100.725 51.542 100.301C53.1059 98.4616 53.7038 97.091 53.1887 96.5298C52.6735 95.9687 51.6248 95.9043 50.5486 95.7663V95.7295ZM50.5486 89.419C49.4914 90.4892 48.565 91.6812 47.7889 92.9698C47.6682 93.161 47.5996 93.3805 47.5899 93.6064C47.5802 93.8323 47.6298 94.0568 47.7337 94.2577C48.1392 94.7392 48.717 95.0429 49.3435 95.104C49.6931 95.1684 50.061 95.2144 50.429 95.2604C50.8061 94.8464 51.1833 94.414 51.542 93.9909C53.1059 92.1511 53.7038 90.7804 53.1887 90.2193C52.6735 89.6582 51.6248 89.603 50.5486 89.4558V89.419ZM50.5486 83.1177C49.4869 84.184 48.5601 85.3765 47.7889 86.6685C47.6681 86.858 47.5995 87.0759 47.5898 87.3004C47.5801 87.5249 47.6297 87.7479 47.7337 87.9471C48.1392 88.4287 48.717 88.7324 49.3435 88.7935C49.6931 88.8578 50.061 88.9038 50.429 88.959C50.8061 88.5359 51.1833 88.1035 51.542 87.6804C53.1059 85.8406 53.7038 84.4699 53.1887 83.918C52.6735 83.366 51.6248 83.2924 50.5486 83.1637V83.1177ZM50.5486 76.8071C49.4869 77.8734 48.5601 79.0659 47.7889 80.358C47.6681 80.5474 47.5995 80.7654 47.5898 80.9899C47.5801 81.2144 47.6297 81.4374 47.7337 81.6366C47.9332 81.8766 48.178 82.0749 48.4543 82.2201C48.7305 82.3653 49.0327 82.4546 49.3435 82.4829C49.6931 82.5473 50.061 82.6025 50.429 82.6485C50.8061 82.2254 51.1833 81.793 51.542 81.3698C53.1059 79.53 53.7038 78.1594 53.1887 77.6074C52.6735 77.0555 51.6248 76.9819 50.5486 76.8439V76.8071Z" fill="url(#paint68_linear)"/>
<path style="mix-blend-mode:screen" opacity="0.6" d="M55.8005 75.8044H52.2129V117.467C53.3466 117.334 54.4433 116.98 55.4418 116.427C55.5662 116.355 55.686 116.275 55.8005 116.188V75.8044Z" fill="url(#paint69_linear)"/>
<path d="M56.5449 78.2147C54.7049 79.1488 52.6705 79.6356 50.607 79.6356C48.5435 79.6356 46.509 79.1488 44.669 78.2147C43.0132 77.2948 42.1853 76.0069 42.1853 74.7559V76.2921C42.1853 77.5432 43.0132 78.7942 44.669 79.7509C46.5059 80.69 48.5394 81.1796 50.6024 81.1796C52.6654 81.1796 54.6989 80.69 56.5357 79.7509C58.164 78.831 58.9735 77.5708 58.9827 76.3381V74.8019C58.9919 76.0345 58.1732 77.2672 56.5449 78.2147Z" fill="url(#paint70_linear)"/>
<path d="M56.5461 71.334C54.7061 70.3999 52.6717 69.9131 50.6081 69.9131C48.5446 69.9131 46.5102 70.3999 44.6702 71.334C41.3953 73.2382 41.4137 76.3199 44.6702 78.2149C46.5102 79.1489 48.5446 79.6358 50.6081 79.6358C52.6717 79.6358 54.7061 79.1489 56.5461 78.2149C59.8209 76.3107 59.8025 73.2382 56.5461 71.334Z" fill="url(#paint71_linear)"/>
<path d="M55.4138 71.9779C53.9163 71.2161 52.2599 70.819 50.5798 70.819C48.8996 70.819 47.2432 71.2161 45.7457 71.9779C43.0872 73.5233 43.0964 76.0254 45.7457 77.5709C47.2419 78.337 48.8988 78.7365 50.5798 78.7365C52.2607 78.7365 53.9176 78.337 55.4138 77.5709C58.1091 76.0254 58.0907 73.5233 55.4138 71.9779Z" fill="#363633"/>
<defs>
<radialGradient id="paint0_radial" cx="0" cy="0" r="1" gradientUnits="userSpaceOnUse" gradientTransform="translate(97.9872 59.9544) scale(7.5064)">
<stop stop-color="#E1E7E8"/>
<stop offset="0.21" stop-color="#DDE3E4"/>
<stop offset="0.41" stop-color="#D2D8D9"/>
<stop offset="0.61" stop-color="#BEC5C7"/>
<stop offset="0.71" stop-color="#B2B9BB"/>
<stop offset="0.81" stop-color="#B6BDBF"/>
<stop offset="0.93" stop-color="#C3CACB"/>
<stop offset="1" stop-color="#D0D6D7"/>
</radialGradient>
<linearGradient id="paint1_linear" x1="77.5786" y1="71.1681" x2="78.5813" y2="72.9067" gradientUnits="userSpaceOnUse">
<stop offset="0.14" stop-color="#D5DBDC"/>
<stop offset="1" stop-color="#B3BABC"/>
</linearGradient>
<linearGradient id="paint2_linear" x1="11259.3" y1="1653.2" x2="11244" y2="1696.1" gradientUnits="userSpaceOnUse">
<stop offset="0.14" stop-color="#D5DBDC"/>
<stop offset="1" stop-color="#B3BABC"/>
</linearGradient>
<radialGradient id="paint3_radial" cx="0" cy="0" r="1" gradientUnits="userSpaceOnUse" gradientTransform="translate(3767.59 974.086) scale(78.3669 78.3943)">
<stop stop-color="#E1E7E8"/>
<stop offset="0.21" stop-color="#DDE3E4"/>
<stop offset="0.41" stop-color="#D2D8D9"/>
<stop offset="0.61" stop-color="#BEC5C7"/>
<stop offset="0.71" stop-color="#B2B9BB"/>
<stop offset="0.81" stop-color="#B6BDBF"/>
<stop offset="0.93" stop-color="#C3CACB"/>
<stop offset="1" stop-color="#D0D6D7"/>
</radialGradient>
<radialGradient id="paint4_radial" cx="0" cy="0" r="1" gradientUnits="userSpaceOnUse" gradientTransform="translate(2964.84 963.145) scale(78.3668)">
<stop stop-color="#E1E7E8"/>
<stop offset="0.21" stop-color="#DDE3E4"/>
<stop offset="0.41" stop-color="#D2D8D9"/>
<stop offset="0.61" stop-color="#BEC5C7"/>
<stop offset="0.71" stop-color="#B2B9BB"/>
<stop offset="0.81" stop-color="#B6BDBF"/>
<stop offset="0.93" stop-color="#C3CACB"/>
<stop offset="1" stop-color="#D0D6D7"/>
</radialGradient>
<linearGradient id="paint5_linear" x1="11232.4" y1="2108.48" x2="11247.6" y2="2151.39" gradientUnits="userSpaceOnUse">
<stop offset="0.14" stop-color="#D5DBDC"/>
<stop offset="1" stop-color="#B3BABC"/>
</linearGradient>
<linearGradient id="paint6_linear" x1="10046.4" y1="2092.05" x2="10031.2" y2="2134.95" gradientUnits="userSpaceOnUse">
<stop offset="0.14" stop-color="#D5DBDC"/>
<stop offset="1" stop-color="#B3BABC"/>
</linearGradient>
<linearGradient id="paint7_linear" x1="134.85" y1="78.5549" x2="132.881" y2="80.8914" gradientUnits="userSpaceOnUse">
<stop stop-color="#E1E7E8"/>
<stop offset="0.3" stop-color="#DDE3E4"/>
<stop offset="0.58" stop-color="#D2D8D9"/>
<stop offset="0.86" stop-color="#BEC5C7"/>
<stop offset="1" stop-color="#B2B9BB"/>
</linearGradient>
<linearGradient id="paint8_linear" x1="1424.15" y1="258.346" x2="1418.43" y2="267.412" gradientUnits="userSpaceOnUse">
<stop stop-color="#E1E7E8"/>
<stop offset="0.3" stop-color="#DDE3E4"/>
<stop offset="0.58" stop-color="#D2D8D9"/>
<stop offset="0.86" stop-color="#BEC5C7"/>
<stop offset="1" stop-color="#B2B9BB"/>
</linearGradient>
<linearGradient id="paint9_linear" x1="1244.1" y1="342.035" x2="1238.34" y2="351.119" gradientUnits="userSpaceOnUse">
<stop stop-color="#E1E7E8"/>
<stop offset="0.3" stop-color="#DDE3E4"/>
<stop offset="0.58" stop-color="#D2D8D9"/>
<stop offset="0.86" stop-color="#BEC5C7"/>
<stop offset="1" stop-color="#B2B9BB"/>
</linearGradient>
<linearGradient id="paint10_linear" x1="95.2287" y1="48.2353" x2="97.1697" y2="48.2353" gradientUnits="userSpaceOnUse">
<stop stop-color="#B3BABC"/>
<stop offset="0.86" stop-color="#D5DBDC"/>
</linearGradient>
<linearGradient id="paint11_linear" x1="850.255" y1="1818.39" x2="854.31" y2="1818.39" gradientUnits="userSpaceOnUse">
<stop stop-color="#B3BABC"/>
<stop offset="0.86" stop-color="#D5DBDC"/>
</linearGradient>
<radialGradient id="paint12_radial" cx="0" cy="0" r="1" gradientUnits="userSpaceOnUse" gradientTransform="translate(3357.09 450.096) scale(78.3668)">
<stop stop-color="#E1E7E8"/>
<stop offset="0.21" stop-color="#DDE3E4"/>
<stop offset="0.41" stop-color="#D2D8D9"/>
<stop offset="0.61" stop-color="#BEC5C7"/>
<stop offset="0.71" stop-color="#B2B9BB"/>
<stop offset="0.81" stop-color="#B6BDBF"/>
<stop offset="0.93" stop-color="#C3CACB"/>
<stop offset="1" stop-color="#D0D6D7"/>
</radialGradient>
<linearGradient id="paint13_linear" x1="9982.73" y1="1105.64" x2="9997.93" y2="1148.54" gradientUnits="userSpaceOnUse">
<stop offset="0.14" stop-color="#D5DBDC"/>
<stop offset="1" stop-color="#B3BABC"/>
</linearGradient>
<linearGradient id="paint14_linear" x1="11259.3" y1="1105.33" x2="11244" y2="1148.22" gradientUnits="userSpaceOnUse">
<stop offset="0.14" stop-color="#D5DBDC"/>
<stop offset="1" stop-color="#B3BABC"/>
</linearGradient>
<radialGradient id="paint15_radial" cx="0" cy="0" r="1" gradientUnits="userSpaceOnUse" gradientTransform="translate(2931.81 549.766) scale(59.007)">
<stop stop-color="#E1E7E8"/>
<stop offset="0.21" stop-color="#DDE3E4"/>
<stop offset="0.41" stop-color="#D2D8D9"/>
<stop offset="0.61" stop-color="#BEC5C7"/>
<stop offset="0.71" stop-color="#B2B9BB"/>
<stop offset="0.81" stop-color="#B6BDBF"/>
<stop offset="0.93" stop-color="#C3CACB"/>
<stop offset="1" stop-color="#D0D6D7"/>
</radialGradient>
<linearGradient id="paint16_linear" x1="1254.44" y1="193.243" x2="1250.26" y2="200.034" gradientUnits="userSpaceOnUse">
<stop stop-color="#E1E7E8"/>
<stop offset="0.3" stop-color="#DDE3E4"/>
<stop offset="0.58" stop-color="#D2D8D9"/>
<stop offset="0.86" stop-color="#BEC5C7"/>
<stop offset="1" stop-color="#B2B9BB"/>
</linearGradient>
<radialGradient id="paint17_radial" cx="0" cy="0" r="1" gradientUnits="userSpaceOnUse" gradientTransform="translate(3767.59 687.32) scale(78.3669 78.3943)">
<stop stop-color="#E1E7E8"/>
<stop offset="0.21" stop-color="#DDE3E4"/>
<stop offset="0.41" stop-color="#D2D8D9"/>
<stop offset="0.61" stop-color="#BEC5C7"/>
<stop offset="0.71" stop-color="#B2B9BB"/>
<stop offset="0.81" stop-color="#B6BDBF"/>
<stop offset="0.93" stop-color="#C3CACB"/>
<stop offset="1" stop-color="#D0D6D7"/>
</radialGradient>
<radialGradient id="paint18_radial" cx="0" cy="0" r="1" gradientUnits="userSpaceOnUse" gradientTransform="translate(2964.84 676.257) scale(78.3669 78.3395)">
<stop stop-color="#E1E7E8"/>
<stop offset="0.21" stop-color="#DDE3E4"/>
<stop offset="0.41" stop-color="#D2D8D9"/>
<stop offset="0.61" stop-color="#BEC5C7"/>
<stop offset="0.71" stop-color="#B2B9BB"/>
<stop offset="0.81" stop-color="#B6BDBF"/>
<stop offset="0.93" stop-color="#C3CACB"/>
<stop offset="1" stop-color="#D0D6D7"/>
</radialGradient>
<linearGradient id="paint19_linear" x1="11242.2" y1="1563.99" x2="11257.5" y2="1606.98" gradientUnits="userSpaceOnUse">
<stop offset="0.14" stop-color="#D5DBDC"/>
<stop offset="1" stop-color="#B3BABC"/>
</linearGradient>
<linearGradient id="paint20_linear" x1="10040.5" y1="1539.09" x2="10025.4" y2="1581.88" gradientUnits="userSpaceOnUse">
<stop offset="0.14" stop-color="#D5DBDC"/>
<stop offset="1" stop-color="#B3BABC"/>
</linearGradient>
<linearGradient id="paint21_linear" x1="1612.74" y1="240.265" x2="1607" y2="249.343" gradientUnits="userSpaceOnUse">
<stop stop-color="#E1E7E8"/>
<stop offset="0.3" stop-color="#DDE3E4"/>
<stop offset="0.58" stop-color="#D2D8D9"/>
<stop offset="0.86" stop-color="#BEC5C7"/>
<stop offset="1" stop-color="#B2B9BB"/>
</linearGradient>
<linearGradient id="paint22_linear" x1="1424.15" y1="153.453" x2="1418.44" y2="162.543" gradientUnits="userSpaceOnUse">
<stop stop-color="#E1E7E8"/>
<stop offset="0.3" stop-color="#DDE3E4"/>
<stop offset="0.58" stop-color="#D2D8D9"/>
<stop offset="0.86" stop-color="#BEC5C7"/>
<stop offset="1" stop-color="#B2B9BB"/>
</linearGradient>
<linearGradient id="paint23_linear" x1="1244.1" y1="236.798" x2="1238.35" y2="245.877" gradientUnits="userSpaceOnUse">
<stop stop-color="#E1E7E8"/>
<stop offset="0.3" stop-color="#DDE3E4"/>
<stop offset="0.58" stop-color="#D2D8D9"/>
<stop offset="0.86" stop-color="#BEC5C7"/>
<stop offset="1" stop-color="#B2B9BB"/>
</linearGradient>
<radialGradient id="paint24_radial" cx="0" cy="0" r="1" gradientUnits="userSpaceOnUse" gradientTransform="translate(3167.41 861.643) scale(59.0068 59.007)">
<stop stop-color="#E1E7E8"/>
<stop offset="0.21" stop-color="#DDE3E4"/>
<stop offset="0.41" stop-color="#D2D8D9"/>
<stop offset="0.61" stop-color="#BEC5C7"/>
<stop offset="0.71" stop-color="#B2B9BB"/>
<stop offset="0.81" stop-color="#B6BDBF"/>
<stop offset="0.93" stop-color="#C3CACB"/>
<stop offset="1" stop-color="#D0D6D7"/>
</radialGradient>
<linearGradient id="paint25_linear" x1="1364.25" y1="308.215" x2="1360.09" y2="315.001" gradientUnits="userSpaceOnUse">
<stop stop-color="#E1E7E8"/>
<stop offset="0.3" stop-color="#DDE3E4"/>
<stop offset="0.58" stop-color="#D2D8D9"/>
<stop offset="0.86" stop-color="#BEC5C7"/>
<stop offset="1" stop-color="#B2B9BB"/>
</linearGradient>
<radialGradient id="paint26_radial" cx="0" cy="0" r="1" gradientUnits="userSpaceOnUse" gradientTransform="translate(2714.35 857.617) scale(61.3405 61.3159)">
<stop stop-color="#E1E7E8"/>
<stop offset="0.21" stop-color="#DDE3E4"/>
<stop offset="0.41" stop-color="#D2D8D9"/>
<stop offset="0.61" stop-color="#BEC5C7"/>
<stop offset="0.71" stop-color="#B2B9BB"/>
<stop offset="0.81" stop-color="#B6BDBF"/>
<stop offset="0.93" stop-color="#C3CACB"/>
<stop offset="1" stop-color="#D0D6D7"/>
</radialGradient>
<linearGradient id="paint27_linear" x1="2093.38" y1="307.207" x2="2089.25" y2="313.965" gradientUnits="userSpaceOnUse">
<stop stop-color="#E1E7E8"/>
<stop offset="0.3" stop-color="#DDE3E4"/>
<stop offset="0.58" stop-color="#D2D8D9"/>
<stop offset="0.86" stop-color="#BEC5C7"/>
<stop offset="1" stop-color="#B2B9BB"/>
</linearGradient>
<radialGradient id="paint28_radial" cx="0" cy="0" r="1" gradientUnits="userSpaceOnUse" gradientTransform="translate(3375.37 1200.23) scale(78.3668)">
<stop stop-color="#E1E7E8"/>
<stop offset="0.21" stop-color="#DDE3E4"/>
<stop offset="0.41" stop-color="#D2D8D9"/>
<stop offset="0.61" stop-color="#BEC5C7"/>
<stop offset="0.71" stop-color="#B2B9BB"/>
<stop offset="0.81" stop-color="#B6BDBF"/>
<stop offset="0.93" stop-color="#C3CACB"/>
<stop offset="1" stop-color="#D0D6D7"/>
</radialGradient>
<linearGradient id="paint29_linear" x1="1432.18" y1="428.255" x2="1426.44" y2="437.358" gradientUnits="userSpaceOnUse">
<stop stop-color="#E1E7E8"/>
<stop offset="0.3" stop-color="#DDE3E4"/>
<stop offset="0.58" stop-color="#D2D8D9"/>
<stop offset="0.86" stop-color="#BEC5C7"/>
<stop offset="1" stop-color="#B2B9BB"/>
</linearGradient>
<linearGradient id="paint30_linear" x1="744.334" y1="2315.09" x2="748.39" y2="2315.09" gradientUnits="userSpaceOnUse">
<stop stop-color="#B3BABC"/>
<stop offset="0.86" stop-color="#D5DBDC"/>
</linearGradient>
<radialGradient id="paint31_radial" cx="0" cy="0" r="1" gradientUnits="userSpaceOnUse" gradientTransform="translate(3375.38 913.28) scale(78.3669 78.3395)">
<stop stop-color="#E1E7E8"/>
<stop offset="0.21" stop-color="#DDE3E4"/>
<stop offset="0.41" stop-color="#D2D8D9"/>
<stop offset="0.61" stop-color="#BEC5C7"/>
<stop offset="0.71" stop-color="#B2B9BB"/>
<stop offset="0.81" stop-color="#B6BDBF"/>
<stop offset="0.93" stop-color="#C3CACB"/>
<stop offset="1" stop-color="#D0D6D7"/>
</radialGradient>
<linearGradient id="paint32_linear" x1="1432.18" y1="323.149" x2="1426.44" y2="332.221" gradientUnits="userSpaceOnUse">
<stop stop-color="#E1E7E8"/>
<stop offset="0.3" stop-color="#DDE3E4"/>
<stop offset="0.58" stop-color="#D2D8D9"/>
<stop offset="0.86" stop-color="#BEC5C7"/>
<stop offset="1" stop-color="#B2B9BB"/>
</linearGradient>
<linearGradient id="paint33_linear" x1="10056.6" y1="3906.21" x2="11652.4" y2="3906.21" gradientUnits="userSpaceOnUse">
<stop stop-color="#B2B9BB"/>
<stop offset="1" stop-color="#D6DCDD"/>
</linearGradient>
<linearGradient id="paint34_linear" x1="10033.4" y1="1626.29" x2="11621.5" y2="1626.29" gradientUnits="userSpaceOnUse">
<stop offset="0.68" stop-color="#E9ECED"/>
<stop offset="0.84" stop-color="#E5E8E9"/>
<stop offset="1" stop-color="#D9DDDE"/>
</linearGradient>
<linearGradient id="paint35_linear" x1="29.445" y1="41.4737" x2="60.7124" y2="41.4737" gradientUnits="userSpaceOnUse">
<stop stop-color="#85FFF3"/>
<stop offset="0.33" stop-color="#14B5AD"/>
<stop offset="1" stop-color="#6EF0E5"/>
</linearGradient>
<radialGradient id="paint36_radial" cx="0" cy="0" r="1" gradientUnits="userSpaceOnUse" gradientTransform="translate(18513.8 -6738.58) rotate(-30.1137) scale(516.003 258.529)">
<stop stop-color="#96FFFA"/>
<stop offset="0.18" stop-color="#14B5AD"/>
<stop offset="0.28" stop-color="#0F8882"/>
<stop offset="0.4" stop-color="#0A5F5A"/>
<stop offset="0.51" stop-color="#073C3A"/>
<stop offset="0.63" stop-color="#042220"/>
<stop offset="0.75" stop-color="#020F0E"/>
<stop offset="0.87" stop-color="#000404"/>
<stop offset="1"/>
</radialGradient>
<radialGradient id="paint37_radial" cx="0" cy="0" r="1" gradientUnits="userSpaceOnUse" gradientTransform="translate(4172.71 -1474.75) rotate(-30.1137) scale(27.9587 14.0044)">
<stop stop-color="#96FFFA"/>
<stop offset="0.18" stop-color="#14B5AD"/>
<stop offset="0.28" stop-color="#0F8882"/>
<stop offset="0.4" stop-color="#0A5F5A"/>
<stop offset="0.51" stop-color="#073C3A"/>
<stop offset="0.63" stop-color="#042220"/>
<stop offset="0.75" stop-color="#020F0E"/>
<stop offset="0.87" stop-color="#000404"/>
<stop offset="1"/>
</radialGradient>
<radialGradient id="paint38_radial" cx="0" cy="0" r="1" gradientUnits="userSpaceOnUse" gradientTransform="translate(4224.3 -1486.73) rotate(-30.1137) scale(27.983 14.0044)">
<stop stop-color="#96FFFA"/>
<stop offset="0.18" stop-color="#14B5AD"/>
<stop offset="0.28" stop-color="#0F8882"/>
<stop offset="0.4" stop-color="#0A5F5A"/>
<stop offset="0.51" stop-color="#073C3A"/>
<stop offset="0.63" stop-color="#042220"/>
<stop offset="0.75" stop-color="#020F0E"/>
<stop offset="0.87" stop-color="#000404"/>
<stop offset="1"/>
</radialGradient>
<radialGradient id="paint39_radial" cx="0" cy="0" r="1" gradientUnits="userSpaceOnUse" gradientTransform="translate(4239.52 -1540.72) rotate(-30.1137) scale(27.983 14.0326)">
<stop stop-color="#96FFFA"/>
<stop offset="0.18" stop-color="#14B5AD"/>
<stop offset="0.28" stop-color="#0F8882"/>
<stop offset="0.4" stop-color="#0A5F5A"/>
<stop offset="0.51" stop-color="#073C3A"/>
<stop offset="0.63" stop-color="#042220"/>
<stop offset="0.75" stop-color="#020F0E"/>
<stop offset="0.87" stop-color="#000404"/>
<stop offset="1"/>
</radialGradient>
<radialGradient id="paint40_radial" cx="0" cy="0" r="1" gradientUnits="userSpaceOnUse" gradientTransform="translate(4121.63 -1450.5) rotate(-30.1137) scale(27.9587 14.0204)">
<stop stop-color="#96FFFA"/>
<stop offset="0.18" stop-color="#14B5AD"/>
<stop offset="0.28" stop-color="#0F8882"/>
<stop offset="0.4" stop-color="#0A5F5A"/>
<stop offset="0.51" stop-color="#073C3A"/>
<stop offset="0.63" stop-color="#042220"/>
<stop offset="0.75" stop-color="#020F0E"/>
<stop offset="0.87" stop-color="#000404"/>
<stop offset="1"/>
</radialGradient>
<radialGradient id="paint41_radial" cx="0" cy="0" r="1" gradientUnits="userSpaceOnUse" gradientTransform="translate(4066.88 -1459.48) rotate(-30.1137) scale(27.983 14.025)">
<stop stop-color="#96FFFA"/>
<stop offset="0.18" stop-color="#14B5AD"/>
<stop offset="0.28" stop-color="#0F8882"/>
<stop offset="0.4" stop-color="#0A5F5A"/>
<stop offset="0.51" stop-color="#073C3A"/>
<stop offset="0.63" stop-color="#042220"/>
<stop offset="0.75" stop-color="#020F0E"/>
<stop offset="0.87" stop-color="#000404"/>
<stop offset="1"/>
</radialGradient>
<radialGradient id="paint42_radial" cx="0" cy="0" r="1" gradientUnits="userSpaceOnUse" gradientTransform="translate(4107.21 -1493.34) rotate(-30.1137) scale(27.9749 14.0279)">
<stop stop-color="#96FFFA"/>
<stop offset="0.18" stop-color="#14B5AD"/>
<stop offset="0.28" stop-color="#0F8882"/>
<stop offset="0.4" stop-color="#0A5F5A"/>
<stop offset="0.51" stop-color="#073C3A"/>
<stop offset="0.63" stop-color="#042220"/>
<stop offset="0.75" stop-color="#020F0E"/>
<stop offset="0.87" stop-color="#000404"/>
<stop offset="1"/>
</radialGradient>
<radialGradient id="paint43_radial" cx="0" cy="0" r="1" gradientUnits="userSpaceOnUse" gradientTransform="translate(4154.05 -1522.21) rotate(-30.1137) scale(27.9587 14.0204)">
<stop stop-color="#96FFFA"/>
<stop offset="0.18" stop-color="#14B5AD"/>
<stop offset="0.28" stop-color="#0F8882"/>
<stop offset="0.4" stop-color="#0A5F5A"/>
<stop offset="0.51" stop-color="#073C3A"/>
<stop offset="0.63" stop-color="#042220"/>
<stop offset="0.75" stop-color="#020F0E"/>
<stop offset="0.87" stop-color="#000404"/>
<stop offset="1"/>
</radialGradient>
<linearGradient id="paint44_linear" x1="36.9791" y1="54.4351" x2="48.7446" y2="29.8094" gradientUnits="userSpaceOnUse">
<stop stop-color="#85FFF3"/>
<stop offset="1" stop-color="#3ABCB7"/>
</linearGradient>
<linearGradient id="paint45_linear" x1="56.5646" y1="41.3449" x2="48.7731" y2="41.3449" gradientUnits="userSpaceOnUse">
<stop stop-color="#85FFF3"/>
<stop offset="0.3" stop-color="#59E2D8"/>
<stop offset="0.6" stop-color="#33C9C0"/>
<stop offset="0.85" stop-color="#1CBAB2"/>
<stop offset="1" stop-color="#14B5AD"/>
</linearGradient>
<linearGradient id="paint46_linear" x1="10056.6" y1="384.32" x2="11652.4" y2="384.32" gradientUnits="userSpaceOnUse">
<stop stop-color="#B2B9BB"/>
<stop offset="1" stop-color="#D6DCDD"/>
</linearGradient>
<linearGradient id="paint47_linear" x1="10033.4" y1="389.918" x2="11621.5" y2="389.918" gradientUnits="userSpaceOnUse">
<stop offset="0.68" stop-color="#E9ECED"/>
<stop offset="0.84" stop-color="#E5E8E9"/>
<stop offset="1" stop-color="#D9DDDE"/>
</linearGradient>
<linearGradient id="paint48_linear" x1="57.8145" y1="74.0751" x2="57.8145" y2="89.6398" gradientUnits="userSpaceOnUse">
<stop stop-color="#96FFFA"/>
<stop offset="0.06" stop-color="#89F3EE"/>
<stop offset="0.27" stop-color="#5ECFC9"/>
<stop offset="0.48" stop-color="#3CB2AC"/>
<stop offset="0.67" stop-color="#249D97"/>
<stop offset="0.85" stop-color="#15908A"/>
<stop offset="1" stop-color="#108C86"/>
</linearGradient>
<radialGradient id="paint49_radial" cx="0" cy="0" r="1" gradientUnits="userSpaceOnUse" gradientTransform="translate(3047.49 941.747) scale(55.3509)">
<stop stop-color="#96FFFA"/>
<stop offset="0.18" stop-color="#14B5AD"/>
<stop offset="0.28" stop-color="#0F8882"/>
<stop offset="0.4" stop-color="#0A5F5A"/>
<stop offset="0.51" stop-color="#073C3A"/>
<stop offset="0.63" stop-color="#042220"/>
<stop offset="0.75" stop-color="#020F0E"/>
<stop offset="0.87" stop-color="#000404"/>
<stop offset="1"/>
</radialGradient>
<radialGradient id="paint50_radial" cx="0" cy="0" r="1" gradientUnits="userSpaceOnUse" gradientTransform="translate(3047.49 986.168) scale(55.3509)">
<stop stop-color="#96FFFA"/>
<stop offset="0.18" stop-color="#14B5AD"/>
<stop offset="0.28" stop-color="#0F8882"/>
<stop offset="0.4" stop-color="#0A5F5A"/>
<stop offset="0.51" stop-color="#073C3A"/>
<stop offset="0.63" stop-color="#042220"/>
<stop offset="0.75" stop-color="#020F0E"/>
<stop offset="0.87" stop-color="#000404"/>
<stop offset="1"/>
</radialGradient>
<radialGradient id="paint51_radial" cx="0" cy="0" r="1" gradientUnits="userSpaceOnUse" gradientTransform="translate(3047.49 1030.72) scale(55.3509 55.3512)">
<stop stop-color="#96FFFA"/>
<stop offset="0.18" stop-color="#14B5AD"/>
<stop offset="0.28" stop-color="#0F8882"/>
<stop offset="0.4" stop-color="#0A5F5A"/>
<stop offset="0.51" stop-color="#073C3A"/>
<stop offset="0.63" stop-color="#042220"/>
<stop offset="0.75" stop-color="#020F0E"/>
<stop offset="0.87" stop-color="#000404"/>
<stop offset="1"/>
</radialGradient>
<radialGradient id="paint52_radial" cx="0" cy="0" r="1" gradientUnits="userSpaceOnUse" gradientTransform="translate(3047.49 1075.1) scale(55.3509)">
<stop stop-color="#96FFFA"/>
<stop offset="0.18" stop-color="#14B5AD"/>
<stop offset="0.28" stop-color="#0F8882"/>
<stop offset="0.4" stop-color="#0A5F5A"/>
<stop offset="0.51" stop-color="#073C3A"/>
<stop offset="0.63" stop-color="#042220"/>
<stop offset="0.75" stop-color="#020F0E"/>
<stop offset="0.87" stop-color="#000404"/>
<stop offset="1"/>
</radialGradient>
<radialGradient id="paint53_radial" cx="0" cy="0" r="1" gradientUnits="userSpaceOnUse" gradientTransform="translate(3047.49 1119.59) scale(55.3508)">
<stop stop-color="#96FFFA"/>
<stop offset="0.18" stop-color="#14B5AD"/>
<stop offset="0.28" stop-color="#0F8882"/>
<stop offset="0.4" stop-color="#0A5F5A"/>
<stop offset="0.51" stop-color="#073C3A"/>
<stop offset="0.63" stop-color="#042220"/>
<stop offset="0.75" stop-color="#020F0E"/>
<stop offset="0.87" stop-color="#000404"/>
<stop offset="1"/>
</radialGradient>
<linearGradient id="paint54_linear" x1="5050.75" y1="889.725" x2="5357.8" y2="889.725" gradientUnits="userSpaceOnUse">
<stop stop-color="#B2B9BB"/>
<stop offset="1" stop-color="#D6DCDD"/>
</linearGradient>
<linearGradient id="paint55_linear" x1="5042.2" y1="1255.23" x2="5348.01" y2="1255.23" gradientUnits="userSpaceOnUse">
<stop offset="0.68" stop-color="#E9ECED"/>
<stop offset="0.84" stop-color="#E5E8E9"/>
<stop offset="1" stop-color="#D9DDDE"/>
</linearGradient>
<linearGradient id="paint56_linear" x1="4145.96" y1="4259.89" x2="4349.97" y2="4259.89" gradientUnits="userSpaceOnUse">
<stop stop-color="#85FFF3"/>
<stop offset="0.33" stop-color="#14B5AD"/>
<stop offset="1" stop-color="#6EF0E5"/>
</linearGradient>
<radialGradient id="paint57_radial" cx="0" cy="0" r="1" gradientUnits="userSpaceOnUse" gradientTransform="translate(68.3851 103.05) rotate(-30.1137) scale(6.11473 5.30761)">
<stop stop-color="#96FFFA"/>
<stop offset="0.18" stop-color="#14B5AD"/>
<stop offset="0.33" stop-color="#0E837D"/>
<stop offset="0.49" stop-color="#095451"/>
<stop offset="0.64" stop-color="#05302E"/>
<stop offset="0.78" stop-color="#021515"/>
<stop offset="0.9" stop-color="#010605"/>
<stop offset="1"/>
</radialGradient>
<radialGradient id="paint58_radial" cx="0" cy="0" r="1" gradientUnits="userSpaceOnUse" gradientTransform="translate(6310.21 2087) scale(86.0723 49.6822)">
<stop stop-color="#96FFFA"/>
<stop offset="0.18" stop-color="#14B5AD"/>
<stop offset="0.33" stop-color="#0E837D"/>
<stop offset="0.49" stop-color="#095451"/>
<stop offset="0.64" stop-color="#05302E"/>
<stop offset="0.78" stop-color="#021515"/>
<stop offset="0.9" stop-color="#010605"/>
<stop offset="1"/>
</radialGradient>
<linearGradient id="paint59_linear" x1="67.0419" y1="103.889" x2="67.0419" y2="71.9043" gradientUnits="userSpaceOnUse">
<stop stop-color="#6BFFF0"/>
<stop offset="1" stop-color="#C3FC9D"/>
</linearGradient>
<linearGradient id="paint60_linear" x1="1187.88" y1="4249.64" x2="1174.54" y2="4249.64" gradientUnits="userSpaceOnUse">
<stop stop-color="#85FFF3"/>
<stop offset="0.3" stop-color="#59E2D8"/>
<stop offset="0.6" stop-color="#33C9C0"/>
<stop offset="0.85" stop-color="#1CBAB2"/>
<stop offset="1" stop-color="#14B5AD"/>
</linearGradient>
<linearGradient id="paint61_linear" x1="5050.75" y1="579.558" x2="5357.8" y2="579.558" gradientUnits="userSpaceOnUse">
<stop stop-color="#B2B9BB"/>
<stop offset="1" stop-color="#D6DCDD"/>
</linearGradient>
<linearGradient id="paint62_linear" x1="5042.2" y1="804.149" x2="5348.01" y2="804.149" gradientUnits="userSpaceOnUse">
<stop offset="0.68" stop-color="#E9ECED"/>
<stop offset="0.84" stop-color="#E5E8E9"/>
<stop offset="1" stop-color="#D9DDDE"/>
</linearGradient>
<linearGradient id="paint63_linear" x1="4734.72" y1="967.063" x2="5042.12" y2="967.063" gradientUnits="userSpaceOnUse">
<stop stop-color="#B2B9BB"/>
<stop offset="1" stop-color="#D6DCDD"/>
</linearGradient>
<linearGradient id="paint64_linear" x1="4728.99" y1="1364.91" x2="5035.29" y2="1364.91" gradientUnits="userSpaceOnUse">
<stop offset="0.68" stop-color="#E9ECED"/>
<stop offset="0.84" stop-color="#E5E8E9"/>
<stop offset="1" stop-color="#D9DDDE"/>
</linearGradient>
<linearGradient id="paint65_linear" x1="3895.43" y1="4703.13" x2="4100.07" y2="4703.13" gradientUnits="userSpaceOnUse">
<stop stop-color="#85FFF3"/>
<stop offset="0.33" stop-color="#14B5AD"/>
<stop offset="1" stop-color="#6EF0E5"/>
</linearGradient>
<radialGradient id="paint66_radial" cx="0" cy="0" r="1" gradientUnits="userSpaceOnUse" gradientTransform="translate(6066.49 2099.11) scale(86.1118 49.6965)">
<stop stop-color="#96FFFA"/>
<stop offset="0.18" stop-color="#14B5AD"/>
<stop offset="0.33" stop-color="#0E837D"/>
<stop offset="0.49" stop-color="#095451"/>
<stop offset="0.64" stop-color="#05302E"/>
<stop offset="0.78" stop-color="#021515"/>
<stop offset="0.9" stop-color="#010605"/>
<stop offset="1"/>
</radialGradient>
<radialGradient id="paint67_radial" cx="0" cy="0" r="1" gradientUnits="userSpaceOnUse" gradientTransform="translate(6027.26 2097.13) scale(86.1118 49.6965)">
<stop stop-color="#96FFFA"/>
<stop offset="0.18" stop-color="#14B5AD"/>
<stop offset="0.33" stop-color="#0E837D"/>
<stop offset="0.49" stop-color="#095451"/>
<stop offset="0.64" stop-color="#05302E"/>
<stop offset="0.78" stop-color="#021515"/>
<stop offset="0.9" stop-color="#010605"/>
<stop offset="1"/>
</radialGradient>
<linearGradient id="paint68_linear" x1="2054.98" y1="4980.15" x2="2054.98" y2="3657.5" gradientUnits="userSpaceOnUse">
<stop stop-color="#6BFFF0"/>
<stop offset="1" stop-color="#C3FC9D"/>
</linearGradient>
<linearGradient id="paint69_linear" x1="1106.83" y1="4687.41" x2="1093.48" y2="4687.41" gradientUnits="userSpaceOnUse">
<stop stop-color="#85FFF3"/>
<stop offset="0.3" stop-color="#59E2D8"/>
<stop offset="0.6" stop-color="#33C9C0"/>
<stop offset="0.85" stop-color="#1CBAB2"/>
<stop offset="1" stop-color="#14B5AD"/>
</linearGradient>
<linearGradient id="paint70_linear" x1="4734.72" y1="655.142" x2="5042.12" y2="655.142" gradientUnits="userSpaceOnUse">
<stop stop-color="#B2B9BB"/>
<stop offset="1" stop-color="#D6DCDD"/>
</linearGradient>
<linearGradient id="paint71_linear" x1="4728.99" y1="914.62" x2="5035.29" y2="914.62" gradientUnits="userSpaceOnUse">
<stop offset="0.68" stop-color="#E9ECED"/>
<stop offset="0.84" stop-color="#E5E8E9"/>
<stop offset="1" stop-color="#D9DDDE"/>
</linearGradient>
</defs>
</svg>
