<svg width="184" height="134" viewBox="0 0 184 134" fill="none" xmlns="http://www.w3.org/2000/svg">
<path opacity="0.2" d="M91.6242 133.971C142.227 133.971 183.248 110.287 183.248 81.0704C183.248 51.8541 142.227 28.1696 91.6242 28.1696C41.0216 28.1696 0 51.8541 0 81.0704C0 110.287 41.0216 133.971 91.6242 133.971Z" fill="#F55B28" fill-opacity="0.15"/>
<g style="mix-blend-mode:multiply" opacity="0.5">
<g style="mix-blend-mode:multiply" opacity="0.5">
<path d="M96.2432 92.2484L82.3756 84.2498L80.156 85.5196L58.1598 72.8118L60.8593 71.252L46.9817 63.2534L44.2822 64.8131L41.2027 63.0334L18.3667 76.2211L19.3665 76.8011L13.7474 80.0505L29.7447 89.2589L35.3637 86.0095L55.3603 97.5275L49.5913 100.747L65.5885 109.955L74.247 104.956L82.1157 109.495L98.8728 99.8271L91.0041 95.2779L96.2432 92.2484Z" fill="#005E7A"/>
</g>
<g style="mix-blend-mode:multiply" opacity="0.5">
<path d="M125.699 88.2491C136.952 88.2491 146.075 82.9804 146.075 76.4811C146.075 69.9818 136.952 64.7131 125.699 64.7131C114.445 64.7131 105.322 69.9818 105.322 76.4811C105.322 82.9804 114.445 88.2491 125.699 88.2491Z" fill="#005E7A"/>
</g>
<g style="mix-blend-mode:multiply" opacity="0.5">
<path d="M139.577 108.436L112.811 93.0084C112.059 92.6264 111.226 92.4272 110.382 92.4272C109.538 92.4272 108.705 92.6264 107.952 93.0084L93.3648 101.427C92.025 102.207 92.015 103.427 93.3648 104.246L120.1 119.664C120.854 120.048 121.688 120.249 122.535 120.249C123.381 120.249 124.215 120.048 124.969 119.664L139.577 111.255C140.887 110.475 140.897 109.216 139.577 108.436Z" fill="#005E7A"/>
</g>
</g>
<path d="M142.777 65.5332C141.787 64.7651 140.752 64.0573 139.677 63.4135C138.713 62.827 137.711 62.3059 136.678 61.8538C137.277 62.1068 137.858 62.4008 138.417 62.7337C143.806 65.9531 143.676 71.0922 138.137 74.2017C132.598 77.3112 123.73 77.2012 118.341 74.0017C112.952 70.8023 113.072 65.6432 118.621 62.5337C119.105 62.2586 119.606 62.0148 120.121 61.8038C119.273 62.1659 118.445 62.5731 117.641 63.0236C116.355 63.753 115.123 64.5715 113.952 65.4732C108.753 69.4725 109.232 75.2215 115.481 78.9509C122.4 83.0902 133.778 83.2001 140.897 79.2108C147.416 75.5415 148.086 69.6825 142.777 65.5332Z" fill="url(#paint0_linear)"/>
<path d="M138.116 72.7319C132.577 75.8414 123.709 75.7314 118.32 72.532C115.67 70.9522 114.32 68.9026 114.32 66.8629V68.3227C114.32 70.3723 115.64 72.412 118.32 74.0017C123.709 77.2211 132.567 77.3111 138.116 74.2016C140.936 72.6219 142.355 70.5123 142.355 68.4027V66.9329C142.355 69.0425 140.936 71.1522 138.116 72.7319Z" fill="#A8AEAF"/>
<path d="M140.877 79.2111C133.759 83.2104 122.381 83.0904 115.462 78.9511C112.052 76.9515 110.363 74.2919 110.373 71.6724V76.2316C110.373 78.8511 112.052 81.4807 115.452 83.5203C122.371 87.6496 133.759 87.7696 140.877 83.7703C144.487 81.7706 146.317 79.0411 146.317 76.3316V71.7724C146.317 74.4819 144.497 77.1814 140.877 79.2111Z" fill="url(#paint1_linear)"/>
<path d="M147.575 50.4959C147.445 39.4079 143.096 14.2222 138.867 7.98328C136.307 4.20393 130.448 2.29426 125.229 3.52404C118.48 5.13377 116.931 9.76297 115.681 13.5223C111.681 25.3803 106.432 54.5152 110.912 65.6333C112.841 70.4425 116.441 73.372 122.23 74.8317C125.345 75.5757 128.569 75.7552 131.748 75.3617C134.501 75.0488 137.169 74.2105 139.607 72.8921C142.681 71.1697 144.999 68.3591 146.106 65.0134C147.675 60.5542 147.575 54.4953 147.575 50.4959ZM131.438 8.74314C130.525 9.19973 129.517 9.43243 128.496 9.422C127.476 9.41156 126.472 9.1583 125.569 8.68316C123.969 7.73332 124.009 6.21358 125.649 5.29374C126.562 4.83799 127.569 4.60492 128.59 4.61361C129.61 4.6223 130.613 4.8725 131.518 5.34374C133.108 6.30357 133.068 7.8233 131.428 8.74314H131.438Z" fill="url(#paint2_linear)"/>
<path style="mix-blend-mode:screen" opacity="0.9" d="M147.575 50.4959C147.445 39.4079 143.096 14.2222 138.867 7.98328C136.307 4.20393 130.448 2.29426 125.229 3.52404C118.48 5.13377 116.931 9.76297 115.681 13.5223C111.681 25.3803 106.432 54.5152 110.912 65.6333C112.841 70.4425 116.441 73.372 122.23 74.8317C125.345 75.5757 128.569 75.7552 131.748 75.3617C134.501 75.0488 137.169 74.2105 139.607 72.8921C142.681 71.1697 144.999 68.3591 146.106 65.0134C147.675 60.5542 147.575 54.4953 147.575 50.4959Z" fill="url(#paint3_radial)"/>
<path d="M135.713 4.43459C135.719 2.13749 132.506 0.266333 128.536 0.255246C124.565 0.244159 121.342 2.09734 121.335 4.39444C121.329 6.69154 124.542 8.5627 128.512 8.57379C132.483 8.58487 135.706 6.73169 135.713 4.43459Z" fill="url(#paint4_linear)"/>
<path d="M136.678 3.624C134.998 0.714502 130.589 -0.125354 128.029 0.0146222C121.72 0.37456 120.26 3.594 119.97 4.57383C119.77 5.24372 118.971 8.73312 124.25 10.7528C125.876 11.3129 127.597 11.5447 129.313 11.4349C131.029 11.325 132.707 10.8757 134.248 10.1129C136.248 8.96309 137.247 7.48334 137.247 5.73364C137.253 4.99162 137.056 4.2621 136.678 3.624ZM133.578 7.41334C131.997 8.19863 130.252 8.59893 128.487 8.58155C126.722 8.56417 124.985 8.12963 123.42 7.31337C120.65 5.66365 120.72 3.0241 123.56 1.43438C125.14 0.645945 126.885 0.243887 128.651 0.261268C130.417 0.27865 132.154 0.714981 133.718 1.53436C136.458 3.18408 136.388 5.82361 133.578 7.41334Z" fill="url(#paint5_linear)"/>
<path d="M147.126 43.5073C146.786 40.0578 146.266 36.1685 145.616 32.2492C145.616 32.1492 145.616 32.0492 145.566 31.9492C144.496 37.9482 135.628 40.8777 129.329 40.9477C128.873 40.9477 128.435 41.1289 128.113 41.4514C127.79 41.7739 127.609 42.2113 127.609 42.6674V49.4562C127.61 49.6898 127.658 49.9208 127.751 50.1354C127.843 50.35 127.978 50.5438 128.147 50.7053C128.316 50.8667 128.515 50.9924 128.734 51.075C128.952 51.1576 129.185 51.1953 129.419 51.1859C141.417 50.736 146.466 46.0668 147.126 43.5073Z" fill="url(#paint6_radial)"/>
<g style="mix-blend-mode:screen">
<g style="mix-blend-mode:screen">
<g style="mix-blend-mode:screen">
<path d="M154.302 24.8702H127.607V60.0842H154.302V24.8702Z" fill="black"/>
</g>
<g style="mix-blend-mode:screen">
<path d="M148.983 48.5185C154.875 40.6857 156.059 31.6343 151.629 28.3017C147.198 24.9691 138.83 28.6173 132.939 36.4502C127.047 44.283 125.862 53.3344 130.293 56.667C134.723 59.9996 143.091 56.3514 148.983 48.5185Z" fill="black"/>
</g>
<g style="mix-blend-mode:screen">
<path d="M148.798 48.3803C154.554 40.7284 155.711 31.8856 151.382 28.6293C147.052 25.3731 138.877 28.9365 133.122 36.5884C127.366 44.2404 126.209 53.0832 130.538 56.3394C134.867 59.5957 143.043 56.0323 148.798 48.3803Z" fill="black"/>
</g>
<g style="mix-blend-mode:screen">
<path d="M148.608 48.2361C154.225 40.7695 155.354 32.1415 151.131 28.965C146.908 25.7884 138.931 29.2661 133.315 36.7327C127.699 44.1993 126.569 52.8273 130.793 56.0039C135.016 59.1805 142.992 55.7027 148.608 48.2361Z" fill="black"/>
</g>
<g style="mix-blend-mode:screen">
<path d="M148.424 48.098C153.904 40.8123 155.005 32.3928 150.884 29.2926C146.762 26.1924 138.978 29.5853 133.498 36.871C128.018 44.1567 126.917 52.5761 131.038 55.6763C135.16 58.7766 142.944 55.3836 148.424 48.098Z" fill="#000101"/>
</g>
<g style="mix-blend-mode:screen">
<path d="M153.053 35.4883C153.053 42.1771 147.644 50.7156 140.955 54.575C134.266 58.4343 128.857 56.1447 128.857 49.4659C128.857 42.787 134.276 34.2385 140.955 30.3792C147.634 26.5198 153.053 28.8094 153.053 35.4883Z" fill="#000202"/>
</g>
<g style="mix-blend-mode:screen">
<path d="M148.048 47.8153C153.253 40.8959 154.299 32.8999 150.385 29.9557C146.47 27.0114 139.078 30.2339 133.873 37.1533C128.669 44.0727 127.623 52.0688 131.537 55.013C135.451 57.9572 142.843 54.7347 148.048 47.8153Z" fill="#000303"/>
</g>
<g style="mix-blend-mode:screen">
<path d="M147.695 47.0362C152.751 40.2951 153.759 32.5125 149.947 29.6532C146.135 26.794 138.946 29.9409 133.89 36.682C128.834 43.4232 127.826 51.2058 131.638 54.065C135.45 56.9243 142.64 53.7774 147.695 47.0362Z" fill="#010504"/>
</g>
<g style="mix-blend-mode:screen">
<path d="M147.674 47.5327C152.603 40.9796 153.594 33.4069 149.887 30.6187C146.18 27.8305 139.179 30.8825 134.25 37.4357C129.321 43.9888 128.33 51.5614 132.037 54.3497C135.744 57.1379 142.744 54.0858 147.674 47.5327Z" fill="#010606"/>
</g>
<g style="mix-blend-mode:screen">
<path d="M147.481 47.3886C152.271 41.0208 153.234 33.663 149.634 30.9545C146.033 28.2459 139.231 31.2123 134.441 37.5801C129.651 43.9479 128.687 51.3057 132.288 54.0142C135.889 56.7228 142.691 53.7564 147.481 47.3886Z" fill="#010808"/>
</g>
<g style="mix-blend-mode:screen">
<path d="M147.296 47.2504C151.95 41.0636 152.886 33.9143 149.386 31.2821C145.887 28.6499 139.278 31.5315 134.624 37.7183C129.97 43.9052 129.035 51.0545 132.534 53.6867C136.033 56.3189 142.643 53.4373 147.296 47.2504Z" fill="#010B0A"/>
</g>
<g style="mix-blend-mode:screen">
<path d="M147.105 47.1064C151.619 41.1048 152.528 34.1704 149.135 31.6179C145.741 29.0653 139.331 31.8613 134.816 37.8628C130.302 43.8643 129.393 50.7987 132.787 53.3513C136.18 55.9038 142.591 53.1079 147.105 47.1064Z" fill="#010D0D"/>
</g>
<g style="mix-blend-mode:screen">
<path d="M150.873 36.7482C150.873 42.2272 146.433 49.236 140.954 52.3955C135.475 55.5549 131.036 53.6752 131.036 48.2062C131.036 42.7371 135.475 35.7283 140.954 32.5589C146.433 29.3894 150.873 31.2791 150.873 36.7482Z" fill="#021010"/>
</g>
<g style="mix-blend-mode:screen">
<path d="M146.731 46.8237C150.97 41.1885 151.823 34.6774 148.637 32.2809C145.451 29.8844 139.432 32.5099 135.193 38.1451C130.954 43.7803 130.101 50.2914 133.287 52.6879C136.473 55.0845 142.492 52.459 146.731 46.8237Z" fill="#021413"/>
</g>
<g style="mix-blend-mode:screen">
<path d="M146.547 46.6856C150.646 41.2357 151.469 34.9368 148.384 32.6166C145.299 30.2964 139.476 32.8335 135.376 38.2834C131.277 43.7333 130.454 50.0323 133.539 52.3525C136.623 54.6726 142.447 52.1355 146.547 46.6856Z" fill="#031716"/>
</g>
<g style="mix-blend-mode:screen">
<path d="M146.354 46.5414C150.317 41.2724 151.115 35.1847 148.136 32.9442C145.158 30.7037 139.53 33.1587 135.567 38.4277C131.604 43.6967 130.805 49.7843 133.784 52.0249C136.763 54.2654 142.39 51.8104 146.354 46.5414Z" fill="#031B1A"/>
</g>
<g style="mix-blend-mode:screen">
<path d="M146.171 46.403C149.995 41.3193 150.762 35.4438 147.885 33.2796C145.008 31.1154 139.575 33.4821 135.752 38.5658C131.928 43.6494 131.16 49.5249 134.037 51.6891C136.915 53.8533 142.347 51.4866 146.171 46.403Z" fill="#04201E"/>
</g>
<g style="mix-blend-mode:screen">
<path d="M149.314 37.6182C149.314 42.2274 145.575 48.1263 140.956 50.7959C136.337 53.4654 132.577 51.9157 132.577 47.2965C132.577 42.6773 136.317 36.7883 140.926 34.1188C145.535 31.4492 149.314 33.0389 149.314 37.6182Z" fill="#042423"/>
</g>
<g style="mix-blend-mode:screen">
<path d="M145.794 46.1204C149.342 41.403 150.054 35.9509 147.385 33.9427C144.715 31.9345 139.674 34.1307 136.126 38.8481C132.577 43.5655 131.865 49.0176 134.535 51.0258C137.205 53.034 142.245 50.8377 145.794 46.1204Z" fill="#052928"/>
</g>
<g style="mix-blend-mode:screen">
<path d="M145.612 45.9825C149.024 41.4461 149.708 36.2025 147.14 34.2707C144.572 32.3388 139.723 34.4503 136.311 38.9867C132.899 43.5232 132.215 48.7667 134.783 50.6986C137.351 52.6304 142.199 50.519 145.612 45.9825Z" fill="#052F2D"/>
</g>
<g style="mix-blend-mode:screen">
<path d="M148.374 38.1979C148.374 42.2872 145.055 47.5263 140.955 49.8959C136.856 52.2655 133.537 50.8957 133.537 46.7564C133.537 42.6171 136.856 37.428 140.955 35.0584C145.055 32.6888 148.374 34.0986 148.374 38.1979Z" fill="#063532"/>
</g>
<g style="mix-blend-mode:screen">
<path d="M145.236 45.6999C148.373 41.5297 149.002 36.7095 146.641 34.9337C144.28 33.1579 139.823 35.0989 136.686 39.2691C133.55 43.4392 132.921 48.2594 135.282 50.0352C137.642 51.8111 142.099 49.8701 145.236 45.6999Z" fill="#063B38"/>
</g>
<g style="mix-blend-mode:screen">
<path d="M147.754 38.558C147.754 42.3074 144.705 47.1065 140.956 49.2762C137.206 51.4458 134.167 50.156 134.167 46.3967C134.167 42.6373 137.166 37.8481 140.956 35.6885C144.745 33.5289 147.754 34.8087 147.754 38.558Z" fill="#07413E"/>
</g>
<g style="mix-blend-mode:screen">
<path d="M147.435 38.7378C147.435 42.3172 144.535 46.8964 140.956 48.9561C137.376 51.0157 134.477 49.7959 134.477 46.2166C134.477 42.6372 137.376 38.068 140.956 35.9983C144.535 33.9287 147.435 35.1585 147.435 38.7378Z" fill="#084845"/>
</g>
<g style="mix-blend-mode:screen">
<path d="M147.123 38.9176C147.123 42.327 144.364 46.6763 140.954 48.646C137.545 50.6156 134.786 49.4458 134.786 46.0364C134.786 42.627 137.545 38.2777 140.954 36.3081C144.364 34.3384 147.123 35.5082 147.123 38.9176Z" fill="#094F4B"/>
</g>
<g style="mix-blend-mode:screen">
<path d="M146.815 39.0977C146.815 42.3271 144.195 46.4664 140.956 48.3361C137.716 50.2057 135.097 49.0959 135.097 45.8565C135.097 42.617 137.726 38.4878 140.956 36.6181C144.185 34.7484 146.815 35.8582 146.815 39.0977Z" fill="#0A5653"/>
</g>
<g style="mix-blend-mode:screen">
<path d="M146.505 39.2778C146.505 42.3373 144.016 46.2766 140.956 48.0263C137.897 49.776 135.417 48.7361 135.417 45.6767C135.417 42.6172 137.897 38.6779 140.956 36.9382C144.016 35.1985 146.505 36.2183 146.505 39.2778Z" fill="#0A5E5A"/>
</g>
<g style="mix-blend-mode:screen">
<path d="M144.109 44.8524C146.419 41.781 146.882 38.231 145.144 36.9232C143.405 35.6154 140.123 37.0451 137.812 40.1164C135.502 43.1878 135.039 46.7378 136.777 48.0456C138.516 49.3534 141.798 47.9238 144.109 44.8524Z" fill="#0B6662"/>
</g>
<g style="mix-blend-mode:screen">
<path d="M145.874 39.6178C145.874 42.3373 143.674 45.8067 140.955 47.3764C138.235 48.9462 136.036 48.0163 136.036 45.2968C136.036 42.5772 138.235 39.1079 140.955 37.5381C143.674 35.9684 145.874 36.9182 145.874 39.6178Z" fill="#0C6F6A"/>
</g>
<g style="mix-blend-mode:screen">
<path d="M145.574 39.8178C145.574 42.3673 143.515 45.6167 140.965 47.0865C138.416 48.5562 136.356 47.6864 136.356 45.0868C136.356 42.4873 138.426 39.2878 140.965 37.8181C143.505 36.3484 145.574 37.2682 145.574 39.8178Z" fill="#0D7873"/>
</g>
<g style="mix-blend-mode:screen">
<path d="M145.256 39.9976C145.256 42.3671 143.326 45.4066 140.956 46.7764C138.587 48.1461 136.657 47.3263 136.657 44.9567C136.657 42.5871 138.587 39.5476 140.956 38.1779C143.326 36.8081 145.256 37.618 145.256 39.9976Z" fill="#0E817B"/>
</g>
<g style="mix-blend-mode:screen">
<path d="M144.944 40.1776C144.944 42.3772 143.154 45.1767 140.945 46.4565C138.735 47.7363 136.945 46.9764 136.945 44.7768C137.073 43.49 137.502 42.2512 138.196 41.1605C138.891 40.0698 139.833 39.1577 140.945 38.4979C143.154 37.2281 144.944 37.978 144.944 40.1776Z" fill="#0F8B85"/>
</g>
<g style="mix-blend-mode:screen">
<path d="M144.625 40.3573C144.509 41.5423 144.117 42.6835 143.48 43.6891C142.842 44.6946 141.978 45.5363 140.955 46.1463C138.956 47.3161 137.286 46.6263 137.286 44.5966C137.401 43.4117 137.794 42.2704 138.431 41.2649C139.068 40.2593 139.933 39.4176 140.955 38.8076C142.985 37.6178 144.625 38.3277 144.625 40.3573Z" fill="#10958E"/>
</g>
<g style="mix-blend-mode:screen">
<path d="M144.315 40.5375C144.206 41.6213 143.846 42.6647 143.262 43.5846C142.679 44.5046 141.889 45.2757 140.956 45.8366C139.106 46.9064 137.596 46.2765 137.596 44.4168C137.705 43.3331 138.066 42.2897 138.649 41.3698C139.232 40.4498 140.022 39.6787 140.956 39.1178C142.815 38.048 144.315 38.6879 144.315 40.5375Z" fill="#129F98"/>
</g>
<g style="mix-blend-mode:screen">
<path d="M144.005 40.7177C143.907 41.7016 143.58 42.6489 143.051 43.484C142.521 44.319 141.804 45.0186 140.955 45.5269C139.276 46.5267 137.906 45.9168 137.906 44.2371C138.004 43.2532 138.331 42.3058 138.86 41.4708C139.39 40.6357 140.107 39.9361 140.955 39.4279C142.635 38.4581 144.005 39.038 144.005 40.7177Z" fill="#13AAA2"/>
</g>
<g style="mix-blend-mode:screen">
<path d="M143.695 40.8974C143.607 41.781 143.313 42.6317 142.837 43.3816C142.362 44.1315 141.717 44.7599 140.956 45.2166C139.446 46.0865 138.226 45.5666 138.226 44.0568C138.312 43.175 138.604 42.3257 139.078 41.5772C139.552 40.8287 140.195 40.202 140.956 39.7476C142.465 38.8677 143.695 39.3876 143.695 40.8974Z" fill="#14B5AD"/>
</g>
<g style="mix-blend-mode:screen">
<path d="M143.374 41.0775C143.299 41.8595 143.041 42.6128 142.621 43.2763C142.2 43.9399 141.63 44.4951 140.955 44.8969C139.615 45.6767 138.535 45.2168 138.535 43.897C138.61 43.1151 138.868 42.3618 139.288 41.6982C139.709 41.0346 140.279 40.4794 140.955 40.0777C142.294 39.2878 143.374 39.7377 143.374 41.0775Z" fill="#14B5AD"/>
</g>
<g style="mix-blend-mode:screen">
<path d="M143.285 41.1374C143.209 41.8883 142.959 42.6112 142.555 43.2484C142.15 43.8855 141.603 44.4192 140.955 44.8068C139.675 45.5467 138.635 45.1067 138.635 43.807C138.71 43.0572 138.959 42.3352 139.362 41.6982C139.764 41.0613 140.31 40.5269 140.955 40.1376C142.245 39.4077 143.285 39.8476 143.285 41.1374Z" fill="#19B8B0"/>
</g>
<g style="mix-blend-mode:screen">
<path d="M143.186 41.1876C143.115 41.9077 142.877 42.6011 142.49 43.2123C142.102 43.8235 141.577 44.3354 140.956 44.707C139.727 45.4169 138.727 44.9969 138.727 43.7671C138.798 43.0471 139.036 42.3536 139.423 41.7424C139.811 41.1312 140.336 40.6193 140.956 40.2478C142.186 39.5379 143.186 39.9578 143.186 41.1876Z" fill="#1FBBB3"/>
</g>
<g style="mix-blend-mode:screen">
<path d="M143.085 41.2475C143.019 41.9354 142.792 42.598 142.422 43.1817C142.052 43.7653 141.549 44.2536 140.956 44.6069C139.776 45.2868 138.826 44.8869 138.826 43.7071C138.892 43.0192 139.119 42.3566 139.489 41.773C139.859 41.1893 140.362 40.701 140.956 40.3477C142.135 39.6678 143.085 40.0677 143.085 41.2475Z" fill="#24BEB7"/>
</g>
<g style="mix-blend-mode:screen">
<path d="M142.996 41.3071C142.935 41.9608 142.723 42.5912 142.375 43.1484C142.028 43.7055 141.556 44.174 140.996 44.5166C139.876 45.1564 138.996 44.7765 138.996 43.6567C139.055 43.0027 139.267 42.3716 139.614 41.8142C139.962 41.2568 140.435 40.7886 140.996 40.4473C142.086 39.7974 142.996 40.1773 142.996 41.3071Z" fill="#2AC1BA"/>
</g>
<g style="mix-blend-mode:screen">
<path d="M142.895 41.3576C142.835 41.9843 142.628 42.588 142.291 43.1196C141.954 43.6512 141.496 44.0958 140.955 44.4171C139.885 45.037 139.015 44.6671 139.015 43.5973C139.075 42.9706 139.282 42.3669 139.619 41.8353C139.956 41.3037 140.414 40.8591 140.955 40.5378C142.025 39.9179 142.895 40.2878 142.895 41.3576Z" fill="#2FC4BD"/>
</g>
<g style="mix-blend-mode:screen">
<path d="M142.795 41.4172C142.736 42.0106 142.539 42.5819 142.219 43.0854C141.9 43.5889 141.467 44.0106 140.955 44.3168C139.955 44.9067 139.116 44.5567 139.116 43.5369C139.175 42.9435 139.372 42.3722 139.691 41.8687C140.011 41.3652 140.444 40.9435 140.955 40.6374C141.975 40.0475 142.795 40.3974 142.795 41.4172Z" fill="#34C7C0"/>
</g>
<g style="mix-blend-mode:screen">
<path d="M142.704 41.4675C142.648 42.0321 142.46 42.5756 142.156 43.0547C141.853 43.5338 141.441 43.9353 140.954 44.227C139.955 44.7769 139.215 44.447 139.215 43.4872C139.268 42.9245 139.454 42.3823 139.756 41.9046C140.058 41.4269 140.469 41.0272 140.954 40.7377C141.914 40.1777 142.704 40.5077 142.704 41.4675Z" fill="#3ACBC3"/>
</g>
<g style="mix-blend-mode:screen">
<path d="M142.575 41.5274C142.522 42.0593 142.345 42.5714 142.058 43.0228C141.772 43.4741 141.384 43.8523 140.925 44.127C140.016 44.6469 139.276 44.3369 139.276 43.4271C139.329 42.8952 139.506 42.3831 139.792 41.9318C140.079 41.4804 140.467 41.1023 140.925 40.8275C141.865 40.3076 142.575 40.6176 142.575 41.5274Z" fill="#3FCEC7"/>
</g>
<g style="mix-blend-mode:screen">
<path d="M142.506 41.6175C142.457 42.1172 142.292 42.5984 142.022 43.0222C141.753 43.446 141.388 43.8005 140.956 44.057C140.097 44.557 139.407 44.257 139.407 43.4072C139.454 42.9057 139.619 42.4225 139.888 41.9968C140.157 41.5711 140.523 41.2151 140.956 40.9576C141.816 40.4377 142.506 40.7276 142.506 41.6175Z" fill="#45D1CA"/>
</g>
<g style="mix-blend-mode:screen">
<path d="M142.405 41.6174C142.36 42.086 142.205 42.5375 141.954 42.9353C141.702 43.333 141.36 43.6659 140.955 43.907C140.156 44.3769 139.506 44.097 139.506 43.2971C139.551 42.8285 139.705 42.377 139.957 41.9793C140.209 41.5815 140.551 41.2486 140.955 41.0075C141.755 40.5576 142.405 40.8375 142.405 41.6174Z" fill="#4AD4CD"/>
</g>
<g style="mix-blend-mode:screen">
<path d="M142.315 41.6971C142.271 42.1349 142.125 42.5563 141.889 42.9277C141.652 43.2992 141.333 43.6104 140.956 43.8368C140.206 44.2667 139.596 44.0068 139.596 43.2569C139.64 42.8191 139.787 42.3977 140.023 42.0263C140.259 41.6548 140.578 41.3436 140.956 41.1172C141.705 40.6873 142.315 40.9473 142.315 41.6971Z" fill="#50D7D0"/>
</g>
<g style="mix-blend-mode:screen">
<path d="M142.215 41.7472C142.177 42.1563 142.044 42.5508 141.825 42.8984C141.606 43.246 141.308 43.5368 140.955 43.7468C140.265 44.1468 139.695 43.9068 139.695 43.2169C139.734 42.8082 139.868 42.4143 140.087 42.0669C140.305 41.7196 140.603 41.4286 140.955 41.2173C141.655 40.8173 142.215 41.0573 142.215 41.7472Z" fill="#55DAD3"/>
</g>
<g style="mix-blend-mode:screen">
<path d="M142.115 41.8074C142.078 42.1817 141.954 42.5422 141.752 42.8599C141.551 43.1776 141.278 43.4437 140.955 43.637C140.315 44.007 139.795 43.787 139.795 43.1471C139.832 42.7728 139.957 42.4123 140.158 42.0946C140.36 41.7769 140.632 41.5107 140.955 41.3174C141.575 40.9475 142.115 41.1675 142.115 41.8074Z" fill="#5ADDD7"/>
</g>
<g style="mix-blend-mode:screen">
<path d="M142.027 41.8672C141.991 42.2112 141.876 42.5421 141.691 42.8338C141.505 43.1254 141.254 43.3696 140.957 43.5469C140.367 43.8868 139.897 43.6769 139.897 43.097C139.929 42.752 140.041 42.4193 140.225 42.1258C140.409 41.8322 140.66 41.5861 140.957 41.4073C141.577 41.0674 142.027 41.2773 142.027 41.8672Z" fill="#60E0DA"/>
</g>
<g style="mix-blend-mode:screen">
<path d="M141.926 41.9172C141.893 42.2333 141.785 42.537 141.611 42.803C141.437 43.069 141.202 43.2898 140.926 43.447C140.396 43.7569 139.926 43.577 139.926 43.0371C139.959 42.721 140.067 42.4173 140.241 42.1513C140.415 41.8853 140.65 41.6645 140.926 41.5073C141.496 41.1974 141.926 41.3873 141.926 41.9172Z" fill="#65E3DD"/>
</g>
<g style="mix-blend-mode:screen">
<path d="M141.826 41.9772C141.798 42.2574 141.704 42.5272 141.553 42.765C141.402 43.0028 141.198 43.2021 140.956 43.347C140.476 43.6269 140.086 43.4669 140.086 42.977C140.115 42.6967 140.208 42.427 140.359 42.1892C140.51 41.9514 140.715 41.7521 140.956 41.6072C141.436 41.3273 141.826 41.4973 141.826 41.9772Z" fill="#6BE6E0"/>
</g>
<g style="mix-blend-mode:screen">
<path d="M141.735 42.0271C141.71 42.2788 141.627 42.5211 141.491 42.7346C141.356 42.9482 141.172 43.1271 140.955 43.2569C140.525 43.4969 140.185 43.3569 140.185 42.927C140.208 42.6771 140.289 42.4362 140.423 42.2241C140.557 42.012 140.739 41.8348 140.955 41.7072C141.385 41.4572 141.735 41.6172 141.735 42.0271Z" fill="#70E9E4"/>
</g>
<g style="mix-blend-mode:screen">
<path d="M141.635 42.0872C141.613 42.3062 141.541 42.5171 141.422 42.7028C141.304 42.8886 141.144 43.0442 140.956 43.157C140.586 43.377 140.276 43.247 140.276 42.8671C140.3 42.6487 140.374 42.4388 140.492 42.2533C140.609 42.0679 140.768 41.9119 140.956 41.7973C141.335 41.6173 141.635 41.7073 141.635 42.0872Z" fill="#75ECE7"/>
</g>
<g style="mix-blend-mode:screen">
<path d="M141.575 42.1372C141.559 42.3256 141.497 42.5073 141.396 42.6673C141.296 42.8273 141.158 42.9609 140.995 43.0571C140.675 43.247 140.415 43.1371 140.415 42.8171C140.434 42.6292 140.495 42.4481 140.596 42.2884C140.697 42.1287 140.834 41.9947 140.995 41.8973C141.275 41.7073 141.575 41.8173 141.575 42.1372Z" fill="#7BF0EA"/>
</g>
<g style="mix-blend-mode:screen">
<path d="M141.446 42.1972C141.431 42.3552 141.379 42.5074 141.294 42.6413C141.209 42.7751 141.093 42.8868 140.956 42.9671C140.686 43.117 140.476 43.0271 140.476 42.7571C140.491 42.6018 140.543 42.4521 140.626 42.3202C140.709 42.1882 140.822 42.0776 140.956 41.9972C141.226 41.8373 141.446 41.9272 141.446 42.1972Z" fill="#80F3ED"/>
</g>
<g style="mix-blend-mode:screen">
<path d="M141.346 42.2573C141.333 42.3823 141.291 42.5024 141.223 42.6082C141.156 42.7141 141.064 42.8027 140.956 42.8672C140.747 42.9872 140.567 42.9172 140.567 42.6972C140.581 42.5727 140.624 42.4531 140.692 42.3475C140.759 42.2419 140.85 42.1529 140.956 42.0873C141.176 41.9674 141.346 42.0374 141.346 42.2573Z" fill="#86F6F0"/>
</g>
<g style="mix-blend-mode:screen">
<path d="M141.246 42.3072C141.237 42.4013 141.206 42.492 141.156 42.5719C141.105 42.6519 141.037 42.7187 140.956 42.7671C140.796 42.8571 140.666 42.7672 140.666 42.6472C140.674 42.5531 140.705 42.4624 140.756 42.3825C140.806 42.3026 140.874 42.2357 140.956 42.1873C141.116 42.0973 141.246 42.1473 141.246 42.3072Z" fill="#8BF9F4"/>
</g>
<g style="mix-blend-mode:screen">
<path d="M141.145 42.3672C141.141 42.4292 141.121 42.4891 141.088 42.5415C141.055 42.5939 141.009 42.6371 140.955 42.6672C140.845 42.7372 140.765 42.6672 140.765 42.5872C140.77 42.5257 140.791 42.4665 140.824 42.4143C140.857 42.3622 140.902 42.3187 140.955 42.2873C141.065 42.2173 141.145 42.2573 141.145 42.3672Z" fill="#91FCF7"/>
</g>
<g style="mix-blend-mode:screen">
<path d="M141.055 42.4171C141.052 42.4497 141.041 42.4812 141.024 42.509C141.007 42.5368 140.983 42.5601 140.955 42.5771C140.905 42.5771 140.855 42.5771 140.855 42.5771C140.858 42.5445 140.869 42.513 140.886 42.4853C140.903 42.4575 140.927 42.4341 140.955 42.4171C141.005 42.3471 141.055 42.3671 141.055 42.4171Z" fill="#96FFFA"/>
</g>
</g>
</g>
<g style="mix-blend-mode:screen" opacity="0.5">
<path d="M142.406 41.6175C142.361 42.0862 142.206 42.5376 141.955 42.9354C141.703 43.3332 141.361 43.6661 140.956 43.9071C140.156 44.3771 139.507 44.0971 139.507 43.2972C139.552 42.8286 139.706 42.3771 139.958 41.9794C140.21 41.5816 140.552 41.2487 140.956 41.0077C141.756 40.5577 142.406 40.8377 142.406 41.6175Z" fill="#E3FFFD"/>
</g>
<path d="M114.701 79.9707V81.8504L118.551 84.07V82.1903L114.701 79.9707Z" fill="#313436"/>
<path opacity="0.4" d="M117.681 83.2403L117.991 83.4103L119.061 82.7904L118.761 82.6204L117.681 83.2403ZM117.021 82.8504L117.321 83.0304L118.391 82.4104L118.091 82.2305L117.021 82.8504ZM116.351 82.4704L116.661 82.6404L117.731 82.0205L117.431 81.8505L116.351 82.4704ZM115.691 82.0905L115.991 82.2605L117.061 81.6406L116.761 81.4706L115.691 82.0905ZM115.021 81.7006L115.321 81.8805L116.401 81.2607L116.101 81.0807L115.021 81.7006Z" fill="#A88038"/>
<path d="M118.35 83.0898L119.34 82.5099V82.1L118.35 82.6699V83.0898Z" fill="#2C4D5E"/>
<path d="M118.351 82.6704L119.341 82.1005L116.072 80.2108L115.082 80.7907L118.351 82.6704Z" fill="#477C97"/>
<path d="M115.081 80.7908V81.2107L118.35 83.0904V82.6705L115.081 80.7908Z" fill="#3F6F87"/>
<path d="M118.549 83.6002V82.6904L118.329 82.5604V83.4702L118.549 83.6002Z" fill="#9BA3A8"/>
<path d="M114.921 81.5105V80.6007L114.701 80.4707V81.3805L114.921 81.5105Z" fill="#9BA3A8"/>
<path d="M115 80.5505L118.249 82.4202V82.2002L115 80.3306V80.5505Z" fill="#9BA3A8"/>
<path d="M115 81.8704L118.249 83.74V83.5201L115 81.6504V81.8704Z" fill="#9BA3A8"/>
<path d="M95.8927 90.1891C95.5928 89.1893 93.0632 82.6904 93.5131 78.7711C93.8515 75.935 93.9618 73.0763 93.8431 70.2225C93.7662 69.3043 93.5364 68.4055 93.1632 67.563C92.8031 66.7566 92.3246 66.0084 91.7435 65.3434C91.1726 64.6813 90.4971 64.1172 89.7438 63.6737C89.1549 63.2627 88.4693 63.0117 87.7543 62.9451C87.0393 62.8785 86.3192 62.9986 85.6645 63.2937L79.6655 66.7631C80.3178 66.465 81.0369 66.3431 81.7509 66.4098C82.465 66.4765 83.1491 66.7293 83.7348 67.1431C84.4899 67.5842 85.1657 68.1486 85.7345 68.8128C86.3178 69.4762 86.7966 70.2247 87.1543 71.0324C87.5275 71.8749 87.7573 72.7737 87.8341 73.6919C87.9581 76.5423 87.8477 79.3981 87.5042 82.2305C87.0543 86.1498 89.5838 92.6987 89.8938 93.6585C90.1337 94.4384 89.9738 95.0283 89.5938 95.2482L95.5928 91.7788C95.9827 91.6089 96.1427 90.969 95.8927 90.1891Z" fill="url(#paint7_linear)"/>
<path d="M83.7637 67.1431C84.9166 67.8333 85.8899 68.7864 86.6041 69.9245C87.3183 71.0627 87.7531 72.3537 87.873 73.692C87.997 76.5424 87.8866 79.3982 87.5431 82.2305C87.0931 86.1498 89.6227 92.6987 89.9327 93.6585C90.3326 94.9483 89.6327 95.7282 88.6329 95.1483L81.6341 91.089C80.4425 90.3246 79.5769 89.1454 79.2045 87.7796C78.0947 83.5103 79.9944 79.0611 78.7146 73.3121C78.3347 71.6224 77.8348 70.3626 78.2447 68.8628C78.9946 66.0833 81.4941 65.8334 83.7637 67.1431Z" fill="#B2B9BB"/>
<path d="M89.2034 55.6148V65.2531C89.2628 65.8394 89.1666 66.431 88.9243 66.9681C88.6821 67.5053 88.3024 67.9691 87.8236 68.3126L93.8226 64.8432C94.3029 64.5011 94.6837 64.0376 94.9262 63.5C95.1686 62.9625 95.2639 62.3702 95.2023 61.7837V52.1454L89.2034 55.6148Z" fill="#C7CECF"/>
<path d="M94.6821 50.0159C94.3981 49.3854 94.0243 48.7994 93.5723 48.2762C93.2174 47.8587 92.795 47.5038 92.3225 47.2263L87.7733 44.6168C87.4873 44.4099 87.1516 44.2825 86.8004 44.2474C86.4492 44.2122 86.0949 44.2707 85.7736 44.4168L79.7747 47.8862C80.096 47.7401 80.4502 47.6816 80.8014 47.7168C81.1526 47.7519 81.4883 47.8793 81.7743 48.0862L86.3235 50.7057C86.794 50.99 87.2159 51.3478 87.5733 51.7656C88.0309 52.2847 88.4053 52.8715 88.6831 53.5053C88.9901 54.1813 89.1568 54.9126 89.173 55.6549L95.172 52.1855C95.1585 51.4364 94.9917 50.6981 94.6821 50.0159Z" fill="url(#paint8_linear)"/>
<path d="M86.3535 50.6858C87.1853 51.2273 87.8772 51.958 88.3725 52.8182C88.8677 53.6784 89.1523 54.6436 89.203 55.6349V65.2732C89.203 68.2727 87.0634 69.5125 84.4339 67.9928L83.674 67.5628C82.2932 66.6623 81.1445 65.4487 80.321 64.0206C79.4975 62.5926 79.0226 60.9904 78.9348 59.3443V49.7059C78.9348 47.8862 80.2246 47.1464 81.8043 48.0662L86.3535 50.6858Z" fill="#B2B9BB"/>
<path d="M60.6979 69.2025C53.6491 48.4561 60.5879 57.7545 59.918 50.4458C59.8145 49.4083 59.5409 48.3949 59.1081 47.4463C58.6272 46.3578 57.987 45.3469 57.2085 44.4468C56.7318 43.901 56.1913 43.4143 55.5988 42.9971L55.0889 42.6671C54.5944 42.3083 54.0132 42.0877 53.4052 42.028C52.7972 41.9682 52.1843 42.0715 51.6295 42.3272L45.6305 45.7966C46.1853 45.5409 46.7983 45.4376 47.4063 45.4974C48.0143 45.5571 48.5954 45.7777 49.0899 46.1365C49.2599 46.2365 49.4298 46.3365 49.5998 46.4565C50.1926 46.8772 50.733 47.3673 51.2095 47.9162C51.9953 48.8128 52.6393 49.8243 53.1192 50.9157C53.5442 51.8664 53.8142 52.8791 53.919 53.9152C54.5889 61.2239 47.6501 51.9155 54.6989 72.6719C55.0488 73.6718 54.8589 74.5316 54.349 74.8216L60.348 71.3522C60.8579 71.0622 61.0478 70.2424 60.6979 69.2025Z" fill="url(#paint9_linear)"/>
<path d="M54.7293 72.6719C47.6806 51.9254 54.6193 61.2238 53.9494 53.9151C53.7582 52.4536 53.2778 51.045 52.5362 49.7712C51.7946 48.4975 50.8067 47.3842 49.6302 46.4964C49.4602 46.3764 49.2903 46.2764 49.1203 46.1764C46.8507 44.8667 44.951 45.5565 44.4011 47.6562C43.2413 52.8653 43.3213 62.0637 43.2113 66.5829C43.2338 67.2933 43.4274 67.9877 43.7755 68.6074C44.1236 69.227 44.616 69.7535 45.211 70.1423L53.0896 74.6915C54.4294 75.4614 55.3092 74.3716 54.7293 72.6719Z" fill="#B2B9BB"/>
<path d="M58.8919 41.3172L56.1424 48.8759C55.9513 49.4732 55.5545 49.9834 55.0226 50.3156L61.0215 46.8462C61.5534 46.514 61.9502 46.0038 62.1414 45.4065L64.8809 37.8478L58.8919 41.3172Z" fill="#C7CECF"/>
<path d="M64.5103 34.7284C64.2386 34.0967 63.8672 33.5127 63.4105 32.9987C63.3084 32.8749 63.1982 32.7579 63.0805 32.6488L58.7813 28.4695C58.5029 28.1984 58.1942 27.9602 57.8614 27.7596C57.5733 27.5574 57.238 27.4328 56.8878 27.3977C56.5376 27.3627 56.1842 27.4185 55.8618 27.5596L49.8628 31.029C50.1841 30.8829 50.5383 30.8245 50.8896 30.8596C51.2408 30.8947 51.5764 31.0221 51.8624 31.229C52.1975 31.4262 52.5066 31.6647 52.7823 31.9389L57.0815 36.1082C57.2015 36.2281 57.3115 36.3381 57.4215 36.4681C57.8695 36.983 58.237 37.5628 58.5113 38.1878C59.002 39.1545 59.1263 40.2661 58.8612 41.3173L64.8602 37.8479C65.1311 36.8004 65.0066 35.6898 64.5103 34.7284Z" fill="url(#paint10_linear)"/>
<path d="M51.8922 31.2291C52.2273 31.4263 52.5363 31.6649 52.8121 31.939L57.1113 36.1083C58.6111 37.558 59.4009 39.8976 58.891 41.3174L56.1415 48.8761C55.4616 50.7658 53.6119 51.1257 51.6323 49.9859C51.0725 49.6534 50.5554 49.2539 50.0925 48.7961L49.3827 48.1062C46.8931 45.6866 45.5733 41.8173 46.3832 39.4477L49.1227 31.889C49.5926 30.7592 50.7024 30.5392 51.8922 31.2291Z" fill="#B2B9BB"/>
<path d="M90.4727 60.1542C90.274 58.1756 89.7504 56.2434 88.923 54.4352C88.0165 52.3745 86.8029 50.4631 85.3236 48.7661C84.4765 47.7844 83.5206 46.9022 82.4741 46.1366C82.0881 45.8589 81.6876 45.6019 81.2743 45.3667C80.0966 44.6337 78.7585 44.198 77.375 44.097C75.1247 43.9549 72.9426 43.2687 71.0161 42.0973L62.7875 37.3481C60.4077 35.8915 58.2663 34.0773 56.4386 31.969C55.3128 30.6955 53.9976 29.6028 52.5393 28.7296C52.1517 28.5058 51.751 28.3055 51.3395 28.1297C50.505 27.6984 49.5793 27.4733 48.6399 27.4733C47.7006 27.4733 46.7749 27.6984 45.9404 28.1297L33.5925 35.2785C34.4288 34.8471 35.3561 34.622 36.297 34.622C37.238 34.622 38.1654 34.8471 39.0016 35.2785C39.409 35.4563 39.8062 35.6566 40.1914 35.8784C41.6534 36.7464 42.9694 37.8397 44.0907 39.1178C45.9218 41.2265 48.0665 43.0407 50.4496 44.4969L58.6682 49.2461C60.5988 50.4165 62.7839 51.1025 65.0371 51.2457C66.4206 51.3467 67.7588 51.7825 68.9364 52.5155C69.3264 52.7454 69.7263 52.9954 70.1262 53.2854C71.1727 54.051 72.1287 54.9332 72.9757 55.9149C74.4608 57.6206 75.6779 59.5423 76.5851 61.6139C77.4034 63.4254 77.9265 65.3562 78.1348 67.3329C78.4448 70.9223 77.375 73.4319 75.4753 74.5317L87.7832 67.3829C89.7129 66.2531 90.7927 63.7436 90.4727 60.1542Z" fill="url(#paint11_linear)"/>
<path d="M62.7889 37.3779L50.491 44.5367L58.7095 49.2859L71.0174 42.1371L62.7889 37.3779Z" fill="#2E3030"/>
<path d="M90.4725 60.1543C90.2738 58.1757 89.7502 56.2435 88.9228 54.4353C88.0163 52.3746 86.8027 50.4632 85.3234 48.7662L73.0155 55.915C74.4864 57.6234 75.6899 59.5449 76.5849 61.614C77.4032 63.4255 77.9263 65.3563 78.1346 67.333C78.4446 70.9224 77.3748 73.432 75.4751 74.5318L87.783 67.383C89.7126 66.2532 90.7925 63.7437 90.4725 60.1543Z" fill="#C7CECF"/>
<path d="M78.1759 67.3028C77.8306 64.5577 76.9462 61.9079 75.5736 59.5057C74.2009 57.1035 72.367 54.9963 70.1772 53.3052C69.7773 53.0153 69.3774 52.7653 68.9874 52.5354C67.8098 51.8024 66.4716 51.3666 65.0881 51.2656C62.835 51.1224 60.6499 50.4364 58.7192 49.2659L50.5006 44.5167C48.1176 43.0606 45.9728 41.2463 44.1417 39.1377C43.0204 37.8595 41.7044 36.7663 40.2424 35.8982C39.8572 35.6765 39.46 35.4762 39.0526 35.2983C34.8433 33.4786 31.4739 35.4583 30.994 40.0375C30.3641 46.1165 34.7134 54.0851 40.1924 57.2446C41.3554 57.9604 42.6708 58.392 44.0318 58.5044C46.3783 58.6763 48.6519 59.3953 50.6706 60.604L58.4593 65.1032C60.9389 66.608 63.1743 68.4826 65.0881 70.6622C66.1934 71.9099 67.4852 72.9791 68.9175 73.8317C74.3865 77.0111 78.7758 74.0917 78.1759 67.3028Z" fill="#B2B9BB"/>
<path d="M50.491 44.5369L50.661 60.6241L58.4496 65.1233L58.7095 49.286L50.491 44.5369Z" fill="#212121"/>
<path d="M74.8877 102.327C74.5778 101.327 72.0482 94.8185 72.4981 90.8992C72.8414 88.0668 72.9518 85.211 72.8281 82.3606C72.7559 81.4384 72.526 80.5354 72.1482 79.6911C71.7918 78.8826 71.3129 78.134 70.7284 77.4714C70.1594 76.8103 69.4835 76.2493 68.7288 75.8118C68.1439 75.3961 67.4596 75.1421 66.7452 75.0754C66.0307 75.0087 65.3113 75.1316 64.6595 75.4318L58.6605 78.9012C59.3137 78.6017 60.0338 78.4783 60.7494 78.5432C61.465 78.6081 62.1512 78.8591 62.7398 79.2712C63.4912 79.7175 64.1663 80.2811 64.7395 80.9408C65.3274 81.6008 65.8066 82.35 66.1592 83.1605C66.537 84.0048 66.767 84.9078 66.8391 85.83C66.9626 88.6804 66.8523 91.5362 66.5092 94.3686C66.0593 98.2879 68.5888 104.827 68.8987 105.797C69.1387 106.566 68.9887 107.156 68.5988 107.386L74.5978 103.917C74.9677 103.697 75.1277 103.097 74.8877 102.327Z" fill="url(#paint12_linear)"/>
<path d="M62.7598 79.2713C63.9116 79.9642 64.8833 80.9195 65.5957 82.0593C66.3081 83.1991 66.741 84.4912 66.8591 85.8302C66.9826 88.6806 66.8723 91.5363 66.5292 94.3687C66.0792 98.288 68.6088 104.827 68.9187 105.797C69.3187 107.077 68.6288 107.866 67.629 107.286L60.6302 103.217C59.4329 102.457 58.5628 101.276 58.1906 99.9077C57.0808 95.6485 58.9804 91.1892 57.7007 85.4402C57.3207 83.7605 56.8208 82.5007 57.2308 80.991C57.9806 78.2115 60.4902 77.9615 62.7598 79.2713Z" fill="#B2B9BB"/>
<path d="M68.1888 67.7629V77.4112C68.2464 77.9969 68.1482 78.5874 67.9042 79.1229C67.6601 79.6584 67.2789 80.1199 66.7991 80.4607L72.798 76.9913C73.2778 76.6505 73.6591 76.189 73.9031 75.6535C74.1472 75.118 74.2454 74.5275 74.1878 73.9418V64.2935L68.1888 67.7629Z" fill="#C7CECF"/>
<path d="M73.6677 62.1439C73.3874 61.5114 73.0133 60.9249 72.5579 60.4042C72.2003 59.9894 71.7783 59.6349 71.3081 59.3543L66.7589 56.7248C66.4729 56.5179 66.1372 56.3905 65.786 56.3554C65.4348 56.3203 65.0805 56.3787 64.7592 56.5248L58.7603 59.9943C59.0816 59.8481 59.4358 59.7897 59.787 59.8248C60.1382 59.8599 60.4739 59.9873 60.7599 60.1942L65.3091 62.8238C65.7794 63.1043 66.2014 63.4588 66.5589 63.8736C67.0143 64.3943 67.3885 64.9808 67.6687 65.6133C67.9803 66.2877 68.1472 67.02 68.1586 67.7629L74.1576 64.2935C74.1462 63.5506 73.9793 62.8183 73.6677 62.1439Z" fill="url(#paint13_linear)"/>
<path d="M65.339 62.8238C66.1712 63.3626 66.8635 64.0913 67.3589 64.95C67.8543 65.8087 68.1386 66.7729 68.1885 67.763V77.4113C68.1885 80.4108 66.0389 81.6506 63.4093 80.1308L62.6595 79.6909C61.2741 78.7944 60.1212 77.582 59.2956 76.1533C58.47 74.7246 57.9952 73.1203 57.9103 71.4723V61.834C57.9103 60.0143 59.2001 59.2844 60.7798 60.1943L65.339 62.8238Z" fill="#B2B9BB"/>
<path d="M39.6814 81.3304C32.6826 60.594 39.5714 69.8924 38.9016 62.5837C38.802 61.5466 38.5317 60.5331 38.1017 59.5842C37.6202 58.4937 36.9763 57.4824 36.192 56.5847C35.7181 56.0332 35.1774 55.5428 34.5823 55.125C34.4192 55.0077 34.249 54.9008 34.0724 54.805C33.5808 54.4442 33.0011 54.2222 32.3943 54.1624C31.7874 54.1026 31.1756 54.2071 30.623 54.4651L24.624 57.9345C25.1776 57.6735 25.7915 57.5673 26.4006 57.6272C27.0097 57.687 27.5912 57.9107 28.0834 58.2744C28.2553 58.3726 28.4222 58.4794 28.5833 58.5944C29.1805 59.0096 29.7216 59.5003 30.1931 60.0541C30.9774 60.9518 31.6212 61.9631 32.1027 63.0536C32.5312 64.0037 32.8046 65.0164 32.9126 66.0531C33.5725 73.3618 26.6337 64.0534 33.6825 84.7998C34.0324 85.8497 33.8424 86.6595 33.3325 86.9595L39.3315 83.4901C39.8414 83.1901 40.0314 82.3802 39.6814 81.3304Z" fill="url(#paint14_linear)"/>
<path d="M33.7137 84.8C26.6649 64.0536 33.6037 73.362 32.9438 66.0533C32.7542 64.5852 32.2714 63.1702 31.5243 61.8924C30.7771 60.6145 29.7809 59.4999 28.5946 58.6145C28.4334 58.4996 28.2665 58.3928 28.0946 58.2946C25.825 56.9748 23.9154 57.6647 23.3655 59.7643C22.2157 64.9834 22.2856 74.1819 22.1757 78.7011C22.2007 79.4109 22.3952 80.1044 22.7431 80.7237C23.091 81.3429 23.5821 81.8699 24.1753 82.2605L32.0539 86.8097C33.4137 87.6096 34.2936 86.4997 33.7137 84.8Z" fill="#B2B9BB"/>
<path d="M37.8743 53.4552L35.1348 61.0139C34.9368 61.6079 34.5371 62.1137 34.005 62.4437L40.004 58.9743C40.5384 58.6469 40.9388 58.1401 41.1338 57.5445L43.8733 49.9858L37.8743 53.4552Z" fill="#C7CECF"/>
<path d="M43.4927 46.8563C43.216 46.2295 42.8488 45.6467 42.4029 45.1266C42.2929 45.0066 42.1829 44.8867 42.0629 44.7767L37.7637 40.5974C37.4847 40.327 37.1761 40.0889 36.8438 39.8875C36.5569 39.6823 36.2208 39.5566 35.8696 39.5232C35.5184 39.4899 35.1646 39.55 34.8442 39.6975L28.8452 43.157C29.1665 43.0108 29.5208 42.9524 29.872 42.9875C30.2232 43.0226 30.5589 43.1501 30.8449 43.3569C31.1789 43.5557 31.4877 43.7941 31.7647 44.0668L36.064 48.2461C36.1839 48.3561 36.2939 48.476 36.4039 48.596C36.8496 49.1183 37.2198 49.7005 37.5037 50.3257C37.9919 51.2934 38.1127 52.4052 37.8437 53.4552L43.8426 49.9858C44.1133 48.935 43.9887 47.8214 43.4927 46.8563Z" fill="url(#paint15_linear)"/>
<path d="M30.8747 43.3569C31.2087 43.5557 31.5175 43.7941 31.7945 44.0668L36.0938 48.246C37.5935 49.6958 38.3834 52.0254 37.8734 53.4551L35.1339 61.0138C34.444 62.8935 32.5944 63.2534 30.6147 62.1136C30.055 61.785 29.5379 61.3887 29.075 60.9338L28.3651 60.234C25.8755 57.8244 24.5557 53.945 25.3656 51.5754L28.1051 44.0268C28.595 42.887 29.6849 42.667 30.8747 43.3569Z" fill="#B2B9BB"/>
<path d="M84.7449 34.3686L82.9452 35.4184C83.339 35.1922 83.7923 35.0911 84.245 35.1285L86.0347 34.0786C85.586 34.0521 85.139 34.1526 84.7449 34.3686Z" fill="url(#paint16_linear)"/>
<path d="M91.3336 38.8578C90.9156 37.909 90.356 37.0292 89.6739 36.2483L89.5539 36.1083L87.7543 37.1581L87.8742 37.2881C88.5541 38.0706 89.1135 38.9501 89.534 39.8976C90.0019 40.9076 90.2539 42.0041 90.2738 43.1171C90.3273 43.645 90.2398 44.1776 90.0202 44.6606C89.8007 45.1437 89.4569 45.5598 89.024 45.8666L90.8237 44.8668C91.2566 44.56 91.6004 44.1438 91.8199 43.6608C92.0395 43.1778 92.127 42.6451 92.0735 42.1172C92.0562 40.9911 91.8042 39.881 91.3336 38.8578Z" fill="url(#paint17_linear)"/>
<path d="M87.7642 27.7699L87.7543 37.1583L89.5539 36.1085V26.7201L87.7642 27.7699Z" fill="#C7CECF"/>
<path d="M89.2531 25.4002C89.0767 25.0141 88.8479 24.6541 88.5732 24.3304C88.353 24.0767 88.093 23.8606 87.8033 23.6906C87.6237 23.5736 87.4167 23.5056 87.2027 23.4934C86.9888 23.4811 86.7753 23.5249 86.5835 23.6206L84.7938 24.6204C84.9948 24.5287 85.2167 24.4924 85.4364 24.5153C85.6561 24.5382 85.8658 24.6193 86.0436 24.7504C86.3307 24.9199 86.5875 25.1362 86.8035 25.3902C87.0826 25.7107 87.3118 26.0713 87.4834 26.4601C87.6763 26.8736 87.7786 27.3236 87.7833 27.7798L89.583 26.78C89.571 26.302 89.4586 25.8319 89.2531 25.4002Z" fill="url(#paint18_linear)"/>
<path d="M87.7539 37.1581V27.7697C87.7196 27.1683 87.5442 26.5834 87.242 26.0623C86.9397 25.5413 86.5192 25.0986 86.0142 24.7702C85.0144 24.2003 84.2545 24.6602 84.2445 25.77V35.1584C82.7748 35.0684 81.7349 36.1582 81.6949 38.0979C81.7682 39.572 82.1807 41.0092 82.9004 42.2977C83.6201 43.5862 84.6276 44.6912 85.8443 45.5266L85.9642 45.5966C88.3438 46.9664 90.2635 45.8665 90.2735 43.147C90.1715 40.9148 89.2783 38.7918 87.7539 37.1581Z" fill="#B2B9BB"/>
<path d="M102.492 51.086C102.416 50.9111 102.319 50.7465 102.202 50.596L102.132 50.526L84.025 31.5293C83.8093 31.3235 83.5712 31.1423 83.3152 30.9894C83.0387 30.8049 82.7161 30.7014 82.3839 30.6908C82.0517 30.6802 81.7231 30.7629 81.4355 30.9294L70.2074 37.4583C70.4951 37.2918 70.8236 37.2091 71.1558 37.2197C71.488 37.2303 71.8106 37.3338 72.0871 37.5183C72.3451 37.6682 72.5836 37.8496 72.7969 38.0582L90.9038 57.0549L90.9638 57.1249C91.0863 57.2733 91.1873 57.4382 91.2638 57.6148C92.1736 59.6145 91.6637 64.7336 90.214 65.6134L101.442 59.0946C102.902 58.2047 103.402 53.1356 102.492 51.086Z" fill="url(#paint19_linear)"/>
<path d="M90.9036 57.055L72.7967 38.0583C72.5834 37.8497 72.3449 37.6683 72.0869 37.5184C67.2977 34.7588 65.508 51.8259 69.4073 54.0655L89.2639 65.5335C91.5835 66.9033 92.5034 58.7247 90.9036 57.055Z" fill="#B2B9BB"/>
<path d="M71.8078 41.8376L70.0181 42.8375C70.4114 42.6201 70.8598 42.5228 71.3079 42.5575L73.1075 41.5077C72.6507 41.4824 72.1972 41.5975 71.8078 41.8376Z" fill="#C7CECF"/>
<path d="M78.3965 46.3267C77.9799 45.3741 77.4202 44.4907 76.7368 43.7072L76.5869 43.6172L74.8271 44.617L74.9371 44.747C75.6235 45.5266 76.1865 46.4067 76.6068 47.3565C77.071 48.3678 77.3228 49.4635 77.3467 50.576C77.4002 51.1039 77.3127 51.6365 77.0931 52.1195C76.8736 52.6026 76.5298 53.0187 76.0969 53.3255L77.8866 52.3257C78.3211 52.018 78.6659 51.6002 78.8855 51.1153C79.1051 50.6303 79.1917 50.0957 79.1364 49.5662C79.1214 48.4462 78.8692 47.3421 78.3965 46.3267Z" fill="url(#paint20_linear)"/>
<path d="M74.8271 35.2388V44.6172L76.6168 43.5773L76.6269 34.189L74.8271 35.2388Z" fill="#C7CECF"/>
<path d="M76.3166 32.8692C76.1483 32.4787 75.9188 32.1176 75.6367 31.7994C75.4178 31.5483 75.1616 31.3324 74.8769 31.1595C74.6986 31.0291 74.4884 30.9491 74.2684 30.928C74.0485 30.9069 73.827 30.9454 73.6271 31.0395L71.8274 32.0393C72.028 31.9483 72.249 31.9115 72.4683 31.9325C72.6876 31.9536 72.8975 32.0318 73.0772 32.1593C73.3663 32.3301 73.6235 32.5501 73.8371 32.8092C74.1191 33.1274 74.3486 33.4885 74.5169 33.879C74.7139 34.2915 74.8196 34.7417 74.8269 35.1988L76.6266 34.149C76.6117 33.7057 76.5062 33.2702 76.3166 32.8692Z" fill="url(#paint21_linear)"/>
<path d="M74.8268 44.6172V35.2288C74.789 34.6271 74.6111 34.0425 74.3073 33.5218C74.0035 33.001 73.5822 32.5584 73.0771 32.2293C72.0772 31.6694 71.3174 32.1293 71.3174 33.2291V42.6175C69.8477 42.5276 68.8078 43.6174 68.7678 45.557C68.8418 47.0295 69.2547 48.4651 69.9744 49.7519C70.6941 51.0386 71.7012 52.1419 72.9171 52.9757L73.0471 53.0557C75.4167 54.4255 77.3463 53.3257 77.3563 50.6062C77.2473 48.3737 76.3511 46.2519 74.8268 44.6172Z" fill="#B9C0C2"/>
<g style="mix-blend-mode:multiply" opacity="0.5">
<path d="M76.3867 48.6164C75.8172 47.0091 74.7708 45.6139 73.3873 44.6171C72.8442 44.2196 72.2065 43.9714 71.5376 43.8972C69.7279 43.7572 68.968 45.6769 69.8379 48.1665C70.4091 49.7728 71.4552 51.1676 72.8374 52.1658C73.3804 52.5633 74.0182 52.8115 74.687 52.8856C76.4967 52.9756 77.2566 51.056 76.3867 48.6164ZM74.5871 52.4157C73.9799 52.3433 73.4015 52.1161 72.9074 51.7559C71.6518 50.8476 70.7031 49.578 70.1878 48.1165C69.398 45.8669 70.0978 44.1172 71.7276 44.2472C72.334 44.3158 72.9126 44.5396 73.4073 44.897C74.6631 45.8094 75.6116 47.0822 76.1268 48.5464C76.8567 50.796 76.1668 52.5357 74.5871 52.4157Z" fill="#B2B9BB"/>
</g>
<g style="mix-blend-mode:multiply" opacity="0.5">
<path d="M66.3285 75.0617C65.7556 73.4563 64.7099 72.062 63.329 71.0624C62.7825 70.6695 62.1469 70.4187 61.4794 70.3325C59.6597 70.2025 58.8998 72.1222 59.7697 74.6118C60.3409 76.2181 61.387 77.6129 62.7691 78.6111C63.3122 79.0086 63.9499 79.2568 64.6188 79.331C66.4285 79.4709 67.1984 77.5513 66.3285 75.0617ZM64.4689 78.9011C63.8643 78.8372 63.2878 78.6128 62.7991 78.2512C61.5381 77.3462 60.5853 76.0758 60.0696 74.6118C59.2898 72.3522 59.9796 70.6125 61.6193 70.7425C62.2227 70.8114 62.7979 71.0353 63.2891 71.3923C64.5449 72.3047 65.4934 73.5775 66.0086 75.0417C66.7985 77.2913 66.1086 79.021 64.4689 78.9011Z" fill="#B2B9BB"/>
</g>
<g style="mix-blend-mode:multiply" opacity="0.5">
<path d="M65.2584 84.6101C64.6917 83.0013 63.6447 81.6053 62.2589 80.6107C61.7136 80.2156 61.0774 79.9646 60.4092 79.8809C58.5995 79.7509 57.8296 81.6706 58.6995 84.1601C59.2752 85.7641 60.3204 87.1576 61.699 88.1594C62.242 88.557 62.8798 88.8052 63.5487 88.8793C65.3683 89.0593 66.1282 87.1396 65.2584 84.6101ZM63.3987 88.4494C62.7941 88.3855 62.2177 88.1611 61.729 87.7995C60.4735 86.8912 59.5247 85.6216 59.0095 84.1601C58.2196 81.9005 58.9195 80.1608 60.5492 80.2908C61.1525 80.3598 61.7277 80.5836 62.2189 80.9407C63.4807 81.8492 64.4334 83.123 64.9484 84.5901C65.7283 86.8797 65.0384 88.6094 63.3987 88.4894V88.4494Z" fill="#B2B9BB"/>
</g>
<g style="mix-blend-mode:multiply" opacity="0.5">
<path d="M31.2344 64.1838C30.6615 62.5783 29.6158 61.184 28.2349 60.1845C27.6884 59.7916 27.0528 59.5408 26.3852 59.4546C24.5656 59.3246 23.8057 61.2443 24.6756 63.7339C25.2468 65.3402 26.2929 66.735 27.675 67.7332C28.2181 68.1307 28.8558 68.3789 29.5247 68.453C31.3344 68.613 32.1043 66.6734 31.2344 64.1838ZM29.3747 68.0231C28.7702 67.9592 28.1937 67.7349 27.705 67.3732C26.444 66.4683 25.4912 65.1979 24.9755 63.7339C24.1956 61.4742 24.8855 59.7345 26.5252 59.8645C27.1285 59.9335 27.7038 60.1574 28.1949 60.5144C29.4508 61.4267 30.3993 62.6995 30.9145 64.1638C31.7043 66.4134 31.0145 68.1431 29.3747 68.0231Z" fill="#B2B9BB"/>
</g>
<g style="mix-blend-mode:multiply" opacity="0.5">
<path d="M33.6742 56.8249C33.1002 55.2201 32.0547 53.8261 30.6747 52.8256C30.1317 52.4281 29.4939 52.1799 28.8251 52.1057C27.0154 51.9758 26.2555 53.8854 27.1254 56.385C27.6977 57.9908 28.7436 59.3852 30.1248 60.3843C30.6679 60.7818 31.3056 61.0301 31.9745 61.1042C33.7742 61.2342 34.5941 59.3145 33.6742 56.8249ZM31.8146 60.6743C31.2123 60.601 30.6381 60.3775 30.1448 60.0244C28.8853 59.1135 27.9332 57.8406 27.4153 56.375C26.6355 54.1254 27.3253 52.3757 28.965 52.5057C29.5684 52.5747 30.1436 52.7985 30.6347 53.1556C31.8883 54.0702 32.8363 55.3422 33.3543 56.8049C34.1442 59.0546 33.4443 60.7943 31.8146 60.6743Z" fill="#B2B9BB"/>
</g>
<path d="M102.493 51.086C102.418 50.9111 102.32 50.7465 102.203 50.5961L102.133 50.5261L89.9754 37.7783L78.7173 44.2772L90.9052 57.055L90.9652 57.125C91.0855 57.2713 91.1863 57.4326 91.2651 57.6049C91.4837 58.1757 91.6184 58.7751 91.665 59.3846L102.893 52.8957C102.857 52.275 102.722 51.6641 102.493 51.086Z" fill="#2E3030"/>
<path d="M80.147 50.6158L91.665 59.3643C91.6558 58.5284 91.3906 57.7154 90.9052 57.0348L78.7173 44.257L80.147 50.6158Z" fill="#212121"/>
<path style="mix-blend-mode:screen" d="M94.1442 36.6181C101.623 38.8378 105.792 45.0467 103.463 50.4857C101.133 55.9248 93.1644 58.5344 85.6857 56.3148C78.207 54.0951 74.0377 47.8862 76.3673 42.4471C78.6969 37.0081 86.6655 34.3885 94.1442 36.6181Z" fill="url(#paint22_radial)"/>
<path d="M137.986 105.976L112.12 91.0585C110.8 90.2986 94.3631 100.127 94.3631 100.127C91.6936 102.856 120.769 117.764 120.769 117.764C122.088 118.524 139.315 106.746 137.986 105.976ZM120.789 116.704L95.243 102.946L112.19 93.1581L137.116 107.536L120.789 116.704Z" fill="#888888"/>
<path d="M94.4734 101.977L119.709 116.544L137.406 106.336L112.17 91.7684L94.4734 101.977Z" fill="#212121"/>
<path d="M140.326 107.816C140.298 108.117 140.19 108.405 140.015 108.65C139.839 108.896 139.601 109.091 139.326 109.215L126.058 116.874C125.315 117.253 124.493 117.451 123.659 117.451C122.824 117.451 122.002 117.253 121.259 116.874L94.8836 101.667C94.6091 101.547 94.3716 101.356 94.1958 101.113C94.02 100.87 93.9122 100.585 93.8838 100.287V102.077C93.9143 102.374 94.0228 102.659 94.1983 102.901C94.3739 103.143 94.6103 103.335 94.8836 103.456L121.259 118.664C122.002 119.043 122.824 119.241 123.659 119.241C124.493 119.241 125.315 119.043 126.058 118.664L139.326 110.995C139.602 110.872 139.84 110.677 140.016 110.431C140.192 110.185 140.299 109.897 140.326 109.595V107.816Z" fill="url(#paint23_linear)"/>
<path d="M139.337 106.436L112.971 91.2187C112.228 90.8395 111.406 90.6418 110.572 90.6418C109.737 90.6418 108.915 90.8395 108.172 91.2187L94.8943 98.8874C93.5746 99.6573 93.5646 100.887 94.8943 101.667L121.27 116.874C122.013 117.253 122.835 117.451 123.669 117.451C124.504 117.451 125.326 117.253 126.069 116.874L139.337 109.216C140.656 108.446 140.666 107.196 139.337 106.436ZM120.13 115.605L95.2143 101.227L112.161 91.4387L137.087 105.816L120.13 115.605Z" fill="#E9ECED"/>
<path d="M132.938 110.815L132.238 110.405C132.025 110.308 131.792 110.261 131.557 110.27C131.323 110.279 131.094 110.342 130.888 110.455L128.369 111.915C128.245 111.978 128.141 112.075 128.069 112.195C128.037 112.251 128.017 112.313 128.01 112.377C128.003 112.441 128.01 112.505 128.029 112.567C128.049 112.628 128.082 112.684 128.125 112.732C128.168 112.78 128.22 112.819 128.279 112.845L128.989 113.255C129.196 113.36 129.426 113.415 129.659 113.415C129.891 113.415 130.121 113.36 130.329 113.255L132.858 111.795C132.978 111.729 133.078 111.632 133.148 111.515C133.192 111.459 133.221 111.392 133.234 111.322C133.247 111.252 133.243 111.18 133.223 111.111C133.202 111.043 133.166 110.981 133.116 110.929C133.067 110.878 133.006 110.839 132.938 110.815Z" fill="#B2B9BB"/>
<path opacity="0.9" d="M132.938 111.075L132.238 110.665C132.025 110.567 131.792 110.521 131.557 110.53C131.323 110.538 131.094 110.602 130.888 110.715L128.369 112.175C128.247 112.241 128.143 112.338 128.069 112.455C128.065 112.492 128.065 112.528 128.069 112.565C128.117 112.684 128.206 112.783 128.319 112.845L129.029 113.255C129.236 113.36 129.466 113.415 129.698 113.415C129.931 113.415 130.161 113.36 130.368 113.255L132.898 111.795C133.017 111.729 133.117 111.632 133.188 111.515C133.192 111.479 133.192 111.442 133.188 111.405C133.171 111.336 133.14 111.271 133.097 111.214C133.054 111.157 133 111.11 132.938 111.075Z" fill="#E9ECED"/>
<path d="M103.842 94.478L100.583 96.3877C100.323 96.5376 100.293 96.7676 100.523 96.8976C100.657 96.9615 100.804 96.9947 100.953 96.9947C101.101 96.9947 101.248 96.9615 101.383 96.8976L104.692 94.9879C104.952 94.8379 104.982 94.608 104.762 94.488C104.621 94.4128 104.463 94.3726 104.303 94.3709C104.143 94.3692 103.985 94.4059 103.842 94.478Z" fill="#424144"/>
<path d="M102.103 106.756C102.069 106.671 102.026 106.591 101.973 106.516C101.915 106.432 101.84 106.36 101.753 106.306L99.5832 105.086C99.5422 105.063 99.4956 105.05 99.4482 105.05C99.4008 105.05 99.3543 105.063 99.3133 105.086L99.0333 105.246C99.0744 105.223 99.1209 105.21 99.1683 105.21C99.2157 105.21 99.2622 105.223 99.3033 105.246L101.433 106.476C101.522 106.523 101.598 106.592 101.653 106.676C101.706 106.751 101.749 106.831 101.783 106.916C101.792 106.989 101.792 107.063 101.783 107.136V107.256C101.787 107.305 101.779 107.354 101.757 107.398C101.736 107.442 101.704 107.479 101.663 107.506L101.943 107.346C101.984 107.319 102.016 107.282 102.037 107.238C102.058 107.194 102.067 107.145 102.063 107.096V106.976C102.085 106.905 102.098 106.831 102.103 106.756Z" fill="#E9ECED"/>
<path d="M101.473 106.476L99.3434 105.246C99.1335 105.116 98.9635 105.246 98.9635 105.466V105.606C98.9696 105.74 99.0072 105.87 99.0732 105.987C99.1392 106.103 99.2318 106.202 99.3434 106.276L101.473 107.506C101.683 107.626 101.863 107.506 101.863 107.276V107.156C101.858 107.019 101.82 106.886 101.752 106.768C101.684 106.649 101.588 106.549 101.473 106.476Z" fill="#B8BFC1"/>
<path d="M97.8333 104.296C97.8077 104.21 97.7671 104.129 97.7133 104.056C97.6557 103.974 97.5805 103.906 97.4934 103.856L95.3637 102.607C95.3227 102.583 95.2761 102.57 95.2287 102.57C95.1814 102.57 95.1348 102.583 95.0938 102.607L94.8138 102.767C94.8549 102.743 94.9014 102.73 94.9488 102.73C94.9962 102.73 95.0427 102.743 95.0838 102.767L97.2134 103.996C97.3026 104.043 97.3783 104.112 97.4334 104.196C97.4863 104.271 97.53 104.351 97.5634 104.436C97.5725 104.509 97.5725 104.583 97.5634 104.656V104.776C97.57 104.824 97.5633 104.873 97.5438 104.917C97.5244 104.961 97.4931 104.999 97.4534 105.026L97.7333 104.866C97.773 104.839 97.8044 104.801 97.8238 104.757C97.8432 104.713 97.85 104.664 97.8433 104.616V104.496C97.8512 104.43 97.8478 104.362 97.8333 104.296Z" fill="#E9ECED"/>
<path d="M97.2142 104.017L95.0845 102.787C94.8746 102.657 94.7046 102.787 94.7046 103.007V103.127C94.7107 103.26 94.7483 103.391 94.8143 103.507C94.8804 103.624 94.9729 103.723 95.0845 103.797L97.2142 105.026C97.4241 105.146 97.5941 105.026 97.5941 104.796V104.676C97.588 104.544 97.5504 104.415 97.4843 104.3C97.4182 104.186 97.3256 104.088 97.2142 104.017Z" fill="#B8BFC1"/>
<path d="M98.1642 98.9271C97.9944 99.0156 97.8057 99.0619 97.6143 99.0619C97.4228 99.0619 97.2342 99.0156 97.0644 98.9271C96.9973 98.9062 96.9386 98.8643 96.8969 98.8077C96.8552 98.751 96.8328 98.6825 96.8328 98.6122C96.8328 98.5419 96.8552 98.4734 96.8969 98.4167C96.9386 98.3601 96.9973 98.3182 97.0644 98.2972C97.2324 98.2088 97.4194 98.1626 97.6093 98.1626C97.7991 98.1626 97.9862 98.2088 98.1542 98.2972C98.2217 98.3171 98.281 98.3581 98.3236 98.414C98.3662 98.47 98.3898 98.5382 98.3909 98.6085C98.392 98.6788 98.3706 98.7477 98.3298 98.805C98.289 98.8624 98.231 98.9051 98.1642 98.9271Z" fill="#212121"/>
<path opacity="0.1" d="M97.2534 98.8274C97.3585 98.8818 97.4751 98.9101 97.5934 98.9101C97.7117 98.9101 97.8282 98.8818 97.9333 98.8274C98.1233 98.7074 98.1233 98.5275 97.9333 98.4275C97.8272 98.3706 97.7087 98.3408 97.5884 98.3408C97.468 98.3408 97.3495 98.3706 97.2434 98.4275C97.0535 98.5475 97.0535 98.7274 97.2534 98.8274Z" fill="#D0D6D6"/>
<path opacity="0.1" d="M97.3932 98.7276C97.4509 98.7551 97.5141 98.7694 97.5781 98.7694C97.6421 98.7694 97.7053 98.7551 97.7631 98.7276C97.8731 98.6576 97.8631 98.5676 97.7631 98.5076C97.7042 98.4777 97.6391 98.4622 97.5731 98.4622C97.5071 98.4622 97.442 98.4777 97.3832 98.5076C97.2832 98.6076 97.2932 98.6676 97.3932 98.7276Z" fill="#D0D6D6"/>
<g style="mix-blend-mode:screen" opacity="0.2">
<path d="M97.5239 98.6076C97.5459 98.6176 97.5698 98.6227 97.5939 98.6227C97.6181 98.6227 97.6419 98.6176 97.6639 98.6076C97.6639 98.6076 97.6639 98.5477 97.6639 98.5277C97.6445 98.5152 97.622 98.5085 97.5989 98.5085C97.5759 98.5085 97.5533 98.5152 97.5339 98.5277L97.5239 98.6076Z" fill="#D0D6D6"/>
</g>
<g style="mix-blend-mode:screen">
<g style="mix-blend-mode:screen">
<g style="mix-blend-mode:screen">
<path d="M128.999 96.2777H103.263V111.135H128.999V96.2777Z" fill="black"/>
</g>
<g style="mix-blend-mode:screen">
<path d="M116.132 110.475C122.604 110.475 127.85 107.445 127.85 103.706C127.85 99.9682 122.604 96.9376 116.132 96.9376C109.66 96.9376 104.414 99.9682 104.414 103.706C104.414 107.445 109.66 110.475 116.132 110.475Z" fill="black"/>
</g>
<g style="mix-blend-mode:screen">
<path d="M124.22 99.0374C128.699 101.617 128.699 105.806 124.22 108.386C119.741 110.965 112.502 110.965 108.033 108.386C103.564 105.806 103.564 101.617 108.033 99.0374C112.502 96.4579 119.751 96.4579 124.22 99.0374Z" fill="black"/>
</g>
<g style="mix-blend-mode:screen">
<path d="M116.131 110.155C122.304 110.155 127.309 107.268 127.309 103.707C127.309 100.145 122.304 97.2577 116.131 97.2577C109.957 97.2577 104.953 100.145 104.953 103.707C104.953 107.268 109.957 110.155 116.131 110.155Z" fill="black"/>
</g>
<g style="mix-blend-mode:screen">
<path d="M116.132 109.995C122.151 109.995 127.03 107.18 127.03 103.706C127.03 100.233 122.151 97.4175 116.132 97.4175C110.113 97.4175 105.234 100.233 105.234 103.706C105.234 107.18 110.113 109.995 116.132 109.995Z" fill="#000101"/>
</g>
<g style="mix-blend-mode:screen">
<path d="M116.131 109.846C122.001 109.846 126.759 107.097 126.759 103.707C126.759 100.316 122.001 97.5677 116.131 97.5677C110.261 97.5677 105.503 100.316 105.503 103.707C105.503 107.097 110.261 109.846 116.131 109.846Z" fill="#000202"/>
</g>
<g style="mix-blend-mode:screen">
<path d="M116.131 109.685C121.846 109.685 126.479 107.009 126.479 103.707C126.479 100.404 121.846 97.7275 116.131 97.7275C110.416 97.7275 105.782 100.404 105.782 103.707C105.782 107.009 110.416 109.685 116.131 109.685Z" fill="#000303"/>
</g>
<g style="mix-blend-mode:screen">
<path d="M116.13 109.526C121.696 109.526 126.208 106.92 126.208 103.707C126.208 100.493 121.696 97.8876 116.13 97.8876C110.564 97.8876 106.052 100.493 106.052 103.707C106.052 106.92 110.564 109.526 116.13 109.526Z" fill="#010504"/>
</g>
<g style="mix-blend-mode:screen">
<path d="M116.132 109.366C121.549 109.366 125.94 106.832 125.94 103.707C125.94 100.581 121.549 98.0477 116.132 98.0477C110.715 98.0477 106.324 100.581 106.324 103.707C106.324 106.832 110.715 109.366 116.132 109.366Z" fill="#010606"/>
</g>
<g style="mix-blend-mode:screen">
<path d="M116.132 109.206C121.394 109.206 125.66 106.744 125.66 103.707C125.66 100.67 121.394 98.2075 116.132 98.2075C110.869 98.2075 106.603 100.67 106.603 103.707C106.603 106.744 110.869 109.206 116.132 109.206Z" fill="#010808"/>
</g>
<g style="mix-blend-mode:screen">
<path d="M122.671 99.9273C126.291 102.017 126.291 105.396 122.671 107.486C120.644 108.516 118.402 109.053 116.127 109.053C113.853 109.053 111.611 108.516 109.583 107.486C105.974 105.396 105.974 102.017 109.583 99.9273C111.612 98.9018 113.854 98.3676 116.127 98.3676C118.401 98.3676 120.642 98.9018 122.671 99.9273Z" fill="#010B0A"/>
</g>
<g style="mix-blend-mode:screen">
<path d="M122.479 100.047C125.989 102.047 125.989 105.346 122.479 107.376C120.513 108.377 118.337 108.899 116.131 108.899C113.924 108.899 111.748 108.377 109.782 107.376C106.272 105.376 106.272 102.067 109.782 100.047C111.748 99.0463 113.924 98.5245 116.131 98.5245C118.337 98.5245 120.513 99.0463 122.479 100.047Z" fill="#010D0D"/>
</g>
<g style="mix-blend-mode:screen">
<path d="M122.29 100.157C125.69 102.157 125.69 105.297 122.29 107.266C120.381 108.233 118.271 108.736 116.131 108.736C113.991 108.736 111.882 108.233 109.972 107.266C106.573 105.267 106.573 102.117 109.972 100.157C111.88 99.1863 113.991 98.6802 116.131 98.6802C118.272 98.6802 120.382 99.1863 122.29 100.157Z" fill="#021010"/>
</g>
<g style="mix-blend-mode:screen">
<path d="M122.09 100.267C125.389 102.167 125.389 105.266 122.09 107.156C120.241 108.092 118.198 108.58 116.126 108.58C114.054 108.58 112.01 108.092 110.162 107.156C106.872 105.246 106.872 102.157 110.162 100.267C112.01 99.3307 114.054 98.8428 116.126 98.8428C118.198 98.8428 120.241 99.3307 122.09 100.267Z" fill="#021413"/>
</g>
<g style="mix-blend-mode:screen">
<path d="M116.133 108.416C120.639 108.416 124.291 106.307 124.291 103.707C124.291 101.106 120.639 98.9974 116.133 98.9974C111.627 98.9974 107.974 101.106 107.974 103.707C107.974 106.307 111.627 108.416 116.133 108.416Z" fill="#031716"/>
</g>
<g style="mix-blend-mode:screen">
<path d="M116.132 108.256C120.489 108.256 124.021 106.219 124.021 103.706C124.021 101.194 120.489 99.1572 116.132 99.1572C111.775 99.1572 108.244 101.194 108.244 103.706C108.244 106.219 111.775 108.256 116.132 108.256Z" fill="#031B1A"/>
</g>
<g style="mix-blend-mode:screen">
<path d="M116.131 108.096C120.333 108.096 123.739 106.131 123.739 103.707C123.739 101.282 120.333 99.3173 116.131 99.3173C111.928 99.3173 108.522 101.282 108.522 103.707C108.522 106.131 111.928 108.096 116.131 108.096Z" fill="#04201E"/>
</g>
<g style="mix-blend-mode:screen">
<path d="M121.32 100.717C124.18 102.367 124.18 105.046 121.32 106.716C119.711 107.529 117.934 107.953 116.131 107.953C114.328 107.953 112.551 107.529 110.942 106.716C108.073 105.056 108.073 102.377 110.942 100.717C112.549 99.8986 114.327 99.472 116.131 99.472C117.935 99.472 119.713 99.8986 121.32 100.717Z" fill="#042423"/>
</g>
<g style="mix-blend-mode:screen">
<path d="M121.12 100.827C123.879 102.417 123.879 104.996 121.12 106.596C119.57 107.381 117.858 107.79 116.121 107.79C114.384 107.79 112.671 107.381 111.121 106.596C108.372 104.996 108.372 102.417 111.121 100.827C112.671 100.042 114.384 99.6324 116.121 99.6324C117.858 99.6324 119.57 100.042 121.12 100.827Z" fill="#052928"/>
</g>
<g style="mix-blend-mode:screen">
<path d="M116.131 107.626C119.881 107.626 122.92 105.871 122.92 103.707C122.92 101.542 119.881 99.7875 116.131 99.7875C112.382 99.7875 109.343 101.542 109.343 103.707C109.343 105.871 112.382 107.626 116.131 107.626Z" fill="#052F2D"/>
</g>
<g style="mix-blend-mode:screen">
<path d="M120.731 101.047C123.281 102.517 123.281 104.896 120.731 106.366C119.305 107.091 117.727 107.468 116.127 107.468C114.527 107.468 112.95 107.091 111.523 106.366C108.983 104.896 108.983 102.517 111.523 101.047C112.95 100.323 114.527 99.9449 116.127 99.9449C117.727 99.9449 119.305 100.323 120.731 101.047Z" fill="#063532"/>
</g>
<g style="mix-blend-mode:screen">
<path d="M120.58 101.167C123.02 102.567 123.02 104.846 120.58 106.256C119.215 106.952 117.704 107.314 116.171 107.314C114.638 107.314 113.128 106.952 111.762 106.256C109.322 104.846 109.322 102.567 111.762 101.167C113.128 100.472 114.638 100.109 116.171 100.109C117.704 100.109 119.215 100.472 120.58 101.167Z" fill="#063B38"/>
</g>
<g style="mix-blend-mode:screen">
<path d="M120.35 101.277C122.68 102.617 122.68 104.796 120.35 106.146C119.042 106.807 117.597 107.151 116.131 107.151C114.665 107.151 113.22 106.807 111.912 106.146C109.582 104.796 109.582 102.617 111.912 101.277C113.219 100.611 114.665 100.265 116.131 100.265C117.598 100.265 119.044 100.611 120.35 101.277Z" fill="#07413E"/>
</g>
<g style="mix-blend-mode:screen">
<path d="M120.151 101.387C122.381 102.667 122.381 104.746 120.151 106.036C118.904 106.667 117.525 106.996 116.127 106.996C114.729 106.996 113.35 106.667 112.103 106.036C109.883 104.746 109.883 102.667 112.103 101.387C113.35 100.756 114.729 100.427 116.127 100.427C117.525 100.427 118.904 100.756 120.151 101.387Z" fill="#084845"/>
</g>
<g style="mix-blend-mode:screen">
<path d="M116.13 106.836C119.123 106.836 121.549 105.435 121.549 103.706C121.549 101.978 119.123 100.577 116.13 100.577C113.137 100.577 110.711 101.978 110.711 103.706C110.711 105.435 113.137 106.836 116.13 106.836Z" fill="#094F4B"/>
</g>
<g style="mix-blend-mode:screen">
<path d="M119.772 101.607C121.771 102.767 121.771 104.606 119.772 105.806C118.645 106.382 117.397 106.682 116.132 106.682C114.867 106.682 113.62 106.382 112.493 105.806C110.493 104.646 110.493 102.807 112.493 101.607C113.62 101.031 114.867 100.731 116.132 100.731C117.397 100.731 118.645 101.031 119.772 101.607Z" fill="#0A5653"/>
</g>
<g style="mix-blend-mode:screen">
<path d="M119.581 101.717C121.481 102.817 121.481 104.597 119.581 105.716C118.516 106.259 117.337 106.542 116.142 106.542C114.946 106.542 113.768 106.259 112.702 105.716C110.793 104.617 110.793 102.837 112.702 101.717C113.769 101.18 114.947 100.9 116.142 100.9C117.336 100.9 118.514 101.18 119.581 101.717Z" fill="#0A5E5A"/>
</g>
<g style="mix-blend-mode:screen">
<path d="M116.131 106.356C118.671 106.356 120.73 105.17 120.73 103.707C120.73 102.243 118.671 101.057 116.131 101.057C113.591 101.057 111.532 102.243 111.532 103.707C111.532 105.17 113.591 106.356 116.131 106.356Z" fill="#0B6662"/>
</g>
<g style="mix-blend-mode:screen">
<path d="M119.181 101.947C120.871 102.947 120.871 104.497 119.181 105.476C118.234 105.955 117.188 106.204 116.127 106.204C115.066 106.204 114.02 105.955 113.072 105.476C111.393 104.477 111.393 102.917 113.072 101.947C114.018 101.464 115.065 101.213 116.127 101.213C117.189 101.213 118.236 101.464 119.181 101.947Z" fill="#0C6F6A"/>
</g>
<g style="mix-blend-mode:screen">
<path d="M116.131 106.046C118.368 106.046 120.181 104.999 120.181 103.707C120.181 102.415 118.368 101.367 116.131 101.367C113.895 101.367 112.082 102.415 112.082 103.707C112.082 104.999 113.895 106.046 116.131 106.046Z" fill="#0D7873"/>
</g>
<g style="mix-blend-mode:screen">
<path d="M116.131 105.886C118.213 105.886 119.9 104.91 119.9 103.706C119.9 102.503 118.213 101.527 116.131 101.527C114.049 101.527 112.361 102.503 112.361 103.706C112.361 104.91 114.049 105.886 116.131 105.886Z" fill="#0E817B"/>
</g>
<g style="mix-blend-mode:screen">
<path d="M118.581 102.277C119.951 103.067 119.951 104.347 118.581 105.136C117.814 105.526 116.966 105.728 116.106 105.728C115.246 105.728 114.398 105.526 113.632 105.136C112.272 104.347 112.272 103.067 113.632 102.277C114.4 101.892 115.247 101.692 116.106 101.692C116.965 101.692 117.813 101.892 118.581 102.277Z" fill="#0F8B85"/>
</g>
<g style="mix-blend-mode:screen">
<path d="M116.131 105.566C117.909 105.566 119.351 104.734 119.351 103.707C119.351 102.68 117.909 101.847 116.131 101.847C114.353 101.847 112.912 102.68 112.912 103.707C112.912 104.734 114.353 105.566 116.131 105.566Z" fill="#10958E"/>
</g>
<g style="mix-blend-mode:screen">
<path d="M116.132 105.406C117.761 105.406 119.081 104.645 119.081 103.707C119.081 102.768 117.761 102.007 116.132 102.007C114.503 102.007 113.182 102.768 113.182 103.707C113.182 104.645 114.503 105.406 116.132 105.406Z" fill="#129F98"/>
</g>
<g style="mix-blend-mode:screen">
<path d="M118.021 102.607C118.248 102.686 118.445 102.834 118.584 103.03C118.723 103.226 118.798 103.461 118.798 103.702C118.798 103.942 118.723 104.177 118.584 104.373C118.445 104.569 118.248 104.717 118.021 104.796C117.435 105.093 116.788 105.247 116.131 105.247C115.475 105.247 114.827 105.093 114.241 104.796C114.014 104.717 113.818 104.569 113.678 104.373C113.539 104.177 113.464 103.942 113.464 103.702C113.464 103.461 113.539 103.226 113.678 103.03C113.818 102.834 114.014 102.686 114.241 102.607C114.827 102.311 115.475 102.156 116.131 102.156C116.788 102.156 117.435 102.311 118.021 102.607Z" fill="#13AAA2"/>
</g>
<g style="mix-blend-mode:screen">
<path d="M116.132 105.096C117.457 105.096 118.532 104.474 118.532 103.707C118.532 102.939 117.457 102.317 116.132 102.317C114.807 102.317 113.732 102.939 113.732 103.707C113.732 104.474 114.807 105.096 116.132 105.096Z" fill="#14B5AD"/>
</g>
<g style="mix-blend-mode:screen">
<path d="M117.632 102.837C117.813 102.899 117.971 103.017 118.082 103.173C118.193 103.329 118.253 103.515 118.253 103.707C118.253 103.898 118.193 104.085 118.082 104.241C117.971 104.397 117.813 104.514 117.632 104.577C117.167 104.811 116.653 104.934 116.132 104.934C115.611 104.934 115.098 104.811 114.633 104.577C114.452 104.514 114.294 104.397 114.183 104.241C114.072 104.085 114.012 103.898 114.012 103.707C114.012 103.515 114.072 103.329 114.183 103.173C114.294 103.017 114.452 102.899 114.633 102.837C115.098 102.602 115.611 102.48 116.132 102.48C116.653 102.48 117.167 102.602 117.632 102.837Z" fill="#14B5AD"/>
</g>
<g style="mix-blend-mode:screen">
<path d="M116.132 104.886C117.258 104.886 118.171 104.358 118.171 103.707C118.171 103.055 117.258 102.527 116.132 102.527C115.005 102.527 114.092 103.055 114.092 103.707C114.092 104.358 115.005 104.886 116.132 104.886Z" fill="#19B8B0"/>
</g>
<g style="mix-blend-mode:screen">
<path d="M116.132 104.837C117.214 104.837 118.091 104.331 118.091 103.707C118.091 103.083 117.214 102.577 116.132 102.577C115.049 102.577 114.172 103.083 114.172 103.707C114.172 104.331 115.049 104.837 116.132 104.837Z" fill="#1FBBB3"/>
</g>
<g style="mix-blend-mode:screen">
<path d="M116.132 104.786C117.164 104.786 118.002 104.303 118.002 103.707C118.002 103.11 117.164 102.627 116.132 102.627C115.099 102.627 114.262 103.11 114.262 103.707C114.262 104.303 115.099 104.786 116.132 104.786Z" fill="#24BEB7"/>
</g>
<g style="mix-blend-mode:screen">
<path d="M117.39 102.977C118.09 103.387 118.09 104.037 117.39 104.437C116.999 104.638 116.566 104.744 116.126 104.744C115.686 104.744 115.252 104.638 114.861 104.437C114.708 104.385 114.575 104.287 114.481 104.156C114.387 104.025 114.336 103.868 114.336 103.707C114.336 103.546 114.387 103.388 114.481 103.257C114.575 103.126 114.708 103.028 114.861 102.977C115.253 102.78 115.687 102.677 116.126 102.677C116.565 102.677 116.998 102.78 117.39 102.977Z" fill="#2AC1BA"/>
</g>
<g style="mix-blend-mode:screen">
<path d="M116.131 104.687C117.07 104.687 117.831 104.248 117.831 103.707C117.831 103.166 117.07 102.727 116.131 102.727C115.192 102.727 114.431 103.166 114.431 103.707C114.431 104.248 115.192 104.687 116.131 104.687Z" fill="#2FC4BD"/>
</g>
<g style="mix-blend-mode:screen">
<path d="M117.271 103.047C117.407 103.095 117.525 103.184 117.609 103.302C117.693 103.42 117.737 103.562 117.737 103.706C117.737 103.851 117.693 103.992 117.609 104.111C117.525 104.229 117.407 104.318 117.271 104.366C116.918 104.549 116.528 104.644 116.131 104.644C115.734 104.644 115.343 104.549 114.991 104.366C114.351 104.006 114.351 103.416 114.991 103.047C115.345 102.869 115.735 102.776 116.131 102.776C116.527 102.776 116.917 102.869 117.271 103.047Z" fill="#34C7C0"/>
</g>
<g style="mix-blend-mode:screen">
<path d="M117.211 103.087C117.811 103.427 117.811 103.986 117.211 104.336C116.876 104.504 116.506 104.592 116.131 104.592C115.756 104.592 115.387 104.504 115.051 104.336C114.451 103.986 114.451 103.427 115.051 103.087C115.385 102.914 115.755 102.824 116.131 102.824C116.507 102.824 116.877 102.914 117.211 103.087Z" fill="#3ACBC3"/>
</g>
<g style="mix-blend-mode:screen">
<path d="M117.152 103.117C117.722 103.447 117.722 103.977 117.152 104.297C116.842 104.452 116.499 104.533 116.152 104.533C115.805 104.533 115.462 104.452 115.152 104.297C114.582 103.977 114.582 103.447 115.152 103.117C115.464 102.966 115.806 102.887 116.152 102.887C116.498 102.887 116.84 102.966 117.152 103.117Z" fill="#3FCEC7"/>
</g>
<g style="mix-blend-mode:screen">
<path d="M117.093 103.157C117.207 103.198 117.305 103.273 117.375 103.373C117.445 103.472 117.482 103.59 117.482 103.712C117.482 103.833 117.445 103.951 117.375 104.051C117.305 104.15 117.207 104.225 117.093 104.266C116.796 104.419 116.467 104.499 116.133 104.499C115.799 104.499 115.47 104.419 115.173 104.266C114.633 103.957 114.633 103.457 115.173 103.157C115.47 103.004 115.799 102.924 116.133 102.924C116.467 102.924 116.796 103.004 117.093 103.157Z" fill="#45D1CA"/>
</g>
<g style="mix-blend-mode:screen">
<path d="M117.031 103.187C117.531 103.477 117.531 103.947 117.031 104.186C116.752 104.327 116.444 104.4 116.132 104.4C115.819 104.4 115.511 104.327 115.232 104.186C114.732 103.907 114.732 103.437 115.232 103.187C115.511 103.046 115.819 102.973 116.132 102.973C116.444 102.973 116.752 103.046 117.031 103.187Z" fill="#4AD4CD"/>
</g>
<g style="mix-blend-mode:screen">
<path d="M116.13 104.397C116.788 104.397 117.32 104.088 117.32 103.707C117.32 103.326 116.788 103.017 116.13 103.017C115.473 103.017 114.941 103.326 114.941 103.707C114.941 104.088 115.473 104.397 116.13 104.397Z" fill="#50D7D0"/>
</g>
<g style="mix-blend-mode:screen">
<path d="M116.131 104.347C116.743 104.347 117.24 104.06 117.24 103.707C117.24 103.353 116.743 103.067 116.131 103.067C115.518 103.067 115.021 103.353 115.021 103.707C115.021 104.06 115.518 104.347 116.131 104.347Z" fill="#55DAD3"/>
</g>
<g style="mix-blend-mode:screen">
<path d="M116.851 103.297C116.937 103.327 117.011 103.383 117.064 103.457C117.116 103.532 117.145 103.62 117.145 103.712C117.145 103.803 117.116 103.891 117.064 103.966C117.011 104.04 116.937 104.096 116.851 104.126C116.628 104.24 116.381 104.299 116.131 104.299C115.881 104.299 115.634 104.24 115.411 104.126C115.325 104.096 115.251 104.04 115.198 103.966C115.146 103.891 115.117 103.803 115.117 103.712C115.117 103.62 115.146 103.532 115.198 103.457C115.251 103.383 115.325 103.327 115.411 103.297C115.634 103.183 115.881 103.124 116.131 103.124C116.381 103.124 116.628 103.183 116.851 103.297Z" fill="#5ADDD7"/>
</g>
<g style="mix-blend-mode:screen">
<path d="M116.131 104.246C116.65 104.246 117.071 104.005 117.071 103.706C117.071 103.408 116.65 103.167 116.131 103.167C115.612 103.167 115.191 103.408 115.191 103.706C115.191 104.005 115.612 104.246 116.131 104.246Z" fill="#60E0DA"/>
</g>
<g style="mix-blend-mode:screen">
<path d="M116.732 103.367C116.806 103.389 116.872 103.434 116.918 103.497C116.964 103.559 116.989 103.634 116.989 103.712C116.989 103.789 116.964 103.865 116.918 103.927C116.872 103.989 116.806 104.034 116.732 104.057C116.546 104.151 116.341 104.2 116.132 104.2C115.924 104.2 115.718 104.151 115.532 104.057C115.192 103.867 115.192 103.557 115.532 103.367C115.717 103.268 115.923 103.216 116.132 103.216C116.341 103.216 116.548 103.268 116.732 103.367Z" fill="#65E3DD"/>
</g>
<g style="mix-blend-mode:screen">
<path d="M116.671 103.397C116.971 103.567 116.971 103.847 116.671 104.026C116.503 104.11 116.319 104.154 116.131 104.154C115.944 104.154 115.759 104.11 115.591 104.026C115.291 103.847 115.291 103.567 115.591 103.397C115.759 103.313 115.944 103.269 116.131 103.269C116.319 103.269 116.503 103.313 116.671 103.397Z" fill="#6BE6E0"/>
</g>
<g style="mix-blend-mode:screen">
<path d="M116.131 104.097C116.507 104.097 116.811 103.922 116.811 103.707C116.811 103.491 116.507 103.317 116.131 103.317C115.756 103.317 115.451 103.491 115.451 103.707C115.451 103.922 115.756 104.097 116.131 104.097Z" fill="#70E9E4"/>
</g>
<g style="mix-blend-mode:screen">
<path d="M116.131 104.046C116.463 104.046 116.731 103.894 116.731 103.707C116.731 103.519 116.463 103.367 116.131 103.367C115.8 103.367 115.531 103.519 115.531 103.707C115.531 103.894 115.8 104.046 116.131 104.046Z" fill="#75ECE7"/>
</g>
<g style="mix-blend-mode:screen">
<path d="M116.13 103.996C116.412 103.996 116.64 103.867 116.64 103.706C116.64 103.546 116.412 103.417 116.13 103.417C115.849 103.417 115.62 103.546 115.62 103.706C115.62 103.867 115.849 103.996 116.13 103.996Z" fill="#7BF0EA"/>
</g>
<g style="mix-blend-mode:screen">
<path d="M116.432 103.537C116.602 103.627 116.602 103.787 116.432 103.886C116.338 103.931 116.236 103.954 116.132 103.954C116.028 103.954 115.926 103.931 115.832 103.886C115.662 103.787 115.662 103.627 115.832 103.537C115.924 103.488 116.027 103.462 116.132 103.462C116.236 103.462 116.339 103.488 116.432 103.537Z" fill="#80F3ED"/>
</g>
<g style="mix-blend-mode:screen">
<path d="M116.131 103.907C116.318 103.907 116.471 103.817 116.471 103.707C116.471 103.596 116.318 103.507 116.131 103.507C115.943 103.507 115.791 103.596 115.791 103.707C115.791 103.817 115.943 103.907 116.131 103.907Z" fill="#86F6F0"/>
</g>
<g style="mix-blend-mode:screen">
<path d="M116.312 103.607C116.412 103.667 116.412 103.757 116.312 103.817C116.255 103.841 116.194 103.854 116.132 103.854C116.07 103.854 116.009 103.841 115.952 103.817C115.852 103.757 115.852 103.667 115.952 103.607C116.007 103.577 116.069 103.561 116.132 103.561C116.195 103.561 116.257 103.577 116.312 103.607Z" fill="#8BF9F4"/>
</g>
<g style="mix-blend-mode:screen">
<path d="M116.251 103.607C116.321 103.607 116.321 103.707 116.251 103.747C116.214 103.767 116.173 103.777 116.131 103.777C116.089 103.777 116.048 103.767 116.011 103.747C115.941 103.747 115.941 103.647 116.011 103.607C116.048 103.586 116.089 103.576 116.131 103.576C116.173 103.576 116.214 103.586 116.251 103.607Z" fill="#91FCF7"/>
</g>
</g>
</g>
<defs>
<linearGradient id="paint0_linear" x1="145.196" y1="71.9621" x2="110.532" y2="71.9621" gradientUnits="userSpaceOnUse">
<stop stop-color="#E9ECED"/>
<stop offset="1" stop-color="#D6DCDD"/>
</linearGradient>
<linearGradient id="paint1_linear" x1="110.363" y1="79.1811" x2="146.327" y2="79.1811" gradientUnits="userSpaceOnUse">
<stop stop-color="#B2B9BB"/>
<stop offset="1" stop-color="#D6DCDD"/>
</linearGradient>
<linearGradient id="paint2_linear" x1="110.082" y1="39.3379" x2="144.766" y2="39.3379" gradientUnits="userSpaceOnUse">
<stop stop-color="#BFC5C7"/>
<stop offset="0.15" stop-color="#B6BDBF"/>
<stop offset="0.33" stop-color="#B2B9BB"/>
<stop offset="0.74" stop-color="#CBD2D3"/>
<stop offset="1" stop-color="#D6DCDD"/>
</linearGradient>
<radialGradient id="paint3_radial" cx="0" cy="0" r="1" gradientUnits="userSpaceOnUse" gradientTransform="translate(140.686 6.97345) scale(61.5994)">
<stop stop-color="#E9ECED"/>
<stop offset="1"/>
</radialGradient>
<linearGradient id="paint4_linear" x1="121.323" y1="4.42787" x2="135.691" y2="4.42787" gradientUnits="userSpaceOnUse">
<stop stop-color="#E9ECED"/>
<stop offset="1" stop-color="#FBFEFF"/>
</linearGradient>
<linearGradient id="paint5_linear" x1="6431.23" y1="2843.34" x2="6141.73" y2="2843.34" gradientUnits="userSpaceOnUse">
<stop stop-color="#E9ECED"/>
<stop offset="1" stop-color="#D6DCDD"/>
</linearGradient>
<radialGradient id="paint6_radial" cx="0" cy="0" r="1" gradientUnits="userSpaceOnUse" gradientTransform="translate(140.997 42.6374) scale(8.61851)">
<stop stop-color="#42F2FF"/>
<stop offset="0.04" stop-color="#39D1DD"/>
<stop offset="0.1" stop-color="#2DA6AF"/>
<stop offset="0.16" stop-color="#227E85"/>
<stop offset="0.23" stop-color="#195C61"/>
<stop offset="0.31" stop-color="#113F43"/>
<stop offset="0.39" stop-color="#0B282A"/>
<stop offset="0.48" stop-color="#061617"/>
<stop offset="0.59" stop-color="#03090A"/>
<stop offset="0.73" stop-color="#010202"/>
<stop offset="1"/>
</radialGradient>
<linearGradient id="paint7_linear" x1="82.1451" y1="65.3234" x2="96.9725" y2="91.009" gradientUnits="userSpaceOnUse">
<stop offset="0.19" stop-color="#E6E9EA"/>
<stop offset="0.32" stop-color="#DDE1E2"/>
<stop offset="0.52" stop-color="#C7CECF"/>
<stop offset="0.7" stop-color="#CED4D5"/>
<stop offset="0.95" stop-color="#E1E5E6"/>
<stop offset="1" stop-color="#E6E9EA"/>
</linearGradient>
<linearGradient id="paint8_linear" x1="84.9038" y1="44.8767" x2="90.6328" y2="54.805" gradientUnits="userSpaceOnUse">
<stop offset="0.51" stop-color="#E6E9EA"/>
<stop offset="0.78" stop-color="#D7DCDD"/>
<stop offset="1" stop-color="#C7CECF"/>
</linearGradient>
<linearGradient id="paint9_linear" x1="47.3602" y1="44.8367" x2="62.1076" y2="70.3623" gradientUnits="userSpaceOnUse">
<stop offset="0.19" stop-color="#E6E9EA"/>
<stop offset="0.23" stop-color="#E3E6E7"/>
<stop offset="0.26" stop-color="#DADEDF"/>
<stop offset="0.29" stop-color="#C7CECF"/>
<stop offset="1" stop-color="#E6E9EA"/>
</linearGradient>
<linearGradient id="paint10_linear" x1="4272.64" y1="3797.74" x2="4362.35" y2="3966.49" gradientUnits="userSpaceOnUse">
<stop offset="0.51" stop-color="#E6E9EA"/>
<stop offset="0.78" stop-color="#D7DCDD"/>
<stop offset="1" stop-color="#C7CECF"/>
</linearGradient>
<linearGradient id="paint11_linear" x1="16600.2" y1="13968.1" x2="16811.4" y2="14411.1" gradientUnits="userSpaceOnUse">
<stop offset="0.51" stop-color="#E6E9EA"/>
<stop offset="0.78" stop-color="#D7DCDD"/>
<stop offset="1" stop-color="#C7CECF"/>
</linearGradient>
<linearGradient id="paint12_linear" x1="4724.65" y1="10415.3" x2="5273.44" y2="10895.9" gradientUnits="userSpaceOnUse">
<stop offset="0.19" stop-color="#E6E9EA"/>
<stop offset="0.32" stop-color="#DDE1E2"/>
<stop offset="0.52" stop-color="#C7CECF"/>
<stop offset="0.7" stop-color="#CED4D5"/>
<stop offset="0.95" stop-color="#E1E5E6"/>
<stop offset="1" stop-color="#E6E9EA"/>
</linearGradient>
<linearGradient id="paint13_linear" x1="4497.81" y1="3474.73" x2="4552.47" y2="3602.47" gradientUnits="userSpaceOnUse">
<stop offset="0.51" stop-color="#E6E9EA"/>
<stop offset="0.78" stop-color="#D7DCDD"/>
<stop offset="1" stop-color="#C7CECF"/>
</linearGradient>
<linearGradient id="paint14_linear" x1="3900.32" y1="10082.9" x2="4326.34" y2="10425.6" gradientUnits="userSpaceOnUse">
<stop offset="0.19" stop-color="#E6E9EA"/>
<stop offset="0.23" stop-color="#E3E6E7"/>
<stop offset="0.26" stop-color="#DADEDF"/>
<stop offset="0.29" stop-color="#C7CECF"/>
<stop offset="1" stop-color="#E6E9EA"/>
</linearGradient>
<linearGradient id="paint15_linear" x1="3933.53" y1="3982" x2="4023.21" y2="4150.81" gradientUnits="userSpaceOnUse">
<stop offset="0.51" stop-color="#E6E9EA"/>
<stop offset="0.78" stop-color="#D7DCDD"/>
<stop offset="1" stop-color="#C7CECF"/>
</linearGradient>
<linearGradient id="paint16_linear" x1="1037.01" y1="406.279" x2="1037.16" y2="406.878" gradientUnits="userSpaceOnUse">
<stop offset="0.51" stop-color="#E6E9EA"/>
<stop offset="0.78" stop-color="#D7DCDD"/>
<stop offset="1" stop-color="#C7CECF"/>
</linearGradient>
<linearGradient id="paint17_linear" x1="1439.08" y1="2766.2" x2="1483.66" y2="2800.52" gradientUnits="userSpaceOnUse">
<stop offset="0.51" stop-color="#E6E9EA"/>
<stop offset="0.78" stop-color="#D7DCDD"/>
<stop offset="1" stop-color="#C7CECF"/>
</linearGradient>
<linearGradient id="paint18_linear" x1="1572.79" y1="1164.71" x2="1581.36" y2="1181.27" gradientUnits="userSpaceOnUse">
<stop offset="0.51" stop-color="#E6E9EA"/>
<stop offset="0.78" stop-color="#D7DCDD"/>
<stop offset="1" stop-color="#C7CECF"/>
</linearGradient>
<linearGradient id="paint19_linear" x1="10243.2" y1="10038" x2="10680.8" y2="10748.3" gradientUnits="userSpaceOnUse">
<stop offset="0.51" stop-color="#E6E9EA"/>
<stop offset="0.78" stop-color="#D7DCDD"/>
<stop offset="1" stop-color="#C7CECF"/>
</linearGradient>
<linearGradient id="paint20_linear" x1="1367.37" y1="2832.23" x2="1411.78" y2="2866.45" gradientUnits="userSpaceOnUse">
<stop offset="0.51" stop-color="#E6E9EA"/>
<stop offset="0.78" stop-color="#D7DCDD"/>
<stop offset="1" stop-color="#C7CECF"/>
</linearGradient>
<linearGradient id="paint21_linear" x1="1500.83" y1="1200.86" x2="1509.35" y2="1217.41" gradientUnits="userSpaceOnUse">
<stop offset="0.51" stop-color="#E6E9EA"/>
<stop offset="0.78" stop-color="#D7DCDD"/>
<stop offset="1" stop-color="#C7CECF"/>
</linearGradient>
<radialGradient id="paint22_radial" cx="0" cy="0" r="1" gradientUnits="userSpaceOnUse" gradientTransform="translate(92.2258 46.1267) rotate(-31.7989) scale(12.3405 12.2157)">
<stop stop-color="#96FFFA"/>
<stop offset="0.1" stop-color="#14B5AD"/>
<stop offset="0.13" stop-color="#119B94"/>
<stop offset="0.18" stop-color="#0D7772"/>
<stop offset="0.23" stop-color="#0A5753"/>
<stop offset="0.28" stop-color="#073B39"/>
<stop offset="0.35" stop-color="#042524"/>
<stop offset="0.42" stop-color="#021414"/>
<stop offset="0.51" stop-color="#010908"/>
<stop offset="0.64" stop-color="#000202"/>
<stop offset="1"/>
</radialGradient>
<linearGradient id="paint23_linear" x1="120.499" y1="109.765" x2="127.438" y2="109.765" gradientUnits="userSpaceOnUse">
<stop offset="0.43" stop-color="#B2B9BB"/>
<stop offset="0.56" stop-color="#D6DCDD"/>
</linearGradient>
</defs>
</svg>
