<svg width="18" height="19" viewBox="0 0 18 19" fill="none" xmlns="http://www.w3.org/2000/svg">
<path d="M9 1.70898C4.65117 1.70898 1.125 5.23516 1.125 9.58398C1.125 13.9328 4.65117 17.459 9 17.459C13.3488 17.459 16.875 13.9328 16.875 9.58398C16.875 5.23516 13.3488 1.70898 9 1.70898ZM9 16.123C5.38945 16.123 2.46094 13.1945 2.46094 9.58398C2.46094 5.97344 5.38945 3.04492 9 3.04492C12.6105 3.04492 15.5391 5.97344 15.5391 9.58398C15.5391 13.1945 12.6105 16.123 9 16.123Z" fill="#0072B1"/>
<path d="M12.0709 11.8094L9.56425 9.99706V5.64648C9.56425 5.56914 9.50097 5.50586 9.42363 5.50586H8.57812C8.50078 5.50586 8.4375 5.56914 8.4375 5.64648V10.4875C8.4375 10.5332 8.45859 10.5754 8.49551 10.6017L11.4029 12.7217C11.4662 12.7674 11.5541 12.7533 11.5998 12.6918L12.1025 12.0062C12.1482 11.9412 12.1342 11.8533 12.0709 11.8094Z" fill="#0072B1"/>
</svg>
