<svg width="14" height="20" viewBox="0 0 14 20" fill="none" xmlns="http://www.w3.org/2000/svg">
<path d="M8.20313 0.391042C6.59766 0.367565 5.41406 1.34026 4.26563 2.27776C3.24609 3.12155 2.28516 3.90667 1.125 3.90667C0.796836 3.90667 0.539062 4.16444 0.539062 4.49261V19.8047C0.539062 20.1329 0.796836 20.3906 1.125 20.3906H4.05469V18.6328C4.05469 18.3046 4.31246 18.0469 4.64062 18.0469C4.96879 18.0469 5.22656 18.3046 5.22656 18.6328V20.3906H8.74219C8.74219 20.3906 8.74219 4.12933 8.74219 0.965222C8.74223 0.660534 8.50785 0.391042 8.20313 0.391042ZM4.05473 15.0395C4.05473 15.3677 3.79695 15.6254 3.46879 15.6254C3.14063 15.6254 2.88285 15.3677 2.88285 15.0395V13.8676C2.88285 13.5394 3.14063 13.2817 3.46879 13.2817C3.79695 13.2817 4.05473 13.5394 4.05473 13.8676V15.0395ZM4.05473 11.5239C4.05473 11.852 3.79695 12.1098 3.46879 12.1098C3.14063 12.1098 2.88285 11.852 2.88285 11.5239V10.352C2.88285 10.0238 3.14063 9.76605 3.46879 9.76605C3.79695 9.76605 4.05473 10.0238 4.05473 10.352V11.5239ZM4.05473 8.00823C4.05473 8.3364 3.79695 8.59417 3.46879 8.59417C3.14063 8.59417 2.88285 8.3364 2.88285 8.00823V6.83636C2.88285 6.50819 3.14063 6.25042 3.46879 6.25042C3.79695 6.25042 4.05473 6.50819 4.05473 6.83636V8.00823ZM6.39848 15.0395C6.39848 15.3677 6.1407 15.6254 5.81254 15.6254C5.48438 15.6254 5.2266 15.3677 5.2266 15.0395V13.8676C5.2266 13.5394 5.48438 13.2817 5.81254 13.2817C6.1407 13.2817 6.39848 13.5394 6.39848 13.8676V15.0395ZM6.39848 11.5239C6.39848 11.852 6.1407 12.1098 5.81254 12.1098C5.48438 12.1098 5.2266 11.852 5.2266 11.5239V10.352C5.2266 10.0238 5.48438 9.76605 5.81254 9.76605C6.1407 9.76605 6.39848 10.0238 6.39848 10.352V11.5239ZM6.39848 8.00823C6.39848 8.3364 6.1407 8.59417 5.81254 8.59417C5.48438 8.59417 5.2266 8.3364 5.2266 8.00823V6.83636C5.2266 6.50819 5.48438 6.25042 5.81254 6.25042C6.1407 6.25042 6.39848 6.50819 6.39848 6.83636V8.00823ZM10.5 18.0469C10.1719 18.0469 9.9141 18.3046 9.9141 18.6328V20.3906H11.086V18.6328C11.086 18.3046 10.8282 18.0469 10.5 18.0469ZM10.5 9.76605C10.1719 9.76605 9.9141 10.0238 9.9141 10.352C9.9141 10.6802 10.1719 10.9379 10.5 10.9379H13.4297V9.76605H10.5ZM9.9141 12.6957C9.9141 13.0239 10.1719 13.2817 10.5 13.2817H13.4297V12.1098H10.5C10.1719 12.1098 9.9141 12.3676 9.9141 12.6957ZM9.9141 15.0395C9.9141 15.3677 10.1719 15.6254 10.5 15.6254H13.4297V14.4536H10.5C10.1719 14.4536 9.9141 14.7113 9.9141 15.0395Z" fill="url(#paint0_linear)"/>
<defs>
<linearGradient id="paint0_linear" x1="6.98441" y1="20.3906" x2="6.98441" y2="0.390612" gradientUnits="userSpaceOnUse">
<stop stop-color="#00B59C"/>
<stop offset="1" stop-color="#9CFFAC"/>
</linearGradient>
</defs>
</svg>
