<svg width="16" height="16" viewBox="0 0 16 16" fill="none" xmlns="http://www.w3.org/2000/svg">
<path d="M14.5039 3.78301V1.53125C14.5039 1.22012 14.2526 0.96875 13.9414 0.96875H2.0586C1.74747 0.96875 1.4961 1.22012 1.4961 1.53125V3.78301C1.20255 3.80059 0.968761 4.04492 0.968761 4.34375V6.65879C0.967635 7.08426 1.05379 7.50544 1.22189 7.89629C1.29747 8.07559 1.39064 8.24434 1.4961 8.4043V14.4688C1.4961 14.7781 1.74747 15.0312 2.0586 15.0312H13.9414C14.2526 15.0312 14.5039 14.7799 14.5039 14.4688V8.4043C14.611 8.24393 14.7029 8.07385 14.7781 7.89629C14.9451 7.5043 15.0313 7.0877 15.0313 6.65879V4.34375C15.0313 4.04492 14.7975 3.80059 14.5039 3.78301ZM2.76173 2.23438H13.2383V3.78125H2.76173V2.23438ZM9.12501 13.7674H6.87501V11.9375H9.12501V13.7674ZM13.2383 13.7674H10.25V11.375C10.25 11.0639 9.99864 10.8125 9.68751 10.8125H6.31251C6.00138 10.8125 5.75001 11.0639 5.75001 11.375V13.7674H2.76173V9.50996C2.81271 9.53457 2.86544 9.55918 2.91993 9.58027C3.31192 9.74551 3.72853 9.82812 4.15743 9.82812C4.58634 9.82812 5.00118 9.74551 5.39493 9.58027C5.63751 9.47832 5.86603 9.34824 6.07521 9.1918C6.07872 9.19004 6.08224 9.19004 6.08575 9.1918C6.29558 9.34891 6.52408 9.4794 6.76603 9.58027C7.15802 9.74551 7.57462 9.82812 8.00353 9.82812C8.43243 9.82812 8.84728 9.74551 9.24103 9.58027C9.4836 9.47832 9.71212 9.34824 9.9213 9.1918C9.92482 9.19004 9.92833 9.19004 9.93185 9.1918C10.1417 9.34891 10.3702 9.4794 10.6121 9.58027C11.0041 9.74551 11.4207 9.82812 11.8496 9.82812C12.2785 9.82812 12.6934 9.74551 13.0871 9.58027C13.1399 9.55742 13.1926 9.53457 13.2453 9.50996V13.7674H13.2383ZM13.7656 6.65879C13.7656 7.70996 12.9043 8.5625 11.8443 8.5625C11.1272 8.5625 10.5014 8.17402 10.1709 7.59746C10.1199 7.50957 10.0285 7.45508 9.92657 7.45508H9.91603C9.81583 7.45508 9.72267 7.50957 9.67169 7.59746C9.50305 7.89157 9.25954 8.13579 8.96592 8.30529C8.6723 8.47479 8.33904 8.56354 8.00001 8.5625C7.28458 8.5625 6.66056 8.17578 6.33009 7.60098C6.27735 7.51133 6.18243 7.45508 6.07872 7.45508C5.97501 7.45508 5.87833 7.51133 5.82735 7.60098C5.65773 7.89396 5.41391 8.13709 5.12044 8.30589C4.82698 8.47468 4.49422 8.56319 4.15567 8.5625C3.09571 8.5625 2.23439 7.70996 2.23439 6.65879V5.05566C2.23439 5.05039 2.2379 5.04688 2.24317 5.04688H13.7568C13.7621 5.04688 13.7656 5.05039 13.7656 5.05566V6.65879Z" fill="#0072B1"/>
</svg>
