<svg width="19" height="17" viewBox="0 0 19 17" fill="none" xmlns="http://www.w3.org/2000/svg">
<path d="M11.8758 1.19634V3.54068H18.9088V1.19634H11.8758ZM16.9119 12.3287L13.9277 10.3386C13.234 9.87677 12.3005 9.96891 11.7098 10.559L10.9246 11.3437C10.4638 11.2773 9.36835 11.0031 8.24483 9.87963C7.1213 8.7561 6.84717 7.66063 6.78075 7.19989L7.56544 6.41461C8.15555 5.8245 8.24827 4.89161 7.78522 4.1962L5.79573 1.21256C5.50211 0.77241 5.03222 0.490269 4.50564 0.438185C3.97907 0.386688 3.46339 0.570953 3.08966 0.944719L1.84595 2.18784C1.25361 2.78022 0.941113 3.58953 0.989211 4.40856C1.08306 6.00314 1.7739 9.21114 5.34363 12.7809C8.91394 16.3506 12.1214 17.0414 13.7159 17.1353C14.5179 17.1854 15.3367 16.879 15.9361 16.2785L17.1798 15.0348C17.5535 14.661 17.7384 14.1448 17.6863 13.6188C17.6343 13.0922 17.3521 12.6223 16.9119 12.3287Z" fill="url(#paint0_linear)"/>
<defs>
<linearGradient id="paint0_linear" x1="9.94658" y1="17.1406" x2="9.94658" y2="0.429668" gradientUnits="userSpaceOnUse">
<stop stop-color="#FD3A84"/>
<stop offset="1" stop-color="#FFA68D"/>
</linearGradient>
</defs>
</svg>
