<svg width="120" height="106" viewBox="0 0 120 106" fill="none" xmlns="http://www.w3.org/2000/svg">
<path d="M98.6719 70.3125H70.5469C68.6037 70.3125 67.0312 68.7401 67.0312 66.7969V52.7344C67.0312 50.7912 68.6037 49.2188 70.5469 49.2188H74.0625L60 30.4699L45.9375 49.2188H49.4531C51.3963 49.2188 52.9688 50.7912 52.9688 52.7344V66.7969C52.9688 68.7401 51.3963 70.3125 49.4531 70.3125H21.3281C9.69633 70.3125 0 60.8505 0 49.2188C0 38.7267 7.93172 29.9995 17.9773 28.3894C19.6116 12.4659 33.1041 0 49.4531 0C57.2808 0 64.676 2.84953 70.5127 8.06813C72.8196 7.37789 75.1887 7.03125 77.5781 7.03125C90.0408 7.03125 100.375 16.3455 101.975 28.3826C112.041 29.9721 120 38.7096 120 49.2188C120 60.8505 110.304 70.3125 98.6719 70.3125Z" fill="url(#paint0_linear)"/>
<path d="M83.9082 50.6266L62.8145 22.5016C61.4823 20.7299 58.516 20.7299 57.1841 22.5016L36.0903 50.6266C35.2939 51.6909 35.1634 53.1157 35.7608 54.307C36.3582 55.4983 37.5732 56.2502 38.9054 56.2502H45.9367V87.8908C45.9367 89.834 47.5091 91.4064 49.4523 91.4064H70.5461C72.4893 91.4064 74.0617 89.834 74.0617 87.8908V56.2502H81.0929C82.4251 56.2502 83.6404 55.4983 84.2378 54.307C84.8352 53.1157 84.7047 51.6909 83.9082 50.6266ZM70.5461 98.4377H49.4523C47.5091 98.4377 45.9367 100.01 45.9367 101.953C45.9367 103.897 47.5091 105.469 49.4523 105.469H70.5461C72.4893 105.469 74.0617 103.897 74.0617 101.953C74.0617 100.01 72.4893 98.4377 70.5461 98.4377Z" fill="url(#paint1_linear)"/>
<defs>
<linearGradient id="paint0_linear" x1="60" y1="70.3125" x2="60" y2="0" gradientUnits="userSpaceOnUse">
<stop stop-color="#00B59C"/>
<stop offset="1" stop-color="#9CFFAC"/>
</linearGradient>
<linearGradient id="paint1_linear" x1="59.9992" y1="105.469" x2="59.9992" y2="21.1729" gradientUnits="userSpaceOnUse">
<stop stop-color="#C3FFE8"/>
<stop offset="0.9973" stop-color="#F0FFF4"/>
</linearGradient>
</defs>
</svg>
