<svg width="12" height="12" viewBox="0 0 12 12" fill="none" xmlns="http://www.w3.org/2000/svg">
<path d="M11.5312 8.25C11.7901 8.25 12 8.04014 12 7.78125V2.8125C12 1.77863 11.1589 0.9375 10.125 0.9375H9.51562V0.46875C9.51562 0.209859 9.30577 0 9.04688 0C8.78798 0 8.57812 0.209859 8.57812 0.46875V0.9375H6.44531V0.46875C6.44531 0.209859 6.23545 0 5.97656 0C5.71767 0 5.50781 0.209859 5.50781 0.46875V0.9375H3.39844V0.46875C3.39844 0.209859 3.18858 0 2.92969 0C2.6708 0 2.46094 0.209859 2.46094 0.46875V0.9375H1.875C0.841125 0.9375 0 1.77863 0 2.8125V10.125C0 11.1589 0.841125 12 1.875 12H10.125C11.1589 12 12 11.1589 12 10.125C12 9.86611 11.7901 9.65625 11.5312 9.65625C11.2724 9.65625 11.0625 9.86611 11.0625 10.125C11.0625 10.6419 10.6419 11.0625 10.125 11.0625H1.875C1.35806 11.0625 0.9375 10.6419 0.9375 10.125V2.8125C0.9375 2.29556 1.35806 1.875 1.875 1.875H2.46094V2.34375C2.46094 2.60264 2.6708 2.8125 2.92969 2.8125C3.18858 2.8125 3.39844 2.60264 3.39844 2.34375V1.875H5.50781V2.34375C5.50781 2.60264 5.71767 2.8125 5.97656 2.8125C6.23545 2.8125 6.44531 2.60264 6.44531 2.34375V1.875H8.57812V2.34375C8.57812 2.60264 8.78798 2.8125 9.04688 2.8125C9.30577 2.8125 9.51562 2.60264 9.51562 2.34375V1.875H10.125C10.6419 1.875 11.0625 2.29556 11.0625 2.8125V7.78125C11.0625 8.04014 11.2724 8.25 11.5312 8.25Z" fill="#0072B1"/>
</svg>
