<svg width="15" height="15" viewBox="0 0 15 15" fill="none" xmlns="http://www.w3.org/2000/svg">
<path d="M12.6 12.0141C12.6031 12.0094 12.6078 12.0047 12.6109 12C13.6344 10.7828 14.25 9.21406 14.25 7.5C14.25 5.78594 13.6344 4.21719 12.6125 3C12.6094 2.99531 12.6047 2.99219 12.6016 2.9875C12.5844 2.96719 12.5687 2.94844 12.5516 2.92969C12.5453 2.92188 12.5391 2.91563 12.5328 2.90781L12.4688 2.83437L12.4672 2.83281C12.4438 2.80625 12.4187 2.77969 12.3953 2.75312L12.3938 2.75156C12.3438 2.69844 12.2937 2.64531 12.2422 2.59375L12.2406 2.59219L12.1656 2.51719L12.1609 2.5125C12.1375 2.48906 12.1141 2.46719 12.0906 2.44531C12.0828 2.4375 12.075 2.42969 12.0656 2.42188C12.05 2.40625 12.0344 2.39219 12.0188 2.37812C12.0141 2.37344 12.0078 2.36875 12.0031 2.3625C10.7563 1.20625 9.08594 0.5 7.25 0.5C5.41406 0.5 3.74375 1.20625 2.49531 2.3625C2.49062 2.36719 2.48438 2.37187 2.47969 2.37812C2.46406 2.39219 2.44844 2.40781 2.43281 2.42344C2.425 2.43125 2.41719 2.43906 2.40781 2.44688C2.38438 2.46875 2.36094 2.49219 2.3375 2.51406L2.33281 2.51875L2.25781 2.59375L2.25625 2.59531C2.20469 2.64688 2.15469 2.7 2.10469 2.75312L2.10313 2.75469C2.07813 2.78125 2.05469 2.80781 2.03125 2.83437L2.02969 2.83594C2.00781 2.85938 1.98594 2.88437 1.96563 2.90937C1.95938 2.91719 1.95313 2.92344 1.94688 2.93125C1.92969 2.95 1.91406 2.97031 1.89687 2.98906C1.89375 2.99375 1.88906 2.99688 1.88594 3.00156C0.865625 4.21719 0.25 5.78594 0.25 7.5C0.25 9.21406 0.865625 10.7828 1.8875 12C1.89062 12.0047 1.89531 12.0094 1.89844 12.0141L1.94688 12.0719C1.95313 12.0797 1.95938 12.0859 1.96563 12.0938L2.02969 12.1672C2.02969 12.1687 2.03125 12.1688 2.03125 12.1703C2.05469 12.1969 2.07813 12.2234 2.10313 12.2484L2.10469 12.25C2.15469 12.3031 2.20469 12.3562 2.25469 12.4078L2.25625 12.4094C2.28125 12.4344 2.30469 12.4594 2.32969 12.4828L2.33437 12.4875C2.38594 12.5391 2.43906 12.5891 2.49219 12.6375C3.74375 13.7937 5.41406 14.5 7.25 14.5C9.08594 14.5 10.7562 13.7937 12.0047 12.6375C12.0579 12.5887 12.11 12.5387 12.1609 12.4875L12.1656 12.4828C12.1906 12.4578 12.2156 12.4344 12.2391 12.4094L12.2406 12.4078C12.2922 12.3562 12.3422 12.3031 12.3906 12.25L12.3922 12.2484C12.4156 12.2219 12.4406 12.1969 12.4641 12.1703C12.4641 12.1688 12.4656 12.1687 12.4656 12.1672C12.4875 12.1438 12.5094 12.1187 12.5297 12.0938C12.5359 12.0859 12.5422 12.0797 12.5484 12.0719C12.5661 12.053 12.5833 12.0338 12.6 12.0141ZM12.6641 9.78594C12.4484 10.2953 12.1641 10.7672 11.8172 11.1953C11.4265 10.8577 10.9994 10.5647 10.5437 10.3219C10.725 9.58906 10.8375 8.78438 10.8672 7.9375H13.1094C13.0625 8.57656 12.9125 9.19687 12.6641 9.78594ZM13.1094 7.0625H10.8672C10.8375 6.21562 10.725 5.41094 10.5437 4.67812C11.0016 4.43437 11.4281 4.14062 11.8172 3.80469C12.5712 4.73277 13.0222 5.8699 13.1094 7.0625ZM9.53594 2.08594C10.1562 2.34844 10.7203 2.71094 11.2172 3.16719C10.9285 3.41296 10.6179 3.63159 10.2891 3.82031C10.0437 3.11719 9.72969 2.50625 9.36406 2.01719C9.42188 2.03906 9.47969 2.0625 9.53594 2.08594ZM8.12031 13.0328C7.97656 13.1453 7.83281 13.2312 7.6875 13.2891V10.3906C8.30749 10.4339 8.91717 10.5719 9.49531 10.8C9.36563 11.1844 9.21562 11.5391 9.04219 11.8594C8.77031 12.3656 8.45156 12.7703 8.12031 13.0328ZM9.04219 3.14062C9.21406 3.4625 9.36563 3.81719 9.49531 4.2C8.91717 4.42806 8.30749 4.56612 7.6875 4.60938V1.7125C7.83125 1.77031 7.97656 1.85469 8.12031 1.96875C8.45156 2.22969 8.77031 2.63438 9.04219 3.14062ZM7.6875 9.51406V7.9375H9.99219C9.96719 8.62813 9.88125 9.29844 9.7375 9.93437L9.73281 9.95312C9.07708 9.70447 8.38751 9.55644 7.6875 9.51406ZM7.6875 7.0625V5.48594C8.40312 5.44219 9.09063 5.29063 9.73281 5.04688L9.7375 5.06563C9.88125 5.70156 9.96719 6.37031 9.99219 7.0625H7.6875ZM6.8125 7.9375V9.51406C6.09688 9.55781 5.40938 9.70938 4.76719 9.95312L4.7625 9.93437C4.61875 9.29844 4.53281 8.62969 4.50781 7.9375H6.8125ZM4.50781 7.0625C4.53281 6.37187 4.61875 5.70156 4.7625 5.06563L4.76719 5.04688C5.40938 5.29063 6.09531 5.44219 6.8125 5.48594V7.0625H4.50781ZM6.8125 10.3906V13.2875C6.66875 13.2297 6.52344 13.1453 6.37969 13.0312C6.04844 12.7703 5.72813 12.3641 5.45625 11.8578C5.28438 11.5359 5.13281 11.1812 5.00313 10.7984C5.58438 10.5703 6.18906 10.4344 6.8125 10.3906ZM6.8125 4.60938C6.19251 4.56612 5.58283 4.42806 5.00469 4.2C5.13437 3.81562 5.28437 3.46094 5.45781 3.14062C5.72969 2.63438 6.04844 2.22812 6.38125 1.96719C6.525 1.85469 6.66875 1.76875 6.81406 1.71094V4.60938H6.8125ZM4.96406 2.08594C5.02188 2.0625 5.07812 2.03906 5.13594 2.01719C4.77031 2.50625 4.45625 3.11719 4.21094 3.82031C3.88281 3.63281 3.57188 3.41406 3.28281 3.16719C3.77969 2.71094 4.34375 2.34844 4.96406 2.08594ZM1.83594 5.21406C2.05156 4.70469 2.33594 4.23281 2.68281 3.80469C3.07187 4.14062 3.49844 4.43437 3.95625 4.67812C3.775 5.41094 3.6625 6.21562 3.63281 7.0625H1.39062C1.4375 6.42344 1.5875 5.80313 1.83594 5.21406ZM1.39062 7.9375H3.63281C3.6625 8.78438 3.775 9.58906 3.95625 10.3219C3.50059 10.5647 3.07347 10.8577 2.68281 11.1953C1.9288 10.2672 1.47776 9.1301 1.39062 7.9375ZM4.96406 12.9141C4.34375 12.6516 3.77969 12.2891 3.28281 11.8328C3.57188 11.5859 3.88281 11.3687 4.21094 11.1797C4.45625 11.8828 4.77031 12.4938 5.13594 12.9828C5.07812 12.9609 5.02031 12.9375 4.96406 12.9141ZM9.53594 12.9141C9.47812 12.9375 9.42188 12.9609 9.36406 12.9828C9.72969 12.4938 10.0437 11.8828 10.2891 11.1797C10.6172 11.3672 10.9281 11.5859 11.2172 11.8328C10.7231 12.2872 10.1543 12.6529 9.53594 12.9141Z" fill="#0072B1"/>
</svg>
