<svg width="21" height="21" viewBox="0 0 21 21" fill="none" xmlns="http://www.w3.org/2000/svg">
<path fill-rule="evenodd" clip-rule="evenodd" d="M20.9998 19.841C20.9998 20.481 20.4809 21 19.8409 21V20.9999H14.4876V12.8688H17.2173L17.626 9.6995H14.4876V7.67601C14.4876 6.75842 14.7423 6.13313 16.0582 6.13313L17.7364 6.13234V3.29772C17.4462 3.25917 16.4499 3.17285 15.291 3.17285C12.8713 3.17285 11.2147 4.6498 11.2147 7.36223V9.6995H8.47803V12.8688H11.2147V20.9999H1.159C0.518755 20.9999 0 20.481 0 19.8409V1.159C0 0.518833 0.518755 0 1.159 0H19.8409C20.4809 0 20.9998 0.518755 20.9998 1.159V19.841Z" fill="white"/>
</svg>
