<svg width="12" height="12" viewBox="0 0 12 12" fill="none" xmlns="http://www.w3.org/2000/svg">
<g clip-path="url(#clip0)">
<path d="M2.8125 6.00009C2.8125 5.40555 2.9763 4.8486 3.26088 4.37172V2.34888H1.23804C0.435188 3.39156 0 4.66232 0 6.00009C0 7.33785 0.435188 8.60861 1.23804 9.6513H3.26088V7.62845C2.9763 7.15157 2.8125 6.59463 2.8125 6.00009Z" fill="#FBBD00"/>
<path d="M6 9.18756L4.59375 10.5938L6 12.0001C7.33779 12.0001 8.60852 11.5649 9.65121 10.762V8.74133H7.63052C7.14947 9.02694 6.59018 9.18756 6 9.18756Z" fill="#0F9D58"/>
<path d="M3.26113 7.62878L1.23828 9.65163C1.39723 9.85807 1.57032 10.0558 1.75761 10.2431C2.89086 11.3763 4.39759 12.0004 6.00024 12.0004V9.18792C4.83718 9.18792 3.81781 8.56167 3.26113 7.62878Z" fill="#31AA52"/>
<path d="M12 5.99973C12 5.63469 11.967 5.26897 11.9018 4.91277L11.849 4.62451H6V7.43701H8.84653C8.57011 7.98688 8.14509 8.4355 7.6305 8.74103L9.65119 10.7617C9.85763 10.6028 10.0553 10.4297 10.2426 10.2424C11.3759 9.10911 12 7.60239 12 5.99973Z" fill="#3C79E6"/>
<path d="M8.25391 3.74609L8.50249 3.99466L10.4912 2.00595L10.2427 1.75737C9.10941 0.624117 7.60268 0 6 0L4.59375 1.40625L6 2.8125C6.85139 2.8125 7.65185 3.14405 8.25391 3.74609Z" fill="#CF2D48"/>
<path d="M6.00027 2.8125V0C4.39761 0 2.89088 0.624117 1.75761 1.75734C1.57032 1.94463 1.39723 2.14233 1.23828 2.34879L3.26113 4.37163C3.81784 3.43875 4.8372 2.8125 6.00027 2.8125Z" fill="#EB4132"/>
</g>
<defs>
<clipPath id="clip0">
<rect width="12" height="12" fill="white"/>
</clipPath>
</defs>
</svg>
