<svg width="24" height="24" viewBox="0 0 24 24" fill="none" xmlns="http://www.w3.org/2000/svg">
<path d="M2 6C2 5.73478 2.10536 5.48043 2.29289 5.29289C2.48043 5.10536 2.73478 5 3 5H21C21.2652 5 21.5196 5.10536 21.7071 5.29289C21.8946 5.48043 22 5.73478 22 6C22 6.26522 21.8946 6.51957 21.7071 6.70711C21.5196 6.89464 21.2652 7 21 7H3C2.73478 7 2.48043 6.89464 2.29289 6.70711C2.10536 6.51957 2 6.26522 2 6V6Z" fill="white"/>
<path d="M2 12.0322C2 11.767 2.10536 11.5127 2.29289 11.3251C2.48043 11.1376 2.73478 11.0322 3 11.0322H21C21.2652 11.0322 21.5196 11.1376 21.7071 11.3251C21.8946 11.5127 22 11.767 22 12.0322C22 12.2974 21.8946 12.5518 21.7071 12.7393C21.5196 12.9269 21.2652 13.0322 21 13.0322H3C2.73478 13.0322 2.48043 12.9269 2.29289 12.7393C2.10536 12.5518 2 12.2974 2 12.0322V12.0322Z" fill="white"/>
<path d="M3 17.064C2.73478 17.064 2.48043 17.1693 2.29289 17.3569C2.10536 17.5444 2 17.7987 2 18.064C2 18.3292 2.10536 18.5835 2.29289 18.7711C2.48043 18.9586 2.73478 19.064 3 19.064H21C21.2652 19.064 21.5196 18.9586 21.7071 18.7711C21.8946 18.5835 22 18.3292 22 18.064C22 17.7987 21.8946 17.5444 21.7071 17.3569C21.5196 17.1693 21.2652 17.064 21 17.064H3Z" fill="white"/>
</svg>
