<svg width="16" height="16" viewBox="0 0 16 16" fill="none" xmlns="http://www.w3.org/2000/svg">
<path d="M1.8649 15.0327C1.87167 15.0851 1.89761 15.133 1.93773 15.1674C1.97784 15.2017 2.02926 15.2199 2.08203 15.2185H4.89453C4.92825 15.22 4.96184 15.2133 4.99244 15.1991C5.02304 15.1848 5.04975 15.1634 5.0703 15.1366C5.09085 15.1099 5.10464 15.0785 5.11049 15.0453C5.11634 15.012 5.11408 14.9779 5.1039 14.9457L4.74409 13.7671L5.86506 13.0591C6.00907 12.9801 6.1777 12.9585 6.33694 12.9989C6.34144 13.0001 6.346 13.0013 6.35059 13.0021L8.6915 13.4333C9.33696 13.5488 10.0024 13.4549 10.5907 13.1652C10.6 13.1607 10.6089 13.1554 10.6175 13.1496L14.6661 10.3697C14.7121 10.3382 14.7443 10.2903 14.7561 10.2358C14.7679 10.1813 14.7585 10.1244 14.7297 10.0766C14.5766 9.82152 14.3309 9.63533 14.0439 9.55684C13.757 9.47835 13.4507 9.51359 13.1891 9.65524L13.1514 9.67558C12.8567 9.34286 12.367 9.21858 11.9913 9.40905L11.9865 9.41161L11.8497 9.48527C11.6486 9.32301 11.4032 9.22536 11.1456 9.20511C10.888 9.18487 10.6303 9.24298 10.4063 9.37183L9.53947 9.84349H8.38322C8.13708 9.84308 7.89418 9.78733 7.6725 9.68036L7.51197 9.60258C7.04747 9.37656 6.52948 9.28349 6.01535 9.33368C5.50122 9.38387 5.01101 9.57536 4.599 9.88696C4.59419 9.89058 4.58962 9.89433 4.58506 9.8983L4.19737 10.2435C4.06681 10.3596 3.91419 10.4482 3.74862 10.5041L3.54125 9.81743C3.52791 9.77186 3.50047 9.7317 3.46289 9.70269C3.4253 9.67369 3.37949 9.65734 3.33203 9.65599H1.45703C1.42565 9.65721 1.39487 9.66497 1.36666 9.67879C1.33846 9.6926 1.31345 9.71216 1.29325 9.73621C1.27271 9.75938 1.25734 9.78666 1.24814 9.81622C1.23894 9.84579 1.23614 9.87697 1.23991 9.90771L1.8649 15.0327ZM12.1914 9.79833C12.3689 9.7098 12.5883 9.76936 12.7459 9.89452L11.267 10.6924L11.2212 10.7165C11.1785 10.6081 11.1222 10.5056 11.0536 10.4114L12.1914 9.79833ZM10.6178 9.75458C10.6196 9.75364 10.6213 9.75268 10.623 9.75171C10.742 9.6829 10.8759 9.6442 11.0133 9.63899C11.1506 9.63378 11.2871 9.6622 11.4109 9.7218L10.7266 10.0906C10.6096 10.0087 10.4805 9.94555 10.344 9.90349L10.6178 9.75458ZM4.48828 10.5702L4.86909 10.2312C5.21674 9.97026 5.62962 9.81029 6.06231 9.76885C6.495 9.72741 6.93074 9.80611 7.32159 9.9963L7.48216 10.0742C7.76322 10.2098 8.07116 10.2805 8.38322 10.281H9.94034C10.1492 10.2812 10.3521 10.351 10.517 10.4793C10.6818 10.6076 10.7993 10.7871 10.8508 10.9896L9.77972 10.941C9.36673 10.9223 8.95289 10.9414 8.54337 10.998C8.48662 11.0068 8.43559 11.0375 8.40129 11.0836C8.367 11.1296 8.35219 11.1873 8.36007 11.2442C8.36795 11.3011 8.39787 11.3526 8.44339 11.3876C8.48891 11.4226 8.54637 11.4383 8.60337 11.4313C8.98647 11.3784 9.37359 11.3605 9.75994 11.3779L11.0881 11.438C11.0912 11.438 11.0947 11.4382 11.0979 11.4382C11.156 11.4382 11.2116 11.4152 11.2526 11.3741C11.2936 11.3331 11.3167 11.2775 11.3167 11.2195C11.3167 11.2 11.316 11.1806 11.3152 11.1613L11.4727 11.0782L13.3968 10.0402C13.5282 9.96906 13.6785 9.94064 13.8269 9.95894C13.9752 9.97724 14.1141 10.0413 14.2243 10.1423L10.3829 12.7798C9.88233 13.0228 9.31769 13.1009 8.77 13.003L6.43625 12.5732C6.1689 12.5076 5.88661 12.546 5.64653 12.6807C5.64312 12.6826 5.63972 12.6846 5.63644 12.6867L4.61144 13.3347L3.87612 10.9229C4.10215 10.8484 4.3105 10.7284 4.48828 10.5702V10.5702ZM3.17003 10.0935L4.59916 14.781H2.27572L1.70406 10.0935H3.17003Z" fill="#0072B1"/>
<path d="M3.3418 14.7109C3.45923 14.7109 3.57402 14.6761 3.67167 14.6109C3.76931 14.5456 3.84541 14.4529 3.89035 14.3444C3.93529 14.2359 3.94705 14.1165 3.92414 14.0014C3.90123 13.8862 3.84468 13.7804 3.76164 13.6973C3.6786 13.6143 3.57281 13.5578 3.45763 13.5348C3.34246 13.5119 3.22307 13.5237 3.11458 13.5686C3.00609 13.6136 2.91335 13.6897 2.84811 13.7873C2.78287 13.885 2.74805 13.9998 2.74805 14.1172C2.74823 14.2746 2.81084 14.4255 2.92215 14.5368C3.03346 14.6481 3.18438 14.7108 3.3418 14.7109ZM3.3418 13.9609C3.3727 13.9609 3.40291 13.9701 3.4286 13.9873C3.4543 14.0044 3.47433 14.0288 3.48615 14.0574C3.49798 14.0859 3.50107 14.1174 3.49504 14.1477C3.48902 14.178 3.47413 14.2058 3.45228 14.2277C3.43043 14.2495 3.40259 14.2644 3.37228 14.2704C3.34197 14.2765 3.31055 14.2734 3.282 14.2615C3.25345 14.2497 3.22905 14.2297 3.21188 14.204C3.19471 14.1783 3.18555 14.1481 3.18555 14.1172C3.1856 14.0758 3.20207 14.0361 3.23137 14.0068C3.26066 13.9775 3.30037 13.961 3.3418 13.9609Z" fill="#0072B1"/>
<path d="M4.5415 5.15144L5.13506 5.20865C5.20246 5.45307 5.30119 5.68774 5.42881 5.90681L5.05184 6.362C5.01706 6.40396 4.99919 6.4574 5.00174 6.51184C5.00429 6.56629 5.02707 6.61782 5.06563 6.65634L5.77744 7.36816C5.81595 7.40668 5.86746 7.42945 5.92187 7.432C5.97629 7.43456 6.0297 7.41672 6.07166 7.38197L6.52791 7.004C6.7468 7.13127 6.98097 7.23025 7.22478 7.29856L7.282 7.89422C7.28718 7.94858 7.31233 7.99909 7.3526 8.03596C7.39288 8.07284 7.4454 8.09347 7.5 8.09385H8.50919C8.56377 8.0934 8.61624 8.07273 8.65646 8.03583C8.69669 7.99894 8.7218 7.94844 8.72694 7.8941L8.78416 7.29956C9.02857 7.23201 9.26323 7.13313 9.48228 7.00538L9.9375 7.3821C9.97947 7.41682 10.0329 7.43463 10.0873 7.43205C10.1417 7.42947 10.1932 7.40669 10.2317 7.36816L10.9434 6.65634C10.9819 6.61783 11.0047 6.56632 11.0073 6.5119C11.0098 6.45748 10.992 6.40406 10.9572 6.36209L10.5791 5.90566C10.7064 5.68669 10.8054 5.45246 10.8737 5.20856L11.4586 5.15147C11.5127 5.14619 11.5629 5.12097 11.5994 5.08072C11.6359 5.04048 11.6561 4.98808 11.6561 4.93375V3.92453C11.6561 3.87014 11.6359 3.81771 11.5993 3.77745C11.5628 3.73719 11.5125 3.712 11.4584 3.70678L10.8648 3.64959C10.7974 3.40517 10.6987 3.17051 10.5711 2.95143L10.948 2.49621C10.9826 2.45444 11.0005 2.40132 10.9981 2.34715C10.9957 2.29298 10.9733 2.24161 10.9352 2.20302L10.2326 1.49118C10.1941 1.45228 10.1425 1.42919 10.0879 1.42645C10.0333 1.42372 9.97963 1.44153 9.9375 1.4764L9.48125 1.85452C9.26235 1.72725 9.02819 1.62828 8.78438 1.55996L8.72716 0.97277C8.72167 0.919233 8.69615 0.869749 8.65571 0.834244C8.61526 0.798739 8.56289 0.779838 8.50909 0.781332H7.5C7.44628 0.779914 7.39401 0.79883 7.35363 0.834295C7.31326 0.86976 7.28777 0.91916 7.28225 0.972614L7.225 1.5629C6.98066 1.62973 6.746 1.72791 6.52688 1.85499L6.07163 1.47721C6.02972 1.44241 5.97634 1.4245 5.92192 1.42698C5.86751 1.42946 5.81597 1.45215 5.77741 1.49061L5.06563 2.20221C5.02714 2.24072 5.00439 2.2922 5.00184 2.34659C4.99928 2.40097 5.0171 2.45436 5.05181 2.4963L5.42994 2.95256C5.30267 3.17145 5.20369 3.40561 5.13538 3.64943L4.54163 3.70665C4.48745 3.71184 4.43716 3.73705 4.40057 3.77733C4.36398 3.81762 4.34372 3.8701 4.34375 3.92453V4.93368C4.34375 4.98807 4.364 5.0405 4.40056 5.08076C4.43712 5.12102 4.48737 5.14621 4.5415 5.15144ZM4.78125 4.12321L5.33125 4.07009C5.37741 4.06563 5.42097 4.04662 5.45562 4.01579C5.49027 3.98496 5.51423 3.94392 5.52403 3.89859C5.5912 3.59713 5.71235 3.3103 5.88163 3.05196C5.90683 3.0129 5.91893 2.96682 5.91618 2.92041C5.91343 2.874 5.89596 2.82968 5.86631 2.79387L5.51578 2.37055L5.94597 1.94037L6.36922 2.2909C6.40546 2.32092 6.45041 2.33845 6.49741 2.3409C6.54441 2.34334 6.59094 2.33056 6.63009 2.30446C6.8869 2.13455 7.1731 2.01393 7.47406 1.94877C7.51893 1.94038 7.55987 1.9177 7.59078 1.88412C7.62169 1.85054 7.64091 1.80786 7.64556 1.76246L7.69869 1.21871H8.31056L8.36369 1.76246C8.36824 1.80825 8.38735 1.85137 8.41822 1.88549C8.44909 1.91961 8.49008 1.94293 8.53519 1.95202C8.83665 2.01853 9.12357 2.13909 9.38206 2.30787C9.42122 2.33296 9.46735 2.34493 9.51377 2.34202C9.56018 2.33912 9.60447 2.32149 9.64019 2.29171L10.0625 1.94171L10.4854 2.36984L10.1337 2.79384C10.1037 2.83008 10.0862 2.87502 10.0837 2.92201C10.0813 2.96899 10.0941 3.0155 10.1202 3.05465C10.2901 3.31146 10.4107 3.59764 10.4758 3.89859C10.4856 3.94392 10.5096 3.98496 10.5443 4.01579C10.5789 4.04662 10.6225 4.06563 10.6686 4.07009L11.2186 4.12321V4.73525L10.6773 4.78809C10.6312 4.79259 10.5877 4.81162 10.5531 4.84244C10.5184 4.87326 10.4945 4.91427 10.4847 4.95956C10.4176 5.26111 10.2965 5.54802 10.1272 5.80644C10.102 5.8455 10.0899 5.89159 10.0927 5.938C10.0954 5.98442 10.1129 6.02875 10.1426 6.06456L10.4932 6.48759L10.0631 6.91778L9.63978 6.56725C9.60354 6.53723 9.55859 6.5197 9.51159 6.51725C9.4646 6.51481 9.41806 6.52759 9.37891 6.55369C9.1221 6.72364 8.8359 6.84429 8.53494 6.90947C8.48947 6.91971 8.44839 6.94406 8.41759 6.97904C8.38679 7.01402 8.36784 7.05785 8.36344 7.10425L8.31044 7.65635H7.69856L7.64544 7.10425C7.641 7.05798 7.62201 7.0143 7.59119 6.97949C7.56038 6.94468 7.51933 6.92053 7.47394 6.9105C7.17243 6.84321 6.88557 6.72195 6.62722 6.55256C6.58817 6.52732 6.5421 6.51518 6.49569 6.51789C6.44927 6.5206 6.40493 6.53804 6.36909 6.56766L5.94584 6.91806L5.51578 6.48759L5.86631 6.06431C5.89633 6.02806 5.91386 5.9831 5.91629 5.9361C5.91872 5.88909 5.90593 5.84256 5.87981 5.8034C5.70993 5.5466 5.58932 5.26041 5.52416 4.95947C5.51435 4.91413 5.4904 4.87309 5.45574 4.84227C5.42109 4.81144 5.37754 4.79242 5.33138 4.78797L4.78137 4.73484L4.78125 4.12321Z" fill="#0072B1"/>
<path d="M8.00586 6.61328C8.43773 6.61328 8.85991 6.48522 9.219 6.24528C9.57809 6.00534 9.85797 5.66431 10.0232 5.26531C10.1885 4.8663 10.2318 4.42726 10.1475 4.00368C10.0632 3.5801 9.85527 3.19102 9.54988 2.88564C9.2445 2.58026 8.85542 2.3723 8.43184 2.28805C8.00826 2.2038 7.56921 2.24704 7.17021 2.41232C6.77121 2.5776 6.43018 2.85748 6.19025 3.21657C5.95032 3.57567 5.82226 3.99784 5.82227 4.42972C5.82292 5.00864 6.05319 5.56366 6.46255 5.97302C6.87191 6.38238 7.42694 6.61264 8.00586 6.61328ZM8.00586 2.68363C8.3512 2.68363 8.68879 2.78603 8.97594 2.9779C9.26308 3.16976 9.48688 3.44246 9.61904 3.76152C9.7512 4.08058 9.78578 4.43166 9.7184 4.77037C9.65103 5.10908 9.48473 5.4202 9.24053 5.66439C8.99634 5.90859 8.68521 6.07489 8.34651 6.14226C8.0078 6.20964 7.65671 6.17506 7.33766 6.0429C7.0186 5.91074 6.7459 5.68694 6.55404 5.3998C6.36217 5.11265 6.25977 4.77506 6.25977 4.42972C6.26032 3.96681 6.44446 3.52301 6.7718 3.19569C7.09914 2.86837 7.54294 2.68425 8.00586 2.68372V2.68363Z" fill="#0072B1"/>
<path d="M7.6151 5.09596C7.65597 5.13586 7.71081 5.15819 7.76792 5.15819C7.82502 5.15819 7.87987 5.13586 7.92073 5.09596L8.9678 4.07368C8.9886 4.05368 9.00524 4.02975 9.01675 4.00328C9.02827 3.97681 9.03443 3.94833 9.03489 3.91947C9.03534 3.89061 9.03008 3.86194 9.01941 3.83513C9.00874 3.80831 8.99286 3.78387 8.9727 3.76321C8.95254 3.74256 8.92849 3.7261 8.90193 3.71478C8.87538 3.70347 8.84685 3.69751 8.81799 3.69727C8.78913 3.69703 8.7605 3.70251 8.73376 3.71338C8.70703 3.72425 8.68271 3.74031 8.6622 3.76062L7.76792 4.63365L7.33951 4.2154C7.319 4.19509 7.29468 4.17903 7.26795 4.16816C7.24121 4.15729 7.21258 4.15181 7.18372 4.15205C7.15486 4.1523 7.12633 4.15825 7.09978 4.16956C7.07322 4.18088 7.04917 4.19734 7.02901 4.218C7.00885 4.23865 6.99297 4.26309 6.9823 4.28991C6.97163 4.31673 6.96637 4.34539 6.96682 4.37425C6.96728 4.40311 6.97344 4.43159 6.98496 4.45806C6.99647 4.48453 7.01311 4.50846 7.03391 4.52846L7.6151 5.09596Z" fill="#0072B1"/>
</svg>
