<svg width="13" height="13" viewBox="0 0 13 13" fill="none" xmlns="http://www.w3.org/2000/svg">
<path d="M12.0859 3.04698H7.26172V0.253906C7.26172 0.113699 7.14805 0 7.00781 0H0.914062C0.77383 0 0.660156 0.113699 0.660156 0.253906V12.7461C0.660156 12.8863 0.77383 13 0.914062 13H7.00781H12.0859C12.2262 13 12.3398 12.8863 12.3398 12.7461V3.30088C12.3398 3.16065 12.2261 3.04698 12.0859 3.04698ZM7.26172 3.55479H11.832V9.9531H7.26172V3.55479ZM3.19922 12.4922V10.4609H4.72266V12.4922H3.19922ZM4.97656 9.9531H2.94531C2.80508 9.9531 2.69141 10.0668 2.69141 10.207V12.4922H1.16797V0.507812H6.75391V12.4922H5.23047V10.207C5.23047 10.0668 5.11677 9.9531 4.97656 9.9531ZM7.26169 12.4922V10.4609H11.832V12.4922H7.26169Z" fill="#0072B1"/>
<path d="M3.70703 2.03125H4.21477C4.355 2.03125 4.46867 1.91758 4.46867 1.77734V1.26953C4.46867 1.1293 4.355 1.01562 4.21477 1.01562H3.70703C3.5668 1.01562 3.45312 1.1293 3.45312 1.26953V1.77734C3.45312 1.91758 3.5668 2.03125 3.70703 2.03125Z" fill="#0072B1"/>
<path d="M3.70703 3.8086H4.21477C4.355 3.8086 4.46867 3.69492 4.46867 3.55469V3.04688C4.46867 2.90664 4.355 2.79297 4.21477 2.79297H3.70703C3.5668 2.79297 3.45312 2.90664 3.45312 3.04688V3.55469C3.45312 3.69492 3.5668 3.8086 3.70703 3.8086Z" fill="#0072B1"/>
<path d="M3.70703 5.58594H4.21477C4.355 5.58594 4.46867 5.47226 4.46867 5.33203V4.82422C4.46867 4.68399 4.355 4.57031 4.21477 4.57031H3.70703C3.5668 4.57031 3.45312 4.68399 3.45312 4.82422V5.33203C3.45312 5.47226 3.5668 5.58594 3.70703 5.58594Z" fill="#0072B1"/>
<path d="M3.70703 7.36328H4.21477C4.355 7.36328 4.46867 7.24961 4.46867 7.10938V6.60156C4.46867 6.46133 4.355 6.34766 4.21477 6.34766H3.70703C3.5668 6.34766 3.45312 6.46133 3.45312 6.60156V7.10938C3.45312 7.24961 3.5668 7.36328 3.70703 7.36328Z" fill="#0072B1"/>
<path d="M3.70703 9.14062H4.21477C4.355 9.14062 4.46867 9.02695 4.46867 8.88672V8.37891C4.46867 8.23867 4.355 8.125 4.21477 8.125H3.70703C3.5668 8.125 3.45312 8.23867 3.45312 8.37891V8.88672C3.45312 9.02695 3.5668 9.14062 3.70703 9.14062Z" fill="#0072B1"/>
<path d="M1.92969 2.03125H2.43742C2.57766 2.03125 2.69133 1.91758 2.69133 1.77734V1.26953C2.69133 1.1293 2.57766 1.01562 2.43742 1.01562H1.92969C1.78946 1.01562 1.67578 1.1293 1.67578 1.26953V1.77734C1.67578 1.91758 1.78946 2.03125 1.92969 2.03125Z" fill="#0072B1"/>
<path d="M1.92969 3.8086H2.43742C2.57766 3.8086 2.69133 3.69492 2.69133 3.55469V3.04688C2.69133 2.90664 2.57766 2.79297 2.43742 2.79297H1.92969C1.78946 2.79297 1.67578 2.90664 1.67578 3.04688V3.55469C1.67578 3.69492 1.78946 3.8086 1.92969 3.8086Z" fill="#0072B1"/>
<path d="M1.92969 5.58594H2.43742C2.57766 5.58594 2.69133 5.47226 2.69133 5.33203V4.82422C2.69133 4.68399 2.57766 4.57031 2.43742 4.57031H1.92969C1.78946 4.57031 1.67578 4.68399 1.67578 4.82422V5.33203C1.67578 5.47226 1.78946 5.58594 1.92969 5.58594Z" fill="#0072B1"/>
<path d="M1.92969 7.36328H2.43742C2.57766 7.36328 2.69133 7.24961 2.69133 7.10938V6.60156C2.69133 6.46133 2.57766 6.34766 2.43742 6.34766H1.92969C1.78946 6.34766 1.67578 6.46133 1.67578 6.60156V7.10938C1.67578 7.24961 1.78946 7.36328 1.92969 7.36328Z" fill="#0072B1"/>
<path d="M1.92969 9.14062H2.43742C2.57766 9.14062 2.69133 9.02695 2.69133 8.88672V8.37891C2.69133 8.23867 2.57766 8.125 2.43742 8.125H1.92969C1.78946 8.125 1.67578 8.23867 1.67578 8.37891V8.88672C1.67578 9.02695 1.78946 9.14062 1.92969 9.14062Z" fill="#0072B1"/>
<path d="M5.99211 1.01562H5.48438C5.34414 1.01562 5.23047 1.1293 5.23047 1.26953V1.77734C5.23047 1.91758 5.34414 2.03125 5.48438 2.03125H5.99211C6.13234 2.03125 6.24602 1.91758 6.24602 1.77734V1.26953C6.24602 1.1293 6.13234 1.01562 5.99211 1.01562Z" fill="#0072B1"/>
<path d="M5.99211 2.79297H5.48438C5.34414 2.79297 5.23047 2.90664 5.23047 3.04688V3.55469C5.23047 3.69492 5.34414 3.80859 5.48438 3.80859H5.99211C6.13234 3.80859 6.24602 3.69492 6.24602 3.55469V3.04688C6.24602 2.90667 6.13234 2.79297 5.99211 2.79297Z" fill="#0072B1"/>
<path d="M5.99211 4.57031H5.48438C5.34414 4.57031 5.23047 4.68399 5.23047 4.82422V5.33203C5.23047 5.47226 5.34414 5.58594 5.48438 5.58594H5.99211C6.13234 5.58594 6.24602 5.47226 6.24602 5.33203V4.82422C6.24602 4.68401 6.13234 4.57031 5.99211 4.57031Z" fill="#0072B1"/>
<path d="M5.99211 6.34766H5.48438C5.34414 6.34766 5.23047 6.46133 5.23047 6.60156V7.10938C5.23047 7.24961 5.34414 7.36328 5.48438 7.36328H5.99211C6.13234 7.36328 6.24602 7.24961 6.24602 7.10938V6.60156C6.24602 6.46136 6.13234 6.34766 5.99211 6.34766Z" fill="#0072B1"/>
<path d="M5.99211 8.125H5.48438C5.34414 8.125 5.23047 8.23867 5.23047 8.37891V8.88672C5.23047 9.02695 5.34414 9.14062 5.48438 9.14062H5.99211C6.13234 9.14062 6.24602 9.02695 6.24602 8.88672V8.37891C6.24602 8.23867 6.13234 8.125 5.99211 8.125Z" fill="#0072B1"/>
<path d="M10.6894 4.57031H10.1816C10.0414 4.57031 9.92773 4.68399 9.92773 4.82422V5.33203C9.92773 5.47226 10.0414 5.58594 10.1816 5.58594H10.6894C10.8296 5.58594 10.9433 5.47226 10.9433 5.33203V4.82422C10.9433 4.68401 10.8296 4.57031 10.6894 4.57031Z" fill="#0072B1"/>
<path d="M10.6894 6.34766H10.1816C10.0414 6.34766 9.92773 6.46133 9.92773 6.60156V7.10938C9.92773 7.24961 10.0414 7.36328 10.1816 7.36328H10.6894C10.8296 7.36328 10.9433 7.24961 10.9433 7.10938V6.60156C10.9433 6.46136 10.8296 6.34766 10.6894 6.34766Z" fill="#0072B1"/>
<path d="M10.6894 8.125H10.1816C10.0414 8.125 9.92773 8.23867 9.92773 8.37891V8.88672C9.92773 9.02695 10.0414 9.14062 10.1816 9.14062H10.6894C10.8296 9.14062 10.9433 9.02695 10.9433 8.88672V8.37891C10.9433 8.23867 10.8296 8.125 10.6894 8.125Z" fill="#0072B1"/>
<path d="M8.91203 4.57031H8.4043C8.26406 4.57031 8.15039 4.68399 8.15039 4.82422V5.33203C8.15039 5.47226 8.26406 5.58594 8.4043 5.58594H8.91203C9.05227 5.58594 9.16594 5.47226 9.16594 5.33203V4.82422C9.16594 4.68401 9.05224 4.57031 8.91203 4.57031Z" fill="#0072B1"/>
<path d="M8.91203 6.34766H8.4043C8.26406 6.34766 8.15039 6.46133 8.15039 6.60156V7.10938C8.15039 7.24961 8.26406 7.36328 8.4043 7.36328H8.91203C9.05227 7.36328 9.16594 7.24961 9.16594 7.10938V6.60156C9.16594 6.46136 9.05224 6.34766 8.91203 6.34766Z" fill="#0072B1"/>
<path d="M8.91203 8.125H8.4043C8.26406 8.125 8.15039 8.23867 8.15039 8.37891V8.88672C8.15039 9.02695 8.26406 9.14062 8.4043 9.14062H8.91203C9.05227 9.14062 9.16594 9.02695 9.16594 8.88672V8.37891C9.16594 8.23867 9.05224 8.125 8.91203 8.125Z" fill="#0072B1"/>
</svg>
