<svg width="14" height="14" viewBox="0 0 14 14" fill="none" xmlns="http://www.w3.org/2000/svg">
<path d="M12.2453 0.75H1.75469C1.2 0.75 0.75 1.2 0.75 1.75469V12.2453C0.75 12.8 1.2 13.25 1.75469 13.25H12.2453C12.8 13.25 13.25 12.8 13.25 12.2453V1.75469C13.25 1.2 12.8 0.75 12.2453 0.75ZM12.2453 12.25C5.24844 12.2484 1.75 12.2469 1.75 12.2453C1.75156 5.24844 1.75313 1.75 1.75469 1.75C8.75156 1.75156 12.25 1.75313 12.25 1.75469C12.2484 8.75156 12.2469 12.25 12.2453 12.25ZM2.60313 5.43594H4.45781V11.4016H2.60313V5.43594ZM3.53125 4.62031C4.12344 4.62031 4.60625 4.13906 4.60625 3.54531C4.60625 3.40414 4.57844 3.26435 4.52442 3.13393C4.4704 3.0035 4.39121 2.885 4.29139 2.78517C4.19157 2.68535 4.07306 2.60617 3.94263 2.55214C3.81221 2.49812 3.67242 2.47031 3.53125 2.47031C3.39008 2.47031 3.25029 2.49812 3.11987 2.55214C2.98944 2.60617 2.87093 2.68535 2.77111 2.78517C2.67129 2.885 2.5921 3.0035 2.53808 3.13393C2.48406 3.26435 2.45625 3.40414 2.45625 3.54531C2.45469 4.13906 2.93594 4.62031 3.53125 4.62031ZM7.47344 8.45C7.47344 7.67188 7.62187 6.91875 8.58594 6.91875C9.53594 6.91875 9.55 7.80781 9.55 8.5V11.4016H11.4031V8.12969C11.4031 6.52344 11.0562 5.2875 9.17969 5.2875C8.27812 5.2875 7.67344 5.78281 7.425 6.25156H7.4V5.43594H5.62031V11.4016H7.47344V8.45Z" fill="#262626"/>
</svg>
