<svg width="14" height="14" viewBox="0 0 14 14" fill="none" xmlns="http://www.w3.org/2000/svg">
<path d="M12.4916 5.71121H8.28868V3.91614L9.65459 2.94052C9.76236 2.86351 9.82634 2.73929 9.82634 2.60684C9.82634 2.47429 9.76236 2.35007 9.65459 2.27306L8.27223 1.28569C8.16425 0.559158 7.5363 0 6.78029 0H1.5085C0.676651 0 0 0.676651 0 1.5085V6.7804C0 7.61214 0.676651 8.28879 1.5085 8.28879H5.71132V10.0839L4.34541 11.0595C4.23764 11.1365 4.17366 11.2608 4.17366 11.3933C4.17366 11.5257 4.23764 11.65 4.34541 11.7269L5.72777 12.7143C5.83575 13.4408 6.4637 14 7.21971 14H12.4916C13.3233 14 14 13.3232 14 12.4915V7.21971C14 6.38786 13.3233 5.71121 12.4916 5.71121ZM1.5085 7.46848C1.129 7.46848 0.820312 7.15979 0.820312 6.78029V1.50839C0.820312 1.129 1.129 0.820312 1.5085 0.820312H6.78029C7.15968 0.820312 7.46837 1.129 7.46837 1.50839C7.46837 1.64095 7.53235 1.76527 7.64012 1.84218L8.71048 2.60674L7.64012 3.37129C7.53235 3.4483 7.46837 3.57263 7.46837 3.70508V5.71121H7.21971C6.38797 5.71121 5.71132 6.38786 5.71132 7.2196V7.46848H1.5085ZM13.1797 12.4915C13.1797 12.871 12.871 13.1797 12.4916 13.1797H7.21971C6.84032 13.1797 6.53163 12.871 6.53163 12.4915C6.53163 12.3591 6.46765 12.2347 6.35988 12.1578L5.28952 11.3933L6.35988 10.6287C6.46765 10.5517 6.53163 10.4274 6.53163 10.2949V7.21971C6.53163 6.84021 6.84032 6.53152 7.21971 6.53152H7.87746H7.87852H7.87959H12.4916C12.871 6.53152 13.1797 6.84021 13.1797 7.21971V12.4915Z" fill="#0072B1"/>
</svg>
