<svg width="15" height="20" viewBox="0 0 15 20" fill="none" xmlns="http://www.w3.org/2000/svg">
<path d="M7.16241 0C3.33109 0 0.222656 3.10843 0.222656 6.93976C0.222656 9.49397 1.64434 11.8313 3.86121 13.0361V14.4819C3.86121 14.8916 4.17446 15.2048 4.5841 15.2048H9.71663C10.1263 15.2048 10.4395 14.8916 10.4395 14.4819V13.0602C12.6805 11.8554 14.1022 9.49397 14.1022 6.93976C14.1022 3.10843 10.9937 0 7.16241 0ZM9.42747 11.9518C9.16241 12.0723 8.99374 12.3373 8.99374 12.6024V13.759H5.30699V12.6024C5.30699 12.3133 5.13832 12.0723 4.89735 11.9518C2.94555 11.0602 1.66844 9.08434 1.66844 6.93976C1.66844 3.90361 4.12627 1.44578 7.16241 1.44578C10.1986 1.44578 12.6564 3.90361 12.6564 6.93976C12.6564 9.08434 11.3793 11.0361 9.42747 11.9518Z" fill="url(#paint0_linear)"/>
<path d="M9.16234 16.168H5.16234C4.75271 16.168 4.43945 16.4812 4.43945 16.8909C4.43945 17.3005 4.75271 17.6138 5.16234 17.6138H9.16234C9.57198 17.6138 9.88524 17.3005 9.88524 16.8909C9.88524 16.4812 9.57198 16.168 9.16234 16.168Z" fill="url(#paint1_linear)"/>
<path d="M8.00534 18.5547H6.31859C5.90896 18.5547 5.5957 18.8679 5.5957 19.2776C5.5957 19.6872 5.90896 20.0005 6.31859 20.0005H8.00534C8.41498 20.0005 8.72823 19.6872 8.72823 19.2776C8.72823 18.8679 8.41498 18.5547 8.00534 18.5547Z" fill="url(#paint2_linear)"/>
<defs>
<linearGradient id="paint0_linear" x1="7.16242" y1="-0.60241" x2="7.16242" y2="20.4603" gradientUnits="userSpaceOnUse">
<stop stop-color="#00EFD1"/>
<stop offset="1" stop-color="#00ACEA"/>
</linearGradient>
<linearGradient id="paint1_linear" x1="7.16234" y1="-0.603116" x2="7.16234" y2="20.4596" gradientUnits="userSpaceOnUse">
<stop stop-color="#00EFD1"/>
<stop offset="1" stop-color="#00ACEA"/>
</linearGradient>
<linearGradient id="paint2_linear" x1="7.16197" y1="-0.601939" x2="7.16197" y2="20.4608" gradientUnits="userSpaceOnUse">
<stop stop-color="#00EFD1"/>
<stop offset="1" stop-color="#00ACEA"/>
</linearGradient>
</defs>
</svg>
