<svg width="120" height="120" viewBox="0 0 120 120" fill="none" xmlns="http://www.w3.org/2000/svg">
<path d="M30.5156 20.437C30.5156 14.5929 25.773 9.89014 19.9688 9.89014C14.1984 9.89014 9.42187 14.6552 9.42187 20.437C9.42187 22.4055 9.98414 24.2337 10.9685 25.8508L9 34.9214L16.3828 30.3508C17.5076 30.7727 18.7029 30.9839 19.9688 30.9839C25.946 30.9839 30.5156 26.1987 30.5156 20.437ZM111 85.0772L103.617 89.6477C102.492 89.2258 101.297 89.0147 100.031 89.0147C94.0535 89.0147 89.4839 93.7999 89.4839 99.5615C89.4839 105.406 94.2265 110.108 100.031 110.108C105.801 110.108 110.578 105.343 110.578 99.5615C110.578 97.593 110.015 95.7649 109.031 94.1477L111 85.0772ZM59.9998 24.843C40.6158 24.843 24.8435 40.6153 24.8435 59.9993C24.8435 79.3833 40.6158 95.1555 59.9998 95.1555C79.3838 95.1555 95.156 79.3833 95.156 59.9993C95.156 40.6153 79.3838 24.843 59.9998 24.843Z" fill="url(#paint0_linear)"/>
<path d="M79.5234 109.172C73.2654 111.703 66.5857 112.969 59.7656 112.969C30.6562 112.969 7.03125 89.3438 7.03125 60.2344C7.03125 49.4065 10.1953 39.1406 16.383 30.3516C14.0515 29.5355 12.0164 27.7716 10.9688 25.8516C3.79664 35.906 0 47.7185 0 60.2344C0 93.2109 26.7891 120 59.7656 120C67.4998 120 75.0232 118.523 82.1953 115.641C83.9531 114.938 84.8672 112.898 84.094 111.07C83.3906 109.242 81.3516 108.398 79.5234 109.172ZM60.2344 0C52.5002 0 44.9768 1.4768 37.8047 4.35938C36.0469 5.06227 35.1328 7.10156 35.906 8.92992C36.6094 10.6877 38.6482 11.6018 40.4766 10.8281C46.7346 8.29688 53.4143 7.03125 60.2344 7.03125C89.3438 7.03125 112.969 30.6562 112.969 59.7656C112.969 70.5935 109.805 80.8594 103.617 89.6484C105.949 90.4645 107.984 92.2284 109.031 94.1484C116.203 84.0938 120 72.2812 120 59.7656C120 26.7891 93.2109 0 60.2344 0ZM60 21.3281C38.6796 21.3281 21.3281 38.6763 21.3281 60C21.3281 81.3237 38.6796 98.6719 60 98.6719C81.3204 98.6719 98.6719 81.3237 98.6719 60C98.6719 38.6763 81.3204 21.3281 60 21.3281ZM28.7147 63.5156H42.4941C42.8834 73.0922 44.8613 82.616 48.2946 89.3365C37.6917 85.0901 30.037 75.2698 28.7147 63.5156ZM42.4941 56.4844H28.7147C30.0368 44.7302 37.6917 34.9099 48.2944 30.6635C44.8613 37.384 42.8831 46.9078 42.4941 56.4844ZM60 91.6406C55.9751 91.6406 50.3077 80.7487 49.594 63.5156H70.4062C69.6923 80.7487 64.0249 91.6406 60 91.6406ZM49.594 56.4844C50.3077 39.2513 55.9751 28.3594 60 28.3594C64.0249 28.3594 69.6923 39.2513 70.406 56.4844H49.594ZM71.7056 89.3365C75.1387 82.616 77.1169 73.0922 77.5062 63.5156H91.2855C89.963 75.2698 82.3083 85.0901 71.7056 89.3365ZM77.5059 56.4844C77.1166 46.9078 75.1387 37.384 71.7054 30.6635C82.308 34.9099 89.963 44.7302 91.2851 56.4844H77.5059Z" fill="url(#paint1_linear)"/>
<defs>
<linearGradient id="paint0_linear" x1="59.9998" y1="110.108" x2="59.9998" y2="9.89014" gradientUnits="userSpaceOnUse">
<stop stop-color="#00B59C"/>
<stop offset="1" stop-color="#9CFFAC"/>
</linearGradient>
<linearGradient id="paint1_linear" x1="60" y1="120" x2="60" y2="0" gradientUnits="userSpaceOnUse">
<stop stop-color="#C3FFE8"/>
<stop offset="0.9973" stop-color="#F0FFF4"/>
</linearGradient>
</defs>
</svg>
