<svg width="509" height="301" viewBox="0 0 509 301" fill="none" xmlns="http://www.w3.org/2000/svg">
<path d="M42.0376 81.1821L44.0339 78.0968C43.4419 76.4614 42.7581 74.8607 41.9858 73.3023L40.6949 74.3449L41.717 72.7652C40.7429 70.8477 39.9764 69.6395 39.9764 69.6395C39.9764 69.6395 35.9726 75.9489 34.6349 82.6291L37.1967 86.5883L34.3607 84.2976C34.2597 85.0758 34.2077 85.8595 34.2051 86.6442C34.2051 94.5558 36.789 100.969 39.9764 100.969C43.1638 100.969 45.7477 94.5558 45.7477 86.6442C45.6879 84.1271 45.2426 81.634 44.4274 79.2519L42.0376 81.1821Z" fill="#0072B1"/>
<path d="M56.169 88.0408L59.7624 87.2708C60.5002 85.6958 61.1485 84.0804 61.7044 82.4323L60.0542 82.2567L61.894 81.8625C62.5611 79.8178 62.8734 78.4215 62.8734 78.4215C62.8734 78.4215 55.5809 80.0518 49.9114 83.8295L48.9233 88.4406L48.5377 84.8155C47.916 85.2943 47.3251 85.8117 46.7683 86.3647C41.174 91.9591 38.466 98.3213 40.7198 100.575C42.9737 102.829 49.3359 100.121 54.9302 94.5266C56.6678 92.7044 58.1158 90.6267 59.2238 88.3658L56.169 88.0408Z" fill="#0072B1"/>
<path d="M57.4786 118.655C49.1461 119.188 40.0669 118.624 30.4082 118.655V96.541C38.9191 97.866 47.9953 97.7299 57.4786 96.541V118.655Z" fill="#3F3D56"/>
<path d="M401.672 125.596H289.174V271.492H401.672V125.596Z" fill="#E6E6E6"/>
<path d="M60.0741 133.213H54.2148V271.492H60.0741V133.213Z" fill="#E6E6E6"/>
<path d="M401.671 115.635H0.896484V127.353H401.671V115.635Z" fill="#E6E6E6"/>
<path d="M63.0037 127.353H51.2852V139.072H63.0037V127.353Z" fill="#E6E6E6"/>
<path d="M354.285 134.091L353.626 136.728H337.22L336.231 134.091H294.447V161.044H396.399V134.091H354.285Z" fill="#3F3D56"/>
<path d="M354.285 168.075L353.626 170.712H337.22L336.231 168.075H294.447V195.028H396.399V168.075H354.285Z" fill="#3F3D56"/>
<path d="M354.285 202.059L353.626 204.696H337.22L336.231 202.059H294.447V229.012H396.399V202.059H354.285Z" fill="#3F3D56"/>
<path d="M354.285 236.043L353.626 238.68H337.22L336.231 236.043H294.447V262.996H396.399V236.043H354.285Z" fill="#3F3D56"/>
<path d="M218.275 113.877H183.705L184.877 98.6428H217.103L218.275 113.877Z" fill="#E6E6E6"/>
<path d="M220.62 112.119H181.949V115.635H220.62V112.119Z" fill="#E6E6E6"/>
<path d="M267.199 0.5H135.072C134.14 0.5 133.246 0.870384 132.586 1.52968C131.927 2.18898 131.557 3.08319 131.557 4.01557V84.5806H270.714V4.01557C270.714 3.08319 270.344 2.18898 269.685 1.52968C269.025 0.870384 268.131 0.500002 267.199 0.5Z" fill="#3F3D56"/>
<path d="M131.557 84.5807V97.7641C131.557 98.6965 131.927 99.5906 132.586 100.25C133.246 100.909 134.14 101.28 135.072 101.28H267.199C268.131 101.28 269.025 100.909 269.685 100.25C270.344 99.5906 270.714 98.6965 270.714 97.7641V84.5807H131.557Z" fill="#E6E6E6"/>
<path d="M263.978 7.82397H138.59V78.1353H263.978V7.82397Z" fill="white"/>
<path d="M201.285 96.2992C203.227 96.2992 204.801 94.7252 204.801 92.7836C204.801 90.842 203.227 89.2681 201.285 89.2681C199.344 89.2681 197.77 90.842 197.77 92.7836C197.77 94.7252 199.344 96.2992 201.285 96.2992Z" fill="#3F3D56"/>
<path d="M498.642 270.613C485.837 271.432 471.884 270.565 457.041 270.613V236.629C470.12 238.665 484.068 238.456 498.642 236.629V270.613Z" fill="#3F3D56"/>
<path d="M479.307 239.68H475.791L476.963 171.005H478.135L479.307 239.68Z" fill="#3F3D56"/>
<path d="M495.127 240.145H491.611L492.783 171.469H493.955L495.127 240.145Z" fill="#3F3D56"/>
<path d="M465.244 240.145H461.729L462.901 171.469H464.072L465.244 240.145Z" fill="#3F3D56"/>
<path d="M482.236 127.06L487.911 118.29C486.228 113.641 484.284 109.09 482.089 104.66L478.419 107.624L481.325 103.134C478.556 97.6828 476.377 94.2484 476.377 94.2484C476.377 94.2484 464.995 112.184 461.193 131.174L468.475 142.428L460.413 135.917C460.126 138.129 459.978 140.357 459.971 142.587C459.971 165.078 467.316 183.309 476.377 183.309C485.437 183.309 492.783 165.078 492.783 142.587C492.783 135.615 491.205 128.321 489.029 121.573L482.236 127.06Z" fill="#E6E6E6"/>
<path d="M498.056 128.232L503.731 119.462C502.048 114.813 500.105 110.262 497.909 105.832L494.239 108.796L497.145 104.306C494.376 98.8548 492.197 95.4204 492.197 95.4204C492.197 95.4204 480.815 113.356 477.013 132.346L484.295 143.6L476.233 137.089C475.946 139.301 475.798 141.529 475.791 143.759C475.791 166.25 483.136 184.481 492.197 184.481C501.258 184.481 508.603 166.25 508.603 143.759C508.603 136.787 507.026 129.493 504.85 122.745L498.056 128.232Z" fill="#0072B1"/>
<path d="M468.173 128.232L473.849 119.462C472.166 114.813 470.222 110.262 468.026 105.832L464.357 108.796L467.262 104.306C464.493 98.8548 462.314 95.4204 462.314 95.4204C462.314 95.4204 450.933 113.356 447.13 132.346L454.412 143.6L446.351 137.089C446.063 139.301 445.916 141.529 445.908 143.759C445.908 166.25 453.253 184.481 462.314 184.481C471.375 184.481 478.72 166.25 478.72 143.759C478.72 136.787 477.143 129.493 474.967 122.745L468.173 128.232Z" fill="#0072B1"/>
<path d="M213.059 27.6713H179.25V29.612H213.059V27.6713Z" fill="#3F3D56"/>
<path d="M231.458 34.7505H179.25V36.6912H231.458V34.7505Z" fill="#0072B1"/>
<path d="M221.798 41.4203H179.25V43.361H221.798V41.4203Z" fill="#0072B1"/>
<path d="M204.089 48.0647H179.25V50.0055H204.089V48.0647Z" fill="#3F3D56"/>
<path d="M216.738 54.7094H179.25V56.6501H216.738V54.7094Z" fill="#3F3D56"/>
<path d="M167.982 26.9812H163.842V31.121H167.982V26.9812Z" fill="#3F3D56"/>
<path d="M167.982 33.651H163.842V37.7908H167.982V33.651Z" fill="#0072B1"/>
<path d="M167.982 40.3207H163.842V44.4605H167.982V40.3207Z" fill="#0072B1"/>
<path d="M167.982 46.9905H163.842V51.1303H167.982V46.9905Z" fill="#3F3D56"/>
<path d="M167.982 53.66H163.842V57.7999H167.982V53.66Z" fill="#3F3D56"/>
<path d="M258.169 23.9972H240.428C239.217 16.998 239.217 9.84292 240.428 2.84375H258.169C256.17 9.75324 256.17 17.0877 258.169 23.9972Z" fill="#0072B1"/>
<path d="M129.078 66.394L121.779 64.6148C118.994 64.6183 116.243 64.0026 113.725 62.8122C111.207 61.6219 108.985 59.8866 107.22 57.732C105.455 55.5775 104.191 53.0574 103.519 50.3544C102.848 47.6513 102.785 44.8327 103.337 42.1027C103.329 35.5887 105.909 29.3383 110.509 24.7264C115.109 20.1146 121.353 17.5191 127.867 17.5109H127.867C134.381 17.5027 140.632 20.0825 145.243 24.6828C149.855 29.2831 152.451 35.527 152.459 42.0409V42.041C156.597 56.4423 143.636 69.9426 129.078 66.394Z" fill="#2F2E41"/>
<path d="M137.049 68.9619C147.016 68.9619 155.096 60.8821 155.096 50.9151C155.096 40.9481 147.016 32.8683 137.049 32.8683C127.082 32.8683 119.002 40.9481 119.002 50.9151C119.002 60.8821 127.082 68.9619 137.049 68.9619Z" fill="#FFB8B8"/>
<path d="M125.281 60.3307C125.281 60.3307 119.788 79.1621 116.65 80.7314C113.511 82.3007 141.758 84.6546 141.758 84.6546C141.758 84.6546 140.974 66.6078 142.543 65.0385C144.112 63.4692 125.281 60.3307 125.281 60.3307Z" fill="#FFB8B8"/>
<path d="M153.526 176.458C153.526 176.458 188.835 173.32 193.543 185.089C198.251 196.859 190.404 266.692 190.404 266.692H175.496V209.413C175.496 209.413 111.93 191.344 111.93 185.067C111.93 178.79 153.526 176.458 153.526 176.458Z" fill="#2F2E41"/>
<path d="M188.048 263.554L195.895 266.692C195.895 266.692 205.31 265.908 201.387 272.969C200.264 275.019 198.693 276.789 196.791 278.148C194.889 279.506 192.705 280.418 190.402 280.816C190.402 280.816 175.494 286.308 174.709 280.816C173.925 275.323 178.633 264.338 178.633 264.338L188.048 263.554Z" fill="#2F2E41"/>
<path d="M133.91 176.458C133.91 176.458 169.219 173.319 173.927 185.089C178.634 196.859 170.788 266.692 170.788 266.692H155.88V209.413C155.88 209.413 110.758 198.961 110.758 192.684C110.758 189.735 107.683 174.748 113.101 171.591C119.217 168.027 133.91 176.458 133.91 176.458Z" fill="#2F2E41"/>
<path d="M168.435 263.554L176.281 266.692C176.281 266.692 185.697 265.908 181.774 272.969C180.651 275.019 179.08 276.789 177.178 278.148C175.276 279.506 173.092 280.418 170.789 280.816C170.789 280.816 155.881 286.308 155.096 280.816C154.311 275.323 159.019 264.338 159.019 264.338L168.435 263.554Z" fill="#2F2E41"/>
<path d="M117.434 78.3776L141.014 80.9406C144.653 81.3362 148.074 82.8716 150.789 85.3276C153.503 87.7836 155.372 91.0345 156.129 94.6161L165.297 138.011C165.297 138.011 168.436 181.166 162.158 183.52C155.881 185.874 147.25 174.104 135.481 175.673C123.711 177.243 108.41 180.774 108.41 180.774C108.41 180.774 105.981 103.527 105.664 97.209C105.031 84.5783 117.434 78.3776 117.434 78.3776Z" fill="#575A89"/>
<path d="M173.287 178.7L182.968 184.401C182.968 184.401 200.335 181.909 199.793 188.013C199.251 194.118 180.293 192.938 180.293 192.938L168.627 185.75L173.287 178.7Z" fill="#FFB8B8"/>
<path d="M102.021 36.2371C108.459 36.2371 113.678 31.0179 113.678 24.5796C113.678 18.1414 108.459 12.9221 102.021 12.9221C95.5825 12.9221 90.3633 18.1414 90.3633 24.5796C90.3633 31.0179 95.5825 36.2371 102.021 36.2371Z" fill="#2F2E41"/>
<path d="M112.776 18.313C112.774 16.5886 112.39 14.886 111.651 13.328C110.912 11.77 109.836 10.3955 108.502 9.30359C107.167 8.2117 105.607 7.42966 103.933 7.01388C102.26 6.5981 100.515 6.55896 98.8242 6.89927C100.316 6.19442 101.94 5.81434 103.589 5.78417C105.239 5.75401 106.876 6.07445 108.392 6.72428C109.909 7.37412 111.27 8.33854 112.386 9.55374C113.501 10.7689 114.346 12.2072 114.865 13.7734C115.383 15.3396 115.563 16.998 115.392 18.6389C115.222 20.2798 114.705 21.8658 113.875 23.2919C113.046 24.718 111.923 25.9518 110.581 26.9115C109.24 27.8713 107.709 28.5352 106.092 28.8593C108.092 27.917 109.783 26.425 110.966 24.5574C112.15 22.6899 112.777 20.524 112.776 18.313Z" fill="#2F2E41"/>
<path d="M122.778 24.9244L138.494 22.0306L150.58 29.6058C153.552 31.4681 155.927 34.1436 157.424 37.3149C158.921 40.4862 159.477 44.0203 159.026 47.4981L146.921 44.4299L144.21 37.6332L140.982 42.9246L124.103 64.6463L114.626 58.6114L106.178 45.3717L122.778 24.9244Z" fill="#2F2E41"/>
<path d="M135.719 85.0521L143.565 81.1289C143.565 81.1289 160.043 83.4828 163.181 94.4679C166.32 105.453 180.443 181.563 180.443 181.563L167.105 187.84L148.273 141.547L135.719 85.0521Z" fill="#575A89"/>
<path opacity="0.2" d="M142.398 115.928L150.252 146.41L164.178 180.644L163.695 181.83L147.086 146.982L142.398 115.928Z" fill="black"/>
<path d="M83.8026 284.032L81.0332 283.078L107.861 203.39L111.74 204.726L83.8026 284.032Z" fill="#3F3D56"/>
<path d="M186.345 284.032L189.115 283.078L162.286 203.39L158.408 204.726L186.345 284.032Z" fill="#3F3D56"/>
<path d="M129.656 300.49L132.586 300.5L133.496 207.347L129.395 207.332L129.656 300.49Z" fill="#3F3D56"/>
<path d="M77.0224 156.567L85.0584 189.046C86.1837 193.594 88.5268 197.75 91.8359 201.067C95.145 204.384 99.2952 206.737 103.841 207.874H103.841C126.252 213.477 149.716 213.325 172.053 207.434L184.051 204.27C191.023 202.431 196.265 196.444 196.761 189.251C196.962 186.708 196.502 184.157 195.424 181.845C195.378 181.745 195.33 181.646 195.283 181.549C193.718 178.334 191.305 175.609 188.303 173.668C185.301 171.727 181.825 170.644 178.252 170.536L165.542 170.126L119.254 149.619C119.254 149.619 103.334 141.532 90.2468 140.627C81.6037 140.029 74.9415 148.157 77.0224 156.567Z" fill="#0072B1"/>
<path d="M359.191 54.4053H313.488V116.514H359.191V54.4053Z" fill="#E6E6E6"/>
<path d="M353.917 61.5717H318.762V109.347H353.917V61.5717Z" fill="white"/>
<path d="M349.633 74.0741H332.6V76.0148H349.633V74.0741Z" fill="#3F3D56"/>
<path d="M327.189 72.9999H323.049V77.1397H327.189V72.9999Z" fill="#3F3D56"/>
<path d="M349.633 82.2771H332.6V84.2178H349.633V82.2771Z" fill="#3F3D56"/>
<path d="M327.189 81.2028H323.049V85.3426H327.189V81.2028Z" fill="#3F3D56"/>
<path d="M349.633 90.4802H332.6V92.4209H349.633V90.4802Z" fill="#3F3D56"/>
<path d="M327.189 89.4058H323.049V93.5456H327.189V89.4058Z" fill="#3F3D56"/>
<path d="M338.1 57.9209C338.1 56.9501 337.313 56.1631 336.342 56.1631C335.371 56.1631 334.584 56.9501 334.584 57.9209C334.584 58.8917 335.371 59.6787 336.342 59.6787C337.313 59.6787 338.1 58.8917 338.1 57.9209Z" fill="#3F3D56"/>
</svg>
