<svg width="14" height="14" viewBox="0 0 14 14" fill="none" xmlns="http://www.w3.org/2000/svg">
<path d="M12.75 0.75H1.25C0.973437 0.75 0.75 0.973437 0.75 1.25V12.75C0.75 13.0266 0.973437 13.25 1.25 13.25H12.75C13.0266 13.25 13.25 13.0266 13.25 12.75V1.25C13.25 0.973437 13.0266 0.75 12.75 0.75ZM4.45781 11.4016H2.60313V5.43594H4.45781V11.4016ZM3.53125 4.62031C3.31863 4.62031 3.11079 4.55726 2.93401 4.43914C2.75723 4.32102 2.61944 4.15313 2.53808 3.9567C2.45672 3.76027 2.43543 3.54412 2.47691 3.33559C2.51838 3.12706 2.62077 2.93551 2.77111 2.78517C2.92145 2.63483 3.113 2.53245 3.32153 2.49097C3.53006 2.44949 3.7462 2.47078 3.94263 2.55214C4.13907 2.63351 4.30696 2.77129 4.42508 2.94807C4.5432 3.12486 4.60625 3.3327 4.60625 3.54531C4.60469 4.13906 4.12344 4.62031 3.53125 4.62031ZM11.4016 11.4016H9.54844V8.5C9.54844 7.80781 9.53594 6.91875 8.58438 6.91875C7.62031 6.91875 7.47188 7.67188 7.47188 8.45V11.4016H5.62031V5.43594H7.39844V6.25156H7.42344C7.67031 5.78281 8.275 5.2875 9.17813 5.2875C11.0563 5.2875 11.4016 6.52344 11.4016 8.12969V11.4016Z" fill="#0072B1"/>
</svg>
