<svg width="14" height="16" viewBox="0 0 14 16" fill="none" xmlns="http://www.w3.org/2000/svg">
<path d="M13.0223 4.08184C12.6913 3.31874 12.2142 2.62781 11.6178 2.04805C11.0194 1.46305 10.314 0.998735 9.54004 0.680469C8.73496 0.346484 7.88066 0.177734 7 0.177734C6.11934 0.177734 5.26504 0.346484 4.45996 0.678711C3.68125 1.00039 2.9834 1.46094 2.38223 2.04629C1.78619 2.62638 1.30911 3.31722 0.977734 4.08008C0.634961 4.87109 0.460938 5.71133 0.460938 6.57617C0.460938 7.81719 0.758008 9.05293 1.3416 10.2447C1.81094 11.2027 2.4666 12.1361 3.29277 13.0238C4.7043 14.5391 6.18437 15.4654 6.60449 15.7133C6.72374 15.7837 6.85975 15.8207 6.99824 15.8205C7.13535 15.8205 7.2707 15.7854 7.39199 15.7133C7.81211 15.4654 9.29219 14.5391 10.7037 13.0238C11.5299 12.1379 12.1855 11.2027 12.6549 10.2447C13.242 9.05469 13.5391 7.8207 13.5391 6.57793C13.5391 5.71309 13.365 4.87285 13.0223 4.08184ZM7 14.4723C5.8416 13.7357 1.72656 10.8195 1.72656 6.57793C1.72656 5.20859 2.27324 3.92188 3.26641 2.95156C4.26309 1.97949 5.58848 1.44336 7 1.44336C8.41152 1.44336 9.73691 1.97949 10.7336 2.95332C11.7268 3.92187 12.2734 5.20859 12.2734 6.57793C12.2734 10.8195 8.1584 13.7357 7 14.4723ZM7 3.62305C5.29141 3.62305 3.90625 5.0082 3.90625 6.7168C3.90625 8.42539 5.29141 9.81055 7 9.81055C8.70859 9.81055 10.0938 8.42539 10.0938 6.7168C10.0938 5.0082 8.70859 3.62305 7 3.62305ZM8.39219 8.10898C8.20959 8.29211 7.99259 8.43732 7.75366 8.53627C7.51474 8.63522 7.2586 8.68595 7 8.68555C6.47441 8.68555 5.98047 8.47988 5.60781 8.10898C5.42469 7.92639 5.27948 7.70938 5.18053 7.47046C5.08158 7.23153 5.03085 6.9754 5.03125 6.7168C5.03125 6.19121 5.23691 5.69727 5.60781 5.32461C5.98047 4.95195 6.47441 4.74805 7 4.74805C7.52559 4.74805 8.01953 4.95195 8.39219 5.32461C8.76484 5.69727 8.96875 6.19121 8.96875 6.7168C8.96875 7.24238 8.76484 7.73633 8.39219 8.10898Z" fill="#0072B1"/>
</svg>
