<svg width="503" height="301" viewBox="0 0 503 301" fill="none" xmlns="http://www.w3.org/2000/svg">
<g clip-path="url(#clip0)">
<path d="M385.038 297.108C378.613 291.679 374.711 283.104 375.735 274.756C376.758 266.407 383.096 258.733 391.318 256.96C399.54 255.187 408.912 260.095 411.409 268.126C412.783 252.642 414.367 236.509 422.599 223.323C430.054 211.383 442.964 202.84 456.957 201.311C470.949 199.783 485.681 205.555 494.408 216.599C503.135 227.643 505.271 243.699 499.159 256.379C494.657 265.719 486.362 272.671 477.671 278.326C449.587 296.446 415.904 303.815 382.819 299.076L385.038 297.108Z" fill="#F2F2F2"/>
<path d="M480.57 205.875C469.024 215.279 458.433 225.797 448.948 237.276C434.104 255.179 422.092 275.252 413.331 296.795C412.69 298.367 415.242 299.051 415.876 297.497C430.211 262.485 453.095 231.626 482.436 207.742C483.754 206.669 481.877 204.811 480.57 205.875Z" fill="white"/>
<path d="M162.39 295.633C171.213 288.177 176.573 276.398 175.167 264.932C173.762 253.466 165.056 242.925 153.764 240.49C142.471 238.055 129.598 244.795 126.169 255.826C124.281 234.559 122.106 212.4 110.799 194.289C100.56 177.89 82.8273 166.156 63.6087 164.056C44.3901 161.957 24.1553 169.886 12.1694 185.055C0.183477 200.224 -2.75123 222.276 5.64341 239.691C11.8274 252.521 23.2206 262.068 35.1578 269.836C73.2416 294.617 120.485 304.952 165.437 298.337" fill="#F2F2F2"/>
<path d="M31.1736 170.325C47.0313 183.242 61.5791 197.687 74.6065 213.454C87.636 229.204 99.1071 246.181 108.859 264.147C114.309 274.224 119.206 284.592 123.526 295.204C124.407 297.362 120.902 298.302 120.031 296.167C112.378 277.459 102.911 259.546 91.7637 242.685C80.671 225.885 67.9748 210.201 53.8534 195.852C45.8663 187.741 37.4393 180.075 28.6104 172.888C26.8007 171.415 29.3788 168.864 31.1735 170.325L31.1736 170.325Z" fill="white"/>
<path d="M361.048 299.843H150.527V83.8432C150.527 37.8875 187.915 0.5 233.87 0.5H277.705C323.661 0.5 361.048 37.8875 361.048 83.8432V299.843Z" fill="#F2F2F2"/>
<path d="M317.214 299.843H150.528V83.8431C150.482 66.234 156.058 49.0699 166.444 34.8498C166.827 34.328 167.209 33.8129 167.603 33.3034C172.626 26.7144 178.605 20.9116 185.341 16.0865C185.721 15.8097 186.103 15.5376 186.491 15.2656C192.127 11.3651 198.224 8.1766 204.643 5.77254C205.024 5.62807 205.412 5.48331 205.8 5.34446C211.606 3.27275 217.623 1.85364 223.743 1.11333C224.122 1.0615 224.512 1.02095 224.901 0.980398C230.864 0.342797 236.878 0.342797 242.842 0.980398C243.23 1.02095 243.62 1.0615 244.003 1.11388C250.121 1.85424 256.137 3.27318 261.941 5.34449C262.329 5.48333 262.717 5.62808 263.1 5.77284C269.439 8.14657 275.465 11.2875 281.041 15.1256C281.428 15.3918 281.816 15.6638 282.198 15.9359C285.974 18.631 289.52 21.6335 292.801 24.9127C295.432 27.543 297.884 30.3468 300.14 33.3051C300.533 33.8129 300.915 34.328 301.297 34.849C311.684 49.0692 317.26 66.2336 317.214 83.8431V299.843Z" fill="#CCCCCC"/>
<path d="M303.66 203.234C308.757 203.234 312.888 199.103 312.888 194.006C312.888 188.909 308.757 184.778 303.66 184.778C298.563 184.778 294.432 188.909 294.432 194.006C294.432 199.103 298.563 203.234 303.66 203.234Z" fill="#0072B1"/>
<path d="M343.803 293.374H336.731L333.367 266.099L343.804 266.1L343.803 293.374Z" fill="#FFB8B8"/>
<path d="M331.68 291.353H345.317V299.939H323.094C323.094 298.812 323.316 297.695 323.747 296.654C324.179 295.612 324.811 294.665 325.609 293.868C326.406 293.071 327.352 292.438 328.394 292.007C329.436 291.575 330.553 291.353 331.68 291.353Z" fill="#2F2E41"/>
<path d="M378.984 293.374H371.913L368.549 266.099L378.985 266.1L378.984 293.374Z" fill="#FFB8B8"/>
<path d="M366.862 291.353H380.499V299.939H358.275C358.275 298.812 358.498 297.695 358.929 296.654C359.361 295.612 359.993 294.665 360.79 293.868C361.588 293.071 362.534 292.438 363.576 292.007C364.618 291.575 365.734 291.353 366.862 291.353Z" fill="#2F2E41"/>
<path d="M308.329 195.834C307.82 195.085 307.482 194.233 307.338 193.338C307.195 192.444 307.249 191.529 307.497 190.658C307.745 189.787 308.181 188.981 308.774 188.296C309.367 187.612 310.103 187.066 310.931 186.696L334.968 120.445L346.796 126.9L319.35 190.212C319.878 191.643 319.863 193.218 319.308 194.638C318.753 196.058 317.695 197.225 316.337 197.918C314.978 198.611 313.413 198.782 311.937 198.398C310.461 198.014 309.177 197.102 308.329 195.834Z" fill="#FFB8B8"/>
<path d="M375.373 208.283C374.587 207.833 373.91 207.215 373.388 206.475C372.867 205.734 372.514 204.888 372.355 203.996C372.196 203.104 372.234 202.189 372.467 201.313C372.701 200.438 373.123 199.625 373.704 198.93L366.258 128.847L379.718 129.462L382.813 198.398C383.915 199.452 384.592 200.874 384.716 202.394C384.839 203.914 384.401 205.427 383.484 206.645C382.567 207.864 381.235 208.704 379.74 209.005C378.245 209.307 376.691 209.05 375.373 208.283Z" fill="#FFB8B8"/>
<path d="M353.898 108.173C361.722 108.173 368.064 101.831 368.064 94.0074C368.064 86.1837 361.722 79.8413 353.898 79.8413C346.075 79.8413 339.732 86.1837 339.732 94.0074C339.732 101.831 346.075 108.173 353.898 108.173Z" fill="#FFB8B8"/>
<path d="M375.282 192.344H332.574L332.626 192.012C332.702 191.515 340.237 142.157 334.68 126.009C334.122 124.422 334.171 122.685 334.818 121.132C335.464 119.579 336.662 118.32 338.181 117.597H338.181C346.124 113.857 361.371 109.251 374.24 120.429C376.134 122.101 377.613 124.19 378.56 126.532C379.507 128.874 379.896 131.405 379.696 133.923L375.282 192.344Z" fill="#0072B1"/>
<path d="M340.776 149.451L321.549 145.55L330.562 124.193C331.101 122.124 332.439 120.354 334.281 119.27C336.124 118.187 338.322 117.878 340.392 118.413C342.461 118.947 344.235 120.28 345.323 122.121C346.411 123.961 346.725 126.157 346.195 128.229L340.776 149.451Z" fill="#0072B1"/>
<path d="M365.402 156.694L364.246 130.196C363.37 125.215 366.221 120.506 370.606 119.737C374.993 118.97 379.276 122.425 380.157 127.442L384.502 152.202L365.402 156.694Z" fill="#0072B1"/>
<path d="M373.861 189.172C380.733 215.344 381.483 248.619 379.629 284.916L370.401 283.762L353.674 214.55L344.446 284.916L334.064 284.339C330.963 246.255 327.943 213.561 332.911 192.056L373.861 189.172Z" fill="#2F2E41"/>
<path d="M363.234 104.955C360.592 107.77 355.684 106.259 355.339 102.413C355.312 102.115 355.314 101.814 355.345 101.516C355.523 99.8125 356.507 98.2659 356.271 96.4672C356.218 96.0196 356.051 95.593 355.787 95.2278C353.681 92.4078 348.737 96.4891 346.75 93.9363C345.531 92.3709 346.964 89.9063 346.029 88.1567C344.794 85.8476 341.138 86.9867 338.846 85.7221C336.295 84.3151 336.447 80.4013 338.126 78.0207C340.174 75.1174 343.765 73.5683 347.311 73.345C350.856 73.1217 354.378 74.0802 357.688 75.3703C361.449 76.8361 365.179 78.8618 367.493 82.169C370.308 86.1909 370.579 91.598 369.171 96.3009C368.315 99.1617 365.393 102.656 363.234 104.955Z" fill="#2F2E41"/>
<path d="M485.33 300.214H59.5051C59.3233 300.214 59.1491 300.141 59.0208 300.013C58.8924 299.884 58.8203 299.709 58.8203 299.528C58.8203 299.346 58.8924 299.172 59.0208 299.043C59.1491 298.914 59.3233 298.841 59.5051 298.841H485.33C485.512 298.841 485.686 298.914 485.815 299.043C485.943 299.172 486.015 299.346 486.015 299.528C486.015 299.709 485.943 299.884 485.815 300.013C485.686 300.141 485.512 300.214 485.33 300.214Z" fill="#3F3D56"/>
<path d="M271.36 237.264H196.38C195.392 237.269 194.443 236.883 193.74 236.189C193.037 235.495 192.638 234.551 192.631 233.564V66.2029C192.638 65.2154 193.037 64.2713 193.74 63.5777C194.443 62.884 195.392 62.4974 196.38 62.5027H271.36C272.347 62.4974 273.297 62.884 273.999 63.5777C274.702 64.2713 275.101 65.2154 275.109 66.2029V233.564C275.101 234.551 274.702 235.495 273.999 236.189C273.297 236.883 272.347 237.269 271.36 237.264Z" fill="white"/>
<path d="M275.109 116.655H192.631V117.809H275.109V116.655Z" fill="#CCCCCC"/>
<path d="M275.398 182.471H192.92V183.624H275.398V182.471Z" fill="#CCCCCC"/>
<path d="M219.739 62.5027H218.586V237.841H219.739V62.5027Z" fill="#CCCCCC"/>
<path d="M248.577 62.5027H247.424V237.841H248.577V62.5027Z" fill="#CCCCCC"/>
</g>
<defs>
<clipPath id="clip0">
<rect width="501.789" height="300" fill="white" transform="translate(0.855469 0.5)"/>
</clipPath>
</defs>
</svg>
