<svg width="14" height="14" viewBox="0 0 14 14" fill="none" xmlns="http://www.w3.org/2000/svg">
<path d="M12.5628 10.4365H11.4644C11.3894 10.4365 11.3191 10.4694 11.2722 10.5272C11.1628 10.66 11.0457 10.7881 10.9222 10.91C10.4174 11.4153 9.81936 11.8181 9.16128 12.0959C8.4795 12.3839 7.7467 12.5316 7.0066 12.5303C6.25816 12.5303 5.53316 12.3834 4.85191 12.0959C4.19383 11.8181 3.59583 11.4153 3.09097 10.91C2.58522 10.4063 2.18194 9.80937 1.90347 9.15217C1.61441 8.47092 1.4691 7.74748 1.4691 6.99905C1.4691 6.25061 1.61597 5.52717 1.90347 4.84592C2.1816 4.18811 2.5816 3.59592 3.09097 3.08811C3.60035 2.5803 4.19254 2.1803 4.85191 1.90217C5.53316 1.61467 6.25816 1.4678 7.0066 1.4678C7.75504 1.4678 8.48003 1.61311 9.16128 1.90217C9.82066 2.1803 10.4128 2.5803 10.9222 3.08811C11.0457 3.21155 11.1613 3.33967 11.2722 3.47092C11.3191 3.52873 11.391 3.56155 11.4644 3.56155H12.5628C12.6613 3.56155 12.7222 3.45217 12.6675 3.36936C11.4691 1.50686 9.37222 0.274047 6.98941 0.280297C3.24566 0.289672 0.244098 3.32874 0.281598 7.0678C0.319098 10.7475 3.31597 13.7178 7.0066 13.7178C9.38316 13.7178 11.4707 12.4865 12.6675 10.6287C12.7207 10.5459 12.6613 10.4365 12.5628 10.4365ZM13.9519 6.90061L11.7347 5.15061C11.6519 5.08498 11.5316 5.14436 11.5316 5.24905V6.43655H6.62535C6.5566 6.43655 6.50035 6.4928 6.50035 6.56155V7.43655C6.50035 7.5053 6.5566 7.56155 6.62535 7.56155H11.5316V8.74905C11.5316 8.85373 11.6535 8.91311 11.7347 8.84748L13.9519 7.09748C13.9669 7.08579 13.9789 7.07085 13.9872 7.0538C13.9956 7.03674 13.9999 7.01802 13.9999 6.99905C13.9999 6.98008 13.9956 6.96135 13.9872 6.9443C13.9789 6.92724 13.9669 6.9123 13.9519 6.90061Z" fill="#262626"/>
</svg>
