<svg width="16" height="20" viewBox="0 0 16 20" fill="none" xmlns="http://www.w3.org/2000/svg">
<path d="M11.1328 4.49219L12.8906 4.10156C12.8906 3.94922 12.832 3.79688 12.7148 3.69145L9.19918 0.17582C9.09375 0.0585938 8.94141 0 8.78906 0L8.13801 2.92969H1.75781V15.8984H11.1328V4.49219ZM14.6484 17.6562H12.8906L3.51562 16.4844L2.34375 18.2422L1.75781 20H13.4766C14.4493 20 15.2344 19.2149 15.2344 18.2422C15.2344 17.9186 14.972 17.6562 14.6484 17.6562Z" fill="url(#paint0_linear)"/>
<path d="M9.375 4.10156C9.05141 4.10156 8.78906 3.83922 8.78906 3.51562V0H0.585938C0.257773 0 0 0.257773 0 0.585938V18.2422C0 19.2149 0.785117 20 1.75781 20C2.73051 20 3.51562 19.2149 3.51562 18.2422C3.51562 17.9186 3.77797 17.6562 4.10156 17.6562H12.8906V4.10156H9.375ZM2.92969 3.51562H6.44531C6.77348 3.51562 7.03125 3.7734 7.03125 4.10156C7.03125 4.42973 6.77348 4.6875 6.44531 4.6875H2.92969C2.60152 4.6875 2.34375 4.42973 2.34375 4.10156C2.34375 3.7734 2.60152 3.51562 2.92969 3.51562ZM2.92969 7.10938C3.25785 7.10938 3.51562 7.36715 3.51562 7.69531C3.51562 8.02348 3.25785 8.28125 2.92969 8.28125C2.60152 8.28125 2.34375 8.02348 2.34375 7.69531C2.34375 7.36715 2.60152 7.10938 2.92969 7.10938ZM2.92969 9.45312C3.25785 9.45312 3.51562 9.7109 3.51562 10.0391C3.51562 10.3672 3.25785 10.625 2.92969 10.625C2.60152 10.625 2.34375 10.3672 2.34375 10.0391C2.34375 9.7109 2.60152 9.45312 2.92969 9.45312ZM2.92969 11.7969C3.25785 11.7969 3.51562 12.0546 3.51562 12.3828C3.51562 12.711 3.25785 12.9688 2.92969 12.9688C2.60152 12.9688 2.34375 12.711 2.34375 12.3828C2.34375 12.0546 2.60152 11.7969 2.92969 11.7969ZM9.96094 15.3125H2.92969C2.60152 15.3125 2.34375 15.0547 2.34375 14.7266C2.34375 14.3984 2.60152 14.1406 2.92969 14.1406H9.96094C10.2891 14.1406 10.5469 14.3984 10.5469 14.7266C10.5469 15.0547 10.2891 15.3125 9.96094 15.3125ZM9.96094 12.9688H5.27344C4.94527 12.9688 4.6875 12.711 4.6875 12.3828C4.6875 12.0546 4.94527 11.7969 5.27344 11.7969H9.96094C10.2891 11.7969 10.5469 12.0546 10.5469 12.3828C10.5469 12.711 10.2891 12.9688 9.96094 12.9688ZM9.96094 10.625H5.27344C4.94527 10.625 4.6875 10.3672 4.6875 10.0391C4.6875 9.7109 4.94527 9.45312 5.27344 9.45312H9.96094C10.2891 9.45312 10.5469 9.7109 10.5469 10.0391C10.5469 10.3672 10.2891 10.625 9.96094 10.625ZM9.96094 8.28125H5.27344C4.94527 8.28125 4.6875 8.02348 4.6875 7.69531C4.6875 7.36715 4.94527 7.10938 5.27344 7.10938H9.96094C10.2891 7.10938 10.5469 7.36715 10.5469 7.69531C10.5469 8.02348 10.2891 8.28125 9.96094 8.28125Z" fill="url(#paint1_linear)"/>
<defs>
<linearGradient id="paint0_linear" x1="8.49609" y1="20" x2="8.49609" y2="0" gradientUnits="userSpaceOnUse">
<stop stop-color="#00B59C"/>
<stop offset="1" stop-color="#9CFFAC"/>
</linearGradient>
<linearGradient id="paint1_linear" x1="6.44531" y1="20" x2="6.44531" y2="0" gradientUnits="userSpaceOnUse">
<stop stop-color="#C3FFE8"/>
<stop offset="0.9973" stop-color="#F0FFF4"/>
</linearGradient>
</defs>
</svg>
