<svg width="20" height="20" viewBox="0 0 20 20" fill="none" xmlns="http://www.w3.org/2000/svg">
<g clip-path="url(#clip0)">
<path d="M15.8594 0H4.14063C3.81676 0 3.55469 0.26207 3.55469 0.585938V19.4138C3.55469 19.6507 3.69773 19.8647 3.91633 19.9551C4.13375 20.0461 4.38668 19.9963 4.55492 19.8281L5.3125 19.0705L6.07012 19.8281C6.29899 20.057 6.66981 20.057 6.89867 19.8281L7.65625 19.0705L8.41387 19.8281C8.64274 20.057 9.01356 20.057 9.24242 19.8281L10 19.0705L10.7576 19.8281C10.9865 20.057 11.3573 20.057 11.5862 19.8281L12.3438 19.0705L13.1014 19.8281C13.3302 20.057 13.7011 20.057 13.9299 19.8281L14.6875 19.0705L15.4451 19.8281C15.6156 19.9986 15.8707 20.0447 16.0837 19.9552C16.3023 19.8648 16.4454 19.6507 16.4454 19.4139V0.585938C16.4453 0.26207 16.1832 0 15.8594 0Z" fill="url(#paint0_linear)"/>
<path d="M10 5.9375C9.67727 5.9375 9.41406 5.67484 9.41406 5.35156C9.41406 5.02828 9.67727 4.76562 10 4.76562C10.3227 4.76562 10.5859 5.02828 10.5859 5.35156C10.5859 5.67543 10.848 5.9375 11.1719 5.9375C11.4957 5.9375 11.7578 5.67543 11.7578 5.35156C11.7578 4.58867 11.2666 3.94437 10.5859 3.70168V3.00781C10.5859 2.68395 10.3239 2.42188 10 2.42188C9.67613 2.42188 9.41406 2.68395 9.41406 3.00781V3.70168C8.73344 3.94437 8.24219 4.58867 8.24219 5.35156C8.24219 6.32086 9.0307 7.10938 10 7.10938C10.3227 7.10938 10.5859 7.37203 10.5859 7.69531C10.5859 8.01859 10.3227 8.28125 10 8.28125C9.67727 8.28125 9.41406 8.01859 9.41406 7.69531C9.41406 7.37145 9.15199 7.10938 8.82812 7.10938C8.50426 7.10938 8.24219 7.37145 8.24219 7.69531C8.24219 8.4582 8.73344 9.1025 9.41406 9.3452V10.0391C9.41406 10.3629 9.67613 10.625 10 10.625C10.3239 10.625 10.5859 10.3629 10.5859 10.0391V9.3452C11.2666 9.10254 11.7578 8.4582 11.7578 7.69531C11.7578 6.72602 10.9693 5.9375 10 5.9375ZM10 11.7969H6.48438C6.16051 11.7969 5.89844 12.0589 5.89844 12.3828C5.89844 12.7067 6.16051 12.9688 6.48438 12.9688H10C10.3239 12.9688 10.5859 12.7067 10.5859 12.3828C10.5859 12.0589 10.3239 11.7969 10 11.7969ZM10 14.1406H6.48438C6.16051 14.1406 5.89844 14.4027 5.89844 14.7266C5.89844 15.0504 6.16051 15.3125 6.48438 15.3125H10C10.3239 15.3125 10.5859 15.0504 10.5859 14.7266C10.5859 14.4027 10.3239 14.1406 10 14.1406ZM12.3438 12.9688H13.5156C13.8395 12.9688 14.1016 12.7067 14.1016 12.3828C14.1016 12.0589 13.8395 11.7969 13.5156 11.7969H12.3438C12.0199 11.7969 11.7578 12.0589 11.7578 12.3828C11.7578 12.7067 12.0199 12.9688 12.3438 12.9688ZM13.5156 14.1406H12.3438C12.0199 14.1406 11.7578 14.4027 11.7578 14.7266C11.7578 15.0504 12.0199 15.3125 12.3438 15.3125H13.5156C13.8395 15.3125 14.1016 15.0504 14.1016 14.7266C14.1016 14.4027 13.8395 14.1406 13.5156 14.1406Z" fill="url(#paint1_linear)"/>
</g>
<defs>
<linearGradient id="paint0_linear" x1="10" y1="20" x2="10" y2="0" gradientUnits="userSpaceOnUse">
<stop stop-color="#00B59C"/>
<stop offset="1" stop-color="#9CFFAC"/>
</linearGradient>
<linearGradient id="paint1_linear" x1="10" y1="15.3125" x2="10" y2="2.42191" gradientUnits="userSpaceOnUse">
<stop stop-color="#C3FFE8"/>
<stop offset="0.9973" stop-color="#F0FFF4"/>
</linearGradient>
<clipPath id="clip0">
<rect width="20" height="20" fill="white"/>
</clipPath>
</defs>
</svg>
