<svg width="21" height="21" viewBox="0 0 21 21" fill="none" xmlns="http://www.w3.org/2000/svg">
<g clip-path="url(#clip0)">
<path d="M19.5312 3.02344H0.703125C0.374961 3.02344 0.117188 3.28121 0.117188 3.60938V17.0859L7.77344 11.8125L12.4609 17.6719L14.8047 15.3281L19.9531 18.0938C20.0469 17.9766 20.1172 17.8359 20.1172 17.6719V3.60938C20.1172 3.28121 19.8594 3.02344 19.5312 3.02344Z" fill="url(#paint0_linear)"/>
<path d="M13.6328 10.0547C14.6021 10.0547 15.3906 9.26617 15.3906 8.29688C15.3906 7.32758 14.6021 6.53906 13.6328 6.53906C12.6635 6.53906 11.875 7.32758 11.875 8.29688C11.875 9.26617 12.6635 10.0547 13.6328 10.0547ZM15.219 13.3987C14.9902 13.1698 14.6192 13.1698 14.3904 13.3987L12.4609 15.3281L8.18238 9.97992C7.96422 9.70723 7.55746 9.68469 7.31051 9.93164L0.117188 17.0859V17.6719C0.117188 18 0.374961 18.2578 0.703125 18.2578H19.5312C19.6953 18.2578 19.8359 18.1875 19.9531 18.0938L15.219 13.3987Z" fill="url(#paint1_linear)"/>
</g>
<defs>
<linearGradient id="paint0_linear" x1="10.1172" y1="18.0938" x2="10.1172" y2="3.02344" gradientUnits="userSpaceOnUse">
<stop stop-color="#FFC2CC"/>
<stop offset="1" stop-color="#FFF2F4"/>
</linearGradient>
<linearGradient id="paint1_linear" x1="10.0352" y1="18.2578" x2="10.0352" y2="6.53906" gradientUnits="userSpaceOnUse">
<stop stop-color="#FD3A84"/>
<stop offset="1" stop-color="#FFA68D"/>
</linearGradient>
<clipPath id="clip0">
<rect width="20" height="20" fill="white" transform="translate(0.117188 0.25)"/>
</clipPath>
</defs>
</svg>
