<svg width="130" height="120" viewBox="0 0 130 120" fill="none" xmlns="http://www.w3.org/2000/svg">
<path d="M111.291 104.722H1.27866C0.939676 104.722 0.614699 104.587 0.375 104.347C0.135301 104.108 0.000442176 103.783 0 103.444V1.27866C0.000444718 0.939672 0.135307 0.614698 0.375005 0.375C0.614703 0.135302 0.939677 0.000443867 1.27866 0H111.291C111.63 0.000443867 111.955 0.135302 112.194 0.375C112.434 0.614698 112.569 0.939672 112.569 1.27866V103.443C112.569 103.782 112.434 104.107 112.194 104.347C111.955 104.587 111.63 104.722 111.291 104.722V104.722Z" fill="#F1F1F1"/>
<path d="M128.634 120H18.6224C18.2834 120 17.9584 119.865 17.7188 119.625C17.4791 119.385 17.3442 119.06 17.3438 118.721V16.5565C17.3442 16.2175 17.4791 15.8925 17.7188 15.6528C17.9584 15.4131 18.2834 15.2783 18.6224 15.2778H128.634C128.973 15.2783 129.298 15.4131 129.538 15.6528C129.778 15.8925 129.913 16.2175 129.913 16.5565V118.721C129.913 119.06 129.778 119.385 129.538 119.625C129.298 119.865 128.973 119.999 128.634 120V120Z" fill="white"/>
<path d="M128.634 120H18.6224C18.2834 120 17.9584 119.865 17.7188 119.625C17.4791 119.385 17.3442 119.06 17.3438 118.721V16.5565C17.3442 16.2175 17.4791 15.8925 17.7188 15.6528C17.9584 15.4131 18.2834 15.2783 18.6224 15.2778H128.634C128.973 15.2783 129.298 15.4131 129.538 15.6528C129.778 15.8925 129.913 16.2175 129.913 16.5565V118.721C129.913 119.06 129.778 119.385 129.538 119.625C129.298 119.865 128.973 119.999 128.634 120V120ZM18.6224 15.7883C18.4192 15.7887 18.2245 15.8696 18.0809 16.0133C17.9372 16.1569 17.8563 16.3517 17.8559 16.5548V118.721C17.8563 118.924 17.9372 119.119 18.0809 119.263C18.2245 119.406 18.4192 119.487 18.6224 119.488H128.634C128.838 119.487 129.032 119.406 129.176 119.263C129.32 119.119 129.4 118.924 129.401 118.721V16.5565C129.4 16.3533 129.32 16.1586 129.176 16.015C129.032 15.8713 128.838 15.7904 128.634 15.79L18.6224 15.7883Z" fill="#E6E6E6"/>
<path d="M108.15 61.0778H39.099C38.76 61.0775 38.435 60.9426 38.1952 60.7029C37.9555 60.4632 37.8207 60.1382 37.8203 59.7992V29.4959C37.8207 29.1569 37.9555 28.8319 38.1952 28.5922C38.435 28.3525 38.76 28.2177 39.099 28.2173H108.15C108.489 28.2177 108.814 28.3525 109.054 28.5922C109.294 28.8319 109.428 29.1569 109.429 29.4959V59.7992C109.428 60.1382 109.294 60.4632 109.054 60.7029C108.814 60.9426 108.489 61.0775 108.15 61.0778Z" fill="#0072B1"/>
<path d="M49.8078 41.1748C49.5779 41.1752 49.3575 41.2669 49.1951 41.4296C49.0326 41.5924 48.9414 41.8129 48.9414 42.0429C48.9414 42.2728 49.0326 42.4934 49.1951 42.6561C49.3575 42.8189 49.5779 42.9105 49.8078 42.911H97.4414C97.6713 42.9105 97.8917 42.8189 98.0542 42.6561C98.2166 42.4934 98.3078 42.2728 98.3078 42.0429C98.3078 41.8129 98.2166 41.5924 98.0542 41.4296C97.8917 41.2669 97.6713 41.1752 97.4414 41.1748H49.8078Z" fill="white"/>
<path d="M49.8078 46.3838C49.5779 46.3842 49.3575 46.4759 49.1951 46.6386C49.0326 46.8014 48.9414 47.0219 48.9414 47.2519C48.9414 47.4818 49.0326 47.7024 49.1951 47.8651C49.3575 48.0279 49.5779 48.1195 49.8078 48.12H74.1257C74.3557 48.1195 74.576 48.0279 74.7385 47.8651C74.9009 47.7024 74.9921 47.4818 74.9921 47.2519C74.9921 47.0219 74.9009 46.8014 74.7385 46.6386C74.576 46.4759 74.3557 46.3842 74.1257 46.3838H49.8078Z" fill="white"/>
<path d="M28.968 72.2471C28.738 72.2475 28.5177 72.3392 28.3552 72.5019C28.1928 72.6647 28.1016 72.8852 28.1016 73.1152C28.1016 73.3451 28.1928 73.5656 28.3552 73.7284C28.5177 73.8911 28.738 73.9828 28.968 73.9832H118.281C118.511 73.9828 118.732 73.8911 118.894 73.7284C119.056 73.5656 119.148 73.3451 119.148 73.1152C119.148 72.8852 119.056 72.6647 118.894 72.5019C118.732 72.3392 118.511 72.2475 118.281 72.2471H28.968Z" fill="#E6E6E6"/>
<path d="M28.968 77.4561C28.738 77.4565 28.5177 77.5481 28.3552 77.7109C28.1928 77.8736 28.1016 78.0942 28.1016 78.3241C28.1016 78.5541 28.1928 78.7746 28.3552 78.9374C28.5177 79.1001 28.738 79.1918 28.968 79.1922H94.9655C95.1954 79.1918 95.4158 79.1001 95.5783 78.9374C95.7407 78.7746 95.8319 78.5541 95.8319 78.3241C95.8319 78.0942 95.7407 77.8736 95.5783 77.7109C95.4158 77.5481 95.1954 77.4565 94.9655 77.4561H28.968Z" fill="#E6E6E6"/>
<path d="M28.968 82.5469C28.738 82.5473 28.5177 82.639 28.3552 82.8017C28.1928 82.9645 28.1016 83.185 28.1016 83.415C28.1016 83.6449 28.1928 83.8655 28.3552 84.0282C28.5177 84.191 28.738 84.2826 28.968 84.2831H118.281C118.511 84.2826 118.732 84.191 118.894 84.0282C119.056 83.8655 119.148 83.6449 119.148 83.415C119.148 83.185 119.056 82.9645 118.894 82.8017C118.732 82.639 118.511 82.5473 118.281 82.5469H28.968Z" fill="#E6E6E6"/>
<path d="M28.968 87.7559C28.738 87.7563 28.5177 87.848 28.3552 88.0107C28.1928 88.1735 28.1016 88.394 28.1016 88.624C28.1016 88.8539 28.1928 89.0744 28.3552 89.2372C28.5177 89.3999 28.738 89.4916 28.968 89.492H94.9655C95.1954 89.4916 95.4158 89.3999 95.5783 89.2372C95.7407 89.0744 95.8319 88.8539 95.8319 88.624C95.8319 88.394 95.7407 88.1735 95.5783 88.0107C95.4158 87.848 95.1954 87.7563 94.9655 87.7559H28.968Z" fill="#E6E6E6"/>
<path d="M117.73 108.022H91.556C91.217 108.022 90.892 107.887 90.6523 107.647C90.4126 107.408 90.2777 107.083 90.2773 106.744V102.55C90.2777 102.211 90.4126 101.886 90.6523 101.646C90.892 101.407 91.217 101.272 91.556 101.271H117.73C118.069 101.272 118.394 101.407 118.634 101.646C118.873 101.886 119.008 102.211 119.009 102.55V106.744C119.008 107.083 118.873 107.408 118.634 107.647C118.394 107.887 118.069 108.022 117.73 108.022Z" fill="#0072B1"/>
</svg>
