<svg width="30" height="30" viewBox="0 0 30 30" fill="none" xmlns="http://www.w3.org/2000/svg">
<path d="M26.4295 9.66797H22.9528C22.8862 7.79238 22.6078 6.04494 22.1514 4.67561C22.0625 4.40912 21.9698 4.16719 21.8745 3.94535C24.2979 4.83703 26.0988 7.02721 26.4295 9.66797ZM19.4531 17.5781C19.3777 17.5781 18.895 17.2798 18.4225 15.8623C18.0223 14.6618 17.7762 13.1106 17.7125 11.4258H21.1938C21.13 13.1106 20.8839 14.6618 20.4838 15.8623C20.0112 17.2798 19.5286 17.5781 19.4531 17.5781ZM17.7125 9.66797C17.7762 7.98316 18.0223 6.43195 18.4225 5.23148C18.895 3.81393 19.3777 3.51562 19.4531 3.51562C19.5286 3.51562 20.0112 3.81393 20.4838 5.23148C20.8839 6.43195 21.13 7.98311 21.1938 9.66797H17.7125ZM17.0283 3.9467C16.3787 5.45455 16.0292 7.55953 15.9535 9.66797H12.4767C12.8073 7.02844 14.6067 4.8392 17.0283 3.9467ZM12.4767 11.4258H15.9534C16.02 13.3014 16.2984 15.0488 16.7549 16.4181C16.8437 16.6846 16.9364 16.9266 17.0318 17.1484C14.6084 16.2567 12.8075 14.0665 12.4767 11.4258ZM21.878 17.1471C22.5276 15.6391 22.8771 13.5342 22.9528 11.4258H26.4296C26.0989 14.0653 24.2996 16.2546 21.878 17.1471ZM19.4531 21.0938C13.6376 21.0938 8.90625 16.3624 8.90625 10.5469C8.90625 4.73133 13.6376 0 19.4531 0C25.2687 0 30 4.73133 30 10.5469C30 16.3624 25.2687 21.0938 19.4531 21.0938ZM19.4531 1.75781C14.6068 1.75781 10.6641 5.70059 10.6641 10.5469C10.6641 15.3932 14.6068 19.3359 19.4531 19.3359C24.2994 19.3359 28.2422 15.3932 28.2422 10.5469C28.2422 5.70059 24.2994 1.75781 19.4531 1.75781ZM3.22113 30C2.3959 30 1.57061 29.6859 0.942363 29.0576C-0.314121 27.8012 -0.314121 25.7566 0.942363 24.5002L6.74285 18.6997C7.08604 18.3564 7.64256 18.3564 7.9858 18.6997L11.3003 22.0142C11.6436 22.3574 11.6436 22.9139 11.3003 23.2571L5.49984 29.0576C4.87166 29.6859 4.04637 30 3.22113 30Z" fill="url(#paint0_linear)"/>
<defs>
<linearGradient id="paint0_linear" x1="0.942364" y1="29.0576" x2="26.9074" y2="3.09258" gradientUnits="userSpaceOnUse">
<stop stop-color="#5558FF"/>
<stop offset="1" stop-color="#00C0FF"/>
</linearGradient>
</defs>
</svg>
