<svg width="30" height="30" viewBox="0 0 30 30" fill="none" xmlns="http://www.w3.org/2000/svg">
<g clip-path="url(#clip0)">
<path d="M17.1375 30H12.8625L11.1422 26.3672L9.69086 25.7652L5.90538 27.1181L2.88185 24.0946L4.23477 20.3091L3.63281 18.8578L0 17.1375V12.8625L3.63281 11.1422L4.23477 9.69086L2.88185 5.90538L5.90538 2.88185L9.69292 4.23569L11.1413 3.63556L12.8625 0H17.1375L18.8587 3.63556L20.3071 4.23569L24.0946 2.88185L27.1181 5.90538L25.7652 9.69086L26.3672 11.1422L30 12.8625V17.1375L26.3672 18.8578L25.7652 20.3091L27.1181 24.0946L24.0946 27.1181L20.3091 25.7652L18.8578 26.3672L17.1375 30Z" fill="#FFCB5A"/>
<path d="M18.7491 20.6235H11.2491V14.061H7.33594L14.9991 5.12109L22.6623 14.061H18.7491V20.6235Z" fill="white"/>
<path d="M16.875 22.5H18.75V24.375H16.875V22.5Z" fill="#FBA61F"/>
<path d="M11.25 22.5H13.125V24.375H11.25V22.5Z" fill="#FBA61F"/>
</g>
<defs>
<clipPath id="clip0">
<rect width="30" height="30" fill="white"/>
</clipPath>
</defs>
</svg>
