<svg width="30" height="21" viewBox="0 0 30 21" fill="none" xmlns="http://www.w3.org/2000/svg">
<path d="M19.6836 0.00466149V0H20.9898L21.4671 0.0885683C21.7853 0.146068 22.0741 0.221421 22.3337 0.31465C22.5933 0.40788 22.8444 0.516656 23.0873 0.640954C23.3301 0.765253 23.5503 0.891906 23.7479 1.02087C23.9438 1.14829 24.1197 1.28347 24.2754 1.42642C24.4294 1.57092 24.6698 1.60821 24.9963 1.53829C25.3229 1.46837 25.6745 1.37125 26.0513 1.24695C26.4281 1.12265 26.8007 0.982805 27.1691 0.827414C27.5375 0.672023 27.762 0.573363 27.8423 0.53141C27.921 0.487918 27.9629 0.46461 27.9679 0.461487L27.9729 0.454495L27.998 0.442841L28.0232 0.431188L28.0483 0.419534L28.0734 0.40788L28.0784 0.400888L28.086 0.396226L28.0935 0.391565L28.0985 0.384573L28.1236 0.37758L28.1488 0.372919L28.1438 0.40788L28.1362 0.442841L28.1236 0.477802L28.1111 0.512764L28.0985 0.536071L28.086 0.559379L28.0734 0.59434C28.065 0.617647 28.0567 0.648716 28.0483 0.687569C28.0399 0.726423 27.9604 0.88179 27.8097 1.15372C27.6589 1.42565 27.4705 1.70144 27.2445 1.98113C27.0184 2.26082 26.8158 2.47213 26.6366 2.61509C26.4558 2.7596 26.336 2.86059 26.2774 2.91809C26.2188 2.97713 26.1476 3.03151 26.0639 3.08124L25.9383 3.15816L25.9132 3.16981L25.888 3.18147L25.883 3.18846L25.8755 3.19312L25.8679 3.19778L25.8629 3.20477L25.8378 3.21643L25.8127 3.22808L25.8077 3.23507L25.8001 3.23973L25.7926 3.2444L25.7876 3.25139L25.7826 3.25838L25.775 3.26304L25.7675 3.2677L25.7624 3.27469H25.888L26.5914 3.13485C27.0603 3.04162 27.5082 2.92898 27.9352 2.79689L28.6135 2.58713L28.6888 2.56382L28.7265 2.55216L28.7516 2.54051L28.7767 2.52886L28.8019 2.5172L28.827 2.50555L28.8772 2.49856L28.9275 2.4939V2.54051L28.9149 2.54517L28.9023 2.55216L28.8973 2.55916L28.8898 2.56382L28.8822 2.56848L28.8772 2.57547L28.8722 2.58246L28.8647 2.58713L28.8571 2.59179L28.8521 2.59878L28.8471 2.60577L28.8395 2.61043L28.827 2.63374L28.8144 2.65705L28.8069 2.66171C28.8035 2.66637 28.6972 2.79843 28.4879 3.05794C28.2786 3.31898 28.1655 3.45104 28.1488 3.45416C28.132 3.45882 28.1086 3.48213 28.0784 3.52408C28.05 3.56758 27.8725 3.74084 27.5459 4.04384C27.2194 4.34684 26.8995 4.61641 26.5864 4.85261C26.2716 5.09034 26.1125 5.38246 26.1091 5.72897C26.1041 6.07392 26.0848 6.46394 26.0513 6.899C26.0178 7.33408 25.955 7.8041 25.8629 8.3091C25.7708 8.8141 25.6285 9.38514 25.4359 10.0222C25.2433 10.6593 25.0089 11.2808 24.7326 11.8868C24.4562 12.4928 24.1674 13.0366 23.8659 13.5183C23.5645 14 23.2882 14.4079 23.037 14.742C22.7858 15.076 22.5305 15.3907 22.2709 15.6859C22.0113 15.9811 21.6831 16.3137 21.2862 16.6835C20.8877 17.0517 20.67 17.2537 20.6331 17.2895C20.5946 17.3236 20.4305 17.4511 20.1408 17.6717C19.8528 17.8939 19.5429 18.1161 19.2114 18.3383C18.8815 18.5589 18.5784 18.7431 18.3021 18.8907C18.0257 19.0383 17.6925 19.2069 17.3023 19.3965C16.9138 19.5876 16.4935 19.7647 16.0413 19.9279C15.5892 20.091 15.1119 20.2425 14.6095 20.3824C14.1072 20.5222 13.6215 20.631 13.1526 20.7087C12.6838 20.7863 12.1521 20.8524 11.5576 20.9068L10.6658 20.9883V21H9.03308V20.9883L8.81957 20.9767C8.67725 20.9689 8.56002 20.9611 8.4679 20.9534C8.37582 20.9456 8.02832 20.9029 7.42546 20.8252C6.8226 20.7475 6.34953 20.6698 6.00623 20.5921C5.66295 20.5144 5.15218 20.3668 4.47396 20.1493C3.79574 19.9318 3.21549 19.7119 2.7332 19.4897C2.2526 19.269 1.95117 19.1292 1.82891 19.0701C1.70834 19.0126 1.5727 18.9412 1.42198 18.8557L1.19591 18.7275L1.19091 18.7205L1.18335 18.7159L1.17581 18.7112L1.17079 18.7042L1.14567 18.6926L1.12055 18.6809L1.11555 18.6739L1.10799 18.6693L1.10046 18.6646L1.09543 18.6576L1.09043 18.6506L1.08287 18.646H1.07031V18.5993L1.09543 18.604L1.12055 18.611L1.23359 18.6226C1.30894 18.6304 1.51409 18.6421 1.84901 18.6576C2.18395 18.6731 2.53978 18.6731 2.91657 18.6576C3.29336 18.6421 3.67853 18.6071 4.07205 18.5527C4.46559 18.4983 4.9303 18.4051 5.46616 18.273C6.00206 18.1409 6.49439 17.984 6.9432 17.8022C7.39032 17.6189 7.70848 17.4821 7.89772 17.392C8.08526 17.3034 8.37162 17.1387 8.75677 16.8979L9.33451 16.5366L9.33954 16.5296L9.34707 16.525L9.35464 16.5203L9.35963 16.5133L9.36466 16.5063L9.37219 16.5017L9.37975 16.497L9.38475 16.49L9.40987 16.483L9.43499 16.4784L9.44002 16.4551L9.44755 16.4317L9.45511 16.4271L9.46011 16.4201L9.25916 16.4084C9.1252 16.4007 8.99541 16.3929 8.86981 16.3851C8.74421 16.3774 8.54746 16.3424 8.27951 16.2802C8.01159 16.2181 7.72272 16.1249 7.4129 16.0006C7.1031 15.8763 6.80167 15.7286 6.50861 15.5577C6.21557 15.3868 6.00371 15.2446 5.8731 15.1312C5.74416 15.0193 5.57669 14.8608 5.37071 14.6557C5.16642 14.4491 4.9889 14.237 4.83819 14.0194C4.68747 13.8019 4.54346 13.5509 4.40616 13.2666L4.19765 12.8424L4.18509 12.8074L4.17253 12.7725L4.16499 12.7492L4.15997 12.7259L4.19765 12.7305L4.23533 12.7375L4.51164 12.7725C4.69586 12.7958 4.98473 12.8035 5.37825 12.7958C5.77179 12.788 6.04391 12.7725 6.19462 12.7492C6.34534 12.7259 6.43745 12.7103 6.47093 12.7026L6.52117 12.6909L6.58397 12.6792L6.64677 12.6676L6.65179 12.6606L6.65932 12.6559L6.66689 12.6513L6.67188 12.6443L6.62165 12.6326L6.57141 12.621L6.52117 12.6093L6.47093 12.5977L6.42069 12.586C6.38721 12.5783 6.32861 12.5627 6.24486 12.5394C6.16114 12.5161 5.93506 12.4306 5.56664 12.283C5.19824 12.1354 4.90518 11.9917 4.68747 11.8518C4.46922 11.7116 4.26113 11.5582 4.06452 11.3927C3.86859 11.2249 3.65342 11.0089 3.41895 10.7447C3.18452 10.4806 2.9752 10.1737 2.79097 9.82408C2.60678 9.47447 2.46862 9.14041 2.37651 8.82187C2.28477 8.5052 2.22424 8.18144 2.19568 7.85461L2.15044 7.36515L2.17556 7.36981L2.20067 7.3768L2.22579 7.38846L2.25091 7.40011L2.27603 7.41177L2.30115 7.42342L2.6905 7.58657C2.95008 7.69535 3.27243 7.78858 3.65759 7.86626C4.04276 7.94394 4.273 7.98669 4.34836 7.99445L4.4614 8.0061H4.68747L4.68247 7.99911L4.67491 7.99445L4.66738 7.98979L4.66235 7.9828L4.65735 7.97581L4.64979 7.97114L4.64226 7.96648L4.63723 7.95949L4.61211 7.94784L4.58699 7.93618L4.582 7.92919L4.57443 7.92453L4.5669 7.91987L4.56188 7.91287L4.53676 7.90122L4.51164 7.88957L4.50664 7.88258C4.50161 7.87945 4.4296 7.82974 4.29059 7.73341C4.15326 7.63552 4.00925 7.50889 3.85854 7.3535C3.70782 7.19811 3.55711 7.03495 3.40639 6.86404C3.2554 6.69274 3.12092 6.50946 3.00449 6.31632C2.88728 6.12209 2.76334 5.87501 2.63272 5.57514C2.50379 5.2768 2.40582 4.97614 2.33883 4.67314C2.27186 4.37014 2.23418 4.07104 2.22579 3.7758C2.21743 3.48057 2.22579 3.22808 2.25091 3.01831C2.27603 2.80855 2.32627 2.57158 2.40163 2.30744C2.47699 2.04329 2.58585 1.7636 2.72818 1.46837L2.94169 1.02553L2.95425 0.990566L2.96681 0.955605L2.97437 0.950943L2.97937 0.943951L2.98439 0.936959L2.99193 0.932297L2.99949 0.936959L3.00449 0.943951L3.00951 0.950943L3.01705 0.955605L3.02461 0.960266L3.02961 0.967259L3.03463 0.974251L3.04217 0.978912L3.05473 1.00222L3.06729 1.02553L3.07485 1.03019L3.07984 1.03718L3.41895 1.38679C3.64503 1.61987 3.91297 1.88014 4.22277 2.16759C4.53259 2.45504 4.70423 2.60421 4.73771 2.61509C4.77122 2.62752 4.81307 2.66325 4.86331 2.72231C4.91354 2.77981 5.08101 2.91732 5.36569 3.13485C5.65039 3.35238 6.02298 3.60489 6.48349 3.89234C6.94403 4.17979 7.45477 4.46337 8.01576 4.74306C8.57677 5.02275 9.17963 5.27524 9.82434 5.50056C10.4691 5.72587 10.9212 5.87347 11.1808 5.9434C11.4404 6.01332 11.8841 6.10266 12.5121 6.21143C13.1401 6.32021 13.6132 6.39013 13.9313 6.4212C14.2495 6.45227 14.4672 6.47014 14.5844 6.47481L14.7603 6.47947L14.7553 6.44451L14.7477 6.40955L14.6975 6.1182C14.664 5.92398 14.6472 5.65205 14.6472 5.30244C14.6472 4.95283 14.6765 4.63042 14.7351 4.33518C14.7938 4.03995 14.8817 3.74084 14.9989 3.43785C15.1161 3.13485 15.2308 2.89166 15.343 2.70832C15.4569 2.52653 15.6059 2.31909 15.7901 2.08602C15.9744 1.85294 16.213 1.61211 16.506 1.36349C16.7991 1.11486 17.134 0.893444 17.5108 0.699223C17.8876 0.505002 18.2351 0.357373 18.5532 0.256382C18.8714 0.155391 19.1394 0.0893374 19.3571 0.0582686C19.5748 0.0271998 19.6836 0.00932297 19.6836 0.00466149Z" fill="white"/>
</svg>
