<svg width="14" height="12" viewBox="0 0 14 12" fill="none" xmlns="http://www.w3.org/2000/svg">
<path d="M13.7496 1.97344C13.2715 2.17969 12.7512 2.32813 12.2152 2.38594C12.7717 2.05537 13.1883 1.53313 13.3871 0.917194C12.865 1.2278 12.293 1.44561 11.6965 1.56094C11.4472 1.29442 11.1457 1.0821 10.8107 0.937206C10.4758 0.792311 10.1146 0.71795 9.74961 0.718756C8.27305 0.718756 7.08555 1.91563 7.08555 3.38438C7.08555 3.59063 7.11055 3.79688 7.15117 3.99532C4.94023 3.87969 2.96836 2.82344 1.65742 1.20626C1.41856 1.61425 1.29338 2.0788 1.29492 2.55157C1.29492 3.47657 1.76523 4.29219 2.48242 4.77188C2.05977 4.75524 1.64702 4.63907 1.27773 4.43282V4.46563C1.27773 5.76094 2.19336 6.83438 3.41367 7.08126C3.18454 7.14077 2.94884 7.17122 2.71211 7.17188C2.53867 7.17188 2.37461 7.15469 2.20898 7.13126C2.54648 8.18751 3.5293 8.95469 4.69961 8.97969C3.78398 9.69688 2.63711 10.1188 1.3918 10.1188C1.16836 10.1188 0.962109 10.1109 0.748047 10.0859C1.9293 10.8438 3.33086 11.2813 4.84023 11.2813C9.74023 11.2813 12.4215 7.22188 12.4215 3.69844C12.4215 3.58282 12.4215 3.46719 12.4137 3.35157C12.9324 2.97188 13.3871 2.50157 13.7496 1.97344Z" fill="#0072B1"/>
</svg>
