<svg width="432" height="301" viewBox="0 0 432 301" fill="none" xmlns="http://www.w3.org/2000/svg">
<g clip-path="url(#clip0)">
<path d="M85.9945 300.5C133.468 300.5 171.954 297.579 171.954 293.975C171.954 290.372 133.468 287.45 85.9945 287.45C38.5204 287.45 0.0351562 290.372 0.0351562 293.975C0.0351562 297.579 38.5204 300.5 85.9945 300.5Z" fill="#E6E6E6"/>
<path d="M65.7422 67.0647C80.7017 60.7055 99.334 64.7346 117.53 67.531C117.7 64.1446 119.752 60.0231 117.602 57.6605C114.99 54.7902 115.231 51.7744 116.802 48.7411C120.822 40.9846 115.063 32.7313 109.249 25.8687C107.938 24.3254 106.282 23.1129 104.414 22.3295C102.547 21.5461 100.521 21.214 98.5009 21.3601L87.7302 22.129C85.1092 22.3162 82.608 23.2988 80.5611 24.9455C78.5142 26.5922 77.0193 28.8244 76.2764 31.3434C73.7046 34.8392 72.3281 38.3254 73.1947 41.7933C69.3425 44.4244 68.6953 47.6004 70.4263 51.1807C71.8942 53.435 71.8785 55.6294 70.3596 57.7631C68.3647 60.4833 66.8368 63.5164 65.8385 66.7381L65.7422 67.0647Z" fill="#2F2E41"/>
<path d="M421.239 259.845H116.346C113.635 259.845 111.035 258.769 109.117 256.852C107.2 254.936 106.123 252.337 106.123 249.628C216.647 236.79 325.093 236.79 431.463 249.628C431.463 252.337 430.386 254.936 428.468 256.852C426.551 258.769 423.951 259.845 421.239 259.845Z" fill="#2F2E41"/>
<path d="M431.463 250.229L106.123 249.628L143.829 186.219L144.009 185.918V46.1724C144.009 44.4762 144.343 42.7965 144.993 41.2294C145.642 39.6623 146.594 38.2384 147.794 37.039C148.994 35.8396 150.419 34.8882 151.987 34.2391C153.555 33.5901 155.235 33.2561 156.933 33.2562H378.849C380.546 33.2561 382.227 33.5901 383.795 34.2391C385.363 34.8882 386.787 35.8396 387.988 37.039C389.188 38.2384 390.14 39.6623 390.789 41.2294C391.438 42.7965 391.773 44.4762 391.772 46.1724V186.88L431.463 250.229Z" fill="#3F3D56"/>
<path d="M156.639 42.2717C155.523 42.273 154.453 42.7166 153.664 43.5054C152.875 44.2941 152.431 45.3635 152.43 46.4789V173.898C152.431 175.013 152.875 176.082 153.664 176.871C154.453 177.66 155.523 178.104 156.639 178.105H380.949C382.065 178.104 383.135 177.66 383.924 176.871C384.713 176.082 385.157 175.013 385.159 173.898V46.4789C385.157 45.3635 384.714 44.2942 383.924 43.5054C383.135 42.7167 382.065 42.273 380.949 42.2717H156.639Z" fill="white"/>
<path d="M157.579 194.934C157.234 194.934 156.896 195.033 156.606 195.219C156.316 195.405 156.084 195.67 155.94 195.983L144.321 221.227C144.195 221.501 144.14 221.803 144.161 222.105C144.182 222.407 144.278 222.698 144.441 222.953C144.604 223.207 144.829 223.417 145.095 223.562C145.36 223.707 145.658 223.783 145.96 223.783H390.287C390.594 223.783 390.897 223.705 391.166 223.555C391.434 223.405 391.66 223.19 391.822 222.928C391.983 222.667 392.075 222.368 392.089 222.061C392.103 221.754 392.038 221.449 391.9 221.174L379.271 195.93C379.123 195.63 378.892 195.378 378.607 195.202C378.322 195.026 377.993 194.933 377.658 194.934H157.579Z" fill="#2F2E41"/>
<path d="M267.892 40.1681C269.386 40.1681 270.598 38.9572 270.598 37.4634C270.598 35.9697 269.386 34.7588 267.892 34.7588C266.397 34.7588 265.186 35.9697 265.186 37.4634C265.186 38.9572 266.397 40.1681 267.892 40.1681Z" fill="white"/>
<path d="M243.877 228.592C243.48 228.592 243.095 228.723 242.78 228.964C242.465 229.205 242.238 229.543 242.135 229.926L239.22 240.744C239.148 241.012 239.139 241.292 239.192 241.563C239.246 241.835 239.362 242.09 239.53 242.31C239.699 242.53 239.915 242.708 240.164 242.83C240.412 242.953 240.685 243.016 240.962 243.016H296.386C296.674 243.016 296.957 242.948 297.213 242.816C297.469 242.684 297.689 242.493 297.856 242.259C298.023 242.025 298.131 241.754 298.172 241.47C298.213 241.185 298.185 240.895 298.091 240.623L294.344 229.805C294.221 229.451 293.991 229.143 293.685 228.926C293.38 228.709 293.014 228.592 292.639 228.592H243.877Z" fill="#2F2E41"/>
<path d="M391.774 183.815V186.219H143.83L144.017 185.918V183.815H391.774Z" fill="#2F2E41"/>
<path d="M384.857 84.6444C408.106 84.6444 426.953 65.8081 426.953 42.5722C426.953 19.3364 408.106 0.5 384.857 0.5C361.609 0.5 342.762 19.3364 342.762 42.5722C342.762 65.8081 361.609 84.6444 384.857 84.6444Z" fill="#0072B1"/>
<path d="M402.298 60.9037H367.419C366.781 60.9031 366.17 60.6496 365.719 60.1989C365.268 59.7481 365.014 59.137 365.014 58.4996V37.4634C365.014 36.826 365.268 36.2149 365.719 35.7642C366.17 35.3135 366.781 35.06 367.419 35.0593H402.298C402.936 35.06 403.548 35.3135 403.999 35.7642C404.45 36.2149 404.703 36.826 404.704 37.4634V58.4996C404.703 59.137 404.45 59.7481 403.999 60.1989C403.548 60.6496 402.936 60.9031 402.298 60.9037ZM367.419 37.4635V58.4996H402.3L402.298 37.4634L367.419 37.4635Z" fill="white"/>
<path d="M395.682 37.4634H374.033V27.8469C374.033 20.8817 378.586 15.8263 384.858 15.8263C391.13 15.8263 395.682 20.8817 395.682 27.8469L395.682 37.4634ZM376.439 35.0593H393.277V27.8469C393.277 22.1849 389.815 18.2304 384.858 18.2304C379.901 18.2304 376.439 22.185 376.439 27.8469L376.439 35.0593Z" fill="white"/>
<path d="M384.857 49.7846C386.185 49.7846 387.262 48.7082 387.262 47.3804C387.262 46.0527 386.185 44.9763 384.857 44.9763C383.528 44.9763 382.451 46.0527 382.451 47.3804C382.451 48.7082 383.528 49.7846 384.857 49.7846Z" fill="white"/>
<path d="M355.471 134.886H182.117C181.265 134.885 180.449 134.546 179.848 133.945C179.246 133.343 178.907 132.528 178.906 131.677V88.6993C178.907 87.8487 179.246 87.0332 179.848 86.4317C180.449 85.8302 181.265 85.4918 182.117 85.4908H355.471C356.322 85.4918 357.138 85.8302 357.74 86.4317C358.342 87.0332 358.681 87.8487 358.682 88.6993V131.677C358.681 132.528 358.342 133.343 357.74 133.945C357.138 134.546 356.322 134.885 355.471 134.886ZM182.117 86.7743C181.606 86.7748 181.116 86.9778 180.755 87.3387C180.394 87.6996 180.191 88.1889 180.19 88.6993V131.677C180.191 132.188 180.394 132.677 180.755 133.038C181.116 133.399 181.606 133.602 182.117 133.602H355.471C355.982 133.602 356.472 133.399 356.833 133.038C357.194 132.677 357.397 132.188 357.397 131.677V88.6993C357.397 88.1889 357.194 87.6996 356.833 87.3387C356.472 86.9778 355.982 86.7748 355.471 86.7742L182.117 86.7743Z" fill="#E6E6E6"/>
<path d="M209.052 121.609C216.274 121.609 222.128 115.757 222.128 108.539C222.128 101.321 216.274 95.4695 209.052 95.4695C201.829 95.4695 195.975 101.321 195.975 108.539C195.975 115.757 201.829 121.609 209.052 121.609Z" fill="#E6E6E6"/>
<path d="M239.253 99.8262C238.967 99.8257 238.683 99.8817 238.418 99.991C238.153 100.1 237.913 100.261 237.71 100.463C237.507 100.665 237.346 100.906 237.237 101.17C237.127 101.435 237.07 101.718 237.07 102.004C237.07 102.291 237.127 102.574 237.237 102.839C237.346 103.103 237.507 103.344 237.71 103.546C237.913 103.748 238.153 103.909 238.418 104.018C238.683 104.127 238.967 104.183 239.253 104.183H342.001C342.579 104.183 343.133 103.953 343.542 103.545C343.95 103.136 344.18 102.582 344.18 102.004C344.18 101.427 343.95 100.873 343.542 100.464C343.133 100.056 342.579 99.8262 342.001 99.8262H239.253Z" fill="#E6E6E6"/>
<path d="M239.254 112.896C238.676 112.896 238.121 113.125 237.713 113.534C237.304 113.942 237.074 114.496 237.074 115.074C237.074 115.652 237.304 116.206 237.713 116.614C238.121 117.023 238.676 117.252 239.254 117.252H283.466C284.044 117.252 284.599 117.023 285.007 116.614C285.416 116.206 285.646 115.652 285.646 115.074C285.646 114.496 285.416 113.942 285.007 113.534C284.599 113.125 284.044 112.896 283.466 112.896H239.254Z" fill="#E6E6E6"/>
<path d="M143.403 113.777L111.357 130.805L110.951 116.615C121.411 114.87 131.362 111.831 140.563 106.885L143.915 98.609C144.28 97.7072 144.874 96.9158 145.637 96.3126C146.401 95.7093 147.308 95.3149 148.271 95.1681C149.233 95.0212 150.217 95.1269 151.126 95.4749C152.035 95.8229 152.838 96.4012 153.455 97.1529C154.359 98.2528 154.811 99.6549 154.72 101.075C154.628 102.496 153.999 103.828 152.961 104.803L143.403 113.777Z" fill="#FFB8B8"/>
<path d="M65.1026 212.088C64.8688 211.231 64.8192 210.335 64.957 209.457C65.0948 208.58 65.4168 207.741 65.902 206.997L72.9416 196.2C74.6066 193.646 77.1615 191.801 80.1104 191.023C83.0594 190.246 86.1923 190.591 88.9012 191.991C85.9426 197.024 86.3551 201.44 89.9229 205.277C84.3843 207.979 79.2652 211.467 74.7244 215.632C73.8955 216.197 72.9435 216.556 71.9477 216.679C70.952 216.801 69.9413 216.684 69 216.338C68.0586 215.991 67.2138 215.424 66.5359 214.685C65.8579 213.946 65.3665 213.056 65.1026 212.088Z" fill="#2F2E41"/>
<path d="M144.862 197.97C143.797 199.745 142.293 201.216 140.495 202.242C138.697 203.268 136.666 203.816 134.595 203.831L87.829 204.185L85.8008 192.428L106.489 186.347L89.0459 172.968L108.111 150.67L142.74 182.927C144.764 184.813 146.079 187.335 146.465 190.073C146.851 192.812 146.285 195.599 144.862 197.97Z" fill="#2F2E41"/>
<path d="M80.5287 278.377H69.5762C59.7425 211.009 49.7328 143.452 79.3117 118.237L114.197 123.912L109.735 153.508L90.2641 175.806L80.5287 278.377Z" fill="#2F2E41"/>
<path d="M90.1567 293.638C89.2993 293.872 88.4021 293.921 87.5241 293.784C86.6462 293.646 85.8073 293.324 85.0627 292.839L73.1706 291.242C70.6152 289.578 68.7694 287.025 67.9912 284.077C67.213 281.13 67.558 277.999 68.9592 275.292C73.9953 278.248 78.4131 277.836 82.2521 274.27C84.9647 279.744 89.434 279.41 93.7024 284.022C94.2676 284.85 94.6265 285.801 94.7493 286.797C94.8721 287.792 94.7551 288.802 94.4082 289.743C94.0613 290.684 93.4945 291.528 92.755 292.206C92.0154 292.883 91.1246 293.374 90.1567 293.638Z" fill="#2F2E41"/>
<path d="M106.489 73.235L86.207 68.37C89.5756 61.4787 89.853 53.8106 88.2352 45.6665L102.027 45.2611C102.459 55.3885 103.767 64.8501 106.489 73.235Z" fill="#FFB8B8"/>
<path d="M112.063 136.119C97.2987 146.175 86.8663 136.463 78.9052 121.48C80.0115 112.311 78.2203 101.339 74.9028 89.4173C73.4275 84.1589 73.9783 78.5387 76.4466 73.6664C78.9148 68.794 83.1211 65.0236 88.2351 63.0995L105.678 70.3971C120.489 82.4629 123.404 95.5326 117.847 109.317L112.063 136.119Z" fill="#0072B1"/>
<path d="M69.5757 83.3705L53.3499 91.8843L82.1507 108.912L86.1581 118.791C86.4256 119.451 86.5559 120.158 86.5411 120.869C86.5263 121.58 86.3667 122.281 86.0719 122.929C85.7772 123.577 85.3536 124.158 84.827 124.637C84.3003 125.115 83.6816 125.482 83.0085 125.714C82.2435 125.977 81.4277 126.06 80.6251 125.956C79.8226 125.852 79.055 125.564 78.3826 125.114C77.7101 124.664 77.151 124.065 76.749 123.363C76.3471 122.661 76.1132 121.875 76.0656 121.068L75.6604 114.182L39.0549 102.109C37.8216 101.702 36.697 101.021 35.7664 100.115C34.8359 99.2096 34.1236 98.1044 33.6837 96.8831C33.0425 95.1028 33.0098 93.1604 33.5909 91.3597C34.172 89.5589 35.3339 88.0015 36.895 86.9312L66.3305 66.7483L69.5757 83.3705Z" fill="#FFB8B8"/>
<path d="M85.8013 84.9921C79.0341 82.0281 72.8806 85.2479 65.1134 87.8301L63.8965 66.3428C71.6089 62.2345 78.9623 61.1268 85.8013 64.3158L85.8013 84.9921Z" fill="#0072B1"/>
<path d="M93.8967 55.9045C101.048 55.9045 106.846 50.11 106.846 42.9622C106.846 35.8144 101.048 30.02 93.8967 30.02C86.7449 30.02 80.9473 35.8144 80.9473 42.9622C80.9473 50.11 86.7449 55.9045 93.8967 55.9045Z" fill="#FFB8B8"/>
<path d="M109.389 41.3292C96.568 42.5842 86.7985 40.4885 80.5547 34.5215V29.7161H108.301L109.389 41.3292Z" fill="#2F2E41"/>
</g>
<defs>
<clipPath id="clip0">
<rect width="431.429" height="300" fill="white" transform="translate(0.0351562 0.5)"/>
</clipPath>
</defs>
</svg>
