<svg width="34" height="21" viewBox="0 0 34 21" fill="none" xmlns="http://www.w3.org/2000/svg">
<path d="M17.7533 20.9725L10.7778 20.8586C8.51926 20.8189 6.25513 20.8981 4.04091 20.4869C0.672568 19.8725 0.433942 16.8599 0.184246 14.3329C-0.15981 10.7803 -0.0266157 7.16314 0.622662 3.64016C0.989201 1.6634 2.43168 0.483853 4.66243 0.355495C12.1928 -0.110332 19.7733 -0.0551262 27.287 0.162199C28.0806 0.182122 28.8795 0.291012 29.662 0.414959C33.5245 1.01948 33.6187 4.43342 33.869 7.30731C34.1187 10.2109 34.0133 13.1293 33.5361 16.0131C33.1532 18.4008 32.4206 20.4031 29.329 20.5964C25.4555 20.8491 21.6709 21.0526 17.7865 20.9878C17.7866 20.9725 17.7643 20.9725 17.7533 20.9725ZM13.6523 14.9275C16.5714 13.431 19.4347 11.9595 22.337 10.4731C19.4126 8.97657 16.5547 7.50502 13.6523 6.01857V14.9275Z" fill="white"/>
</svg>
